<?xml version="1.0" encoding="UTF-8" standalone="no"?>
<!DOCTYPE svg PUBLIC "-//W3C//DTD SVG 1.1//EN"
 "http://www.w3.org/Graphics/SVG/1.1/DTD/svg11.dtd">
<!-- Generated by graphviz version 2.44.0 (0)
 -->
<!-- Title: openmq Pages: 1 -->
<svg width="337pt" height="314pt"
 viewBox="0.00 0.00 337.00 314.00" xmlns="http://www.w3.org/2000/svg" xmlns:xlink="http://www.w3.org/1999/xlink">
<g id="graph0" class="graph" transform="scale(1 1) rotate(0) translate(4 310)">
<title>openmq</title>
<polygon fill="white" stroke="transparent" points="-4,4 -4,-310 333,-310 333,4 -4,4"/>
<!-- org.glassfish.mq:mq&#45;docs -->
<g id="node1" class="node">
<title>org.glassfish.mq:mq&#45;docs</title>
<polygon fill="wheat" stroke="black" points="210,-171 136,-171 136,-135 210,-135 210,-171"/>
<text text-anchor="middle" x="173" y="-155.6" font-family="Helvetica" font-size="8.00">mq&#45;docs</text>
<text text-anchor="middle" x="173" y="-146.6" font-family="Helvetica" font-size="8.00">org.glassfish.mq</text>
</g>
<!-- org.glassfish.mq:project -->
<g id="node2" class="node">
<title>org.glassfish.mq:project</title>
<polygon fill="lightgrey" stroke="black" points="100,-171 0,-171 0,-135 100,-135 100,-171"/>
<text text-anchor="middle" x="50" y="-151.1" font-family="Helvetica" font-size="8.00">org.glassfish.mq:project</text>
</g>
<!-- org.glassfish.mq:mq&#45;docs&#45;&gt;org.glassfish.mq:project -->
<g id="edge1" class="edge">
<title>org.glassfish.mq:mq&#45;docs&#45;&gt;org.glassfish.mq:project</title>
<path fill="none" stroke="black" d="M135.7,-153C127.69,-153 119.01,-153 110.36,-153"/>
<polygon fill="black" stroke="black" points="110.26,-149.5 100.26,-153 110.26,-156.5 110.26,-149.5"/>
</g>
<!-- org.glassfish:mq&#45;dev&#45;guide&#45;jmx -->
<g id="node3" class="node">
<title>org.glassfish:mq&#45;dev&#45;guide&#45;jmx</title>
<polygon fill="lightgrey" stroke="black" points="328,-306 247,-306 247,-270 328,-270 328,-306"/>
<text text-anchor="middle" x="287.5" y="-290.6" font-family="Helvetica" font-size="8.00">mq&#45;dev&#45;guide&#45;jmx</text>
<text text-anchor="middle" x="287.5" y="-281.6" font-family="Helvetica" font-size="8.00">org.glassfish</text>
</g>
<!-- org.glassfish:mq&#45;dev&#45;guide&#45;jmx&#45;&gt;org.glassfish.mq:mq&#45;docs -->
<g id="edge2" class="edge">
<title>org.glassfish:mq&#45;dev&#45;guide&#45;jmx&#45;&gt;org.glassfish.mq:mq&#45;docs</title>
<path fill="none" stroke="black" d="M256.25,-269.81C252.62,-267.07 249.11,-264.11 246,-261 221.77,-236.77 200.92,-203.22 187.99,-179.98"/>
<polygon fill="black" stroke="black" points="190.96,-178.11 183.1,-171 184.81,-181.46 190.96,-178.11"/>
</g>
<!-- org.glassfish:mq&#45;admin&#45;guide -->
<g id="node4" class="node">
<title>org.glassfish:mq&#45;admin&#45;guide</title>
<polygon fill="lightgrey" stroke="black" points="324.5,-252 250.5,-252 250.5,-216 324.5,-216 324.5,-252"/>
<text text-anchor="middle" x="287.5" y="-236.6" font-family="Helvetica" font-size="8.00">mq&#45;admin&#45;guide</text>
<text text-anchor="middle" x="287.5" y="-227.6" font-family="Helvetica" font-size="8.00">org.glassfish</text>
</g>
<!-- org.glassfish:mq&#45;admin&#45;guide&#45;&gt;org.glassfish.mq:mq&#45;docs -->
<g id="edge3" class="edge">
<title>org.glassfish:mq&#45;admin&#45;guide&#45;&gt;org.glassfish.mq:mq&#45;docs</title>
<path fill="none" stroke="black" d="M258.91,-215.9C254.56,-212.97 250.14,-209.93 246,-207 232.63,-197.54 218.14,-186.78 205.69,-177.36"/>
<polygon fill="black" stroke="black" points="207.51,-174.35 197.43,-171.09 203.28,-179.92 207.51,-174.35"/>
</g>
<!-- org.glassfish:mq&#45;dev&#45;guide&#45;c -->
<g id="node5" class="node">
<title>org.glassfish:mq&#45;dev&#45;guide&#45;c</title>
<polygon fill="lightgrey" stroke="black" points="324,-198 251,-198 251,-162 324,-162 324,-198"/>
<text text-anchor="middle" x="287.5" y="-182.6" font-family="Helvetica" font-size="8.00">mq&#45;dev&#45;guide&#45;c</text>
<text text-anchor="middle" x="287.5" y="-173.6" font-family="Helvetica" font-size="8.00">org.glassfish</text>
</g>
<!-- org.glassfish:mq&#45;dev&#45;guide&#45;c&#45;&gt;org.glassfish.mq:mq&#45;docs -->
<g id="edge4" class="edge">
<title>org.glassfish:mq&#45;dev&#45;guide&#45;c&#45;&gt;org.glassfish.mq:mq&#45;docs</title>
<path fill="none" stroke="black" d="M250.9,-171.46C241.05,-169.09 230.21,-166.49 219.86,-164.01"/>
<polygon fill="black" stroke="black" points="220.68,-160.6 210.14,-161.67 219.04,-167.41 220.68,-160.6"/>
</g>
<!-- org.glassfish:mq&#45;release&#45;notes -->
<g id="node6" class="node">
<title>org.glassfish:mq&#45;release&#45;notes</title>
<polygon fill="lightgrey" stroke="black" points="327,-144 248,-144 248,-108 327,-108 327,-144"/>
<text text-anchor="middle" x="287.5" y="-128.6" font-family="Helvetica" font-size="8.00">mq&#45;release&#45;notes</text>
<text text-anchor="middle" x="287.5" y="-119.6" font-family="Helvetica" font-size="8.00">org.glassfish</text>
</g>
<!-- org.glassfish:mq&#45;release&#45;notes&#45;&gt;org.glassfish.mq:mq&#45;docs -->
<g id="edge5" class="edge">
<title>org.glassfish:mq&#45;release&#45;notes&#45;&gt;org.glassfish.mq:mq&#45;docs</title>
<path fill="none" stroke="black" d="M247.78,-135.29C238.82,-137.44 229.2,-139.75 219.96,-141.97"/>
<polygon fill="black" stroke="black" points="219.04,-138.59 210.14,-144.33 220.68,-145.4 219.04,-138.59"/>
</g>
<!-- org.glassfish:mq&#45;dev&#45;guide&#45;java -->
<g id="node7" class="node">
<title>org.glassfish:mq&#45;dev&#45;guide&#45;java</title>
<polygon fill="lightgrey" stroke="black" points="329,-90 246,-90 246,-54 329,-54 329,-90"/>
<text text-anchor="middle" x="287.5" y="-74.6" font-family="Helvetica" font-size="8.00">mq&#45;dev&#45;guide&#45;java</text>
<text text-anchor="middle" x="287.5" y="-65.6" font-family="Helvetica" font-size="8.00">org.glassfish</text>
</g>
<!-- org.glassfish:mq&#45;dev&#45;guide&#45;java&#45;&gt;org.glassfish.mq:mq&#45;docs -->
<g id="edge6" class="edge">
<title>org.glassfish:mq&#45;dev&#45;guide&#45;java&#45;&gt;org.glassfish.mq:mq&#45;docs</title>
<path fill="none" stroke="black" d="M258.91,-90.1C254.56,-93.03 250.14,-96.07 246,-99 232.63,-108.46 218.14,-119.22 205.69,-128.64"/>
<polygon fill="black" stroke="black" points="203.28,-126.08 197.43,-134.91 207.51,-131.65 203.28,-126.08"/>
</g>
<!-- org.glassfish:mq&#45;tech&#45;over -->
<g id="node8" class="node">
<title>org.glassfish:mq&#45;tech&#45;over</title>
<polygon fill="lightgrey" stroke="black" points="320,-36 255,-36 255,0 320,0 320,-36"/>
<text text-anchor="middle" x="287.5" y="-20.6" font-family="Helvetica" font-size="8.00">mq&#45;tech&#45;over</text>
<text text-anchor="middle" x="287.5" y="-11.6" font-family="Helvetica" font-size="8.00">org.glassfish</text>
</g>
<!-- org.glassfish:mq&#45;tech&#45;over&#45;&gt;org.glassfish.mq:mq&#45;docs -->
<g id="edge7" class="edge">
<title>org.glassfish:mq&#45;tech&#45;over&#45;&gt;org.glassfish.mq:mq&#45;docs</title>
<path fill="none" stroke="black" d="M256.25,-36.19C252.62,-38.93 249.11,-41.89 246,-45 221.77,-69.23 200.92,-102.78 187.99,-126.02"/>
<polygon fill="black" stroke="black" points="184.81,-124.54 183.1,-135 190.96,-127.89 184.81,-124.54"/>
</g>
</g>
</svg>
