<?xml version="1.0" encoding="UTF-8" standalone="no"?>
<!DOCTYPE svg PUBLIC "-//W3C//DTD SVG 1.1//EN"
 "http://www.w3.org/Graphics/SVG/1.1/DTD/svg11.dtd">
<!-- Generated by graphviz version 2.44.0 (0)
 -->
<!-- Title: csi Pages: 1 -->
<svg width="91pt" height="368pt"
 viewBox="0.00 0.00 91.00 368.00" xmlns="http://www.w3.org/2000/svg" xmlns:xlink="http://www.w3.org/1999/xlink">
<g id="graph0" class="graph" transform="scale(1 1) rotate(0) translate(4 364)">
<title>csi</title>
<polygon fill="white" stroke="transparent" points="-4,4 -4,-364 87,-364 87,4 -4,4"/>
<!-- org.glassfish:mq&#45;dev&#45;guide&#45;jmx -->
<g id="node1" class="node">
<title>org.glassfish:mq&#45;dev&#45;guide&#45;jmx</title>
<polygon fill="lightgrey" stroke="black" points="82,-36 1,-36 1,0 82,0 82,-36"/>
<text text-anchor="middle" x="41.5" y="-20.6" font-family="Helvetica" font-size="8.00">mq&#45;dev&#45;guide&#45;jmx</text>
<text text-anchor="middle" x="41.5" y="-11.6" font-family="Helvetica" font-size="8.00">org.glassfish</text>
</g>
<!-- org.glassfish:mq&#45;admin&#45;guide -->
<g id="node2" class="node">
<title>org.glassfish:mq&#45;admin&#45;guide</title>
<polygon fill="lightgrey" stroke="black" points="78.5,-90 4.5,-90 4.5,-54 78.5,-54 78.5,-90"/>
<text text-anchor="middle" x="41.5" y="-74.6" font-family="Helvetica" font-size="8.00">mq&#45;admin&#45;guide</text>
<text text-anchor="middle" x="41.5" y="-65.6" font-family="Helvetica" font-size="8.00">org.glassfish</text>
</g>
<!-- org.glassfish:mq&#45;dev&#45;guide&#45;c -->
<g id="node3" class="node">
<title>org.glassfish:mq&#45;dev&#45;guide&#45;c</title>
<polygon fill="lightgrey" stroke="black" points="78,-144 5,-144 5,-108 78,-108 78,-144"/>
<text text-anchor="middle" x="41.5" y="-128.6" font-family="Helvetica" font-size="8.00">mq&#45;dev&#45;guide&#45;c</text>
<text text-anchor="middle" x="41.5" y="-119.6" font-family="Helvetica" font-size="8.00">org.glassfish</text>
</g>
<!-- org.glassfish:mq&#45;release&#45;notes -->
<g id="node4" class="node">
<title>org.glassfish:mq&#45;release&#45;notes</title>
<polygon fill="lightgrey" stroke="black" points="81,-198 2,-198 2,-162 81,-162 81,-198"/>
<text text-anchor="middle" x="41.5" y="-182.6" font-family="Helvetica" font-size="8.00">mq&#45;release&#45;notes</text>
<text text-anchor="middle" x="41.5" y="-173.6" font-family="Helvetica" font-size="8.00">org.glassfish</text>
</g>
<!-- org.glassfish:mq&#45;dev&#45;guide&#45;java -->
<g id="node5" class="node">
<title>org.glassfish:mq&#45;dev&#45;guide&#45;java</title>
<polygon fill="lightgrey" stroke="black" points="83,-252 0,-252 0,-216 83,-216 83,-252"/>
<text text-anchor="middle" x="41.5" y="-236.6" font-family="Helvetica" font-size="8.00">mq&#45;dev&#45;guide&#45;java</text>
<text text-anchor="middle" x="41.5" y="-227.6" font-family="Helvetica" font-size="8.00">org.glassfish</text>
</g>
<!-- org.glassfish:mq&#45;tech&#45;over -->
<g id="node6" class="node">
<title>org.glassfish:mq&#45;tech&#45;over</title>
<polygon fill="lightgrey" stroke="black" points="74,-306 9,-306 9,-270 74,-270 74,-306"/>
<text text-anchor="middle" x="41.5" y="-290.6" font-family="Helvetica" font-size="8.00">mq&#45;tech&#45;over</text>
<text text-anchor="middle" x="41.5" y="-281.6" font-family="Helvetica" font-size="8.00">org.glassfish</text>
</g>
<!-- org.glassfish.mq:mq&#45;docs -->
<g id="node7" class="node">
<title>org.glassfish.mq:mq&#45;docs</title>
<polygon fill="wheat" stroke="black" points="78.5,-360 4.5,-360 4.5,-324 78.5,-324 78.5,-360"/>
<text text-anchor="middle" x="41.5" y="-344.6" font-family="Helvetica" font-size="8.00">mq&#45;docs</text>
<text text-anchor="middle" x="41.5" y="-335.6" font-family="Helvetica" font-size="8.00">org.glassfish.mq</text>
</g>
</g>
</svg>
