<?xml version="1.0" encoding="UTF-8" standalone="no"?>
<!DOCTYPE svg PUBLIC "-//W3C//DTD SVG 1.1//EN"
 "http://www.w3.org/Graphics/SVG/1.1/DTD/svg11.dtd">
<!-- Generated by graphviz version 2.44.0 (0)
 -->
<!-- Title: csi Pages: 1 -->
<svg width="201pt" height="314pt"
 viewBox="0.00 0.00 201.00 314.00" xmlns="http://www.w3.org/2000/svg" xmlns:xlink="http://www.w3.org/1999/xlink">
<g id="graph0" class="graph" transform="scale(1 1) rotate(0) translate(4 310)">
<title>csi</title>
<polygon fill="white" stroke="transparent" points="-4,4 -4,-310 197,-310 197,4 -4,4"/>
<!-- org.glassfish.mq:mq&#45;docs -->
<g id="node1" class="node">
<title>org.glassfish.mq:mq&#45;docs</title>
<polygon fill="wheat" stroke="black" points="74,-171 0,-171 0,-135 74,-135 74,-171"/>
<text text-anchor="middle" x="37" y="-155.6" font-family="Helvetica" font-size="8.00">mq&#45;docs</text>
<text text-anchor="middle" x="37" y="-146.6" font-family="Helvetica" font-size="8.00">org.glassfish.mq</text>
</g>
<!-- org.glassfish:mq&#45;dev&#45;guide&#45;jmx -->
<g id="node2" class="node">
<title>org.glassfish:mq&#45;dev&#45;guide&#45;jmx</title>
<polygon fill="lightgrey" stroke="black" points="192,-306 111,-306 111,-270 192,-270 192,-306"/>
<text text-anchor="middle" x="151.5" y="-290.6" font-family="Helvetica" font-size="8.00">mq&#45;dev&#45;guide&#45;jmx</text>
<text text-anchor="middle" x="151.5" y="-281.6" font-family="Helvetica" font-size="8.00">org.glassfish</text>
</g>
<!-- org.glassfish:mq&#45;dev&#45;guide&#45;jmx&#45;&gt;org.glassfish.mq:mq&#45;docs -->
<g id="edge1" class="edge">
<title>org.glassfish:mq&#45;dev&#45;guide&#45;jmx&#45;&gt;org.glassfish.mq:mq&#45;docs</title>
<path fill="none" stroke="black" d="M120.25,-269.81C116.62,-267.07 113.11,-264.11 110,-261 85.77,-236.77 64.92,-203.22 51.99,-179.98"/>
<polygon fill="black" stroke="black" points="54.96,-178.11 47.1,-171 48.81,-181.46 54.96,-178.11"/>
</g>
<!-- org.glassfish:mq&#45;admin&#45;guide -->
<g id="node3" class="node">
<title>org.glassfish:mq&#45;admin&#45;guide</title>
<polygon fill="lightgrey" stroke="black" points="188.5,-252 114.5,-252 114.5,-216 188.5,-216 188.5,-252"/>
<text text-anchor="middle" x="151.5" y="-236.6" font-family="Helvetica" font-size="8.00">mq&#45;admin&#45;guide</text>
<text text-anchor="middle" x="151.5" y="-227.6" font-family="Helvetica" font-size="8.00">org.glassfish</text>
</g>
<!-- org.glassfish:mq&#45;admin&#45;guide&#45;&gt;org.glassfish.mq:mq&#45;docs -->
<g id="edge2" class="edge">
<title>org.glassfish:mq&#45;admin&#45;guide&#45;&gt;org.glassfish.mq:mq&#45;docs</title>
<path fill="none" stroke="black" d="M122.91,-215.9C118.56,-212.97 114.14,-209.93 110,-207 96.63,-197.54 82.14,-186.78 69.69,-177.36"/>
<polygon fill="black" stroke="black" points="71.51,-174.35 61.43,-171.09 67.28,-179.92 71.51,-174.35"/>
</g>
<!-- org.glassfish:mq&#45;dev&#45;guide&#45;c -->
<g id="node4" class="node">
<title>org.glassfish:mq&#45;dev&#45;guide&#45;c</title>
<polygon fill="lightgrey" stroke="black" points="188,-198 115,-198 115,-162 188,-162 188,-198"/>
<text text-anchor="middle" x="151.5" y="-182.6" font-family="Helvetica" font-size="8.00">mq&#45;dev&#45;guide&#45;c</text>
<text text-anchor="middle" x="151.5" y="-173.6" font-family="Helvetica" font-size="8.00">org.glassfish</text>
</g>
<!-- org.glassfish:mq&#45;dev&#45;guide&#45;c&#45;&gt;org.glassfish.mq:mq&#45;docs -->
<g id="edge3" class="edge">
<title>org.glassfish:mq&#45;dev&#45;guide&#45;c&#45;&gt;org.glassfish.mq:mq&#45;docs</title>
<path fill="none" stroke="black" d="M114.9,-171.46C105.05,-169.09 94.21,-166.49 83.86,-164.01"/>
<polygon fill="black" stroke="black" points="84.68,-160.6 74.14,-161.67 83.04,-167.41 84.68,-160.6"/>
</g>
<!-- org.glassfish:mq&#45;release&#45;notes -->
<g id="node5" class="node">
<title>org.glassfish:mq&#45;release&#45;notes</title>
<polygon fill="lightgrey" stroke="black" points="191,-144 112,-144 112,-108 191,-108 191,-144"/>
<text text-anchor="middle" x="151.5" y="-128.6" font-family="Helvetica" font-size="8.00">mq&#45;release&#45;notes</text>
<text text-anchor="middle" x="151.5" y="-119.6" font-family="Helvetica" font-size="8.00">org.glassfish</text>
</g>
<!-- org.glassfish:mq&#45;release&#45;notes&#45;&gt;org.glassfish.mq:mq&#45;docs -->
<g id="edge4" class="edge">
<title>org.glassfish:mq&#45;release&#45;notes&#45;&gt;org.glassfish.mq:mq&#45;docs</title>
<path fill="none" stroke="black" d="M111.78,-135.29C102.82,-137.44 93.2,-139.75 83.96,-141.97"/>
<polygon fill="black" stroke="black" points="83.04,-138.59 74.14,-144.33 84.68,-145.4 83.04,-138.59"/>
</g>
<!-- org.glassfish:mq&#45;dev&#45;guide&#45;java -->
<g id="node6" class="node">
<title>org.glassfish:mq&#45;dev&#45;guide&#45;java</title>
<polygon fill="lightgrey" stroke="black" points="193,-90 110,-90 110,-54 193,-54 193,-90"/>
<text text-anchor="middle" x="151.5" y="-74.6" font-family="Helvetica" font-size="8.00">mq&#45;dev&#45;guide&#45;java</text>
<text text-anchor="middle" x="151.5" y="-65.6" font-family="Helvetica" font-size="8.00">org.glassfish</text>
</g>
<!-- org.glassfish:mq&#45;dev&#45;guide&#45;java&#45;&gt;org.glassfish.mq:mq&#45;docs -->
<g id="edge5" class="edge">
<title>org.glassfish:mq&#45;dev&#45;guide&#45;java&#45;&gt;org.glassfish.mq:mq&#45;docs</title>
<path fill="none" stroke="black" d="M122.91,-90.1C118.56,-93.03 114.14,-96.07 110,-99 96.63,-108.46 82.14,-119.22 69.69,-128.64"/>
<polygon fill="black" stroke="black" points="67.28,-126.08 61.43,-134.91 71.51,-131.65 67.28,-126.08"/>
</g>
<!-- org.glassfish:mq&#45;tech&#45;over -->
<g id="node7" class="node">
<title>org.glassfish:mq&#45;tech&#45;over</title>
<polygon fill="lightgrey" stroke="black" points="184,-36 119,-36 119,0 184,0 184,-36"/>
<text text-anchor="middle" x="151.5" y="-20.6" font-family="Helvetica" font-size="8.00">mq&#45;tech&#45;over</text>
<text text-anchor="middle" x="151.5" y="-11.6" font-family="Helvetica" font-size="8.00">org.glassfish</text>
</g>
<!-- org.glassfish:mq&#45;tech&#45;over&#45;&gt;org.glassfish.mq:mq&#45;docs -->
<g id="edge6" class="edge">
<title>org.glassfish:mq&#45;tech&#45;over&#45;&gt;org.glassfish.mq:mq&#45;docs</title>
<path fill="none" stroke="black" d="M120.25,-36.19C116.62,-38.93 113.11,-41.89 110,-45 85.77,-69.23 64.92,-102.78 51.99,-126.02"/>
<polygon fill="black" stroke="black" points="48.81,-124.54 47.1,-135 54.96,-127.89 48.81,-124.54"/>
</g>
</g>
</svg>
