<?xml version="1.0" encoding="UTF-8" standalone="no"?>
<!DOCTYPE svg PUBLIC "-//W3C//DTD SVG 1.1//EN"
 "http://www.w3.org/Graphics/SVG/1.1/DTD/svg11.dtd">
<!-- Generated by graphviz version 8.1.0 (20230707.0739)
 -->
<!-- Title: openmq Pages: 1 -->
<svg width="821pt" height="1313pt"
 viewBox="0.00 0.00 821.00 1313.00" xmlns="http://www.w3.org/2000/svg" xmlns:xlink="http://www.w3.org/1999/xlink">
<g id="graph0" class="graph" transform="scale(1 1) rotate(0) translate(4 1309)">
<title>openmq</title>
<polygon fill="white" stroke="none" points="-4,4 -4,-1309 817,-1309 817,4 -4,4"/>
<!-- org.glassfish.mq:project -->
<g id="node1" class="node">
<title>org.glassfish.mq:project</title>
<polygon fill="wheat" stroke="black" points="231.5,-846 148,-846 148,-810 231.5,-810 231.5,-846"/>
<text text-anchor="middle" x="189.75" y="-830.15" font-family="Helvetica,sans-Serif" font-size="8.00">project</text>
<text text-anchor="middle" x="189.75" y="-820.4" font-family="Helvetica,sans-Serif" font-size="8.00">org.glassfish.mq</text>
</g>
<!-- org.eclipse.ee4j:project -->
<g id="node2" class="node">
<title>org.eclipse.ee4j:project</title>
<polygon fill="lightgrey" stroke="black" points="112,-873 0,-873 0,-837 112,-837 112,-873"/>
<text text-anchor="middle" x="56" y="-852.27" font-family="Helvetica,sans-Serif" font-size="8.00">org.eclipse.ee4j:project</text>
</g>
<!-- org.glassfish.mq:project&#45;&gt;org.eclipse.ee4j:project -->
<g id="edge1" class="edge">
<title>org.glassfish.mq:project&#45;&gt;org.eclipse.ee4j:project</title>
<path fill="none" stroke="black" d="M147.79,-836.39C139.92,-838.01 131.51,-839.73 123.09,-841.46"/>
<polygon fill="black" stroke="black" points="122.56,-838.2 113.46,-843.63 123.96,-845.05 122.56,-838.2"/>
</g>
<!-- org.glassfish.mq:mq&#45;docs -->
<g id="node3" class="node">
<title>org.glassfish.mq:mq&#45;docs</title>
<polygon fill="wheat" stroke="black" points="351,-1143 267.5,-1143 267.5,-1107 351,-1107 351,-1143"/>
<text text-anchor="middle" x="309.25" y="-1127.15" font-family="Helvetica,sans-Serif" font-size="8.00">mq&#45;docs</text>
<text text-anchor="middle" x="309.25" y="-1117.4" font-family="Helvetica,sans-Serif" font-size="8.00">org.glassfish.mq</text>
</g>
<!-- org.glassfish.mq:mq&#45;docs&#45;&gt;org.glassfish.mq:project -->
<g id="edge2" class="edge">
<title>org.glassfish.mq:mq&#45;docs&#45;&gt;org.glassfish.mq:project</title>
<path fill="none" stroke="black" d="M307.35,-1106.72C304.21,-1060.27 290.46,-935.65 231.5,-855 231.28,-854.7 231.06,-854.41 230.84,-854.12"/>
<polygon fill="black" stroke="black" points="233.82,-852.13 224.37,-847.34 228.77,-856.98 233.82,-852.13"/>
</g>
<!-- org.glassfish.mq:mq&#45;dev&#45;guide&#45;jmx -->
<g id="node4" class="node">
<title>org.glassfish.mq:mq&#45;dev&#45;guide&#45;jmx</title>
<polygon fill="lightgrey" stroke="black" points="492.62,-1305 402.38,-1305 402.38,-1269 492.62,-1269 492.62,-1305"/>
<text text-anchor="middle" x="447.5" y="-1289.15" font-family="Helvetica,sans-Serif" font-size="8.00">mq&#45;dev&#45;guide&#45;jmx</text>
<text text-anchor="middle" x="447.5" y="-1279.4" font-family="Helvetica,sans-Serif" font-size="8.00">org.glassfish.mq</text>
</g>
<!-- org.glassfish.mq:mq&#45;dev&#45;guide&#45;jmx&#45;&gt;org.glassfish.mq:mq&#45;docs -->
<g id="edge3" class="edge">
<title>org.glassfish.mq:mq&#45;dev&#45;guide&#45;jmx&#45;&gt;org.glassfish.mq:mq&#45;docs</title>
<path fill="none" stroke="black" d="M401.97,-1270.64C396.59,-1267.59 391.44,-1264.05 387,-1260 354.37,-1230.21 332.07,-1183.24 320.24,-1153.29"/>
<polygon fill="black" stroke="black" points="323.18,-1152.19 316.35,-1144.09 316.64,-1154.68 323.18,-1152.19"/>
</g>
<!-- org.glassfish.mq:mq&#45;admin&#45;guide -->
<g id="node5" class="node">
<title>org.glassfish.mq:mq&#45;admin&#45;guide</title>
<polygon fill="lightgrey" stroke="black" points="489.25,-1251 405.75,-1251 405.75,-1215 489.25,-1215 489.25,-1251"/>
<text text-anchor="middle" x="447.5" y="-1235.15" font-family="Helvetica,sans-Serif" font-size="8.00">mq&#45;admin&#45;guide</text>
<text text-anchor="middle" x="447.5" y="-1225.4" font-family="Helvetica,sans-Serif" font-size="8.00">org.glassfish.mq</text>
</g>
<!-- org.glassfish.mq:mq&#45;admin&#45;guide&#45;&gt;org.glassfish.mq:mq&#45;docs -->
<g id="edge4" class="edge">
<title>org.glassfish.mq:mq&#45;admin&#45;guide&#45;&gt;org.glassfish.mq:mq&#45;docs</title>
<path fill="none" stroke="black" d="M405.33,-1216.86C398.96,-1213.65 392.64,-1210.02 387,-1206 365.64,-1190.78 345.4,-1169 331.08,-1151.86"/>
<polygon fill="black" stroke="black" points="333.19,-1149.91 324.15,-1144.38 327.77,-1154.33 333.19,-1149.91"/>
</g>
<!-- org.glassfish.mq:mq&#45;dev&#45;guide&#45;c -->
<g id="node6" class="node">
<title>org.glassfish.mq:mq&#45;dev&#45;guide&#45;c</title>
<polygon fill="lightgrey" stroke="black" points="489.25,-1197 405.75,-1197 405.75,-1161 489.25,-1161 489.25,-1197"/>
<text text-anchor="middle" x="447.5" y="-1181.15" font-family="Helvetica,sans-Serif" font-size="8.00">mq&#45;dev&#45;guide&#45;c</text>
<text text-anchor="middle" x="447.5" y="-1171.4" font-family="Helvetica,sans-Serif" font-size="8.00">org.glassfish.mq</text>
</g>
<!-- org.glassfish.mq:mq&#45;dev&#45;guide&#45;c&#45;&gt;org.glassfish.mq:mq&#45;docs -->
<g id="edge5" class="edge">
<title>org.glassfish.mq:mq&#45;dev&#45;guide&#45;c&#45;&gt;org.glassfish.mq:mq&#45;docs</title>
<path fill="none" stroke="black" d="M405.25,-1162.65C391.38,-1157.15 375.73,-1150.95 361.2,-1145.19"/>
<polygon fill="black" stroke="black" points="362.95,-1141.72 352.36,-1141.29 360.37,-1148.23 362.95,-1141.72"/>
</g>
<!-- org.glassfish.mq:mq&#45;release&#45;notes -->
<g id="node7" class="node">
<title>org.glassfish.mq:mq&#45;release&#45;notes</title>
<polygon fill="lightgrey" stroke="black" points="491.5,-1143 403.5,-1143 403.5,-1107 491.5,-1107 491.5,-1143"/>
<text text-anchor="middle" x="447.5" y="-1127.15" font-family="Helvetica,sans-Serif" font-size="8.00">mq&#45;release&#45;notes</text>
<text text-anchor="middle" x="447.5" y="-1117.4" font-family="Helvetica,sans-Serif" font-size="8.00">org.glassfish.mq</text>
</g>
<!-- org.glassfish.mq:mq&#45;release&#45;notes&#45;&gt;org.glassfish.mq:mq&#45;docs -->
<g id="edge6" class="edge">
<title>org.glassfish.mq:mq&#45;release&#45;notes&#45;&gt;org.glassfish.mq:mq&#45;docs</title>
<path fill="none" stroke="black" d="M403.02,-1125C390.12,-1125 375.86,-1125 362.46,-1125"/>
<polygon fill="black" stroke="black" points="362.47,-1121.5 352.47,-1125 362.47,-1128.5 362.47,-1121.5"/>
</g>
<!-- org.glassfish.mq:mq&#45;dev&#45;guide&#45;java -->
<g id="node8" class="node">
<title>org.glassfish.mq:mq&#45;dev&#45;guide&#45;java</title>
<polygon fill="lightgrey" stroke="black" points="494.12,-1089 400.88,-1089 400.88,-1053 494.12,-1053 494.12,-1089"/>
<text text-anchor="middle" x="447.5" y="-1073.15" font-family="Helvetica,sans-Serif" font-size="8.00">mq&#45;dev&#45;guide&#45;java</text>
<text text-anchor="middle" x="447.5" y="-1063.4" font-family="Helvetica,sans-Serif" font-size="8.00">org.glassfish.mq</text>
</g>
<!-- org.glassfish.mq:mq&#45;dev&#45;guide&#45;java&#45;&gt;org.glassfish.mq:mq&#45;docs -->
<g id="edge7" class="edge">
<title>org.glassfish.mq:mq&#45;dev&#45;guide&#45;java&#45;&gt;org.glassfish.mq:mq&#45;docs</title>
<path fill="none" stroke="black" d="M400.75,-1089.13C388.06,-1094.16 374.21,-1099.65 361.24,-1104.79"/>
<polygon fill="black" stroke="black" points="360.08,-1101.88 352.07,-1108.82 362.66,-1108.39 360.08,-1101.88"/>
</g>
<!-- org.glassfish.mq:mq&#45;tech&#45;over -->
<g id="node9" class="node">
<title>org.glassfish.mq:mq&#45;tech&#45;over</title>
<polygon fill="lightgrey" stroke="black" points="489.25,-1035 405.75,-1035 405.75,-999 489.25,-999 489.25,-1035"/>
<text text-anchor="middle" x="447.5" y="-1019.15" font-family="Helvetica,sans-Serif" font-size="8.00">mq&#45;tech&#45;over</text>
<text text-anchor="middle" x="447.5" y="-1009.4" font-family="Helvetica,sans-Serif" font-size="8.00">org.glassfish.mq</text>
</g>
<!-- org.glassfish.mq:mq&#45;tech&#45;over&#45;&gt;org.glassfish.mq:mq&#45;docs -->
<g id="edge8" class="edge">
<title>org.glassfish.mq:mq&#45;tech&#45;over&#45;&gt;org.glassfish.mq:mq&#45;docs</title>
<path fill="none" stroke="black" d="M405.33,-1033.14C398.96,-1036.35 392.64,-1039.98 387,-1044 365.64,-1059.22 345.4,-1081 331.08,-1098.14"/>
<polygon fill="black" stroke="black" points="327.77,-1095.67 324.15,-1105.62 333.19,-1100.09 327.77,-1095.67"/>
</g>
<!-- org.glassfish.mq:mq -->
<g id="node10" class="node">
<title>org.glassfish.mq:mq</title>
<polygon fill="wheat" stroke="black" points="351,-576 267.5,-576 267.5,-540 351,-540 351,-576"/>
<text text-anchor="middle" x="309.25" y="-560.15" font-family="Helvetica,sans-Serif" font-size="8.00">mq</text>
<text text-anchor="middle" x="309.25" y="-550.4" font-family="Helvetica,sans-Serif" font-size="8.00">org.glassfish.mq</text>
</g>
<!-- org.glassfish.mq:mq&#45;&gt;org.glassfish.mq:project -->
<g id="edge9" class="edge">
<title>org.glassfish.mq:mq&#45;&gt;org.glassfish.mq:project</title>
<path fill="none" stroke="black" d="M300.36,-576.13C280.3,-622.23 227.23,-744.17 203.06,-799.71"/>
<polygon fill="black" stroke="black" points="199.54,-798.02 198.76,-808.59 205.96,-800.82 199.54,-798.02"/>
</g>
<!-- org.glassfish.mq:mqcomm&#45;util -->
<g id="node11" class="node">
<title>org.glassfish.mq:mqcomm&#45;util</title>
<polygon fill="lightgrey" stroke="black" points="489.25,-981 405.75,-981 405.75,-945 489.25,-945 489.25,-981"/>
<text text-anchor="middle" x="447.5" y="-965.15" font-family="Helvetica,sans-Serif" font-size="8.00">mqcomm&#45;util</text>
<text text-anchor="middle" x="447.5" y="-955.4" font-family="Helvetica,sans-Serif" font-size="8.00">org.glassfish.mq</text>
</g>
<!-- org.glassfish.mq:mqcomm&#45;util&#45;&gt;org.glassfish.mq:mq -->
<g id="edge10" class="edge">
<title>org.glassfish.mq:mqcomm&#45;util&#45;&gt;org.glassfish.mq:mq</title>
<path fill="none" stroke="black" d="M405.44,-950.63C398.45,-946.91 391.88,-942.12 387,-936 343.56,-881.46 320,-665.5 312.73,-586.85"/>
<polygon fill="black" stroke="black" points="316.16,-586.92 311.77,-577.27 309.19,-587.55 316.16,-586.92"/>
</g>
<!-- org.glassfish.mq:mq&#45;share -->
<g id="node12" class="node">
<title>org.glassfish.mq:mq&#45;share</title>
<polygon fill="lightgrey" stroke="black" points="489.25,-927 405.75,-927 405.75,-891 489.25,-891 489.25,-927"/>
<text text-anchor="middle" x="447.5" y="-911.15" font-family="Helvetica,sans-Serif" font-size="8.00">mq&#45;share</text>
<text text-anchor="middle" x="447.5" y="-901.4" font-family="Helvetica,sans-Serif" font-size="8.00">org.glassfish.mq</text>
</g>
<!-- org.glassfish.mq:mq&#45;share&#45;&gt;org.glassfish.mq:mq -->
<g id="edge11" class="edge">
<title>org.glassfish.mq:mq&#45;share&#45;&gt;org.glassfish.mq:mq</title>
<path fill="none" stroke="black" d="M405.3,-896.34C398.4,-892.65 391.9,-887.96 387,-882 349.5,-836.45 323,-657.52 313.81,-586.9"/>
<polygon fill="black" stroke="black" points="317.17,-586.63 312.43,-577.15 310.23,-587.51 317.17,-586.63"/>
</g>
<!-- org.glassfish.mq:mq&#45;logger -->
<g id="node13" class="node">
<title>org.glassfish.mq:mq&#45;logger</title>
<polygon fill="lightgrey" stroke="black" points="489.25,-873 405.75,-873 405.75,-837 489.25,-837 489.25,-873"/>
<text text-anchor="middle" x="447.5" y="-857.15" font-family="Helvetica,sans-Serif" font-size="8.00">mq&#45;logger</text>
<text text-anchor="middle" x="447.5" y="-847.4" font-family="Helvetica,sans-Serif" font-size="8.00">org.glassfish.mq</text>
</g>
<!-- org.glassfish.mq:mq&#45;logger&#45;&gt;org.glassfish.mq:mq -->
<g id="edge12" class="edge">
<title>org.glassfish.mq:mq&#45;logger&#45;&gt;org.glassfish.mq:mq</title>
<path fill="none" stroke="black" d="M405.51,-842.16C398.59,-838.49 392.03,-833.85 387,-828 325.97,-757.13 313.31,-640.77 310.8,-586.96"/>
<polygon fill="black" stroke="black" points="314.27,-587.03 310.39,-577.17 307.27,-587.29 314.27,-587.03"/>
</g>
<!-- org.glassfish.mq:mqcomm&#45;io -->
<g id="node14" class="node">
<title>org.glassfish.mq:mqcomm&#45;io</title>
<polygon fill="lightgrey" stroke="black" points="489.25,-819 405.75,-819 405.75,-783 489.25,-783 489.25,-819"/>
<text text-anchor="middle" x="447.5" y="-803.15" font-family="Helvetica,sans-Serif" font-size="8.00">mqcomm&#45;io</text>
<text text-anchor="middle" x="447.5" y="-793.4" font-family="Helvetica,sans-Serif" font-size="8.00">org.glassfish.mq</text>
</g>
<!-- org.glassfish.mq:mqcomm&#45;io&#45;&gt;org.glassfish.mq:mq -->
<g id="edge13" class="edge">
<title>org.glassfish.mq:mqcomm&#45;io&#45;&gt;org.glassfish.mq:mq</title>
<path fill="none" stroke="black" d="M405.5,-787.73C398.67,-784.11 392.14,-779.6 387,-774 337.58,-720.22 319.58,-632.54 313.34,-587.2"/>
<polygon fill="black" stroke="black" points="316.7,-586.86 311.97,-577.38 309.75,-587.74 316.7,-586.86"/>
</g>
<!-- org.glassfish.mq:mqjmx&#45;api -->
<g id="node15" class="node">
<title>org.glassfish.mq:mqjmx&#45;api</title>
<polygon fill="lightgrey" stroke="black" points="489.25,-765 405.75,-765 405.75,-729 489.25,-729 489.25,-765"/>
<text text-anchor="middle" x="447.5" y="-749.15" font-family="Helvetica,sans-Serif" font-size="8.00">mqjmx&#45;api</text>
<text text-anchor="middle" x="447.5" y="-739.4" font-family="Helvetica,sans-Serif" font-size="8.00">org.glassfish.mq</text>
</g>
<!-- org.glassfish.mq:mqjmx&#45;api&#45;&gt;org.glassfish.mq:mq -->
<g id="edge14" class="edge">
<title>org.glassfish.mq:mqjmx&#45;api&#45;&gt;org.glassfish.mq:mq</title>
<path fill="none" stroke="black" d="M405.34,-732.97C398.68,-729.46 392.26,-725.17 387,-720 348.96,-682.58 327.45,-622.62 317.39,-587.1"/>
<polygon fill="black" stroke="black" points="320.51,-586.22 314.52,-577.48 313.75,-588.05 320.51,-586.22"/>
</g>
<!-- org.glassfish.mq:http&#45;tunnel -->
<g id="node16" class="node">
<title>org.glassfish.mq:http&#45;tunnel</title>
<polygon fill="wheat" stroke="black" points="489.25,-711 405.75,-711 405.75,-675 489.25,-675 489.25,-711"/>
<text text-anchor="middle" x="447.5" y="-695.15" font-family="Helvetica,sans-Serif" font-size="8.00">http&#45;tunnel</text>
<text text-anchor="middle" x="447.5" y="-685.4" font-family="Helvetica,sans-Serif" font-size="8.00">org.glassfish.mq</text>
</g>
<!-- org.glassfish.mq:http&#45;tunnel&#45;&gt;org.glassfish.mq:mq -->
<g id="edge15" class="edge">
<title>org.glassfish.mq:http&#45;tunnel&#45;&gt;org.glassfish.mq:mq</title>
<path fill="none" stroke="black" d="M405.44,-677.85C398.92,-674.49 392.51,-670.55 387,-666 359.98,-643.72 337.95,-609.74 324.54,-585.86"/>
<polygon fill="black" stroke="black" points="327.19,-584.41 319.32,-577.31 321.04,-587.76 327.19,-584.41"/>
</g>
<!-- org.glassfish.mq:mqhttp&#45;tunnel&#45;api&#45;share -->
<g id="node17" class="node">
<title>org.glassfish.mq:mqhttp&#45;tunnel&#45;api&#45;share</title>
<polygon fill="lightgrey" stroke="black" points="661.25,-1008 545.5,-1008 545.5,-972 661.25,-972 661.25,-1008"/>
<text text-anchor="middle" x="603.38" y="-992.15" font-family="Helvetica,sans-Serif" font-size="8.00">mqhttp&#45;tunnel&#45;api&#45;share</text>
<text text-anchor="middle" x="603.38" y="-982.4" font-family="Helvetica,sans-Serif" font-size="8.00">org.glassfish.mq</text>
</g>
<!-- org.glassfish.mq:mqhttp&#45;tunnel&#45;api&#45;share&#45;&gt;org.glassfish.mq:http&#45;tunnel -->
<g id="edge16" class="edge">
<title>org.glassfish.mq:mqhttp&#45;tunnel&#45;api&#45;share&#45;&gt;org.glassfish.mq:http&#45;tunnel</title>
<path fill="none" stroke="black" d="M552.47,-971.58C549.29,-969.07 546.41,-966.22 544,-963 478.6,-875.58 573.72,-807.18 508,-720 505.39,-716.53 502.22,-713.5 498.73,-710.85"/>
<polygon fill="black" stroke="black" points="500.84,-707.4 490.52,-705.01 497.09,-713.31 500.84,-707.4"/>
</g>
<!-- org.glassfish.mq:mqhttp&#45;tunnel&#45;api&#45;server -->
<g id="node18" class="node">
<title>org.glassfish.mq:mqhttp&#45;tunnel&#45;api&#45;server</title>
<polygon fill="lightgrey" stroke="black" points="662.75,-954 544,-954 544,-918 662.75,-918 662.75,-954"/>
<text text-anchor="middle" x="603.38" y="-938.15" font-family="Helvetica,sans-Serif" font-size="8.00">mqhttp&#45;tunnel&#45;api&#45;server</text>
<text text-anchor="middle" x="603.38" y="-928.4" font-family="Helvetica,sans-Serif" font-size="8.00">org.glassfish.mq</text>
</g>
<!-- org.glassfish.mq:mqhttp&#45;tunnel&#45;api&#45;server&#45;&gt;org.glassfish.mq:http&#45;tunnel -->
<g id="edge17" class="edge">
<title>org.glassfish.mq:mqhttp&#45;tunnel&#45;api&#45;server&#45;&gt;org.glassfish.mq:http&#45;tunnel</title>
<path fill="none" stroke="black" d="M552.89,-917.68C549.57,-915.14 546.54,-912.26 544,-909 491.38,-841.6 560.87,-787.21 508,-720 505.35,-716.64 502.19,-713.68 498.73,-711.08"/>
<polygon fill="black" stroke="black" points="500.94,-707.7 490.62,-705.33 497.21,-713.62 500.94,-707.7"/>
</g>
<!-- org.glassfish.mq:mqhttp&#45;tunnel -->
<g id="node19" class="node">
<title>org.glassfish.mq:mqhttp&#45;tunnel</title>
<polygon fill="lightgrey" stroke="black" points="645.12,-900 561.62,-900 561.62,-864 645.12,-864 645.12,-900"/>
<text text-anchor="middle" x="603.38" y="-884.15" font-family="Helvetica,sans-Serif" font-size="8.00">mqhttp&#45;tunnel</text>
<text text-anchor="middle" x="603.38" y="-874.4" font-family="Helvetica,sans-Serif" font-size="8.00">org.glassfish.mq</text>
</g>
<!-- org.glassfish.mq:mqhttp&#45;tunnel&#45;&gt;org.glassfish.mq:http&#45;tunnel -->
<g id="edge18" class="edge">
<title>org.glassfish.mq:mqhttp&#45;tunnel&#45;&gt;org.glassfish.mq:http&#45;tunnel</title>
<path fill="none" stroke="black" d="M561.18,-868.62C554.73,-865.03 548.67,-860.56 544,-855 504.04,-807.47 548.13,-767.39 508,-720 505.27,-716.78 502.08,-713.93 498.62,-711.4"/>
<polygon fill="black" stroke="black" points="500.91,-708.08 490.57,-705.77 497.22,-714.03 500.91,-708.08"/>
</g>
<!-- org.glassfish.mq:mq&#45;direct -->
<g id="node20" class="node">
<title>org.glassfish.mq:mq&#45;direct</title>
<polygon fill="lightgrey" stroke="black" points="489.25,-657 405.75,-657 405.75,-621 489.25,-621 489.25,-657"/>
<text text-anchor="middle" x="447.5" y="-641.15" font-family="Helvetica,sans-Serif" font-size="8.00">mq&#45;direct</text>
<text text-anchor="middle" x="447.5" y="-631.4" font-family="Helvetica,sans-Serif" font-size="8.00">org.glassfish.mq</text>
</g>
<!-- org.glassfish.mq:mq&#45;direct&#45;&gt;org.glassfish.mq:mq -->
<g id="edge19" class="edge">
<title>org.glassfish.mq:mq&#45;direct&#45;&gt;org.glassfish.mq:mq</title>
<path fill="none" stroke="black" d="M405.35,-621.54C399.1,-618.55 392.81,-615.32 387,-612 371.95,-603.39 356.14,-592.61 342.82,-582.94"/>
<polygon fill="black" stroke="black" points="345.15,-579.58 335.03,-576.47 341,-585.22 345.15,-579.58"/>
</g>
<!-- org.glassfish.mq:persist -->
<g id="node21" class="node">
<title>org.glassfish.mq:persist</title>
<polygon fill="wheat" stroke="black" points="489.25,-603 405.75,-603 405.75,-567 489.25,-567 489.25,-603"/>
<text text-anchor="middle" x="447.5" y="-587.15" font-family="Helvetica,sans-Serif" font-size="8.00">persist</text>
<text text-anchor="middle" x="447.5" y="-577.4" font-family="Helvetica,sans-Serif" font-size="8.00">org.glassfish.mq</text>
</g>
<!-- org.glassfish.mq:persist&#45;&gt;org.glassfish.mq:mq -->
<g id="edge20" class="edge">
<title>org.glassfish.mq:persist&#45;&gt;org.glassfish.mq:mq</title>
<path fill="none" stroke="black" d="M405.25,-576.83C391.64,-574.13 376.33,-571.1 362.04,-568.26"/>
<polygon fill="black" stroke="black" points="362.85,-564.66 352.36,-566.15 361.49,-571.52 362.85,-564.66"/>
</g>
<!-- org.glassfish.mq:mq&#45;txnlog -->
<g id="node22" class="node">
<title>org.glassfish.mq:mq&#45;txnlog</title>
<polygon fill="lightgrey" stroke="black" points="645.12,-846 561.62,-846 561.62,-810 645.12,-810 645.12,-846"/>
<text text-anchor="middle" x="603.38" y="-830.15" font-family="Helvetica,sans-Serif" font-size="8.00">mq&#45;txnlog</text>
<text text-anchor="middle" x="603.38" y="-820.4" font-family="Helvetica,sans-Serif" font-size="8.00">org.glassfish.mq</text>
</g>
<!-- org.glassfish.mq:mq&#45;txnlog&#45;&gt;org.glassfish.mq:persist -->
<g id="edge21" class="edge">
<title>org.glassfish.mq:mq&#45;txnlog&#45;&gt;org.glassfish.mq:persist</title>
<path fill="none" stroke="black" d="M561.13,-815.06C554.61,-811.42 548.54,-806.81 544,-801 491.38,-733.6 560.87,-679.21 508,-612 505.35,-608.64 502.19,-605.68 498.73,-603.08"/>
<polygon fill="black" stroke="black" points="500.94,-599.7 490.62,-597.33 497.21,-605.62 500.94,-599.7"/>
</g>
<!-- org.glassfish.mq:mq&#45;broker -->
<g id="node23" class="node">
<title>org.glassfish.mq:mq&#45;broker</title>
<polygon fill="wheat" stroke="black" points="489.25,-549 405.75,-549 405.75,-513 489.25,-513 489.25,-549"/>
<text text-anchor="middle" x="447.5" y="-533.15" font-family="Helvetica,sans-Serif" font-size="8.00">mq&#45;broker</text>
<text text-anchor="middle" x="447.5" y="-523.4" font-family="Helvetica,sans-Serif" font-size="8.00">org.glassfish.mq</text>
</g>
<!-- org.glassfish.mq:mq&#45;broker&#45;&gt;org.glassfish.mq:mq -->
<g id="edge22" class="edge">
<title>org.glassfish.mq:mq&#45;broker&#45;&gt;org.glassfish.mq:mq</title>
<path fill="none" stroke="black" d="M405.25,-539.17C391.64,-541.87 376.33,-544.9 362.04,-547.74"/>
<polygon fill="black" stroke="black" points="361.49,-544.48 352.36,-549.85 362.85,-551.34 361.49,-544.48"/>
</g>
<!-- org.glassfish.mq:mqbroker&#45;comm -->
<g id="node24" class="node">
<title>org.glassfish.mq:mqbroker&#45;comm</title>
<polygon fill="lightgrey" stroke="black" points="645.12,-738 561.62,-738 561.62,-702 645.12,-702 645.12,-738"/>
<text text-anchor="middle" x="603.38" y="-722.15" font-family="Helvetica,sans-Serif" font-size="8.00">mqbroker&#45;comm</text>
<text text-anchor="middle" x="603.38" y="-712.4" font-family="Helvetica,sans-Serif" font-size="8.00">org.glassfish.mq</text>
</g>
<!-- org.glassfish.mq:mqbroker&#45;comm&#45;&gt;org.glassfish.mq:mq&#45;broker -->
<g id="edge23" class="edge">
<title>org.glassfish.mq:mqbroker&#45;comm&#45;&gt;org.glassfish.mq:mq&#45;broker</title>
<path fill="none" stroke="black" d="M561.18,-706.62C554.73,-703.03 548.67,-698.56 544,-693 504.04,-645.47 548.13,-605.39 508,-558 505.27,-554.78 502.08,-551.93 498.62,-549.4"/>
<polygon fill="black" stroke="black" points="500.91,-546.08 490.57,-543.77 497.22,-552.03 500.91,-546.08"/>
</g>
<!-- org.glassfish.mq:mq&#45;portunif -->
<g id="node25" class="node">
<title>org.glassfish.mq:mq&#45;portunif</title>
<polygon fill="lightgrey" stroke="black" points="489.25,-495 405.75,-495 405.75,-459 489.25,-459 489.25,-495"/>
<text text-anchor="middle" x="447.5" y="-479.15" font-family="Helvetica,sans-Serif" font-size="8.00">mq&#45;portunif</text>
<text text-anchor="middle" x="447.5" y="-469.4" font-family="Helvetica,sans-Serif" font-size="8.00">org.glassfish.mq</text>
</g>
<!-- org.glassfish.mq:mq&#45;portunif&#45;&gt;org.glassfish.mq:mq -->
<g id="edge24" class="edge">
<title>org.glassfish.mq:mq&#45;portunif&#45;&gt;org.glassfish.mq:mq</title>
<path fill="none" stroke="black" d="M405.35,-494.46C399.1,-497.45 392.81,-500.68 387,-504 371.95,-512.61 356.14,-523.39 342.82,-533.06"/>
<polygon fill="black" stroke="black" points="341,-530.78 335.03,-539.53 345.15,-536.42 341,-530.78"/>
</g>
<!-- org.glassfish.mq:bridge -->
<g id="node26" class="node">
<title>org.glassfish.mq:bridge</title>
<polygon fill="wheat" stroke="black" points="489.25,-414 405.75,-414 405.75,-378 489.25,-378 489.25,-414"/>
<text text-anchor="middle" x="447.5" y="-398.15" font-family="Helvetica,sans-Serif" font-size="8.00">bridge</text>
<text text-anchor="middle" x="447.5" y="-388.4" font-family="Helvetica,sans-Serif" font-size="8.00">org.glassfish.mq</text>
</g>
<!-- org.glassfish.mq:bridge&#45;&gt;org.glassfish.mq:mq -->
<g id="edge25" class="edge">
<title>org.glassfish.mq:bridge&#45;&gt;org.glassfish.mq:mq</title>
<path fill="none" stroke="black" d="M423.94,-414.43C412.34,-424.41 398.3,-437.27 387,-450 364.29,-475.59 342.06,-507.91 327.42,-530.49"/>
<polygon fill="black" stroke="black" points="324.08,-528.22 321.63,-538.53 329.97,-531.99 324.08,-528.22"/>
</g>
<!-- org.glassfish.mq:mqbridge&#45;api -->
<g id="node27" class="node">
<title>org.glassfish.mq:mqbridge&#45;api</title>
<polygon fill="lightgrey" stroke="black" points="645.12,-414 561.62,-414 561.62,-378 645.12,-378 645.12,-414"/>
<text text-anchor="middle" x="603.38" y="-398.15" font-family="Helvetica,sans-Serif" font-size="8.00">mqbridge&#45;api</text>
<text text-anchor="middle" x="603.38" y="-388.4" font-family="Helvetica,sans-Serif" font-size="8.00">org.glassfish.mq</text>
</g>
<!-- org.glassfish.mq:mqbridge&#45;api&#45;&gt;org.glassfish.mq:bridge -->
<g id="edge26" class="edge">
<title>org.glassfish.mq:mqbridge&#45;api&#45;&gt;org.glassfish.mq:bridge</title>
<path fill="none" stroke="black" d="M561.14,-396C542.52,-396 520.32,-396 500.57,-396"/>
<polygon fill="black" stroke="black" points="500.58,-392.5 490.58,-396 500.58,-399.5 500.58,-392.5"/>
</g>
<!-- org.glassfish.mq:mqbroker&#45;core -->
<g id="node28" class="node">
<title>org.glassfish.mq:mqbroker&#45;core</title>
<polygon fill="lightgrey" stroke="black" points="645.12,-684 561.62,-684 561.62,-648 645.12,-648 645.12,-684"/>
<text text-anchor="middle" x="603.38" y="-668.15" font-family="Helvetica,sans-Serif" font-size="8.00">mqbroker&#45;core</text>
<text text-anchor="middle" x="603.38" y="-658.4" font-family="Helvetica,sans-Serif" font-size="8.00">org.glassfish.mq</text>
</g>
<!-- org.glassfish.mq:mqbroker&#45;core&#45;&gt;org.glassfish.mq:mq&#45;broker -->
<g id="edge27" class="edge">
<title>org.glassfish.mq:mqbroker&#45;core&#45;&gt;org.glassfish.mq:mq&#45;broker</title>
<path fill="none" stroke="black" d="M561.28,-651.65C554.98,-648.19 548.94,-644.01 544,-639 516.35,-610.94 535.75,-585.96 508,-558 505.2,-555.18 502.05,-552.62 498.7,-550.31"/>
<polygon fill="black" stroke="black" points="500.83,-546.91 490.46,-544.76 497.23,-552.91 500.83,-546.91"/>
</g>
<!-- org.glassfish.mq:jmsra -->
<g id="node29" class="node">
<title>org.glassfish.mq:jmsra</title>
<polygon fill="wheat" stroke="black" points="489.25,-360 405.75,-360 405.75,-324 489.25,-324 489.25,-360"/>
<text text-anchor="middle" x="447.5" y="-344.15" font-family="Helvetica,sans-Serif" font-size="8.00">jmsra</text>
<text text-anchor="middle" x="447.5" y="-334.4" font-family="Helvetica,sans-Serif" font-size="8.00">org.glassfish.mq</text>
</g>
<!-- org.glassfish.mq:jmsra&#45;&gt;org.glassfish.mq:mq -->
<g id="edge28" class="edge">
<title>org.glassfish.mq:jmsra&#45;&gt;org.glassfish.mq:mq</title>
<path fill="none" stroke="black" d="M405.4,-355.62C398.65,-359.19 392.19,-363.6 387,-369 343.25,-414.54 323.21,-488.34 315.08,-528.93"/>
<polygon fill="black" stroke="black" points="311.46,-528.21 313.05,-538.69 318.34,-529.51 311.46,-528.21"/>
</g>
<!-- org.glassfish.mq:mqjmsra&#45;api -->
<g id="node30" class="node">
<title>org.glassfish.mq:mqjmsra&#45;api</title>
<polygon fill="lightgrey" stroke="black" points="645.12,-198 561.62,-198 561.62,-162 645.12,-162 645.12,-198"/>
<text text-anchor="middle" x="603.38" y="-182.15" font-family="Helvetica,sans-Serif" font-size="8.00">mqjmsra&#45;api</text>
<text text-anchor="middle" x="603.38" y="-172.4" font-family="Helvetica,sans-Serif" font-size="8.00">org.glassfish.mq</text>
</g>
<!-- org.glassfish.mq:mqjmsra&#45;api&#45;&gt;org.glassfish.mq:jmsra -->
<g id="edge29" class="edge">
<title>org.glassfish.mq:mqjmsra&#45;api&#45;&gt;org.glassfish.mq:jmsra</title>
<path fill="none" stroke="black" d="M561.16,-193.79C554.79,-197.32 548.76,-201.67 544,-207 510.27,-244.71 541.86,-277.41 508,-315 505.3,-318 502.2,-320.69 498.86,-323.09"/>
<polygon fill="black" stroke="black" points="497.26,-320.58 490.59,-328.81 500.94,-326.54 497.26,-320.58"/>
</g>
<!-- org.glassfish.mq:mq&#45;client -->
<g id="node31" class="node">
<title>org.glassfish.mq:mq&#45;client</title>
<polygon fill="lightgrey" stroke="black" points="489.25,-306 405.75,-306 405.75,-270 489.25,-270 489.25,-306"/>
<text text-anchor="middle" x="447.5" y="-290.15" font-family="Helvetica,sans-Serif" font-size="8.00">mq&#45;client</text>
<text text-anchor="middle" x="447.5" y="-280.4" font-family="Helvetica,sans-Serif" font-size="8.00">org.glassfish.mq</text>
</g>
<!-- org.glassfish.mq:mq&#45;client&#45;&gt;org.glassfish.mq:mq -->
<g id="edge30" class="edge">
<title>org.glassfish.mq:mq&#45;client&#45;&gt;org.glassfish.mq:mq</title>
<path fill="none" stroke="black" d="M405.34,-301.12C398.52,-304.75 392.04,-309.31 387,-315 331.84,-377.21 316.31,-479.04 311.94,-528.79"/>
<polygon fill="black" stroke="black" points="308.38,-528.47 311.1,-538.71 315.36,-529.01 308.38,-528.47"/>
</g>
<!-- org.glassfish.mq:mq&#45;ums -->
<g id="node32" class="node">
<title>org.glassfish.mq:mq&#45;ums</title>
<polygon fill="lightgrey" stroke="black" points="489.25,-252 405.75,-252 405.75,-216 489.25,-216 489.25,-252"/>
<text text-anchor="middle" x="447.5" y="-236.15" font-family="Helvetica,sans-Serif" font-size="8.00">mq&#45;ums</text>
<text text-anchor="middle" x="447.5" y="-226.4" font-family="Helvetica,sans-Serif" font-size="8.00">org.glassfish.mq</text>
</g>
<!-- org.glassfish.mq:mq&#45;ums&#45;&gt;org.glassfish.mq:mq -->
<g id="edge31" class="edge">
<title>org.glassfish.mq:mq&#45;ums&#45;&gt;org.glassfish.mq:mq</title>
<path fill="none" stroke="black" d="M405.39,-246.74C398.49,-250.42 391.96,-255.09 387,-261 320.33,-340.34 310.67,-470.67 309.87,-528.63"/>
<polygon fill="black" stroke="black" points="306.37,-528.52 309.82,-538.54 313.37,-528.55 306.37,-528.52"/>
</g>
<!-- org.glassfish.mq:mqdisk&#45;io -->
<g id="node33" class="node">
<title>org.glassfish.mq:mqdisk&#45;io</title>
<polygon fill="lightgrey" stroke="black" points="645.12,-792 561.62,-792 561.62,-756 645.12,-756 645.12,-792"/>
<text text-anchor="middle" x="603.38" y="-776.15" font-family="Helvetica,sans-Serif" font-size="8.00">mqdisk&#45;io</text>
<text text-anchor="middle" x="603.38" y="-766.4" font-family="Helvetica,sans-Serif" font-size="8.00">org.glassfish.mq</text>
</g>
<!-- org.glassfish.mq:mqdisk&#45;io&#45;&gt;org.glassfish.mq:persist -->
<g id="edge32" class="edge">
<title>org.glassfish.mq:mqdisk&#45;io&#45;&gt;org.glassfish.mq:persist</title>
<path fill="none" stroke="black" d="M561.18,-760.62C554.73,-757.03 548.67,-752.56 544,-747 504.04,-699.47 548.13,-659.39 508,-612 505.27,-608.78 502.08,-605.93 498.62,-603.4"/>
<polygon fill="black" stroke="black" points="500.91,-600.08 490.57,-597.77 497.22,-606.03 500.91,-600.08"/>
</g>
<!-- org.glassfish.mq:mq&#45;admin -->
<g id="node34" class="node">
<title>org.glassfish.mq:mq&#45;admin</title>
<polygon fill="wheat" stroke="black" points="489.25,-198 405.75,-198 405.75,-162 489.25,-162 489.25,-198"/>
<text text-anchor="middle" x="447.5" y="-182.15" font-family="Helvetica,sans-Serif" font-size="8.00">mq&#45;admin</text>
<text text-anchor="middle" x="447.5" y="-172.4" font-family="Helvetica,sans-Serif" font-size="8.00">org.glassfish.mq</text>
</g>
<!-- org.glassfish.mq:mq&#45;admin&#45;&gt;org.glassfish.mq:mq -->
<g id="edge33" class="edge">
<title>org.glassfish.mq:mq&#45;admin&#45;&gt;org.glassfish.mq:mq</title>
<path fill="none" stroke="black" d="M405.52,-192.43C398.51,-196.15 391.92,-200.91 387,-207 346.52,-257.05 321.42,-454.57 313.22,-529.22"/>
<polygon fill="black" stroke="black" points="309.68,-528.39 312.09,-538.71 316.64,-529.14 309.68,-528.39"/>
</g>
<!-- org.glassfish.mq:mqadmin&#45;cli -->
<g id="node35" class="node">
<title>org.glassfish.mq:mqadmin&#45;cli</title>
<polygon fill="lightgrey" stroke="black" points="645.12,-90 561.62,-90 561.62,-54 645.12,-54 645.12,-90"/>
<text text-anchor="middle" x="603.38" y="-74.15" font-family="Helvetica,sans-Serif" font-size="8.00">mqadmin&#45;cli</text>
<text text-anchor="middle" x="603.38" y="-64.4" font-family="Helvetica,sans-Serif" font-size="8.00">org.glassfish.mq</text>
</g>
<!-- org.glassfish.mq:mqadmin&#45;cli&#45;&gt;org.glassfish.mq:mq&#45;admin -->
<g id="edge34" class="edge">
<title>org.glassfish.mq:mqadmin&#45;cli&#45;&gt;org.glassfish.mq:mq&#45;admin</title>
<path fill="none" stroke="black" d="M561.37,-87.42C555.2,-90.72 549.17,-94.57 544,-99 522.09,-117.76 529.98,-134.32 508,-153 505.19,-155.39 502.14,-157.6 498.95,-159.65"/>
<polygon fill="black" stroke="black" points="497.6,-156.97 490.68,-164.99 501.09,-163.03 497.6,-156.97"/>
</g>
<!-- org.glassfish.mq:mqjmsra&#45;ra -->
<g id="node36" class="node">
<title>org.glassfish.mq:mqjmsra&#45;ra</title>
<polygon fill="lightgrey" stroke="black" points="645.12,-144 561.62,-144 561.62,-108 645.12,-108 645.12,-144"/>
<text text-anchor="middle" x="603.38" y="-128.15" font-family="Helvetica,sans-Serif" font-size="8.00">mqjmsra&#45;ra</text>
<text text-anchor="middle" x="603.38" y="-118.4" font-family="Helvetica,sans-Serif" font-size="8.00">org.glassfish.mq</text>
</g>
<!-- org.glassfish.mq:mqjmsra&#45;ra&#45;&gt;org.glassfish.mq:jmsra -->
<g id="edge35" class="edge">
<title>org.glassfish.mq:mqjmsra&#45;ra&#45;&gt;org.glassfish.mq:jmsra</title>
<path fill="none" stroke="black" d="M561.28,-139.06C554.74,-142.69 548.62,-147.26 544,-153 497.73,-210.44 554.48,-257.73 508,-315 505.3,-318.32 502.11,-321.25 498.62,-323.84"/>
<polygon fill="black" stroke="black" points="497.09,-321.29 490.47,-329.56 500.8,-327.22 497.09,-321.29"/>
</g>
<!-- org.glassfish.mq:mqbridge&#45;jms -->
<g id="node37" class="node">
<title>org.glassfish.mq:mqbridge&#45;jms</title>
<polygon fill="lightgrey" stroke="black" points="645.12,-360 561.62,-360 561.62,-324 645.12,-324 645.12,-360"/>
<text text-anchor="middle" x="603.38" y="-344.15" font-family="Helvetica,sans-Serif" font-size="8.00">mqbridge&#45;jms</text>
<text text-anchor="middle" x="603.38" y="-334.4" font-family="Helvetica,sans-Serif" font-size="8.00">org.glassfish.mq</text>
</g>
<!-- org.glassfish.mq:mqbridge&#45;jms&#45;&gt;org.glassfish.mq:bridge -->
<g id="edge36" class="edge">
<title>org.glassfish.mq:mqbridge&#45;jms&#45;&gt;org.glassfish.mq:bridge</title>
<path fill="none" stroke="black" d="M561.14,-356.47C542.26,-363.1 519.7,-371.01 499.75,-378.02"/>
<polygon fill="black" stroke="black" points="498.86,-374.97 490.58,-381.58 501.18,-381.57 498.86,-374.97"/>
</g>
<!-- org.glassfish.mq:mqbridge&#45;stomp -->
<g id="node38" class="node">
<title>org.glassfish.mq:mqbridge&#45;stomp</title>
<polygon fill="lightgrey" stroke="black" points="645.12,-306 561.62,-306 561.62,-270 645.12,-270 645.12,-306"/>
<text text-anchor="middle" x="603.38" y="-290.15" font-family="Helvetica,sans-Serif" font-size="8.00">mqbridge&#45;stomp</text>
<text text-anchor="middle" x="603.38" y="-280.4" font-family="Helvetica,sans-Serif" font-size="8.00">org.glassfish.mq</text>
</g>
<!-- org.glassfish.mq:mqbridge&#45;stomp&#45;&gt;org.glassfish.mq:bridge -->
<g id="edge37" class="edge">
<title>org.glassfish.mq:mqbridge&#45;stomp&#45;&gt;org.glassfish.mq:bridge</title>
<path fill="none" stroke="black" d="M561.37,-303.42C555.2,-306.72 549.17,-310.57 544,-315 522.09,-333.76 529.98,-350.32 508,-369 505.19,-371.39 502.14,-373.6 498.95,-375.65"/>
<polygon fill="black" stroke="black" points="497.6,-372.97 490.68,-380.99 501.09,-379.03 497.6,-372.97"/>
</g>
<!-- org.glassfish.mq:mqbridge&#45;admin -->
<g id="node39" class="node">
<title>org.glassfish.mq:mqbridge&#45;admin</title>
<polygon fill="lightgrey" stroke="black" points="645.12,-252 561.62,-252 561.62,-216 645.12,-216 645.12,-252"/>
<text text-anchor="middle" x="603.38" y="-236.15" font-family="Helvetica,sans-Serif" font-size="8.00">mqbridge&#45;admin</text>
<text text-anchor="middle" x="603.38" y="-226.4" font-family="Helvetica,sans-Serif" font-size="8.00">org.glassfish.mq</text>
</g>
<!-- org.glassfish.mq:mqbridge&#45;admin&#45;&gt;org.glassfish.mq:bridge -->
<g id="edge38" class="edge">
<title>org.glassfish.mq:mqbridge&#45;admin&#45;&gt;org.glassfish.mq:bridge</title>
<path fill="none" stroke="black" d="M561.16,-247.79C554.79,-251.32 548.76,-255.67 544,-261 510.27,-298.71 541.86,-331.41 508,-369 505.3,-372 502.2,-374.69 498.86,-377.09"/>
<polygon fill="black" stroke="black" points="497.26,-374.58 490.59,-382.81 500.94,-380.54 497.26,-374.58"/>
</g>
<!-- org.glassfish.mq:mq&#45;cluster -->
<g id="node40" class="node">
<title>org.glassfish.mq:mq&#45;cluster</title>
<polygon fill="lightgrey" stroke="black" points="645.12,-630 561.62,-630 561.62,-594 645.12,-594 645.12,-630"/>
<text text-anchor="middle" x="603.38" y="-614.15" font-family="Helvetica,sans-Serif" font-size="8.00">mq&#45;cluster</text>
<text text-anchor="middle" x="603.38" y="-604.4" font-family="Helvetica,sans-Serif" font-size="8.00">org.glassfish.mq</text>
</g>
<!-- org.glassfish.mq:mq&#45;cluster&#45;&gt;org.glassfish.mq:mq&#45;broker -->
<g id="edge39" class="edge">
<title>org.glassfish.mq:mq&#45;cluster&#45;&gt;org.glassfish.mq:mq&#45;broker</title>
<path fill="none" stroke="black" d="M561.3,-594.34C555.39,-591.41 549.46,-588.26 544,-585 526.83,-574.75 525.21,-568.19 508,-558 505.21,-556.35 502.3,-554.73 499.34,-553.15"/>
<polygon fill="black" stroke="black" points="501.25,-549.69 490.75,-548.3 498.09,-555.94 501.25,-549.69"/>
</g>
<!-- org.glassfish.mq:mqpersist&#45;file -->
<g id="node41" class="node">
<title>org.glassfish.mq:mqpersist&#45;file</title>
<polygon fill="lightgrey" stroke="black" points="645.12,-576 561.62,-576 561.62,-540 645.12,-540 645.12,-576"/>
<text text-anchor="middle" x="603.38" y="-560.15" font-family="Helvetica,sans-Serif" font-size="8.00">mqpersist&#45;file</text>
<text text-anchor="middle" x="603.38" y="-550.4" font-family="Helvetica,sans-Serif" font-size="8.00">org.glassfish.mq</text>
</g>
<!-- org.glassfish.mq:mqpersist&#45;file&#45;&gt;org.glassfish.mq:mq&#45;broker -->
<g id="edge40" class="edge">
<title>org.glassfish.mq:mqpersist&#45;file&#45;&gt;org.glassfish.mq:mq&#45;broker</title>
<path fill="none" stroke="black" d="M561.14,-550.76C542.44,-547.48 520.12,-543.57 500.3,-540.09"/>
<polygon fill="black" stroke="black" points="501.04,-536.49 490.58,-538.21 499.83,-543.38 501.04,-536.49"/>
</g>
<!-- org.glassfish.mq:mqpersist&#45;jdbc -->
<g id="node42" class="node">
<title>org.glassfish.mq:mqpersist&#45;jdbc</title>
<polygon fill="lightgrey" stroke="black" points="645.12,-522 561.62,-522 561.62,-486 645.12,-486 645.12,-522"/>
<text text-anchor="middle" x="603.38" y="-506.15" font-family="Helvetica,sans-Serif" font-size="8.00">mqpersist&#45;jdbc</text>
<text text-anchor="middle" x="603.38" y="-496.4" font-family="Helvetica,sans-Serif" font-size="8.00">org.glassfish.mq</text>
</g>
<!-- org.glassfish.mq:mqpersist&#45;jdbc&#45;&gt;org.glassfish.mq:mq&#45;broker -->
<g id="edge41" class="edge">
<title>org.glassfish.mq:mqpersist&#45;jdbc&#45;&gt;org.glassfish.mq:mq&#45;broker</title>
<path fill="none" stroke="black" d="M561.14,-511.24C542.44,-514.52 520.12,-518.43 500.3,-521.91"/>
<polygon fill="black" stroke="black" points="499.83,-518.62 490.58,-523.79 501.04,-525.51 499.83,-518.62"/>
</g>
<!-- org.glassfish.mq:mq&#45;partition -->
<g id="node43" class="node">
<title>org.glassfish.mq:mq&#45;partition</title>
<polygon fill="wheat" stroke="black" points="645.12,-468 561.62,-468 561.62,-432 645.12,-432 645.12,-468"/>
<text text-anchor="middle" x="603.38" y="-452.15" font-family="Helvetica,sans-Serif" font-size="8.00">mq&#45;partition</text>
<text text-anchor="middle" x="603.38" y="-442.4" font-family="Helvetica,sans-Serif" font-size="8.00">org.glassfish.mq</text>
</g>
<!-- org.glassfish.mq:mq&#45;partition&#45;&gt;org.glassfish.mq:mq&#45;broker -->
<g id="edge42" class="edge">
<title>org.glassfish.mq:mq&#45;partition&#45;&gt;org.glassfish.mq:mq&#45;broker</title>
<path fill="none" stroke="black" d="M561.3,-467.66C555.39,-470.59 549.46,-473.74 544,-477 526.83,-487.25 525.21,-493.81 508,-504 505.21,-505.65 502.3,-507.27 499.34,-508.85"/>
<polygon fill="black" stroke="black" points="498.09,-506.06 490.75,-513.7 501.25,-512.31 498.09,-506.06"/>
</g>
<!-- org.glassfish.mq:mqpartition&#45;persist&#45;api -->
<g id="node44" class="node">
<title>org.glassfish.mq:mqpartition&#45;persist&#45;api</title>
<polygon fill="lightgrey" stroke="black" points="810.75,-495 701,-495 701,-459 810.75,-459 810.75,-495"/>
<text text-anchor="middle" x="755.88" y="-479.15" font-family="Helvetica,sans-Serif" font-size="8.00">mqpartition&#45;persist&#45;api</text>
<text text-anchor="middle" x="755.88" y="-469.4" font-family="Helvetica,sans-Serif" font-size="8.00">org.glassfish.mq</text>
</g>
<!-- org.glassfish.mq:mqpartition&#45;persist&#45;api&#45;&gt;org.glassfish.mq:mq&#45;partition -->
<g id="edge43" class="edge">
<title>org.glassfish.mq:mqpartition&#45;persist&#45;api&#45;&gt;org.glassfish.mq:mq&#45;partition</title>
<path fill="none" stroke="black" d="M700.54,-467.25C686.05,-464.65 670.43,-461.85 656.08,-459.28"/>
<polygon fill="black" stroke="black" points="656.86,-455.68 646.4,-457.36 655.63,-462.57 656.86,-455.68"/>
</g>
<!-- org.glassfish.mq:mqpartition&#45;persist&#45;jdbc -->
<g id="node45" class="node">
<title>org.glassfish.mq:mqpartition&#45;persist&#45;jdbc</title>
<polygon fill="lightgrey" stroke="black" points="813,-441 698.75,-441 698.75,-405 813,-405 813,-441"/>
<text text-anchor="middle" x="755.88" y="-425.15" font-family="Helvetica,sans-Serif" font-size="8.00">mqpartition&#45;persist&#45;jdbc</text>
<text text-anchor="middle" x="755.88" y="-415.4" font-family="Helvetica,sans-Serif" font-size="8.00">org.glassfish.mq</text>
</g>
<!-- org.glassfish.mq:mqpartition&#45;persist&#45;jdbc&#45;&gt;org.glassfish.mq:mq&#45;partition -->
<g id="edge44" class="edge">
<title>org.glassfish.mq:mqpartition&#45;persist&#45;jdbc&#45;&gt;org.glassfish.mq:mq&#45;partition</title>
<path fill="none" stroke="black" d="M698.41,-433.13C684.45,-435.63 669.58,-438.3 655.88,-440.76"/>
<polygon fill="black" stroke="black" points="655.4,-437.47 646.18,-442.68 656.64,-444.36 655.4,-437.47"/>
</g>
<!-- org.glassfish.mq:mqadmin&#45;gui -->
<g id="node46" class="node">
<title>org.glassfish.mq:mqadmin&#45;gui</title>
<polygon fill="lightgrey" stroke="black" points="645.12,-36 561.62,-36 561.62,0 645.12,0 645.12,-36"/>
<text text-anchor="middle" x="603.38" y="-20.15" font-family="Helvetica,sans-Serif" font-size="8.00">mqadmin&#45;gui</text>
<text text-anchor="middle" x="603.38" y="-10.4" font-family="Helvetica,sans-Serif" font-size="8.00">org.glassfish.mq</text>
</g>
<!-- org.glassfish.mq:mqadmin&#45;gui&#45;&gt;org.glassfish.mq:mq&#45;admin -->
<g id="edge45" class="edge">
<title>org.glassfish.mq:mqadmin&#45;gui&#45;&gt;org.glassfish.mq:mq&#45;admin</title>
<path fill="none" stroke="black" d="M561.16,-31.79C554.79,-35.32 548.76,-39.67 544,-45 510.27,-82.71 541.86,-115.41 508,-153 505.3,-156 502.2,-158.69 498.86,-161.09"/>
<polygon fill="black" stroke="black" points="497.26,-158.58 490.59,-166.81 500.94,-164.54 497.26,-158.58"/>
</g>
<!-- org.glassfish.mq:helpfiles -->
<g id="node47" class="node">
<title>org.glassfish.mq:helpfiles</title>
<polygon fill="lightgrey" stroke="black" points="489.25,-144 405.75,-144 405.75,-108 489.25,-108 489.25,-144"/>
<text text-anchor="middle" x="447.5" y="-128.15" font-family="Helvetica,sans-Serif" font-size="8.00">helpfiles</text>
<text text-anchor="middle" x="447.5" y="-118.4" font-family="Helvetica,sans-Serif" font-size="8.00">org.glassfish.mq</text>
</g>
<!-- org.glassfish.mq:helpfiles&#45;&gt;org.glassfish.mq:mq -->
<g id="edge46" class="edge">
<title>org.glassfish.mq:helpfiles&#45;&gt;org.glassfish.mq:mq</title>
<path fill="none" stroke="black" d="M405.38,-138.32C398.39,-142.05 391.84,-146.85 387,-153 340.59,-212.05 318.69,-446.54 312.31,-529.08"/>
<polygon fill="black" stroke="black" points="308.75,-528.66 311.49,-538.9 315.73,-529.19 308.75,-528.66"/>
</g>
<!-- org.glassfish.mq:mq&#45;packager&#45;opensource -->
<g id="node48" class="node">
<title>org.glassfish.mq:mq&#45;packager&#45;opensource</title>
<polygon fill="lightgrey" stroke="black" points="508,-90 387,-90 387,-54 508,-54 508,-90"/>
<text text-anchor="middle" x="447.5" y="-74.15" font-family="Helvetica,sans-Serif" font-size="8.00">mq&#45;packager&#45;opensource</text>
<text text-anchor="middle" x="447.5" y="-64.4" font-family="Helvetica,sans-Serif" font-size="8.00">org.glassfish.mq</text>
</g>
<!-- org.glassfish.mq:mq&#45;packager&#45;opensource&#45;&gt;org.glassfish.mq:mq -->
<g id="edge47" class="edge">
<title>org.glassfish.mq:mq&#45;packager&#45;opensource&#45;&gt;org.glassfish.mq:mq</title>
<path fill="none" stroke="black" d="M395.71,-90.37C392.45,-92.9 389.49,-95.76 387,-99 334.65,-167.12 316.31,-438.85 311.6,-528.87"/>
<polygon fill="black" stroke="black" points="308.07,-528.46 311.06,-538.62 315.06,-528.81 308.07,-528.46"/>
</g>
<!-- org.glassfish.mq:mq&#45;distribution -->
<g id="node49" class="node">
<title>org.glassfish.mq:mq&#45;distribution</title>
<polygon fill="lightgrey" stroke="black" points="231.5,-900 148,-900 148,-864 231.5,-864 231.5,-900"/>
<text text-anchor="middle" x="189.75" y="-884.15" font-family="Helvetica,sans-Serif" font-size="8.00">mq&#45;distribution</text>
<text text-anchor="middle" x="189.75" y="-874.4" font-family="Helvetica,sans-Serif" font-size="8.00">org.glassfish.mq</text>
</g>
<!-- org.glassfish.mq:mq&#45;distribution&#45;&gt;org.eclipse.ee4j:project -->
<g id="edge48" class="edge">
<title>org.glassfish.mq:mq&#45;distribution&#45;&gt;org.eclipse.ee4j:project</title>
<path fill="none" stroke="black" d="M147.79,-873.61C139.92,-871.99 131.51,-870.27 123.09,-868.54"/>
<polygon fill="black" stroke="black" points="123.96,-864.95 113.46,-866.37 122.56,-871.8 123.96,-864.95"/>
</g>
</g>
</svg>
