<?xml version="1.0" encoding="UTF-8" standalone="no"?>
<!DOCTYPE svg PUBLIC "-//W3C//DTD SVG 1.1//EN"
 "http://www.w3.org/Graphics/SVG/1.1/DTD/svg11.dtd">
<!-- Generated by graphviz version 2.48.0 (0)
 -->
<!-- Title: openmq Pages: 1 -->
<svg width="826pt" height="1340pt"
 viewBox="0.00 0.00 826.00 1340.00" xmlns="http://www.w3.org/2000/svg" xmlns:xlink="http://www.w3.org/1999/xlink">
<g id="graph0" class="graph" transform="scale(1 1) rotate(0) translate(4 1336)">
<title>openmq</title>
<polygon fill="white" stroke="transparent" points="-4,4 -4,-1336 822,-1336 822,4 -4,4"/>
<!-- org.glassfish.mq:project -->
<g id="node1" class="node">
<title>org.glassfish.mq:project</title>
<polygon fill="wheat" stroke="black" points="233,-630 149,-630 149,-594 233,-594 233,-630"/>
<text text-anchor="middle" x="191" y="-614.6" font-family="Helvetica,sans-Serif" font-size="8.00">project</text>
<text text-anchor="middle" x="191" y="-605.6" font-family="Helvetica,sans-Serif" font-size="8.00">org.glassfish.mq</text>
</g>
<!-- org.eclipse.ee4j:project -->
<g id="node2" class="node">
<title>org.eclipse.ee4j:project</title>
<polygon fill="lightgrey" stroke="black" points="113,-657 0,-657 0,-621 113,-621 113,-657"/>
<text text-anchor="middle" x="56.5" y="-637.1" font-family="Helvetica,sans-Serif" font-size="8.00">org.eclipse.ee4j:project</text>
</g>
<!-- org.glassfish.mq:project&#45;&gt;org.eclipse.ee4j:project -->
<g id="edge1" class="edge">
<title>org.glassfish.mq:project&#45;&gt;org.eclipse.ee4j:project</title>
<path fill="none" stroke="black" d="M148.8,-620.39C140.63,-622.06 131.87,-623.85 123.12,-625.63"/>
<polygon fill="black" stroke="black" points="122.38,-622.21 113.28,-627.63 123.78,-629.07 122.38,-622.21"/>
</g>
<!-- org.glassfish.mq:mq&#45;docs -->
<g id="node3" class="node">
<title>org.glassfish.mq:mq&#45;docs</title>
<polygon fill="wheat" stroke="black" points="353.5,-1170 269.5,-1170 269.5,-1134 353.5,-1134 353.5,-1170"/>
<text text-anchor="middle" x="311.5" y="-1154.6" font-family="Helvetica,sans-Serif" font-size="8.00">mq&#45;docs</text>
<text text-anchor="middle" x="311.5" y="-1145.6" font-family="Helvetica,sans-Serif" font-size="8.00">org.glassfish.mq</text>
</g>
<!-- org.glassfish.mq:mq&#45;docs&#45;&gt;org.glassfish.mq:project -->
<g id="edge2" class="edge">
<title>org.glassfish.mq:mq&#45;docs&#45;&gt;org.glassfish.mq:project</title>
<path fill="none" stroke="black" d="M309.72,-1133.94C305.93,-1053.01 287.37,-723.98 233,-639 232.67,-638.48 232.33,-637.98 231.97,-637.48"/>
<polygon fill="black" stroke="black" points="234.54,-635.1 225.24,-630.03 229.35,-639.8 234.54,-635.1"/>
</g>
<!-- org.glassfish:mq&#45;dev&#45;guide&#45;jmx -->
<g id="node4" class="node">
<title>org.glassfish:mq&#45;dev&#45;guide&#45;jmx</title>
<polygon fill="lightgrey" stroke="black" points="496.5,-1332 405.5,-1332 405.5,-1296 496.5,-1296 496.5,-1332"/>
<text text-anchor="middle" x="451" y="-1316.6" font-family="Helvetica,sans-Serif" font-size="8.00">mq&#45;dev&#45;guide&#45;jmx</text>
<text text-anchor="middle" x="451" y="-1307.6" font-family="Helvetica,sans-Serif" font-size="8.00">org.glassfish</text>
</g>
<!-- org.glassfish:mq&#45;dev&#45;guide&#45;jmx&#45;&gt;org.glassfish.mq:mq&#45;docs -->
<g id="edge3" class="edge">
<title>org.glassfish:mq&#45;dev&#45;guide&#45;jmx&#45;&gt;org.glassfish.mq:mq&#45;docs</title>
<path fill="none" stroke="black" d="M405.42,-1297.83C399.88,-1294.74 394.57,-1291.14 390,-1287 356.9,-1257 334.23,-1209.45 322.32,-1179.53"/>
<polygon fill="black" stroke="black" points="325.56,-1178.18 318.7,-1170.11 319.02,-1180.7 325.56,-1178.18"/>
</g>
<!-- org.glassfish:mq&#45;admin&#45;guide -->
<g id="node5" class="node">
<title>org.glassfish:mq&#45;admin&#45;guide</title>
<polygon fill="lightgrey" stroke="black" points="493,-1278 409,-1278 409,-1242 493,-1242 493,-1278"/>
<text text-anchor="middle" x="451" y="-1262.6" font-family="Helvetica,sans-Serif" font-size="8.00">mq&#45;admin&#45;guide</text>
<text text-anchor="middle" x="451" y="-1253.6" font-family="Helvetica,sans-Serif" font-size="8.00">org.glassfish</text>
</g>
<!-- org.glassfish:mq&#45;admin&#45;guide&#45;&gt;org.glassfish.mq:mq&#45;docs -->
<g id="edge4" class="edge">
<title>org.glassfish:mq&#45;admin&#45;guide&#45;&gt;org.glassfish.mq:mq&#45;docs</title>
<path fill="none" stroke="black" d="M408.82,-1244.03C402.29,-1240.78 395.78,-1237.09 390,-1233 368.14,-1217.56 347.41,-1195.34 332.9,-1178.07"/>
<polygon fill="black" stroke="black" points="335.35,-1175.55 326.29,-1170.05 329.94,-1179.99 335.35,-1175.55"/>
</g>
<!-- org.glassfish:mq&#45;dev&#45;guide&#45;c -->
<g id="node6" class="node">
<title>org.glassfish:mq&#45;dev&#45;guide&#45;c</title>
<polygon fill="lightgrey" stroke="black" points="491.5,-1224 410.5,-1224 410.5,-1188 491.5,-1188 491.5,-1224"/>
<text text-anchor="middle" x="451" y="-1208.6" font-family="Helvetica,sans-Serif" font-size="8.00">mq&#45;dev&#45;guide&#45;c</text>
<text text-anchor="middle" x="451" y="-1199.6" font-family="Helvetica,sans-Serif" font-size="8.00">org.glassfish</text>
</g>
<!-- org.glassfish:mq&#45;dev&#45;guide&#45;c&#45;&gt;org.glassfish.mq:mq&#45;docs -->
<g id="edge5" class="edge">
<title>org.glassfish:mq&#45;dev&#45;guide&#45;c&#45;&gt;org.glassfish.mq:mq&#45;docs</title>
<path fill="none" stroke="black" d="M410.23,-1190.38C395.52,-1184.6 378.64,-1177.97 363.09,-1171.87"/>
<polygon fill="black" stroke="black" points="364.2,-1168.54 353.61,-1168.15 361.64,-1175.06 364.2,-1168.54"/>
</g>
<!-- org.glassfish:mq&#45;release&#45;notes -->
<g id="node7" class="node">
<title>org.glassfish:mq&#45;release&#45;notes</title>
<polygon fill="lightgrey" stroke="black" points="495.5,-1170 406.5,-1170 406.5,-1134 495.5,-1134 495.5,-1170"/>
<text text-anchor="middle" x="451" y="-1154.6" font-family="Helvetica,sans-Serif" font-size="8.00">mq&#45;release&#45;notes</text>
<text text-anchor="middle" x="451" y="-1145.6" font-family="Helvetica,sans-Serif" font-size="8.00">org.glassfish</text>
</g>
<!-- org.glassfish:mq&#45;release&#45;notes&#45;&gt;org.glassfish.mq:mq&#45;docs -->
<g id="edge6" class="edge">
<title>org.glassfish:mq&#45;release&#45;notes&#45;&gt;org.glassfish.mq:mq&#45;docs</title>
<path fill="none" stroke="black" d="M406.49,-1152C393.08,-1152 378.17,-1152 364.25,-1152"/>
<polygon fill="black" stroke="black" points="363.85,-1148.5 353.85,-1152 363.85,-1155.5 363.85,-1148.5"/>
</g>
<!-- org.glassfish:mq&#45;dev&#45;guide&#45;java -->
<g id="node8" class="node">
<title>org.glassfish:mq&#45;dev&#45;guide&#45;java</title>
<polygon fill="lightgrey" stroke="black" points="498,-1116 404,-1116 404,-1080 498,-1080 498,-1116"/>
<text text-anchor="middle" x="451" y="-1100.6" font-family="Helvetica,sans-Serif" font-size="8.00">mq&#45;dev&#45;guide&#45;java</text>
<text text-anchor="middle" x="451" y="-1091.6" font-family="Helvetica,sans-Serif" font-size="8.00">org.glassfish</text>
</g>
<!-- org.glassfish:mq&#45;dev&#45;guide&#45;java&#45;&gt;org.glassfish.mq:mq&#45;docs -->
<g id="edge7" class="edge">
<title>org.glassfish:mq&#45;dev&#45;guide&#45;java&#45;&gt;org.glassfish.mq:mq&#45;docs</title>
<path fill="none" stroke="black" d="M403.83,-1116.13C390.77,-1121.26 376.49,-1126.87 363.18,-1132.1"/>
<polygon fill="black" stroke="black" points="361.72,-1128.91 353.7,-1135.82 364.28,-1135.42 361.72,-1128.91"/>
</g>
<!-- org.glassfish:mq&#45;tech&#45;over -->
<g id="node9" class="node">
<title>org.glassfish:mq&#45;tech&#45;over</title>
<polygon fill="lightgrey" stroke="black" points="486.5,-1062 415.5,-1062 415.5,-1026 486.5,-1026 486.5,-1062"/>
<text text-anchor="middle" x="451" y="-1046.6" font-family="Helvetica,sans-Serif" font-size="8.00">mq&#45;tech&#45;over</text>
<text text-anchor="middle" x="451" y="-1037.6" font-family="Helvetica,sans-Serif" font-size="8.00">org.glassfish</text>
</g>
<!-- org.glassfish:mq&#45;tech&#45;over&#45;&gt;org.glassfish.mq:mq&#45;docs -->
<g id="edge8" class="edge">
<title>org.glassfish:mq&#45;tech&#45;over&#45;&gt;org.glassfish.mq:mq&#45;docs</title>
<path fill="none" stroke="black" d="M415.44,-1056.83C406.77,-1060.77 397.74,-1065.53 390,-1071 368.14,-1086.44 347.41,-1108.66 332.9,-1125.93"/>
<polygon fill="black" stroke="black" points="329.94,-1124.01 326.29,-1133.95 335.35,-1128.45 329.94,-1124.01"/>
</g>
<!-- org.glassfish.mq:mq -->
<g id="node10" class="node">
<title>org.glassfish.mq:mq</title>
<polygon fill="wheat" stroke="black" points="353.5,-630 269.5,-630 269.5,-594 353.5,-594 353.5,-630"/>
<text text-anchor="middle" x="311.5" y="-614.6" font-family="Helvetica,sans-Serif" font-size="8.00">mq</text>
<text text-anchor="middle" x="311.5" y="-605.6" font-family="Helvetica,sans-Serif" font-size="8.00">org.glassfish.mq</text>
</g>
<!-- org.glassfish.mq:mq&#45;&gt;org.glassfish.mq:project -->
<g id="edge9" class="edge">
<title>org.glassfish.mq:mq&#45;&gt;org.glassfish.mq:project</title>
<path fill="none" stroke="black" d="M269.39,-612C260.93,-612 251.93,-612 243.17,-612"/>
<polygon fill="black" stroke="black" points="243.04,-608.5 233.04,-612 243.04,-615.5 243.04,-608.5"/>
</g>
<!-- org.glassfish.mq:mqcomm&#45;util -->
<g id="node11" class="node">
<title>org.glassfish.mq:mqcomm&#45;util</title>
<polygon fill="lightgrey" stroke="black" points="493,-1008 409,-1008 409,-972 493,-972 493,-1008"/>
<text text-anchor="middle" x="451" y="-992.6" font-family="Helvetica,sans-Serif" font-size="8.00">mqcomm&#45;util</text>
<text text-anchor="middle" x="451" y="-983.6" font-family="Helvetica,sans-Serif" font-size="8.00">org.glassfish.mq</text>
</g>
<!-- org.glassfish.mq:mqcomm&#45;util&#45;&gt;org.glassfish.mq:mq -->
<g id="edge10" class="edge">
<title>org.glassfish.mq:mqcomm&#45;util&#45;&gt;org.glassfish.mq:mq</title>
<path fill="none" stroke="black" d="M408.99,-977.78C401.82,-974.03 395.04,-969.2 390,-963 349.29,-912.93 323.77,-714.65 315.47,-640.33"/>
<polygon fill="black" stroke="black" points="318.94,-639.86 314.37,-630.3 311.98,-640.62 318.94,-639.86"/>
</g>
<!-- org.glassfish.mq:mq&#45;share -->
<g id="node12" class="node">
<title>org.glassfish.mq:mq&#45;share</title>
<polygon fill="lightgrey" stroke="black" points="493,-954 409,-954 409,-918 493,-918 493,-954"/>
<text text-anchor="middle" x="451" y="-938.6" font-family="Helvetica,sans-Serif" font-size="8.00">mq&#45;share</text>
<text text-anchor="middle" x="451" y="-929.6" font-family="Helvetica,sans-Serif" font-size="8.00">org.glassfish.mq</text>
</g>
<!-- org.glassfish.mq:mq&#45;share&#45;&gt;org.glassfish.mq:mq -->
<g id="edge11" class="edge">
<title>org.glassfish.mq:mq&#45;share&#45;&gt;org.glassfish.mq:mq</title>
<path fill="none" stroke="black" d="M408.87,-923.46C401.79,-919.76 395.09,-915.02 390,-909 322.63,-829.27 312.98,-697.67 312.17,-640.26"/>
<polygon fill="black" stroke="black" points="315.67,-640.09 312.11,-630.12 308.67,-640.14 315.67,-640.09"/>
</g>
<!-- org.glassfish.mq:mq&#45;logger -->
<g id="node13" class="node">
<title>org.glassfish.mq:mq&#45;logger</title>
<polygon fill="lightgrey" stroke="black" points="493,-900 409,-900 409,-864 493,-864 493,-900"/>
<text text-anchor="middle" x="451" y="-884.6" font-family="Helvetica,sans-Serif" font-size="8.00">mq&#45;logger</text>
<text text-anchor="middle" x="451" y="-875.6" font-family="Helvetica,sans-Serif" font-size="8.00">org.glassfish.mq</text>
</g>
<!-- org.glassfish.mq:mq&#45;logger&#45;&gt;org.glassfish.mq:mq -->
<g id="edge12" class="edge">
<title>org.glassfish.mq:mq&#45;logger&#45;&gt;org.glassfish.mq:mq</title>
<path fill="none" stroke="black" d="M408.82,-869.08C401.83,-865.42 395.17,-860.8 390,-855 334.26,-792.5 318.58,-689.72 314.19,-640.29"/>
<polygon fill="black" stroke="black" points="317.68,-640 313.4,-630.31 310.7,-640.55 317.68,-640"/>
</g>
<!-- org.glassfish.mq:mqcomm&#45;io -->
<g id="node14" class="node">
<title>org.glassfish.mq:mqcomm&#45;io</title>
<polygon fill="lightgrey" stroke="black" points="493,-846 409,-846 409,-810 493,-810 493,-846"/>
<text text-anchor="middle" x="451" y="-830.6" font-family="Helvetica,sans-Serif" font-size="8.00">mqcomm&#45;io</text>
<text text-anchor="middle" x="451" y="-821.6" font-family="Helvetica,sans-Serif" font-size="8.00">org.glassfish.mq</text>
</g>
<!-- org.glassfish.mq:mqcomm&#45;io&#45;&gt;org.glassfish.mq:mq -->
<g id="edge13" class="edge">
<title>org.glassfish.mq:mqcomm&#45;io&#45;&gt;org.glassfish.mq:mq</title>
<path fill="none" stroke="black" d="M408.88,-814.58C401.96,-810.97 395.32,-806.5 390,-801 345.65,-755.13 325.36,-680.38 317.21,-640"/>
<polygon fill="black" stroke="black" points="320.63,-639.21 315.31,-630.04 313.75,-640.52 320.63,-639.21"/>
</g>
<!-- org.glassfish.mq:mqjmx&#45;api -->
<g id="node15" class="node">
<title>org.glassfish.mq:mqjmx&#45;api</title>
<polygon fill="lightgrey" stroke="black" points="493,-792 409,-792 409,-756 493,-756 493,-792"/>
<text text-anchor="middle" x="451" y="-776.6" font-family="Helvetica,sans-Serif" font-size="8.00">mqjmx&#45;api</text>
<text text-anchor="middle" x="451" y="-767.6" font-family="Helvetica,sans-Serif" font-size="8.00">org.glassfish.mq</text>
</g>
<!-- org.glassfish.mq:mqjmx&#45;api&#45;&gt;org.glassfish.mq:mq -->
<g id="edge14" class="edge">
<title>org.glassfish.mq:mqjmx&#45;api&#45;&gt;org.glassfish.mq:mq</title>
<path fill="none" stroke="black" d="M408.83,-759.66C402.08,-756.18 395.5,-751.99 390,-747 356.9,-717 334.23,-669.45 322.32,-639.53"/>
<polygon fill="black" stroke="black" points="325.56,-638.18 318.7,-630.11 319.02,-640.7 325.56,-638.18"/>
</g>
<!-- org.glassfish.mq:http&#45;tunnel -->
<g id="node16" class="node">
<title>org.glassfish.mq:http&#45;tunnel</title>
<polygon fill="wheat" stroke="black" points="493,-738 409,-738 409,-702 493,-702 493,-738"/>
<text text-anchor="middle" x="451" y="-722.6" font-family="Helvetica,sans-Serif" font-size="8.00">http&#45;tunnel</text>
<text text-anchor="middle" x="451" y="-713.6" font-family="Helvetica,sans-Serif" font-size="8.00">org.glassfish.mq</text>
</g>
<!-- org.glassfish.mq:http&#45;tunnel&#45;&gt;org.glassfish.mq:mq -->
<g id="edge15" class="edge">
<title>org.glassfish.mq:http&#45;tunnel&#45;&gt;org.glassfish.mq:mq</title>
<path fill="none" stroke="black" d="M408.82,-704.03C402.29,-700.78 395.78,-697.09 390,-693 368.14,-677.56 347.41,-655.34 332.9,-638.07"/>
<polygon fill="black" stroke="black" points="335.35,-635.55 326.29,-630.05 329.94,-639.99 335.35,-635.55"/>
</g>
<!-- org.glassfish.mq:mqhttp&#45;tunnel&#45;api&#45;share -->
<g id="node17" class="node">
<title>org.glassfish.mq:mqhttp&#45;tunnel&#45;api&#45;share</title>
<polygon fill="lightgrey" stroke="black" points="665.5,-1008 549.5,-1008 549.5,-972 665.5,-972 665.5,-1008"/>
<text text-anchor="middle" x="607.5" y="-992.6" font-family="Helvetica,sans-Serif" font-size="8.00">mqhttp&#45;tunnel&#45;api&#45;share</text>
<text text-anchor="middle" x="607.5" y="-983.6" font-family="Helvetica,sans-Serif" font-size="8.00">org.glassfish.mq</text>
</g>
<!-- org.glassfish.mq:mqhttp&#45;tunnel&#45;api&#45;share&#45;&gt;org.glassfish.mq:http&#45;tunnel -->
<g id="edge16" class="edge">
<title>org.glassfish.mq:mqhttp&#45;tunnel&#45;api&#45;share&#45;&gt;org.glassfish.mq:http&#45;tunnel</title>
<path fill="none" stroke="black" d="M557.09,-971.96C553.68,-969.35 550.58,-966.38 548,-963 488.96,-885.63 571.41,-824.09 512,-747 509.18,-743.34 505.75,-740.16 501.98,-737.4"/>
<polygon fill="black" stroke="black" points="503.61,-734.3 493.27,-732.02 499.93,-740.25 503.61,-734.3"/>
</g>
<!-- org.glassfish.mq:mqhttp&#45;tunnel&#45;api&#45;server -->
<g id="node18" class="node">
<title>org.glassfish.mq:mqhttp&#45;tunnel&#45;api&#45;server</title>
<polygon fill="lightgrey" stroke="black" points="667,-954 548,-954 548,-918 667,-918 667,-954"/>
<text text-anchor="middle" x="607.5" y="-938.6" font-family="Helvetica,sans-Serif" font-size="8.00">mqhttp&#45;tunnel&#45;api&#45;server</text>
<text text-anchor="middle" x="607.5" y="-929.6" font-family="Helvetica,sans-Serif" font-size="8.00">org.glassfish.mq</text>
</g>
<!-- org.glassfish.mq:mqhttp&#45;tunnel&#45;api&#45;server&#45;&gt;org.glassfish.mq:http&#45;tunnel -->
<g id="edge17" class="edge">
<title>org.glassfish.mq:mqhttp&#45;tunnel&#45;api&#45;server&#45;&gt;org.glassfish.mq:http&#45;tunnel</title>
<path fill="none" stroke="black" d="M557.29,-917.81C553.83,-915.23 550.67,-912.31 548,-909 501.71,-851.58 558.57,-804.2 512,-747 509.08,-743.42 505.59,-740.29 501.77,-737.57"/>
<polygon fill="black" stroke="black" points="503.36,-734.44 493,-732.23 499.72,-740.42 503.36,-734.44"/>
</g>
<!-- org.glassfish.mq:mqhttp&#45;tunnel -->
<g id="node19" class="node">
<title>org.glassfish.mq:mqhttp&#45;tunnel</title>
<polygon fill="lightgrey" stroke="black" points="649.5,-900 565.5,-900 565.5,-864 649.5,-864 649.5,-900"/>
<text text-anchor="middle" x="607.5" y="-884.6" font-family="Helvetica,sans-Serif" font-size="8.00">mqhttp&#45;tunnel</text>
<text text-anchor="middle" x="607.5" y="-875.6" font-family="Helvetica,sans-Serif" font-size="8.00">org.glassfish.mq</text>
</g>
<!-- org.glassfish.mq:mqhttp&#45;tunnel&#45;&gt;org.glassfish.mq:http&#45;tunnel -->
<g id="edge18" class="edge">
<title>org.glassfish.mq:mqhttp&#45;tunnel&#45;&gt;org.glassfish.mq:http&#45;tunnel</title>
<path fill="none" stroke="black" d="M565.5,-868.39C559.01,-864.82 552.85,-860.42 548,-855 514.26,-817.3 545.92,-784.54 512,-747 508.99,-743.67 505.49,-740.72 501.72,-738.12"/>
<polygon fill="black" stroke="black" points="503.5,-735.11 493.12,-732.97 499.9,-741.12 503.5,-735.11"/>
</g>
<!-- org.glassfish.mq:mq&#45;direct -->
<g id="node20" class="node">
<title>org.glassfish.mq:mq&#45;direct</title>
<polygon fill="lightgrey" stroke="black" points="493,-684 409,-684 409,-648 493,-648 493,-684"/>
<text text-anchor="middle" x="451" y="-668.6" font-family="Helvetica,sans-Serif" font-size="8.00">mq&#45;direct</text>
<text text-anchor="middle" x="451" y="-659.6" font-family="Helvetica,sans-Serif" font-size="8.00">org.glassfish.mq</text>
</g>
<!-- org.glassfish.mq:mq&#45;direct&#45;&gt;org.glassfish.mq:mq -->
<g id="edge19" class="edge">
<title>org.glassfish.mq:mq&#45;direct&#45;&gt;org.glassfish.mq:mq</title>
<path fill="none" stroke="black" d="M408.75,-649.8C394.47,-644.19 378.3,-637.84 363.35,-631.97"/>
<polygon fill="black" stroke="black" points="364.31,-628.59 353.73,-628.19 361.75,-635.1 364.31,-628.59"/>
</g>
<!-- org.glassfish.mq:persist -->
<g id="node21" class="node">
<title>org.glassfish.mq:persist</title>
<polygon fill="wheat" stroke="black" points="493,-630 409,-630 409,-594 493,-594 493,-630"/>
<text text-anchor="middle" x="451" y="-614.6" font-family="Helvetica,sans-Serif" font-size="8.00">persist</text>
<text text-anchor="middle" x="451" y="-605.6" font-family="Helvetica,sans-Serif" font-size="8.00">org.glassfish.mq</text>
</g>
<!-- org.glassfish.mq:persist&#45;&gt;org.glassfish.mq:mq -->
<g id="edge20" class="edge">
<title>org.glassfish.mq:persist&#45;&gt;org.glassfish.mq:mq</title>
<path fill="none" stroke="black" d="M408.75,-612C394.61,-612 378.61,-612 363.77,-612"/>
<polygon fill="black" stroke="black" points="363.73,-608.5 353.73,-612 363.73,-615.5 363.73,-608.5"/>
</g>
<!-- org.glassfish.mq:mq&#45;txnlog -->
<g id="node22" class="node">
<title>org.glassfish.mq:mq&#45;txnlog</title>
<polygon fill="lightgrey" stroke="black" points="649.5,-846 565.5,-846 565.5,-810 649.5,-810 649.5,-846"/>
<text text-anchor="middle" x="607.5" y="-830.6" font-family="Helvetica,sans-Serif" font-size="8.00">mq&#45;txnlog</text>
<text text-anchor="middle" x="607.5" y="-821.6" font-family="Helvetica,sans-Serif" font-size="8.00">org.glassfish.mq</text>
</g>
<!-- org.glassfish.mq:mq&#45;txnlog&#45;&gt;org.glassfish.mq:persist -->
<g id="edge21" class="edge">
<title>org.glassfish.mq:mq&#45;txnlog&#45;&gt;org.glassfish.mq:persist</title>
<path fill="none" stroke="black" d="M565.32,-814.96C558.77,-811.33 552.63,-806.75 548,-801 501.71,-743.58 558.57,-696.2 512,-639 509.08,-635.42 505.59,-632.29 501.77,-629.57"/>
<polygon fill="black" stroke="black" points="503.36,-626.44 493,-624.23 499.72,-632.42 503.36,-626.44"/>
</g>
<!-- org.glassfish.mq:mq&#45;broker -->
<g id="node23" class="node">
<title>org.glassfish.mq:mq&#45;broker</title>
<polygon fill="wheat" stroke="black" points="493,-576 409,-576 409,-540 493,-540 493,-576"/>
<text text-anchor="middle" x="451" y="-560.6" font-family="Helvetica,sans-Serif" font-size="8.00">mq&#45;broker</text>
<text text-anchor="middle" x="451" y="-551.6" font-family="Helvetica,sans-Serif" font-size="8.00">org.glassfish.mq</text>
</g>
<!-- org.glassfish.mq:mq&#45;broker&#45;&gt;org.glassfish.mq:mq -->
<g id="edge22" class="edge">
<title>org.glassfish.mq:mq&#45;broker&#45;&gt;org.glassfish.mq:mq</title>
<path fill="none" stroke="black" d="M408.75,-574.2C394.47,-579.81 378.3,-586.16 363.35,-592.03"/>
<polygon fill="black" stroke="black" points="361.75,-588.9 353.73,-595.81 364.31,-595.41 361.75,-588.9"/>
</g>
<!-- org.glassfish.mq:mqbroker&#45;comm -->
<g id="node24" class="node">
<title>org.glassfish.mq:mqbroker&#45;comm</title>
<polygon fill="lightgrey" stroke="black" points="649.5,-738 565.5,-738 565.5,-702 649.5,-702 649.5,-738"/>
<text text-anchor="middle" x="607.5" y="-722.6" font-family="Helvetica,sans-Serif" font-size="8.00">mqbroker&#45;comm</text>
<text text-anchor="middle" x="607.5" y="-713.6" font-family="Helvetica,sans-Serif" font-size="8.00">org.glassfish.mq</text>
</g>
<!-- org.glassfish.mq:mqbroker&#45;comm&#45;&gt;org.glassfish.mq:mq&#45;broker -->
<g id="edge23" class="edge">
<title>org.glassfish.mq:mqbroker&#45;comm&#45;&gt;org.glassfish.mq:mq&#45;broker</title>
<path fill="none" stroke="black" d="M565.5,-706.39C559.01,-702.82 552.85,-698.42 548,-693 514.26,-655.3 545.92,-622.54 512,-585 508.99,-581.67 505.49,-578.72 501.72,-576.12"/>
<polygon fill="black" stroke="black" points="503.5,-573.11 493.12,-570.97 499.9,-579.12 503.5,-573.11"/>
</g>
<!-- org.glassfish.mq:mq&#45;portunif -->
<g id="node25" class="node">
<title>org.glassfish.mq:mq&#45;portunif</title>
<polygon fill="lightgrey" stroke="black" points="493,-522 409,-522 409,-486 493,-486 493,-522"/>
<text text-anchor="middle" x="451" y="-506.6" font-family="Helvetica,sans-Serif" font-size="8.00">mq&#45;portunif</text>
<text text-anchor="middle" x="451" y="-497.6" font-family="Helvetica,sans-Serif" font-size="8.00">org.glassfish.mq</text>
</g>
<!-- org.glassfish.mq:mq&#45;portunif&#45;&gt;org.glassfish.mq:mq -->
<g id="edge24" class="edge">
<title>org.glassfish.mq:mq&#45;portunif&#45;&gt;org.glassfish.mq:mq</title>
<path fill="none" stroke="black" d="M408.79,-518.81C402.12,-522.22 395.58,-526.27 390,-531 367.99,-549.64 374.51,-564.72 354,-585 353.21,-585.79 352.38,-586.56 351.54,-587.33"/>
<polygon fill="black" stroke="black" points="349.04,-584.85 343.5,-593.88 353.47,-590.27 349.04,-584.85"/>
</g>
<!-- org.glassfish.mq:bridge -->
<g id="node26" class="node">
<title>org.glassfish.mq:bridge</title>
<polygon fill="wheat" stroke="black" points="493,-387 409,-387 409,-351 493,-351 493,-387"/>
<text text-anchor="middle" x="451" y="-371.6" font-family="Helvetica,sans-Serif" font-size="8.00">bridge</text>
<text text-anchor="middle" x="451" y="-362.6" font-family="Helvetica,sans-Serif" font-size="8.00">org.glassfish.mq</text>
</g>
<!-- org.glassfish.mq:bridge&#45;&gt;org.glassfish.mq:mq -->
<g id="edge25" class="edge">
<title>org.glassfish.mq:bridge&#45;&gt;org.glassfish.mq:mq</title>
<path fill="none" stroke="black" d="M438.52,-387.2C425.56,-408.24 404.42,-444.21 390,-477 369.63,-523.31 384.94,-544.96 354,-585 353.53,-585.61 353.04,-586.21 352.53,-586.81"/>
<polygon fill="black" stroke="black" points="349.9,-584.48 345.17,-593.96 354.78,-589.5 349.9,-584.48"/>
</g>
<!-- org.glassfish.mq:mqbridge&#45;api -->
<g id="node27" class="node">
<title>org.glassfish.mq:mqbridge&#45;api</title>
<polygon fill="lightgrey" stroke="black" points="649.5,-414 565.5,-414 565.5,-378 649.5,-378 649.5,-414"/>
<text text-anchor="middle" x="607.5" y="-398.6" font-family="Helvetica,sans-Serif" font-size="8.00">mqbridge&#45;api</text>
<text text-anchor="middle" x="607.5" y="-389.6" font-family="Helvetica,sans-Serif" font-size="8.00">org.glassfish.mq</text>
</g>
<!-- org.glassfish.mq:mqbridge&#45;api&#45;&gt;org.glassfish.mq:bridge -->
<g id="edge26" class="edge">
<title>org.glassfish.mq:mqbridge&#45;api&#45;&gt;org.glassfish.mq:bridge</title>
<path fill="none" stroke="black" d="M565.1,-388.76C546.06,-385.44 523.28,-381.46 503.18,-377.94"/>
<polygon fill="black" stroke="black" points="503.7,-374.48 493.25,-376.21 502.5,-381.38 503.7,-374.48"/>
</g>
<!-- org.glassfish.mq:mqbroker&#45;core -->
<g id="node28" class="node">
<title>org.glassfish.mq:mqbroker&#45;core</title>
<polygon fill="lightgrey" stroke="black" points="649.5,-684 565.5,-684 565.5,-648 649.5,-648 649.5,-684"/>
<text text-anchor="middle" x="607.5" y="-668.6" font-family="Helvetica,sans-Serif" font-size="8.00">mqbroker&#45;core</text>
<text text-anchor="middle" x="607.5" y="-659.6" font-family="Helvetica,sans-Serif" font-size="8.00">org.glassfish.mq</text>
</g>
<!-- org.glassfish.mq:mqbroker&#45;core&#45;&gt;org.glassfish.mq:mq&#45;broker -->
<g id="edge27" class="edge">
<title>org.glassfish.mq:mqbroker&#45;core&#45;&gt;org.glassfish.mq:mq&#45;broker</title>
<path fill="none" stroke="black" d="M565.41,-650.59C559.22,-647.29 553.19,-643.44 548,-639 526.08,-620.25 534.01,-603.64 512,-585 508.95,-582.42 505.61,-580.03 502.12,-577.85"/>
<polygon fill="black" stroke="black" points="503.64,-574.68 493.21,-572.81 500.19,-580.78 503.64,-574.68"/>
</g>
<!-- org.glassfish.mq:jmsra -->
<g id="node29" class="node">
<title>org.glassfish.mq:jmsra</title>
<polygon fill="wheat" stroke="black" points="493,-333 409,-333 409,-297 493,-297 493,-333"/>
<text text-anchor="middle" x="451" y="-317.6" font-family="Helvetica,sans-Serif" font-size="8.00">jmsra</text>
<text text-anchor="middle" x="451" y="-308.6" font-family="Helvetica,sans-Serif" font-size="8.00">org.glassfish.mq</text>
</g>
<!-- org.glassfish.mq:jmsra&#45;&gt;org.glassfish.mq:mq -->
<g id="edge28" class="edge">
<title>org.glassfish.mq:jmsra&#45;&gt;org.glassfish.mq:mq</title>
<path fill="none" stroke="black" d="M408.95,-326.79C401.69,-330.57 394.89,-335.53 390,-342 324.14,-429.08 412.97,-493.11 354,-585 353.74,-585.4 353.48,-585.79 353.21,-586.18"/>
<polygon fill="black" stroke="black" points="350.58,-583.87 346.54,-593.67 355.81,-588.53 350.58,-583.87"/>
</g>
<!-- org.glassfish.mq:mqjmsra&#45;api -->
<g id="node30" class="node">
<title>org.glassfish.mq:mqjmsra&#45;api</title>
<polygon fill="lightgrey" stroke="black" points="649.5,-198 565.5,-198 565.5,-162 649.5,-162 649.5,-198"/>
<text text-anchor="middle" x="607.5" y="-182.6" font-family="Helvetica,sans-Serif" font-size="8.00">mqjmsra&#45;api</text>
<text text-anchor="middle" x="607.5" y="-173.6" font-family="Helvetica,sans-Serif" font-size="8.00">org.glassfish.mq</text>
</g>
<!-- org.glassfish.mq:mqjmsra&#45;api&#45;&gt;org.glassfish.mq:jmsra -->
<g id="edge29" class="edge">
<title>org.glassfish.mq:mqjmsra&#45;api&#45;&gt;org.glassfish.mq:jmsra</title>
<path fill="none" stroke="black" d="M565.32,-194.34C559,-197.8 552.95,-201.98 548,-207 520.34,-235.05 539.79,-260.08 512,-288 509.01,-291.01 505.62,-293.71 502.02,-296.13"/>
<polygon fill="black" stroke="black" points="500.13,-293.18 493.3,-301.29 503.69,-299.21 500.13,-293.18"/>
</g>
<!-- org.glassfish.mq:mq&#45;client -->
<g id="node31" class="node">
<title>org.glassfish.mq:mq&#45;client</title>
<polygon fill="lightgrey" stroke="black" points="493,-279 409,-279 409,-243 493,-243 493,-279"/>
<text text-anchor="middle" x="451" y="-263.6" font-family="Helvetica,sans-Serif" font-size="8.00">mq&#45;client</text>
<text text-anchor="middle" x="451" y="-254.6" font-family="Helvetica,sans-Serif" font-size="8.00">org.glassfish.mq</text>
</g>
<!-- org.glassfish.mq:mq&#45;client&#45;&gt;org.glassfish.mq:mq -->
<g id="edge30" class="edge">
<title>org.glassfish.mq:mq&#45;client&#45;&gt;org.glassfish.mq:mq</title>
<path fill="none" stroke="black" d="M408.82,-272.69C401.56,-276.48 394.81,-281.47 390,-288 311.2,-395.1 424.33,-472.15 354,-585 353.75,-585.4 353.49,-585.8 353.23,-586.19"/>
<polygon fill="black" stroke="black" points="350.58,-583.89 346.63,-593.72 355.85,-588.51 350.58,-583.89"/>
</g>
<!-- org.glassfish.mq:mq&#45;ums -->
<g id="node32" class="node">
<title>org.glassfish.mq:mq&#45;ums</title>
<polygon fill="lightgrey" stroke="black" points="493,-225 409,-225 409,-189 493,-189 493,-225"/>
<text text-anchor="middle" x="451" y="-209.6" font-family="Helvetica,sans-Serif" font-size="8.00">mq&#45;ums</text>
<text text-anchor="middle" x="451" y="-200.6" font-family="Helvetica,sans-Serif" font-size="8.00">org.glassfish.mq</text>
</g>
<!-- org.glassfish.mq:mq&#45;ums&#45;&gt;org.glassfish.mq:mq -->
<g id="edge31" class="edge">
<title>org.glassfish.mq:mq&#45;ums&#45;&gt;org.glassfish.mq:mq</title>
<path fill="none" stroke="black" d="M408.72,-218.62C401.47,-222.42 394.75,-227.42 390,-234 298.24,-361.17 435.71,-451.15 354,-585 353.75,-585.4 353.5,-585.8 353.24,-586.2"/>
<polygon fill="black" stroke="black" points="350.59,-583.91 346.69,-593.76 355.88,-588.49 350.59,-583.91"/>
</g>
<!-- org.glassfish.mq:mqdisk&#45;io -->
<g id="node33" class="node">
<title>org.glassfish.mq:mqdisk&#45;io</title>
<polygon fill="lightgrey" stroke="black" points="649.5,-792 565.5,-792 565.5,-756 649.5,-756 649.5,-792"/>
<text text-anchor="middle" x="607.5" y="-776.6" font-family="Helvetica,sans-Serif" font-size="8.00">mqdisk&#45;io</text>
<text text-anchor="middle" x="607.5" y="-767.6" font-family="Helvetica,sans-Serif" font-size="8.00">org.glassfish.mq</text>
</g>
<!-- org.glassfish.mq:mqdisk&#45;io&#45;&gt;org.glassfish.mq:persist -->
<g id="edge32" class="edge">
<title>org.glassfish.mq:mqdisk&#45;io&#45;&gt;org.glassfish.mq:persist</title>
<path fill="none" stroke="black" d="M565.5,-760.39C559.01,-756.82 552.85,-752.42 548,-747 514.26,-709.3 545.92,-676.54 512,-639 508.99,-635.67 505.49,-632.72 501.72,-630.12"/>
<polygon fill="black" stroke="black" points="503.5,-627.11 493.12,-624.97 499.9,-633.12 503.5,-627.11"/>
</g>
<!-- org.glassfish.mq:mq&#45;admin -->
<g id="node34" class="node">
<title>org.glassfish.mq:mq&#45;admin</title>
<polygon fill="wheat" stroke="black" points="493,-144 409,-144 409,-108 493,-108 493,-144"/>
<text text-anchor="middle" x="451" y="-128.6" font-family="Helvetica,sans-Serif" font-size="8.00">mq&#45;admin</text>
<text text-anchor="middle" x="451" y="-119.6" font-family="Helvetica,sans-Serif" font-size="8.00">org.glassfish.mq</text>
</g>
<!-- org.glassfish.mq:mq&#45;admin&#45;&gt;org.glassfish.mq:mq -->
<g id="edge33" class="edge">
<title>org.glassfish.mq:mq&#45;admin&#45;&gt;org.glassfish.mq:mq</title>
<path fill="none" stroke="black" d="M421.69,-144.22C409.82,-153.44 397.14,-165.71 390,-180 309.24,-341.66 447.11,-430.13 354,-585 353.82,-585.3 353.63,-585.6 353.44,-585.9"/>
<polygon fill="black" stroke="black" points="350.55,-583.9 346.73,-593.79 355.88,-588.44 350.55,-583.9"/>
</g>
<!-- org.glassfish.mq:mqadmin&#45;cli -->
<g id="node35" class="node">
<title>org.glassfish.mq:mqadmin&#45;cli</title>
<polygon fill="lightgrey" stroke="black" points="649.5,-90 565.5,-90 565.5,-54 649.5,-54 649.5,-90"/>
<text text-anchor="middle" x="607.5" y="-74.6" font-family="Helvetica,sans-Serif" font-size="8.00">mqadmin&#45;cli</text>
<text text-anchor="middle" x="607.5" y="-65.6" font-family="Helvetica,sans-Serif" font-size="8.00">org.glassfish.mq</text>
</g>
<!-- org.glassfish.mq:mqadmin&#45;cli&#45;&gt;org.glassfish.mq:mq&#45;admin -->
<g id="edge34" class="edge">
<title>org.glassfish.mq:mqadmin&#45;cli&#45;&gt;org.glassfish.mq:mq&#45;admin</title>
<path fill="none" stroke="black" d="M565.1,-86.47C545.97,-93.16 523.08,-101.16 502.9,-108.21"/>
<polygon fill="black" stroke="black" points="501.53,-104.98 493.25,-111.58 503.84,-111.59 501.53,-104.98"/>
</g>
<!-- org.glassfish.mq:mqjmsra&#45;ra -->
<g id="node36" class="node">
<title>org.glassfish.mq:mqjmsra&#45;ra</title>
<polygon fill="lightgrey" stroke="black" points="649.5,-144 565.5,-144 565.5,-108 649.5,-108 649.5,-144"/>
<text text-anchor="middle" x="607.5" y="-128.6" font-family="Helvetica,sans-Serif" font-size="8.00">mqjmsra&#45;ra</text>
<text text-anchor="middle" x="607.5" y="-119.6" font-family="Helvetica,sans-Serif" font-size="8.00">org.glassfish.mq</text>
</g>
<!-- org.glassfish.mq:mqjmsra&#45;ra&#45;&gt;org.glassfish.mq:jmsra -->
<g id="edge35" class="edge">
<title>org.glassfish.mq:mqjmsra&#45;ra&#45;&gt;org.glassfish.mq:jmsra</title>
<path fill="none" stroke="black" d="M565.22,-139.37C558.76,-142.96 552.68,-147.44 548,-153 508.02,-200.51 552.21,-240.68 512,-288 509.05,-291.47 505.56,-294.52 501.78,-297.19"/>
<polygon fill="black" stroke="black" points="499.84,-294.27 493.1,-302.44 503.47,-300.25 499.84,-294.27"/>
</g>
<!-- org.glassfish.mq:mqbridge&#45;jms -->
<g id="node37" class="node">
<title>org.glassfish.mq:mqbridge&#45;jms</title>
<polygon fill="lightgrey" stroke="black" points="649.5,-360 565.5,-360 565.5,-324 649.5,-324 649.5,-360"/>
<text text-anchor="middle" x="607.5" y="-344.6" font-family="Helvetica,sans-Serif" font-size="8.00">mqbridge&#45;jms</text>
<text text-anchor="middle" x="607.5" y="-335.6" font-family="Helvetica,sans-Serif" font-size="8.00">org.glassfish.mq</text>
</g>
<!-- org.glassfish.mq:mqbridge&#45;jms&#45;&gt;org.glassfish.mq:bridge -->
<g id="edge36" class="edge">
<title>org.glassfish.mq:mqbridge&#45;jms&#45;&gt;org.glassfish.mq:bridge</title>
<path fill="none" stroke="black" d="M565.1,-349.24C546.06,-352.56 523.28,-356.54 503.18,-360.06"/>
<polygon fill="black" stroke="black" points="502.5,-356.62 493.25,-361.79 503.7,-363.52 502.5,-356.62"/>
</g>
<!-- org.glassfish.mq:mqbridge&#45;stomp -->
<g id="node38" class="node">
<title>org.glassfish.mq:mqbridge&#45;stomp</title>
<polygon fill="lightgrey" stroke="black" points="649.5,-306 565.5,-306 565.5,-270 649.5,-270 649.5,-306"/>
<text text-anchor="middle" x="607.5" y="-290.6" font-family="Helvetica,sans-Serif" font-size="8.00">mqbridge&#45;stomp</text>
<text text-anchor="middle" x="607.5" y="-281.6" font-family="Helvetica,sans-Serif" font-size="8.00">org.glassfish.mq</text>
</g>
<!-- org.glassfish.mq:mqbridge&#45;stomp&#45;&gt;org.glassfish.mq:bridge -->
<g id="edge37" class="edge">
<title>org.glassfish.mq:mqbridge&#45;stomp&#45;&gt;org.glassfish.mq:bridge</title>
<path fill="none" stroke="black" d="M565.33,-305.66C559.41,-308.58 553.48,-311.73 548,-315 530.82,-325.25 529.22,-331.83 512,-342 508.86,-343.85 505.58,-345.66 502.23,-347.41"/>
<polygon fill="black" stroke="black" points="500.66,-344.28 493.28,-351.88 503.79,-350.54 500.66,-344.28"/>
</g>
<!-- org.glassfish.mq:mqbridge&#45;admin -->
<g id="node39" class="node">
<title>org.glassfish.mq:mqbridge&#45;admin</title>
<polygon fill="lightgrey" stroke="black" points="649.5,-252 565.5,-252 565.5,-216 649.5,-216 649.5,-252"/>
<text text-anchor="middle" x="607.5" y="-236.6" font-family="Helvetica,sans-Serif" font-size="8.00">mqbridge&#45;admin</text>
<text text-anchor="middle" x="607.5" y="-227.6" font-family="Helvetica,sans-Serif" font-size="8.00">org.glassfish.mq</text>
</g>
<!-- org.glassfish.mq:mqbridge&#45;admin&#45;&gt;org.glassfish.mq:bridge -->
<g id="edge38" class="edge">
<title>org.glassfish.mq:mqbridge&#45;admin&#45;&gt;org.glassfish.mq:bridge</title>
<path fill="none" stroke="black" d="M565.32,-248.34C559,-251.8 552.95,-255.98 548,-261 520.34,-289.05 539.79,-314.08 512,-342 509.01,-345.01 505.62,-347.71 502.02,-350.13"/>
<polygon fill="black" stroke="black" points="500.13,-347.18 493.3,-355.29 503.69,-353.21 500.13,-347.18"/>
</g>
<!-- org.glassfish.mq:mq&#45;cluster -->
<g id="node40" class="node">
<title>org.glassfish.mq:mq&#45;cluster</title>
<polygon fill="lightgrey" stroke="black" points="649.5,-630 565.5,-630 565.5,-594 649.5,-594 649.5,-630"/>
<text text-anchor="middle" x="607.5" y="-614.6" font-family="Helvetica,sans-Serif" font-size="8.00">mq&#45;cluster</text>
<text text-anchor="middle" x="607.5" y="-605.6" font-family="Helvetica,sans-Serif" font-size="8.00">org.glassfish.mq</text>
</g>
<!-- org.glassfish.mq:mq&#45;cluster&#45;&gt;org.glassfish.mq:mq&#45;broker -->
<g id="edge39" class="edge">
<title>org.glassfish.mq:mq&#45;cluster&#45;&gt;org.glassfish.mq:mq&#45;broker</title>
<path fill="none" stroke="black" d="M565.1,-597.53C545.97,-590.84 523.08,-582.84 502.9,-575.79"/>
<polygon fill="black" stroke="black" points="503.84,-572.41 493.25,-572.42 501.53,-579.02 503.84,-572.41"/>
</g>
<!-- org.glassfish.mq:mqpersist&#45;file -->
<g id="node41" class="node">
<title>org.glassfish.mq:mqpersist&#45;file</title>
<polygon fill="lightgrey" stroke="black" points="649.5,-576 565.5,-576 565.5,-540 649.5,-540 649.5,-576"/>
<text text-anchor="middle" x="607.5" y="-560.6" font-family="Helvetica,sans-Serif" font-size="8.00">mqpersist&#45;file</text>
<text text-anchor="middle" x="607.5" y="-551.6" font-family="Helvetica,sans-Serif" font-size="8.00">org.glassfish.mq</text>
</g>
<!-- org.glassfish.mq:mqpersist&#45;file&#45;&gt;org.glassfish.mq:mq&#45;broker -->
<g id="edge40" class="edge">
<title>org.glassfish.mq:mqpersist&#45;file&#45;&gt;org.glassfish.mq:mq&#45;broker</title>
<path fill="none" stroke="black" d="M565.1,-558C546.14,-558 523.49,-558 503.46,-558"/>
<polygon fill="black" stroke="black" points="503.25,-554.5 493.25,-558 503.25,-561.5 503.25,-554.5"/>
</g>
<!-- org.glassfish.mq:mqpersist&#45;jdbc -->
<g id="node42" class="node">
<title>org.glassfish.mq:mqpersist&#45;jdbc</title>
<polygon fill="lightgrey" stroke="black" points="649.5,-522 565.5,-522 565.5,-486 649.5,-486 649.5,-522"/>
<text text-anchor="middle" x="607.5" y="-506.6" font-family="Helvetica,sans-Serif" font-size="8.00">mqpersist&#45;jdbc</text>
<text text-anchor="middle" x="607.5" y="-497.6" font-family="Helvetica,sans-Serif" font-size="8.00">org.glassfish.mq</text>
</g>
<!-- org.glassfish.mq:mqpersist&#45;jdbc&#45;&gt;org.glassfish.mq:mq&#45;broker -->
<g id="edge41" class="edge">
<title>org.glassfish.mq:mqpersist&#45;jdbc&#45;&gt;org.glassfish.mq:mq&#45;broker</title>
<path fill="none" stroke="black" d="M565.1,-518.47C545.97,-525.16 523.08,-533.16 502.9,-540.21"/>
<polygon fill="black" stroke="black" points="501.53,-536.98 493.25,-543.58 503.84,-543.59 501.53,-536.98"/>
</g>
<!-- org.glassfish.mq:mq&#45;partition -->
<g id="node43" class="node">
<title>org.glassfish.mq:mq&#45;partition</title>
<polygon fill="wheat" stroke="black" points="649.5,-468 565.5,-468 565.5,-432 649.5,-432 649.5,-468"/>
<text text-anchor="middle" x="607.5" y="-452.6" font-family="Helvetica,sans-Serif" font-size="8.00">mq&#45;partition</text>
<text text-anchor="middle" x="607.5" y="-443.6" font-family="Helvetica,sans-Serif" font-size="8.00">org.glassfish.mq</text>
</g>
<!-- org.glassfish.mq:mq&#45;partition&#45;&gt;org.glassfish.mq:mq&#45;broker -->
<g id="edge42" class="edge">
<title>org.glassfish.mq:mq&#45;partition&#45;&gt;org.glassfish.mq:mq&#45;broker</title>
<path fill="none" stroke="black" d="M565.41,-465.41C559.22,-468.71 553.19,-472.56 548,-477 526.08,-495.75 534.01,-512.36 512,-531 508.95,-533.58 505.61,-535.97 502.12,-538.15"/>
<polygon fill="black" stroke="black" points="500.19,-535.22 493.21,-543.19 503.64,-541.32 500.19,-535.22"/>
</g>
<!-- org.glassfish.mq:mqpartition&#45;persist&#45;api -->
<g id="node44" class="node">
<title>org.glassfish.mq:mqpartition&#45;persist&#45;api</title>
<polygon fill="lightgrey" stroke="black" points="815.5,-495 705.5,-495 705.5,-459 815.5,-459 815.5,-495"/>
<text text-anchor="middle" x="760.5" y="-479.6" font-family="Helvetica,sans-Serif" font-size="8.00">mqpartition&#45;persist&#45;api</text>
<text text-anchor="middle" x="760.5" y="-470.6" font-family="Helvetica,sans-Serif" font-size="8.00">org.glassfish.mq</text>
</g>
<!-- org.glassfish.mq:mqpartition&#45;persist&#45;api&#45;&gt;org.glassfish.mq:mq&#45;partition -->
<g id="edge43" class="edge">
<title>org.glassfish.mq:mqpartition&#45;persist&#45;api&#45;&gt;org.glassfish.mq:mq&#45;partition</title>
<path fill="none" stroke="black" d="M705.41,-467.33C690.56,-464.67 674.5,-461.8 659.81,-459.18"/>
<polygon fill="black" stroke="black" points="660.35,-455.72 649.89,-457.4 659.12,-462.61 660.35,-455.72"/>
</g>
<!-- org.glassfish.mq:mqpartition&#45;persist&#45;jdbc -->
<g id="node45" class="node">
<title>org.glassfish.mq:mqpartition&#45;persist&#45;jdbc</title>
<polygon fill="lightgrey" stroke="black" points="818,-441 703,-441 703,-405 818,-405 818,-441"/>
<text text-anchor="middle" x="760.5" y="-425.6" font-family="Helvetica,sans-Serif" font-size="8.00">mqpartition&#45;persist&#45;jdbc</text>
<text text-anchor="middle" x="760.5" y="-416.6" font-family="Helvetica,sans-Serif" font-size="8.00">org.glassfish.mq</text>
</g>
<!-- org.glassfish.mq:mqpartition&#45;persist&#45;jdbc&#45;&gt;org.glassfish.mq:mq&#45;partition -->
<g id="edge44" class="edge">
<title>org.glassfish.mq:mqpartition&#45;persist&#45;jdbc&#45;&gt;org.glassfish.mq:mq&#45;partition</title>
<path fill="none" stroke="black" d="M702.84,-433.13C688.7,-435.66 673.62,-438.36 659.75,-440.84"/>
<polygon fill="black" stroke="black" points="659.13,-437.39 649.91,-442.6 660.37,-444.28 659.13,-437.39"/>
</g>
<!-- org.glassfish.mq:mqadmin&#45;gui -->
<g id="node46" class="node">
<title>org.glassfish.mq:mqadmin&#45;gui</title>
<polygon fill="lightgrey" stroke="black" points="649.5,-36 565.5,-36 565.5,0 649.5,0 649.5,-36"/>
<text text-anchor="middle" x="607.5" y="-20.6" font-family="Helvetica,sans-Serif" font-size="8.00">mqadmin&#45;gui</text>
<text text-anchor="middle" x="607.5" y="-11.6" font-family="Helvetica,sans-Serif" font-size="8.00">org.glassfish.mq</text>
</g>
<!-- org.glassfish.mq:mqadmin&#45;gui&#45;&gt;org.glassfish.mq:mq&#45;admin -->
<g id="edge45" class="edge">
<title>org.glassfish.mq:mqadmin&#45;gui&#45;&gt;org.glassfish.mq:mq&#45;admin</title>
<path fill="none" stroke="black" d="M565.41,-33.41C559.22,-36.71 553.19,-40.56 548,-45 526.08,-63.75 534.01,-80.36 512,-99 508.95,-101.58 505.61,-103.97 502.12,-106.15"/>
<polygon fill="black" stroke="black" points="500.19,-103.22 493.21,-111.19 503.64,-109.32 500.19,-103.22"/>
</g>
<!-- org.glassfish.mq:mq&#45;packager&#45;opensource -->
<g id="node47" class="node">
<title>org.glassfish.mq:mq&#45;packager&#45;opensource</title>
<polygon fill="lightgrey" stroke="black" points="512,-90 390,-90 390,-54 512,-54 512,-90"/>
<text text-anchor="middle" x="451" y="-74.6" font-family="Helvetica,sans-Serif" font-size="8.00">mq&#45;packager&#45;opensource</text>
<text text-anchor="middle" x="451" y="-65.6" font-family="Helvetica,sans-Serif" font-size="8.00">org.glassfish.mq</text>
</g>
<!-- org.glassfish.mq:mq&#45;packager&#45;opensource&#45;&gt;org.glassfish.mq:mq -->
<g id="edge46" class="edge">
<title>org.glassfish.mq:mq&#45;packager&#45;opensource&#45;&gt;org.glassfish.mq:mq</title>
<path fill="none" stroke="black" d="M398.45,-90.09C395.24,-92.68 392.36,-95.63 390,-99 327.88,-187.71 409.12,-491.78 354,-585 353.82,-585.31 353.63,-585.61 353.44,-585.91"/>
<polygon fill="black" stroke="black" points="350.55,-583.91 346.78,-593.82 355.9,-588.42 350.55,-583.91"/>
</g>
<!-- org.glassfish.mq:main&#45;aggregator -->
<g id="node48" class="node">
<title>org.glassfish.mq:main&#45;aggregator</title>
<polygon fill="wheat" stroke="black" points="354,-576 269,-576 269,-540 354,-540 354,-576"/>
<text text-anchor="middle" x="311.5" y="-560.6" font-family="Helvetica,sans-Serif" font-size="8.00">main&#45;aggregator</text>
<text text-anchor="middle" x="311.5" y="-551.6" font-family="Helvetica,sans-Serif" font-size="8.00">org.glassfish.mq</text>
</g>
<!-- org.glassfish.mq:main&#45;aggregator&#45;&gt;org.glassfish.mq:project -->
<g id="edge47" class="edge">
<title>org.glassfish.mq:main&#45;aggregator&#45;&gt;org.glassfish.mq:project</title>
<path fill="none" stroke="black" d="M270.71,-576.13C261.23,-580.45 251.01,-585.11 241.17,-589.59"/>
<polygon fill="black" stroke="black" points="239.53,-586.49 231.89,-593.82 242.44,-592.86 239.53,-586.49"/>
</g>
<!-- org.glassfish.mq:mq&#45;distribution -->
<g id="node49" class="node">
<title>org.glassfish.mq:mq&#45;distribution</title>
<polygon fill="lightgrey" stroke="black" points="233,-684 149,-684 149,-648 233,-648 233,-684"/>
<text text-anchor="middle" x="191" y="-668.6" font-family="Helvetica,sans-Serif" font-size="8.00">mq&#45;distribution</text>
<text text-anchor="middle" x="191" y="-659.6" font-family="Helvetica,sans-Serif" font-size="8.00">org.glassfish.mq</text>
</g>
<!-- org.glassfish.mq:mq&#45;distribution&#45;&gt;org.eclipse.ee4j:project -->
<g id="edge48" class="edge">
<title>org.glassfish.mq:mq&#45;distribution&#45;&gt;org.eclipse.ee4j:project</title>
<path fill="none" stroke="black" d="M148.8,-657.61C140.63,-655.94 131.87,-654.15 123.12,-652.37"/>
<polygon fill="black" stroke="black" points="123.78,-648.93 113.28,-650.37 122.38,-655.79 123.78,-648.93"/>
</g>
</g>
</svg>
