<?xml version="1.0" encoding="UTF-8" standalone="no"?>
<!DOCTYPE svg PUBLIC "-//W3C//DTD SVG 1.1//EN"
 "http://www.w3.org/Graphics/SVG/1.1/DTD/svg11.dtd">
<!-- Generated by graphviz version 2.42.4 (0)
 -->
<!-- Title: csi Pages: 1 -->
<svg width="2030pt" height="332pt"
 viewBox="0.00 0.00 2030.00 332.00" xmlns="http://www.w3.org/2000/svg" xmlns:xlink="http://www.w3.org/1999/xlink">
<g id="graph0" class="graph" transform="scale(1 1) rotate(0) translate(4 328)">
<title>csi</title>
<polygon fill="white" stroke="transparent" points="-4,4 -4,-328 2026,-328 2026,4 -4,4"/>
<!-- org.glassfish.mq:mq -->
<g id="node1" class="node">
<title>org.glassfish.mq:mq</title>
<polygon fill="wheat" stroke="black" points="900,-108 816,-108 816,-72 900,-72 900,-108"/>
<text text-anchor="middle" x="858" y="-92.6" font-family="Helvetica,sans-Serif" font-size="8.00">mq</text>
<text text-anchor="middle" x="858" y="-83.6" font-family="Helvetica,sans-Serif" font-size="8.00">org.glassfish.mq</text>
</g>
<!-- org.eclipse.ee4j:project -->
<g id="node2" class="node">
<title>org.eclipse.ee4j:project</title>
<polygon fill="lightgrey" stroke="black" points="914.5,-36 801.5,-36 801.5,0 914.5,0 914.5,-36"/>
<text text-anchor="middle" x="858" y="-16.1" font-family="Helvetica,sans-Serif" font-size="8.00">org.eclipse.ee4j:project</text>
</g>
<!-- org.glassfish.mq:mq&#45;&gt;org.eclipse.ee4j:project -->
<g id="edge1" class="edge">
<title>org.glassfish.mq:mq&#45;&gt;org.eclipse.ee4j:project</title>
<path fill="none" stroke="black" d="M858,-71.7C858,-63.98 858,-54.71 858,-46.11"/>
<polygon fill="black" stroke="black" points="861.5,-46.1 858,-36.1 854.5,-46.1 861.5,-46.1"/>
</g>
<!-- org.glassfish.mq:mqcomm&#45;util -->
<g id="node3" class="node">
<title>org.glassfish.mq:mqcomm&#45;util</title>
<polygon fill="lightgrey" stroke="black" points="84,-180 0,-180 0,-144 84,-144 84,-180"/>
<text text-anchor="middle" x="42" y="-164.6" font-family="Helvetica,sans-Serif" font-size="8.00">mqcomm&#45;util</text>
<text text-anchor="middle" x="42" y="-155.6" font-family="Helvetica,sans-Serif" font-size="8.00">org.glassfish.mq</text>
</g>
<!-- org.glassfish.mq:mqcomm&#45;util&#45;&gt;org.glassfish.mq:mq -->
<g id="edge2" class="edge">
<title>org.glassfish.mq:mqcomm&#45;util&#45;&gt;org.glassfish.mq:mq</title>
<path fill="none" stroke="black" d="M84.08,-146.06C87.08,-145.28 90.07,-144.58 93,-144 229.94,-116.89 655.91,-98.63 805.45,-92.91"/>
<polygon fill="black" stroke="black" points="805.88,-96.4 815.74,-92.52 805.61,-89.4 805.88,-96.4"/>
</g>
<!-- org.glassfish.mq:mqcomm&#45;io -->
<g id="node4" class="node">
<title>org.glassfish.mq:mqcomm&#45;io</title>
<polygon fill="lightgrey" stroke="black" points="186,-180 102,-180 102,-144 186,-144 186,-180"/>
<text text-anchor="middle" x="144" y="-164.6" font-family="Helvetica,sans-Serif" font-size="8.00">mqcomm&#45;io</text>
<text text-anchor="middle" x="144" y="-155.6" font-family="Helvetica,sans-Serif" font-size="8.00">org.glassfish.mq</text>
</g>
<!-- org.glassfish.mq:mqcomm&#45;io&#45;&gt;org.glassfish.mq:mq -->
<g id="edge3" class="edge">
<title>org.glassfish.mq:mqcomm&#45;io&#45;&gt;org.glassfish.mq:mq</title>
<path fill="none" stroke="black" d="M186.09,-146.1C189.08,-145.31 192.07,-144.6 195,-144 418.84,-98.45 692.64,-91.65 805.52,-90.91"/>
<polygon fill="black" stroke="black" points="805.64,-94.41 815.62,-90.86 805.6,-87.41 805.64,-94.41"/>
</g>
<!-- org.glassfish.mq:mq&#45;share -->
<g id="node5" class="node">
<title>org.glassfish.mq:mq&#45;share</title>
<polygon fill="lightgrey" stroke="black" points="288,-180 204,-180 204,-144 288,-144 288,-180"/>
<text text-anchor="middle" x="246" y="-164.6" font-family="Helvetica,sans-Serif" font-size="8.00">mq&#45;share</text>
<text text-anchor="middle" x="246" y="-155.6" font-family="Helvetica,sans-Serif" font-size="8.00">org.glassfish.mq</text>
</g>
<!-- org.glassfish.mq:mq&#45;share&#45;&gt;org.glassfish.mq:mq -->
<g id="edge4" class="edge">
<title>org.glassfish.mq:mq&#45;share&#45;&gt;org.glassfish.mq:mq</title>
<path fill="none" stroke="black" d="M288.1,-146.15C291.09,-145.34 294.08,-144.62 297,-144 481.44,-105.08 706.04,-94.72 805.87,-91.98"/>
<polygon fill="black" stroke="black" points="806.08,-95.48 815.99,-91.72 805.9,-88.48 806.08,-95.48"/>
</g>
<!-- org.glassfish.mq:mq&#45;logger -->
<g id="node6" class="node">
<title>org.glassfish.mq:mq&#45;logger</title>
<polygon fill="lightgrey" stroke="black" points="390,-180 306,-180 306,-144 390,-144 390,-180"/>
<text text-anchor="middle" x="348" y="-164.6" font-family="Helvetica,sans-Serif" font-size="8.00">mq&#45;logger</text>
<text text-anchor="middle" x="348" y="-155.6" font-family="Helvetica,sans-Serif" font-size="8.00">org.glassfish.mq</text>
</g>
<!-- org.glassfish.mq:mq&#45;logger&#45;&gt;org.glassfish.mq:mq -->
<g id="edge5" class="edge">
<title>org.glassfish.mq:mq&#45;logger&#45;&gt;org.glassfish.mq:mq</title>
<path fill="none" stroke="black" d="M390.11,-146.22C393.1,-145.4 396.08,-144.65 399,-144 544.24,-111.77 719.94,-98.42 805.74,-93.51"/>
<polygon fill="black" stroke="black" points="805.96,-97.01 815.75,-92.96 805.57,-90.02 805.96,-97.01"/>
</g>
<!-- org.glassfish.mq:mqjmx&#45;api -->
<g id="node7" class="node">
<title>org.glassfish.mq:mqjmx&#45;api</title>
<polygon fill="lightgrey" stroke="black" points="492,-180 408,-180 408,-144 492,-144 492,-180"/>
<text text-anchor="middle" x="450" y="-164.6" font-family="Helvetica,sans-Serif" font-size="8.00">mqjmx&#45;api</text>
<text text-anchor="middle" x="450" y="-155.6" font-family="Helvetica,sans-Serif" font-size="8.00">org.glassfish.mq</text>
</g>
<!-- org.glassfish.mq:mqjmx&#45;api&#45;&gt;org.glassfish.mq:mq -->
<g id="edge6" class="edge">
<title>org.glassfish.mq:mqjmx&#45;api&#45;&gt;org.glassfish.mq:mq</title>
<path fill="none" stroke="black" d="M492.14,-146.32C495.12,-145.48 498.1,-144.69 501,-144 607.66,-118.51 735.34,-103.1 805.45,-95.9"/>
<polygon fill="black" stroke="black" points="806.18,-99.35 815.78,-94.86 805.48,-92.38 806.18,-99.35"/>
</g>
<!-- org.glassfish.mq:http&#45;tunnel -->
<g id="node8" class="node">
<title>org.glassfish.mq:http&#45;tunnel</title>
<polygon fill="wheat" stroke="black" points="594,-180 510,-180 510,-144 594,-144 594,-180"/>
<text text-anchor="middle" x="552" y="-164.6" font-family="Helvetica,sans-Serif" font-size="8.00">http&#45;tunnel</text>
<text text-anchor="middle" x="552" y="-155.6" font-family="Helvetica,sans-Serif" font-size="8.00">org.glassfish.mq</text>
</g>
<!-- org.glassfish.mq:http&#45;tunnel&#45;&gt;org.glassfish.mq:mq -->
<g id="edge7" class="edge">
<title>org.glassfish.mq:http&#45;tunnel&#45;&gt;org.glassfish.mq:mq</title>
<path fill="none" stroke="black" d="M594.19,-146.52C597.16,-145.63 600.12,-144.78 603,-144 672.38,-125.3 753.88,-109.39 805.72,-100.02"/>
<polygon fill="black" stroke="black" points="806.46,-103.44 815.68,-98.23 805.22,-96.55 806.46,-103.44"/>
</g>
<!-- org.glassfish.mq:mqhttp&#45;tunnel&#45;api&#45;share -->
<g id="node9" class="node">
<title>org.glassfish.mq:mqhttp&#45;tunnel&#45;api&#45;share</title>
<polygon fill="lightgrey" stroke="black" points="150,-252 34,-252 34,-216 150,-216 150,-252"/>
<text text-anchor="middle" x="92" y="-236.6" font-family="Helvetica,sans-Serif" font-size="8.00">mqhttp&#45;tunnel&#45;api&#45;share</text>
<text text-anchor="middle" x="92" y="-227.6" font-family="Helvetica,sans-Serif" font-size="8.00">org.glassfish.mq</text>
</g>
<!-- org.glassfish.mq:mqhttp&#45;tunnel&#45;api&#45;share&#45;&gt;org.glassfish.mq:http&#45;tunnel -->
<g id="edge8" class="edge">
<title>org.glassfish.mq:mqhttp&#45;tunnel&#45;api&#45;share&#45;&gt;org.glassfish.mq:http&#45;tunnel</title>
<path fill="none" stroke="black" d="M150.36,-217.67C153.27,-217.07 156.16,-216.51 159,-216 306.23,-189.71 349.76,-211.38 499.85,-179.96"/>
<polygon fill="black" stroke="black" points="500.85,-183.33 509.9,-177.82 499.38,-176.49 500.85,-183.33"/>
</g>
<!-- org.glassfish.mq:mqhttp&#45;tunnel&#45;api&#45;server -->
<g id="node10" class="node">
<title>org.glassfish.mq:mqhttp&#45;tunnel&#45;api&#45;server</title>
<polygon fill="lightgrey" stroke="black" points="287.5,-252 168.5,-252 168.5,-216 287.5,-216 287.5,-252"/>
<text text-anchor="middle" x="228" y="-236.6" font-family="Helvetica,sans-Serif" font-size="8.00">mqhttp&#45;tunnel&#45;api&#45;server</text>
<text text-anchor="middle" x="228" y="-227.6" font-family="Helvetica,sans-Serif" font-size="8.00">org.glassfish.mq</text>
</g>
<!-- org.glassfish.mq:mqhttp&#45;tunnel&#45;api&#45;server&#45;&gt;org.glassfish.mq:http&#45;tunnel -->
<g id="edge9" class="edge">
<title>org.glassfish.mq:mqhttp&#45;tunnel&#45;api&#45;server&#45;&gt;org.glassfish.mq:http&#45;tunnel</title>
<path fill="none" stroke="black" d="M287.78,-218.01C290.9,-217.31 293.98,-216.64 297,-216 384,-197.63 409.99,-202.26 500.04,-180.05"/>
<polygon fill="black" stroke="black" points="500.99,-183.41 509.84,-177.58 499.29,-176.62 500.99,-183.41"/>
</g>
<!-- org.glassfish.mq:mqhttp&#45;tunnel -->
<g id="node11" class="node">
<title>org.glassfish.mq:mqhttp&#45;tunnel</title>
<polygon fill="lightgrey" stroke="black" points="390,-252 306,-252 306,-216 390,-216 390,-252"/>
<text text-anchor="middle" x="348" y="-236.6" font-family="Helvetica,sans-Serif" font-size="8.00">mqhttp&#45;tunnel</text>
<text text-anchor="middle" x="348" y="-227.6" font-family="Helvetica,sans-Serif" font-size="8.00">org.glassfish.mq</text>
</g>
<!-- org.glassfish.mq:mqhttp&#45;tunnel&#45;&gt;org.glassfish.mq:http&#45;tunnel -->
<g id="edge10" class="edge">
<title>org.glassfish.mq:mqhttp&#45;tunnel&#45;&gt;org.glassfish.mq:http&#45;tunnel</title>
<path fill="none" stroke="black" d="M390.27,-218.5C422.13,-207.56 466.01,-192.51 500.02,-180.84"/>
<polygon fill="black" stroke="black" points="501.46,-184.04 509.79,-177.49 499.19,-177.42 501.46,-184.04"/>
</g>
<!-- org.glassfish.mq:mqjaxm&#45;api -->
<g id="node12" class="node">
<title>org.glassfish.mq:mqjaxm&#45;api</title>
<polygon fill="lightgrey" stroke="black" points="696,-180 612,-180 612,-144 696,-144 696,-180"/>
<text text-anchor="middle" x="654" y="-164.6" font-family="Helvetica,sans-Serif" font-size="8.00">mqjaxm&#45;api</text>
<text text-anchor="middle" x="654" y="-155.6" font-family="Helvetica,sans-Serif" font-size="8.00">org.glassfish.mq</text>
</g>
<!-- org.glassfish.mq:mqjaxm&#45;api&#45;&gt;org.glassfish.mq:mq -->
<g id="edge11" class="edge">
<title>org.glassfish.mq:mqjaxm&#45;api&#45;&gt;org.glassfish.mq:mq</title>
<path fill="none" stroke="black" d="M696.27,-146.5C728.13,-135.56 772.01,-120.51 806.02,-108.84"/>
<polygon fill="black" stroke="black" points="807.46,-112.04 815.79,-105.49 805.19,-105.42 807.46,-112.04"/>
</g>
<!-- org.glassfish.mq:mq&#45;direct -->
<g id="node13" class="node">
<title>org.glassfish.mq:mq&#45;direct</title>
<polygon fill="lightgrey" stroke="black" points="798,-180 714,-180 714,-144 798,-144 798,-180"/>
<text text-anchor="middle" x="756" y="-164.6" font-family="Helvetica,sans-Serif" font-size="8.00">mq&#45;direct</text>
<text text-anchor="middle" x="756" y="-155.6" font-family="Helvetica,sans-Serif" font-size="8.00">org.glassfish.mq</text>
</g>
<!-- org.glassfish.mq:mq&#45;direct&#45;&gt;org.glassfish.mq:mq -->
<g id="edge12" class="edge">
<title>org.glassfish.mq:mq&#45;direct&#45;&gt;org.glassfish.mq:mq</title>
<path fill="none" stroke="black" d="M780.95,-143.88C794.04,-134.89 810.26,-123.76 824.44,-114.03"/>
<polygon fill="black" stroke="black" points="826.69,-116.73 832.95,-108.19 822.73,-110.96 826.69,-116.73"/>
</g>
<!-- org.glassfish.mq:persist -->
<g id="node14" class="node">
<title>org.glassfish.mq:persist</title>
<polygon fill="wheat" stroke="black" points="900,-180 816,-180 816,-144 900,-144 900,-180"/>
<text text-anchor="middle" x="858" y="-164.6" font-family="Helvetica,sans-Serif" font-size="8.00">persist</text>
<text text-anchor="middle" x="858" y="-155.6" font-family="Helvetica,sans-Serif" font-size="8.00">org.glassfish.mq</text>
</g>
<!-- org.glassfish.mq:persist&#45;&gt;org.glassfish.mq:mq -->
<g id="edge13" class="edge">
<title>org.glassfish.mq:persist&#45;&gt;org.glassfish.mq:mq</title>
<path fill="none" stroke="black" d="M858,-143.7C858,-135.98 858,-126.71 858,-118.11"/>
<polygon fill="black" stroke="black" points="861.5,-118.1 858,-108.1 854.5,-118.1 861.5,-118.1"/>
</g>
<!-- org.glassfish.mq:mq&#45;txnlog -->
<g id="node15" class="node">
<title>org.glassfish.mq:mq&#45;txnlog</title>
<polygon fill="lightgrey" stroke="black" points="492,-252 408,-252 408,-216 492,-216 492,-252"/>
<text text-anchor="middle" x="450" y="-236.6" font-family="Helvetica,sans-Serif" font-size="8.00">mq&#45;txnlog</text>
<text text-anchor="middle" x="450" y="-227.6" font-family="Helvetica,sans-Serif" font-size="8.00">org.glassfish.mq</text>
</g>
<!-- org.glassfish.mq:mq&#45;txnlog&#45;&gt;org.glassfish.mq:persist -->
<g id="edge14" class="edge">
<title>org.glassfish.mq:mq&#45;txnlog&#45;&gt;org.glassfish.mq:persist</title>
<path fill="none" stroke="black" d="M492.11,-218.22C495.1,-217.4 498.09,-216.65 501,-216 631.52,-186.89 671.48,-208.73 806.03,-179.94"/>
<polygon fill="black" stroke="black" points="806.87,-183.34 815.89,-177.78 805.37,-176.5 806.87,-183.34"/>
</g>
<!-- org.glassfish.mq:mq&#45;broker -->
<g id="node16" class="node">
<title>org.glassfish.mq:mq&#45;broker</title>
<polygon fill="wheat" stroke="black" points="1002,-180 918,-180 918,-144 1002,-144 1002,-180"/>
<text text-anchor="middle" x="960" y="-164.6" font-family="Helvetica,sans-Serif" font-size="8.00">mq&#45;broker</text>
<text text-anchor="middle" x="960" y="-155.6" font-family="Helvetica,sans-Serif" font-size="8.00">org.glassfish.mq</text>
</g>
<!-- org.glassfish.mq:mq&#45;broker&#45;&gt;org.glassfish.mq:mq -->
<g id="edge15" class="edge">
<title>org.glassfish.mq:mq&#45;broker&#45;&gt;org.glassfish.mq:mq</title>
<path fill="none" stroke="black" d="M935.05,-143.88C921.96,-134.89 905.74,-123.76 891.56,-114.03"/>
<polygon fill="black" stroke="black" points="893.27,-110.96 883.05,-108.19 889.31,-116.73 893.27,-110.96"/>
</g>
<!-- org.glassfish.mq:mqbroker&#45;comm -->
<g id="node17" class="node">
<title>org.glassfish.mq:mqbroker&#45;comm</title>
<polygon fill="lightgrey" stroke="black" points="696,-252 612,-252 612,-216 696,-216 696,-252"/>
<text text-anchor="middle" x="654" y="-236.6" font-family="Helvetica,sans-Serif" font-size="8.00">mqbroker&#45;comm</text>
<text text-anchor="middle" x="654" y="-227.6" font-family="Helvetica,sans-Serif" font-size="8.00">org.glassfish.mq</text>
</g>
<!-- org.glassfish.mq:mqbroker&#45;comm&#45;&gt;org.glassfish.mq:mq&#45;broker -->
<g id="edge16" class="edge">
<title>org.glassfish.mq:mqbroker&#45;comm&#45;&gt;org.glassfish.mq:mq&#45;broker</title>
<path fill="none" stroke="black" d="M696.16,-218.42C699.14,-217.55 702.1,-216.73 705,-216 791.2,-194.15 817.94,-202.02 908.03,-180.03"/>
<polygon fill="black" stroke="black" points="908.99,-183.4 917.84,-177.58 907.29,-176.61 908.99,-183.4"/>
</g>
<!-- org.glassfish.mq:mq&#45;portunif -->
<g id="node18" class="node">
<title>org.glassfish.mq:mq&#45;portunif</title>
<polygon fill="lightgrey" stroke="black" points="1104,-180 1020,-180 1020,-144 1104,-144 1104,-180"/>
<text text-anchor="middle" x="1062" y="-164.6" font-family="Helvetica,sans-Serif" font-size="8.00">mq&#45;portunif</text>
<text text-anchor="middle" x="1062" y="-155.6" font-family="Helvetica,sans-Serif" font-size="8.00">org.glassfish.mq</text>
</g>
<!-- org.glassfish.mq:mq&#45;portunif&#45;&gt;org.glassfish.mq:mq -->
<g id="edge17" class="edge">
<title>org.glassfish.mq:mq&#45;portunif&#45;&gt;org.glassfish.mq:mq</title>
<path fill="none" stroke="black" d="M1019.73,-146.5C987.87,-135.56 943.99,-120.51 909.98,-108.84"/>
<polygon fill="black" stroke="black" points="910.81,-105.42 900.21,-105.49 908.54,-112.04 910.81,-105.42"/>
</g>
<!-- org.glassfish.mq:bridge -->
<g id="node19" class="node">
<title>org.glassfish.mq:bridge</title>
<polygon fill="wheat" stroke="black" points="1359,-180 1275,-180 1275,-144 1359,-144 1359,-180"/>
<text text-anchor="middle" x="1317" y="-164.6" font-family="Helvetica,sans-Serif" font-size="8.00">bridge</text>
<text text-anchor="middle" x="1317" y="-155.6" font-family="Helvetica,sans-Serif" font-size="8.00">org.glassfish.mq</text>
</g>
<!-- org.glassfish.mq:bridge&#45;&gt;org.glassfish.mq:mq -->
<g id="edge18" class="edge">
<title>org.glassfish.mq:bridge&#45;&gt;org.glassfish.mq:mq</title>
<path fill="none" stroke="black" d="M1274.64,-154.54C1190.36,-141.69 1001.89,-112.94 910.15,-98.95"/>
<polygon fill="black" stroke="black" points="910.67,-95.49 900.26,-97.44 909.61,-102.41 910.67,-95.49"/>
</g>
<!-- org.glassfish.mq:mqbridge&#45;api -->
<g id="node20" class="node">
<title>org.glassfish.mq:mqbridge&#45;api</title>
<polygon fill="lightgrey" stroke="black" points="1308,-252 1224,-252 1224,-216 1308,-216 1308,-252"/>
<text text-anchor="middle" x="1266" y="-236.6" font-family="Helvetica,sans-Serif" font-size="8.00">mqbridge&#45;api</text>
<text text-anchor="middle" x="1266" y="-227.6" font-family="Helvetica,sans-Serif" font-size="8.00">org.glassfish.mq</text>
</g>
<!-- org.glassfish.mq:mqbridge&#45;api&#45;&gt;org.glassfish.mq:bridge -->
<g id="edge19" class="edge">
<title>org.glassfish.mq:mqbridge&#45;api&#45;&gt;org.glassfish.mq:bridge</title>
<path fill="none" stroke="black" d="M1278.61,-215.7C1284.6,-207.47 1291.88,-197.48 1298.48,-188.42"/>
<polygon fill="black" stroke="black" points="1301.48,-190.25 1304.54,-180.1 1295.82,-186.13 1301.48,-190.25"/>
</g>
<!-- org.glassfish.mq:mqbroker&#45;core -->
<g id="node21" class="node">
<title>org.glassfish.mq:mqbroker&#45;core</title>
<polygon fill="lightgrey" stroke="black" points="798,-252 714,-252 714,-216 798,-216 798,-252"/>
<text text-anchor="middle" x="756" y="-236.6" font-family="Helvetica,sans-Serif" font-size="8.00">mqbroker&#45;core</text>
<text text-anchor="middle" x="756" y="-227.6" font-family="Helvetica,sans-Serif" font-size="8.00">org.glassfish.mq</text>
</g>
<!-- org.glassfish.mq:mqbroker&#45;core&#45;&gt;org.glassfish.mq:mq&#45;broker -->
<g id="edge20" class="edge">
<title>org.glassfish.mq:mqbroker&#45;core&#45;&gt;org.glassfish.mq:mq&#45;broker</title>
<path fill="none" stroke="black" d="M798.27,-218.5C830.13,-207.56 874.01,-192.51 908.02,-180.84"/>
<polygon fill="black" stroke="black" points="909.46,-184.04 917.79,-177.49 907.19,-177.42 909.46,-184.04"/>
</g>
<!-- org.glassfish.mq:jmsra -->
<g id="node22" class="node">
<title>org.glassfish.mq:jmsra</title>
<polygon fill="wheat" stroke="black" points="1461,-180 1377,-180 1377,-144 1461,-144 1461,-180"/>
<text text-anchor="middle" x="1419" y="-164.6" font-family="Helvetica,sans-Serif" font-size="8.00">jmsra</text>
<text text-anchor="middle" x="1419" y="-155.6" font-family="Helvetica,sans-Serif" font-size="8.00">org.glassfish.mq</text>
</g>
<!-- org.glassfish.mq:jmsra&#45;&gt;org.glassfish.mq:mq -->
<g id="edge21" class="edge">
<title>org.glassfish.mq:jmsra&#45;&gt;org.glassfish.mq:mq</title>
<path fill="none" stroke="black" d="M1376.9,-146.18C1373.91,-145.37 1370.92,-144.63 1368,-144 1203.2,-108.42 1003.09,-96.47 910.13,-92.67"/>
<polygon fill="black" stroke="black" points="910.27,-89.17 900.13,-92.28 909.99,-96.17 910.27,-89.17"/>
</g>
<!-- org.glassfish.mq:mqjmsra&#45;api -->
<g id="node23" class="node">
<title>org.glassfish.mq:mqjmsra&#45;api</title>
<polygon fill="lightgrey" stroke="black" points="1716,-252 1632,-252 1632,-216 1716,-216 1716,-252"/>
<text text-anchor="middle" x="1674" y="-236.6" font-family="Helvetica,sans-Serif" font-size="8.00">mqjmsra&#45;api</text>
<text text-anchor="middle" x="1674" y="-227.6" font-family="Helvetica,sans-Serif" font-size="8.00">org.glassfish.mq</text>
</g>
<!-- org.glassfish.mq:mqjmsra&#45;api&#45;&gt;org.glassfish.mq:jmsra -->
<g id="edge22" class="edge">
<title>org.glassfish.mq:mqjmsra&#45;api&#45;&gt;org.glassfish.mq:jmsra</title>
<path fill="none" stroke="black" d="M1631.79,-218.6C1628.83,-217.69 1625.87,-216.82 1623,-216 1558.81,-197.79 1538.97,-198.92 1471.11,-180.18"/>
<polygon fill="black" stroke="black" points="1471.78,-176.73 1461.21,-177.4 1469.89,-183.47 1471.78,-176.73"/>
</g>
<!-- org.glassfish.mq:mq&#45;client -->
<g id="node24" class="node">
<title>org.glassfish.mq:mq&#45;client</title>
<polygon fill="lightgrey" stroke="black" points="1563,-180 1479,-180 1479,-144 1563,-144 1563,-180"/>
<text text-anchor="middle" x="1521" y="-164.6" font-family="Helvetica,sans-Serif" font-size="8.00">mq&#45;client</text>
<text text-anchor="middle" x="1521" y="-155.6" font-family="Helvetica,sans-Serif" font-size="8.00">org.glassfish.mq</text>
</g>
<!-- org.glassfish.mq:mq&#45;client&#45;&gt;org.glassfish.mq:mq -->
<g id="edge23" class="edge">
<title>org.glassfish.mq:mq&#45;client&#45;&gt;org.glassfish.mq:mq</title>
<path fill="none" stroke="black" d="M1478.91,-146.12C1475.91,-145.32 1472.92,-144.61 1470,-144 1265.84,-101.75 1016.61,-93.12 910.19,-91.4"/>
<polygon fill="black" stroke="black" points="910.1,-87.9 900.04,-91.25 909.99,-94.9 910.1,-87.9"/>
</g>
<!-- org.glassfish.mq:mq&#45;ums -->
<g id="node25" class="node">
<title>org.glassfish.mq:mq&#45;ums</title>
<polygon fill="lightgrey" stroke="black" points="1665,-180 1581,-180 1581,-144 1665,-144 1665,-180"/>
<text text-anchor="middle" x="1623" y="-164.6" font-family="Helvetica,sans-Serif" font-size="8.00">mq&#45;ums</text>
<text text-anchor="middle" x="1623" y="-155.6" font-family="Helvetica,sans-Serif" font-size="8.00">org.glassfish.mq</text>
</g>
<!-- org.glassfish.mq:mq&#45;ums&#45;&gt;org.glassfish.mq:mq -->
<g id="edge24" class="edge">
<title>org.glassfish.mq:mq&#45;ums&#45;&gt;org.glassfish.mq:mq</title>
<path fill="none" stroke="black" d="M1580.92,-146.08C1577.92,-145.29 1574.93,-144.59 1572,-144 1328.3,-95.13 1029.68,-90.27 910.62,-90.48"/>
<polygon fill="black" stroke="black" points="910.33,-86.98 900.34,-90.51 910.35,-93.98 910.33,-86.98"/>
</g>
<!-- org.glassfish.mq:mqdisk&#45;io -->
<g id="node26" class="node">
<title>org.glassfish.mq:mqdisk&#45;io</title>
<polygon fill="lightgrey" stroke="black" points="594,-252 510,-252 510,-216 594,-216 594,-252"/>
<text text-anchor="middle" x="552" y="-236.6" font-family="Helvetica,sans-Serif" font-size="8.00">mqdisk&#45;io</text>
<text text-anchor="middle" x="552" y="-227.6" font-family="Helvetica,sans-Serif" font-size="8.00">org.glassfish.mq</text>
</g>
<!-- org.glassfish.mq:mqdisk&#45;io&#45;&gt;org.glassfish.mq:persist -->
<g id="edge25" class="edge">
<title>org.glassfish.mq:mqdisk&#45;io&#45;&gt;org.glassfish.mq:persist</title>
<path fill="none" stroke="black" d="M594.16,-218.42C597.14,-217.55 600.1,-216.73 603,-216 689.2,-194.15 715.94,-202.02 806.03,-180.03"/>
<polygon fill="black" stroke="black" points="806.99,-183.4 815.84,-177.58 805.29,-176.61 806.99,-183.4"/>
</g>
<!-- org.glassfish.mq:mq&#45;admin -->
<g id="node27" class="node">
<title>org.glassfish.mq:mq&#45;admin</title>
<polygon fill="wheat" stroke="black" points="1869,-180 1785,-180 1785,-144 1869,-144 1869,-180"/>
<text text-anchor="middle" x="1827" y="-164.6" font-family="Helvetica,sans-Serif" font-size="8.00">mq&#45;admin</text>
<text text-anchor="middle" x="1827" y="-155.6" font-family="Helvetica,sans-Serif" font-size="8.00">org.glassfish.mq</text>
</g>
<!-- org.glassfish.mq:mq&#45;admin&#45;&gt;org.glassfish.mq:mq -->
<g id="edge26" class="edge">
<title>org.glassfish.mq:mq&#45;admin&#45;&gt;org.glassfish.mq:mq</title>
<path fill="none" stroke="black" d="M1784.84,-155.79C1754.14,-152.12 1711.54,-147.3 1674,-144 1385.88,-118.65 1039.54,-100.08 910.12,-93.56"/>
<polygon fill="black" stroke="black" points="910.26,-90.06 900.09,-93.05 909.91,-97.05 910.26,-90.06"/>
</g>
<!-- org.glassfish.mq:mqadmin&#45;cli -->
<g id="node28" class="node">
<title>org.glassfish.mq:mqadmin&#45;cli</title>
<polygon fill="lightgrey" stroke="black" points="1920,-252 1836,-252 1836,-216 1920,-216 1920,-252"/>
<text text-anchor="middle" x="1878" y="-236.6" font-family="Helvetica,sans-Serif" font-size="8.00">mqadmin&#45;cli</text>
<text text-anchor="middle" x="1878" y="-227.6" font-family="Helvetica,sans-Serif" font-size="8.00">org.glassfish.mq</text>
</g>
<!-- org.glassfish.mq:mqadmin&#45;cli&#45;&gt;org.glassfish.mq:mq&#45;admin -->
<g id="edge27" class="edge">
<title>org.glassfish.mq:mqadmin&#45;cli&#45;&gt;org.glassfish.mq:mq&#45;admin</title>
<path fill="none" stroke="black" d="M1865.39,-215.7C1859.4,-207.47 1852.12,-197.48 1845.52,-188.42"/>
<polygon fill="black" stroke="black" points="1848.18,-186.13 1839.46,-180.1 1842.52,-190.25 1848.18,-186.13"/>
</g>
<!-- org.glassfish.mq:mqjmsra&#45;ra -->
<g id="node29" class="node">
<title>org.glassfish.mq:mqjmsra&#45;ra</title>
<polygon fill="lightgrey" stroke="black" points="1818,-252 1734,-252 1734,-216 1818,-216 1818,-252"/>
<text text-anchor="middle" x="1776" y="-236.6" font-family="Helvetica,sans-Serif" font-size="8.00">mqjmsra&#45;ra</text>
<text text-anchor="middle" x="1776" y="-227.6" font-family="Helvetica,sans-Serif" font-size="8.00">org.glassfish.mq</text>
</g>
<!-- org.glassfish.mq:mqjmsra&#45;ra&#45;&gt;org.glassfish.mq:jmsra -->
<g id="edge28" class="edge">
<title>org.glassfish.mq:mqjmsra&#45;ra&#45;&gt;org.glassfish.mq:jmsra</title>
<path fill="none" stroke="black" d="M1733.87,-218.3C1730.88,-217.46 1727.91,-216.68 1725,-216 1616.74,-190.54 1583.3,-205.31 1471.14,-180.01"/>
<polygon fill="black" stroke="black" points="1471.66,-176.54 1461.13,-177.7 1470.08,-183.36 1471.66,-176.54"/>
</g>
<!-- org.glassfish.mq:mqbridge&#45;jms -->
<g id="node30" class="node">
<title>org.glassfish.mq:mqbridge&#45;jms</title>
<polygon fill="lightgrey" stroke="black" points="1410,-252 1326,-252 1326,-216 1410,-216 1410,-252"/>
<text text-anchor="middle" x="1368" y="-236.6" font-family="Helvetica,sans-Serif" font-size="8.00">mqbridge&#45;jms</text>
<text text-anchor="middle" x="1368" y="-227.6" font-family="Helvetica,sans-Serif" font-size="8.00">org.glassfish.mq</text>
</g>
<!-- org.glassfish.mq:mqbridge&#45;jms&#45;&gt;org.glassfish.mq:bridge -->
<g id="edge29" class="edge">
<title>org.glassfish.mq:mqbridge&#45;jms&#45;&gt;org.glassfish.mq:bridge</title>
<path fill="none" stroke="black" d="M1355.39,-215.7C1349.4,-207.47 1342.12,-197.48 1335.52,-188.42"/>
<polygon fill="black" stroke="black" points="1338.18,-186.13 1329.46,-180.1 1332.52,-190.25 1338.18,-186.13"/>
</g>
<!-- org.glassfish.mq:mqbridge&#45;stomp -->
<g id="node31" class="node">
<title>org.glassfish.mq:mqbridge&#45;stomp</title>
<polygon fill="lightgrey" stroke="black" points="1512,-252 1428,-252 1428,-216 1512,-216 1512,-252"/>
<text text-anchor="middle" x="1470" y="-236.6" font-family="Helvetica,sans-Serif" font-size="8.00">mqbridge&#45;stomp</text>
<text text-anchor="middle" x="1470" y="-227.6" font-family="Helvetica,sans-Serif" font-size="8.00">org.glassfish.mq</text>
</g>
<!-- org.glassfish.mq:mqbridge&#45;stomp&#45;&gt;org.glassfish.mq:bridge -->
<g id="edge30" class="edge">
<title>org.glassfish.mq:mqbridge&#45;stomp&#45;&gt;org.glassfish.mq:bridge</title>
<path fill="none" stroke="black" d="M1432.57,-215.88C1411.75,-206.35 1385.65,-194.41 1363.52,-184.28"/>
<polygon fill="black" stroke="black" points="1364.86,-181.05 1354.31,-180.07 1361.94,-187.41 1364.86,-181.05"/>
</g>
<!-- org.glassfish.mq:mqbridge&#45;admin -->
<g id="node32" class="node">
<title>org.glassfish.mq:mqbridge&#45;admin</title>
<polygon fill="lightgrey" stroke="black" points="1614,-252 1530,-252 1530,-216 1614,-216 1614,-252"/>
<text text-anchor="middle" x="1572" y="-236.6" font-family="Helvetica,sans-Serif" font-size="8.00">mqbridge&#45;admin</text>
<text text-anchor="middle" x="1572" y="-227.6" font-family="Helvetica,sans-Serif" font-size="8.00">org.glassfish.mq</text>
</g>
<!-- org.glassfish.mq:mqbridge&#45;admin&#45;&gt;org.glassfish.mq:bridge -->
<g id="edge31" class="edge">
<title>org.glassfish.mq:mqbridge&#45;admin&#45;&gt;org.glassfish.mq:bridge</title>
<path fill="none" stroke="black" d="M1529.79,-218.6C1526.83,-217.69 1523.87,-216.82 1521,-216 1456.81,-197.79 1436.97,-198.92 1369.11,-180.18"/>
<polygon fill="black" stroke="black" points="1369.78,-176.73 1359.21,-177.4 1367.89,-183.47 1369.78,-176.73"/>
</g>
<!-- org.glassfish.mq:mq&#45;cluster -->
<g id="node33" class="node">
<title>org.glassfish.mq:mq&#45;cluster</title>
<polygon fill="lightgrey" stroke="black" points="900,-252 816,-252 816,-216 900,-216 900,-252"/>
<text text-anchor="middle" x="858" y="-236.6" font-family="Helvetica,sans-Serif" font-size="8.00">mq&#45;cluster</text>
<text text-anchor="middle" x="858" y="-227.6" font-family="Helvetica,sans-Serif" font-size="8.00">org.glassfish.mq</text>
</g>
<!-- org.glassfish.mq:mq&#45;cluster&#45;&gt;org.glassfish.mq:mq&#45;broker -->
<g id="edge32" class="edge">
<title>org.glassfish.mq:mq&#45;cluster&#45;&gt;org.glassfish.mq:mq&#45;broker</title>
<path fill="none" stroke="black" d="M882.95,-215.88C896.04,-206.89 912.26,-195.76 926.44,-186.03"/>
<polygon fill="black" stroke="black" points="928.69,-188.73 934.95,-180.19 924.73,-182.96 928.69,-188.73"/>
</g>
<!-- org.glassfish.mq:mqpersist&#45;file -->
<g id="node34" class="node">
<title>org.glassfish.mq:mqpersist&#45;file</title>
<polygon fill="lightgrey" stroke="black" points="1002,-252 918,-252 918,-216 1002,-216 1002,-252"/>
<text text-anchor="middle" x="960" y="-236.6" font-family="Helvetica,sans-Serif" font-size="8.00">mqpersist&#45;file</text>
<text text-anchor="middle" x="960" y="-227.6" font-family="Helvetica,sans-Serif" font-size="8.00">org.glassfish.mq</text>
</g>
<!-- org.glassfish.mq:mqpersist&#45;file&#45;&gt;org.glassfish.mq:mq&#45;broker -->
<g id="edge33" class="edge">
<title>org.glassfish.mq:mqpersist&#45;file&#45;&gt;org.glassfish.mq:mq&#45;broker</title>
<path fill="none" stroke="black" d="M960,-215.7C960,-207.98 960,-198.71 960,-190.11"/>
<polygon fill="black" stroke="black" points="963.5,-190.1 960,-180.1 956.5,-190.1 963.5,-190.1"/>
</g>
<!-- org.glassfish.mq:mqpersist&#45;jdbc -->
<g id="node35" class="node">
<title>org.glassfish.mq:mqpersist&#45;jdbc</title>
<polygon fill="lightgrey" stroke="black" points="1104,-252 1020,-252 1020,-216 1104,-216 1104,-252"/>
<text text-anchor="middle" x="1062" y="-236.6" font-family="Helvetica,sans-Serif" font-size="8.00">mqpersist&#45;jdbc</text>
<text text-anchor="middle" x="1062" y="-227.6" font-family="Helvetica,sans-Serif" font-size="8.00">org.glassfish.mq</text>
</g>
<!-- org.glassfish.mq:mqpersist&#45;jdbc&#45;&gt;org.glassfish.mq:mq&#45;broker -->
<g id="edge34" class="edge">
<title>org.glassfish.mq:mqpersist&#45;jdbc&#45;&gt;org.glassfish.mq:mq&#45;broker</title>
<path fill="none" stroke="black" d="M1037.05,-215.88C1023.96,-206.89 1007.74,-195.76 993.56,-186.03"/>
<polygon fill="black" stroke="black" points="995.27,-182.96 985.05,-180.19 991.31,-188.73 995.27,-182.96"/>
</g>
<!-- org.glassfish.mq:mq&#45;partition -->
<g id="node36" class="node">
<title>org.glassfish.mq:mq&#45;partition</title>
<polygon fill="wheat" stroke="black" points="1206,-252 1122,-252 1122,-216 1206,-216 1206,-252"/>
<text text-anchor="middle" x="1164" y="-236.6" font-family="Helvetica,sans-Serif" font-size="8.00">mq&#45;partition</text>
<text text-anchor="middle" x="1164" y="-227.6" font-family="Helvetica,sans-Serif" font-size="8.00">org.glassfish.mq</text>
</g>
<!-- org.glassfish.mq:mq&#45;partition&#45;&gt;org.glassfish.mq:mq&#45;broker -->
<g id="edge35" class="edge">
<title>org.glassfish.mq:mq&#45;partition&#45;&gt;org.glassfish.mq:mq&#45;broker</title>
<path fill="none" stroke="black" d="M1121.73,-218.5C1089.87,-207.56 1045.99,-192.51 1011.98,-180.84"/>
<polygon fill="black" stroke="black" points="1012.81,-177.42 1002.21,-177.49 1010.54,-184.04 1012.81,-177.42"/>
</g>
<!-- org.glassfish.mq:mqpartition&#45;persist&#45;api -->
<g id="node37" class="node">
<title>org.glassfish.mq:mqpartition&#45;persist&#45;api</title>
<polygon fill="lightgrey" stroke="black" points="1153,-324 1043,-324 1043,-288 1153,-288 1153,-324"/>
<text text-anchor="middle" x="1098" y="-308.6" font-family="Helvetica,sans-Serif" font-size="8.00">mqpartition&#45;persist&#45;api</text>
<text text-anchor="middle" x="1098" y="-299.6" font-family="Helvetica,sans-Serif" font-size="8.00">org.glassfish.mq</text>
</g>
<!-- org.glassfish.mq:mqpartition&#45;persist&#45;api&#45;&gt;org.glassfish.mq:mq&#45;partition -->
<g id="edge36" class="edge">
<title>org.glassfish.mq:mqpartition&#45;persist&#45;api&#45;&gt;org.glassfish.mq:mq&#45;partition</title>
<path fill="none" stroke="black" d="M1114.31,-287.7C1122.31,-279.22 1132.07,-268.86 1140.82,-259.58"/>
<polygon fill="black" stroke="black" points="1143.56,-261.78 1147.87,-252.1 1138.47,-256.98 1143.56,-261.78"/>
</g>
<!-- org.glassfish.mq:mqpartition&#45;persist&#45;jdbc -->
<g id="node38" class="node">
<title>org.glassfish.mq:mqpartition&#45;persist&#45;jdbc</title>
<polygon fill="lightgrey" stroke="black" points="1286.5,-324 1171.5,-324 1171.5,-288 1286.5,-288 1286.5,-324"/>
<text text-anchor="middle" x="1229" y="-308.6" font-family="Helvetica,sans-Serif" font-size="8.00">mqpartition&#45;persist&#45;jdbc</text>
<text text-anchor="middle" x="1229" y="-299.6" font-family="Helvetica,sans-Serif" font-size="8.00">org.glassfish.mq</text>
</g>
<!-- org.glassfish.mq:mqpartition&#45;persist&#45;jdbc&#45;&gt;org.glassfish.mq:mq&#45;partition -->
<g id="edge37" class="edge">
<title>org.glassfish.mq:mqpartition&#45;persist&#45;jdbc&#45;&gt;org.glassfish.mq:mq&#45;partition</title>
<path fill="none" stroke="black" d="M1212.93,-287.7C1205.06,-279.22 1195.44,-268.86 1186.83,-259.58"/>
<polygon fill="black" stroke="black" points="1189.25,-257.05 1179.88,-252.1 1184.12,-261.81 1189.25,-257.05"/>
</g>
<!-- org.glassfish.mq:mqadmin&#45;gui -->
<g id="node39" class="node">
<title>org.glassfish.mq:mqadmin&#45;gui</title>
<polygon fill="lightgrey" stroke="black" points="2022,-252 1938,-252 1938,-216 2022,-216 2022,-252"/>
<text text-anchor="middle" x="1980" y="-236.6" font-family="Helvetica,sans-Serif" font-size="8.00">mqadmin&#45;gui</text>
<text text-anchor="middle" x="1980" y="-227.6" font-family="Helvetica,sans-Serif" font-size="8.00">org.glassfish.mq</text>
</g>
<!-- org.glassfish.mq:mqadmin&#45;gui&#45;&gt;org.glassfish.mq:mq&#45;admin -->
<g id="edge38" class="edge">
<title>org.glassfish.mq:mqadmin&#45;gui&#45;&gt;org.glassfish.mq:mq&#45;admin</title>
<path fill="none" stroke="black" d="M1942.57,-215.88C1921.75,-206.35 1895.65,-194.41 1873.52,-184.28"/>
<polygon fill="black" stroke="black" points="1874.86,-181.05 1864.31,-180.07 1871.94,-187.41 1874.86,-181.05"/>
</g>
<!-- org.glassfish.mq:mq&#45;packager&#45;opensource -->
<g id="node40" class="node">
<title>org.glassfish.mq:mq&#45;packager&#45;opensource</title>
<polygon fill="lightgrey" stroke="black" points="2009,-180 1887,-180 1887,-144 2009,-144 2009,-180"/>
<text text-anchor="middle" x="1948" y="-164.6" font-family="Helvetica,sans-Serif" font-size="8.00">mq&#45;packager&#45;opensource</text>
<text text-anchor="middle" x="1948" y="-155.6" font-family="Helvetica,sans-Serif" font-size="8.00">org.glassfish.mq</text>
</g>
<!-- org.glassfish.mq:mq&#45;packager&#45;opensource&#45;&gt;org.glassfish.mq:mq -->
<g id="edge39" class="edge">
<title>org.glassfish.mq:mq&#45;packager&#45;opensource&#45;&gt;org.glassfish.mq:mq</title>
<path fill="none" stroke="black" d="M1886.67,-145.42C1883.75,-144.89 1880.85,-144.42 1878,-144 1510.46,-90.3 1061.47,-88.99 910.41,-90.29"/>
<polygon fill="black" stroke="black" points="910.02,-86.8 900.05,-90.39 910.09,-93.8 910.02,-86.8"/>
</g>
</g>
</svg>
