<?xml version="1.0" encoding="UTF-8" standalone="no"?>
<!DOCTYPE svg PUBLIC "-//W3C//DTD SVG 1.1//EN"
 "http://www.w3.org/Graphics/SVG/1.1/DTD/svg11.dtd">
<!-- Generated by graphviz version 9.0.0 (20230911.1827)
 -->
<!-- Title: openmq Pages: 1 -->
<svg width="821pt" height="1313pt"
 viewBox="0.00 0.00 821.00 1313.00" xmlns="http://www.w3.org/2000/svg" xmlns:xlink="http://www.w3.org/1999/xlink">
<g id="graph0" class="graph" transform="scale(1 1) rotate(0) translate(4 1309)">
<title>openmq</title>
<polygon fill="white" stroke="none" points="-4,4 -4,-1309 817,-1309 817,4 -4,4"/>
<!-- org.glassfish.mq:project -->
<g id="node1" class="node">
<title>org.glassfish.mq:project</title>
<polygon fill="wheat" stroke="black" points="231.5,-576 148,-576 148,-540 231.5,-540 231.5,-576"/>
<text text-anchor="middle" x="189.75" y="-560.15" font-family="Helvetica,sans-Serif" font-size="8.00">project</text>
<text text-anchor="middle" x="189.75" y="-550.4" font-family="Helvetica,sans-Serif" font-size="8.00">org.glassfish.mq</text>
</g>
<!-- org.eclipse.ee4j:project -->
<g id="node2" class="node">
<title>org.eclipse.ee4j:project</title>
<polygon fill="lightgrey" stroke="black" points="112,-576 0,-576 0,-540 112,-540 112,-576"/>
<text text-anchor="middle" x="56" y="-555.27" font-family="Helvetica,sans-Serif" font-size="8.00">org.eclipse.ee4j:project</text>
</g>
<!-- org.glassfish.mq:project&#45;&gt;org.eclipse.ee4j:project -->
<g id="edge1" class="edge">
<title>org.glassfish.mq:project&#45;&gt;org.eclipse.ee4j:project</title>
<path fill="none" stroke="black" d="M147.79,-558C140.19,-558 132.07,-558 123.93,-558"/>
<polygon fill="black" stroke="black" points="123.98,-554.5 113.98,-558 123.98,-561.5 123.98,-554.5"/>
</g>
<!-- org.glassfish.mq:mq&#45;docs -->
<g id="node3" class="node">
<title>org.glassfish.mq:mq&#45;docs</title>
<polygon fill="wheat" stroke="black" points="351,-1143 267.5,-1143 267.5,-1107 351,-1107 351,-1143"/>
<text text-anchor="middle" x="309.25" y="-1127.15" font-family="Helvetica,sans-Serif" font-size="8.00">mq&#45;docs</text>
<text text-anchor="middle" x="309.25" y="-1117.4" font-family="Helvetica,sans-Serif" font-size="8.00">org.glassfish.mq</text>
</g>
<!-- org.glassfish.mq:mq&#45;docs&#45;&gt;org.glassfish.mq:project -->
<g id="edge2" class="edge">
<title>org.glassfish.mq:mq&#45;docs&#45;&gt;org.glassfish.mq:project</title>
<path fill="none" stroke="black" d="M304.47,-1106.78C287.49,-1024.81 218.07,-689.85 196.91,-587.71"/>
<polygon fill="black" stroke="black" points="200.33,-587 194.88,-577.92 193.48,-588.42 200.33,-587"/>
</g>
<!-- org.glassfish.mq:mq&#45;dev&#45;guide&#45;jmx -->
<g id="node4" class="node">
<title>org.glassfish.mq:mq&#45;dev&#45;guide&#45;jmx</title>
<polygon fill="lightgrey" stroke="black" points="492.62,-1305 402.38,-1305 402.38,-1269 492.62,-1269 492.62,-1305"/>
<text text-anchor="middle" x="447.5" y="-1289.15" font-family="Helvetica,sans-Serif" font-size="8.00">mq&#45;dev&#45;guide&#45;jmx</text>
<text text-anchor="middle" x="447.5" y="-1279.4" font-family="Helvetica,sans-Serif" font-size="8.00">org.glassfish.mq</text>
</g>
<!-- org.glassfish.mq:mq&#45;dev&#45;guide&#45;jmx&#45;&gt;org.glassfish.mq:mq&#45;docs -->
<g id="edge3" class="edge">
<title>org.glassfish.mq:mq&#45;dev&#45;guide&#45;jmx&#45;&gt;org.glassfish.mq:mq&#45;docs</title>
<path fill="none" stroke="black" d="M401.97,-1270.64C396.59,-1267.59 391.44,-1264.05 387,-1260 354.51,-1230.34 332.26,-1183.65 320.39,-1153.69"/>
<polygon fill="black" stroke="black" points="323.73,-1152.6 316.89,-1144.51 317.19,-1155.1 323.73,-1152.6"/>
</g>
<!-- org.glassfish.mq:mq&#45;admin&#45;guide -->
<g id="node5" class="node">
<title>org.glassfish.mq:mq&#45;admin&#45;guide</title>
<polygon fill="lightgrey" stroke="black" points="489.25,-1251 405.75,-1251 405.75,-1215 489.25,-1215 489.25,-1251"/>
<text text-anchor="middle" x="447.5" y="-1235.15" font-family="Helvetica,sans-Serif" font-size="8.00">mq&#45;admin&#45;guide</text>
<text text-anchor="middle" x="447.5" y="-1225.4" font-family="Helvetica,sans-Serif" font-size="8.00">org.glassfish.mq</text>
</g>
<!-- org.glassfish.mq:mq&#45;admin&#45;guide&#45;&gt;org.glassfish.mq:mq&#45;docs -->
<g id="edge4" class="edge">
<title>org.glassfish.mq:mq&#45;admin&#45;guide&#45;&gt;org.glassfish.mq:mq&#45;docs</title>
<path fill="none" stroke="black" d="M405.33,-1216.86C398.96,-1213.65 392.64,-1210.02 387,-1206 365.64,-1190.78 345.4,-1169 331.08,-1151.86"/>
<polygon fill="black" stroke="black" points="334.15,-1150.08 325.11,-1144.55 328.72,-1154.51 334.15,-1150.08"/>
</g>
<!-- org.glassfish.mq:mq&#45;dev&#45;guide&#45;c -->
<g id="node6" class="node">
<title>org.glassfish.mq:mq&#45;dev&#45;guide&#45;c</title>
<polygon fill="lightgrey" stroke="black" points="489.25,-1197 405.75,-1197 405.75,-1161 489.25,-1161 489.25,-1197"/>
<text text-anchor="middle" x="447.5" y="-1181.15" font-family="Helvetica,sans-Serif" font-size="8.00">mq&#45;dev&#45;guide&#45;c</text>
<text text-anchor="middle" x="447.5" y="-1171.4" font-family="Helvetica,sans-Serif" font-size="8.00">org.glassfish.mq</text>
</g>
<!-- org.glassfish.mq:mq&#45;dev&#45;guide&#45;c&#45;&gt;org.glassfish.mq:mq&#45;docs -->
<g id="edge5" class="edge">
<title>org.glassfish.mq:mq&#45;dev&#45;guide&#45;c&#45;&gt;org.glassfish.mq:mq&#45;docs</title>
<path fill="none" stroke="black" d="M405.25,-1162.65C391.64,-1157.26 376.33,-1151.19 362.04,-1145.53"/>
<polygon fill="black" stroke="black" points="363.35,-1142.28 352.77,-1141.85 360.77,-1148.79 363.35,-1142.28"/>
</g>
<!-- org.glassfish.mq:mq&#45;release&#45;notes -->
<g id="node7" class="node">
<title>org.glassfish.mq:mq&#45;release&#45;notes</title>
<polygon fill="lightgrey" stroke="black" points="491.5,-1143 403.5,-1143 403.5,-1107 491.5,-1107 491.5,-1143"/>
<text text-anchor="middle" x="447.5" y="-1127.15" font-family="Helvetica,sans-Serif" font-size="8.00">mq&#45;release&#45;notes</text>
<text text-anchor="middle" x="447.5" y="-1117.4" font-family="Helvetica,sans-Serif" font-size="8.00">org.glassfish.mq</text>
</g>
<!-- org.glassfish.mq:mq&#45;release&#45;notes&#45;&gt;org.glassfish.mq:mq&#45;docs -->
<g id="edge6" class="edge">
<title>org.glassfish.mq:mq&#45;release&#45;notes&#45;&gt;org.glassfish.mq:mq&#45;docs</title>
<path fill="none" stroke="black" d="M403.02,-1125C390.25,-1125 376.14,-1125 362.87,-1125"/>
<polygon fill="black" stroke="black" points="362.98,-1121.5 352.98,-1125 362.98,-1128.5 362.98,-1121.5"/>
</g>
<!-- org.glassfish.mq:mq&#45;dev&#45;guide&#45;java -->
<g id="node8" class="node">
<title>org.glassfish.mq:mq&#45;dev&#45;guide&#45;java</title>
<polygon fill="lightgrey" stroke="black" points="494.12,-1089 400.88,-1089 400.88,-1053 494.12,-1053 494.12,-1089"/>
<text text-anchor="middle" x="447.5" y="-1073.15" font-family="Helvetica,sans-Serif" font-size="8.00">mq&#45;dev&#45;guide&#45;java</text>
<text text-anchor="middle" x="447.5" y="-1063.4" font-family="Helvetica,sans-Serif" font-size="8.00">org.glassfish.mq</text>
</g>
<!-- org.glassfish.mq:mq&#45;dev&#45;guide&#45;java&#45;&gt;org.glassfish.mq:mq&#45;docs -->
<g id="edge7" class="edge">
<title>org.glassfish.mq:mq&#45;dev&#45;guide&#45;java&#45;&gt;org.glassfish.mq:mq&#45;docs</title>
<path fill="none" stroke="black" d="M400.75,-1089.13C388.19,-1094.11 374.48,-1099.54 361.63,-1104.64"/>
<polygon fill="black" stroke="black" points="360.49,-1101.33 352.48,-1108.26 363.06,-1107.83 360.49,-1101.33"/>
</g>
<!-- org.glassfish.mq:mq&#45;tech&#45;over -->
<g id="node9" class="node">
<title>org.glassfish.mq:mq&#45;tech&#45;over</title>
<polygon fill="lightgrey" stroke="black" points="489.25,-1035 405.75,-1035 405.75,-999 489.25,-999 489.25,-1035"/>
<text text-anchor="middle" x="447.5" y="-1019.15" font-family="Helvetica,sans-Serif" font-size="8.00">mq&#45;tech&#45;over</text>
<text text-anchor="middle" x="447.5" y="-1009.4" font-family="Helvetica,sans-Serif" font-size="8.00">org.glassfish.mq</text>
</g>
<!-- org.glassfish.mq:mq&#45;tech&#45;over&#45;&gt;org.glassfish.mq:mq&#45;docs -->
<g id="edge8" class="edge">
<title>org.glassfish.mq:mq&#45;tech&#45;over&#45;&gt;org.glassfish.mq:mq&#45;docs</title>
<path fill="none" stroke="black" d="M405.33,-1033.14C398.96,-1036.35 392.64,-1039.98 387,-1044 365.64,-1059.22 345.4,-1081 331.08,-1098.14"/>
<polygon fill="black" stroke="black" points="328.72,-1095.49 325.11,-1105.45 334.15,-1099.92 328.72,-1095.49"/>
</g>
<!-- org.glassfish.mq:mq -->
<g id="node10" class="node">
<title>org.glassfish.mq:mq</title>
<polygon fill="wheat" stroke="black" points="351,-576 267.5,-576 267.5,-540 351,-540 351,-576"/>
<text text-anchor="middle" x="309.25" y="-560.15" font-family="Helvetica,sans-Serif" font-size="8.00">mq</text>
<text text-anchor="middle" x="309.25" y="-550.4" font-family="Helvetica,sans-Serif" font-size="8.00">org.glassfish.mq</text>
</g>
<!-- org.glassfish.mq:mq&#45;&gt;org.glassfish.mq:project -->
<g id="edge9" class="edge">
<title>org.glassfish.mq:mq&#45;&gt;org.glassfish.mq:project</title>
<path fill="none" stroke="black" d="M267.15,-558C259.33,-558 251.04,-558 242.92,-558"/>
<polygon fill="black" stroke="black" points="243.14,-554.5 233.14,-558 243.14,-561.5 243.14,-554.5"/>
</g>
<!-- org.glassfish.mq:mqcomm&#45;util -->
<g id="node11" class="node">
<title>org.glassfish.mq:mqcomm&#45;util</title>
<polygon fill="lightgrey" stroke="black" points="489.25,-981 405.75,-981 405.75,-945 489.25,-945 489.25,-981"/>
<text text-anchor="middle" x="447.5" y="-965.15" font-family="Helvetica,sans-Serif" font-size="8.00">mqcomm&#45;util</text>
<text text-anchor="middle" x="447.5" y="-955.4" font-family="Helvetica,sans-Serif" font-size="8.00">org.glassfish.mq</text>
</g>
<!-- org.glassfish.mq:mqcomm&#45;util&#45;&gt;org.glassfish.mq:mq -->
<g id="edge10" class="edge">
<title>org.glassfish.mq:mqcomm&#45;util&#45;&gt;org.glassfish.mq:mq</title>
<path fill="none" stroke="black" d="M405.44,-950.63C398.45,-946.91 391.88,-942.12 387,-936 343.65,-881.57 320.1,-666.38 312.77,-587.33"/>
<polygon fill="black" stroke="black" points="316.3,-587.42 311.91,-577.78 309.33,-588.06 316.3,-587.42"/>
</g>
<!-- org.glassfish.mq:mq&#45;share -->
<g id="node12" class="node">
<title>org.glassfish.mq:mq&#45;share</title>
<polygon fill="lightgrey" stroke="black" points="489.25,-927 405.75,-927 405.75,-891 489.25,-891 489.25,-927"/>
<text text-anchor="middle" x="447.5" y="-911.15" font-family="Helvetica,sans-Serif" font-size="8.00">mq&#45;share</text>
<text text-anchor="middle" x="447.5" y="-901.4" font-family="Helvetica,sans-Serif" font-size="8.00">org.glassfish.mq</text>
</g>
<!-- org.glassfish.mq:mq&#45;share&#45;&gt;org.glassfish.mq:mq -->
<g id="edge11" class="edge">
<title>org.glassfish.mq:mq&#45;share&#45;&gt;org.glassfish.mq:mq</title>
<path fill="none" stroke="black" d="M405.3,-896.34C398.4,-892.65 391.9,-887.96 387,-882 349.58,-836.54 323.11,-658.26 313.86,-587.34"/>
<polygon fill="black" stroke="black" points="317.37,-587.13 312.62,-577.65 310.42,-588.02 317.37,-587.13"/>
</g>
<!-- org.glassfish.mq:mq&#45;logger -->
<g id="node13" class="node">
<title>org.glassfish.mq:mq&#45;logger</title>
<polygon fill="lightgrey" stroke="black" points="489.25,-873 405.75,-873 405.75,-837 489.25,-837 489.25,-873"/>
<text text-anchor="middle" x="447.5" y="-857.15" font-family="Helvetica,sans-Serif" font-size="8.00">mq&#45;logger</text>
<text text-anchor="middle" x="447.5" y="-847.4" font-family="Helvetica,sans-Serif" font-size="8.00">org.glassfish.mq</text>
</g>
<!-- org.glassfish.mq:mq&#45;logger&#45;&gt;org.glassfish.mq:mq -->
<g id="edge12" class="edge">
<title>org.glassfish.mq:mq&#45;logger&#45;&gt;org.glassfish.mq:mq</title>
<path fill="none" stroke="black" d="M405.51,-842.16C398.59,-838.49 392.03,-833.85 387,-828 326.23,-757.42 313.42,-641.75 310.83,-587.64"/>
<polygon fill="black" stroke="black" points="314.33,-587.54 310.45,-577.68 307.33,-587.81 314.33,-587.54"/>
</g>
<!-- org.glassfish.mq:mqcomm&#45;io -->
<g id="node14" class="node">
<title>org.glassfish.mq:mqcomm&#45;io</title>
<polygon fill="lightgrey" stroke="black" points="489.25,-819 405.75,-819 405.75,-783 489.25,-783 489.25,-819"/>
<text text-anchor="middle" x="447.5" y="-803.15" font-family="Helvetica,sans-Serif" font-size="8.00">mqcomm&#45;io</text>
<text text-anchor="middle" x="447.5" y="-793.4" font-family="Helvetica,sans-Serif" font-size="8.00">org.glassfish.mq</text>
</g>
<!-- org.glassfish.mq:mqcomm&#45;io&#45;&gt;org.glassfish.mq:mq -->
<g id="edge13" class="edge">
<title>org.glassfish.mq:mqcomm&#45;io&#45;&gt;org.glassfish.mq:mq</title>
<path fill="none" stroke="black" d="M405.5,-787.73C398.67,-784.11 392.14,-779.6 387,-774 337.79,-720.45 319.73,-633.28 313.42,-587.78"/>
<polygon fill="black" stroke="black" points="316.89,-587.35 312.16,-577.88 309.95,-588.24 316.89,-587.35"/>
</g>
<!-- org.glassfish.mq:mqjmx&#45;api -->
<g id="node15" class="node">
<title>org.glassfish.mq:mqjmx&#45;api</title>
<polygon fill="lightgrey" stroke="black" points="489.25,-765 405.75,-765 405.75,-729 489.25,-729 489.25,-765"/>
<text text-anchor="middle" x="447.5" y="-749.15" font-family="Helvetica,sans-Serif" font-size="8.00">mqjmx&#45;api</text>
<text text-anchor="middle" x="447.5" y="-739.4" font-family="Helvetica,sans-Serif" font-size="8.00">org.glassfish.mq</text>
</g>
<!-- org.glassfish.mq:mqjmx&#45;api&#45;&gt;org.glassfish.mq:mq -->
<g id="edge14" class="edge">
<title>org.glassfish.mq:mqjmx&#45;api&#45;&gt;org.glassfish.mq:mq</title>
<path fill="none" stroke="black" d="M405.34,-732.97C398.68,-729.46 392.26,-725.17 387,-720 349.13,-682.74 327.64,-623.14 317.52,-587.56"/>
<polygon fill="black" stroke="black" points="320.91,-586.68 314.91,-577.94 314.15,-588.51 320.91,-586.68"/>
</g>
<!-- org.glassfish.mq:http&#45;tunnel -->
<g id="node16" class="node">
<title>org.glassfish.mq:http&#45;tunnel</title>
<polygon fill="wheat" stroke="black" points="489.25,-711 405.75,-711 405.75,-675 489.25,-675 489.25,-711"/>
<text text-anchor="middle" x="447.5" y="-695.15" font-family="Helvetica,sans-Serif" font-size="8.00">http&#45;tunnel</text>
<text text-anchor="middle" x="447.5" y="-685.4" font-family="Helvetica,sans-Serif" font-size="8.00">org.glassfish.mq</text>
</g>
<!-- org.glassfish.mq:http&#45;tunnel&#45;&gt;org.glassfish.mq:mq -->
<g id="edge15" class="edge">
<title>org.glassfish.mq:http&#45;tunnel&#45;&gt;org.glassfish.mq:mq</title>
<path fill="none" stroke="black" d="M405.44,-677.85C398.92,-674.49 392.51,-670.55 387,-666 360.1,-643.82 338.15,-610.05 324.72,-586.18"/>
<polygon fill="black" stroke="black" points="327.91,-584.73 320.05,-577.64 321.77,-588.09 327.91,-584.73"/>
</g>
<!-- org.glassfish.mq:mqhttp&#45;tunnel&#45;api&#45;share -->
<g id="node17" class="node">
<title>org.glassfish.mq:mqhttp&#45;tunnel&#45;api&#45;share</title>
<polygon fill="lightgrey" stroke="black" points="661.25,-1008 545.5,-1008 545.5,-972 661.25,-972 661.25,-1008"/>
<text text-anchor="middle" x="603.38" y="-992.15" font-family="Helvetica,sans-Serif" font-size="8.00">mqhttp&#45;tunnel&#45;api&#45;share</text>
<text text-anchor="middle" x="603.38" y="-982.4" font-family="Helvetica,sans-Serif" font-size="8.00">org.glassfish.mq</text>
</g>
<!-- org.glassfish.mq:mqhttp&#45;tunnel&#45;api&#45;share&#45;&gt;org.glassfish.mq:http&#45;tunnel -->
<g id="edge16" class="edge">
<title>org.glassfish.mq:mqhttp&#45;tunnel&#45;api&#45;share&#45;&gt;org.glassfish.mq:http&#45;tunnel</title>
<path fill="none" stroke="black" d="M552.47,-971.58C549.29,-969.07 546.41,-966.22 544,-963 478.6,-875.58 573.72,-807.18 508,-720 505.46,-716.63 502.4,-713.67 499.03,-711.07"/>
<polygon fill="black" stroke="black" points="501.11,-708.24 490.79,-705.82 497.34,-714.15 501.11,-708.24"/>
</g>
<!-- org.glassfish.mq:mqhttp&#45;tunnel&#45;api&#45;server -->
<g id="node18" class="node">
<title>org.glassfish.mq:mqhttp&#45;tunnel&#45;api&#45;server</title>
<polygon fill="lightgrey" stroke="black" points="662.75,-954 544,-954 544,-918 662.75,-918 662.75,-954"/>
<text text-anchor="middle" x="603.38" y="-938.15" font-family="Helvetica,sans-Serif" font-size="8.00">mqhttp&#45;tunnel&#45;api&#45;server</text>
<text text-anchor="middle" x="603.38" y="-928.4" font-family="Helvetica,sans-Serif" font-size="8.00">org.glassfish.mq</text>
</g>
<!-- org.glassfish.mq:mqhttp&#45;tunnel&#45;api&#45;server&#45;&gt;org.glassfish.mq:http&#45;tunnel -->
<g id="edge17" class="edge">
<title>org.glassfish.mq:mqhttp&#45;tunnel&#45;api&#45;server&#45;&gt;org.glassfish.mq:http&#45;tunnel</title>
<path fill="none" stroke="black" d="M552.89,-917.68C549.57,-915.14 546.54,-912.26 544,-909 491.38,-841.6 560.87,-787.21 508,-720 505.43,-716.73 502.37,-713.85 499.03,-711.3"/>
<polygon fill="black" stroke="black" points="501.21,-708.54 490.89,-706.14 497.46,-714.45 501.21,-708.54"/>
</g>
<!-- org.glassfish.mq:mqhttp&#45;tunnel -->
<g id="node19" class="node">
<title>org.glassfish.mq:mqhttp&#45;tunnel</title>
<polygon fill="lightgrey" stroke="black" points="645.12,-900 561.62,-900 561.62,-864 645.12,-864 645.12,-900"/>
<text text-anchor="middle" x="603.38" y="-884.15" font-family="Helvetica,sans-Serif" font-size="8.00">mqhttp&#45;tunnel</text>
<text text-anchor="middle" x="603.38" y="-874.4" font-family="Helvetica,sans-Serif" font-size="8.00">org.glassfish.mq</text>
</g>
<!-- org.glassfish.mq:mqhttp&#45;tunnel&#45;&gt;org.glassfish.mq:http&#45;tunnel -->
<g id="edge18" class="edge">
<title>org.glassfish.mq:mqhttp&#45;tunnel&#45;&gt;org.glassfish.mq:http&#45;tunnel</title>
<path fill="none" stroke="black" d="M561.18,-868.62C554.73,-865.03 548.67,-860.56 544,-855 504.04,-807.47 548.13,-767.39 508,-720 505.43,-716.96 502.45,-714.25 499.21,-711.84"/>
<polygon fill="black" stroke="black" points="501.18,-708.94 490.85,-706.58 497.45,-714.87 501.18,-708.94"/>
</g>
<!-- org.glassfish.mq:mq&#45;direct -->
<g id="node20" class="node">
<title>org.glassfish.mq:mq&#45;direct</title>
<polygon fill="lightgrey" stroke="black" points="489.25,-657 405.75,-657 405.75,-621 489.25,-621 489.25,-657"/>
<text text-anchor="middle" x="447.5" y="-641.15" font-family="Helvetica,sans-Serif" font-size="8.00">mq&#45;direct</text>
<text text-anchor="middle" x="447.5" y="-631.4" font-family="Helvetica,sans-Serif" font-size="8.00">org.glassfish.mq</text>
</g>
<!-- org.glassfish.mq:mq&#45;direct&#45;&gt;org.glassfish.mq:mq -->
<g id="edge19" class="edge">
<title>org.glassfish.mq:mq&#45;direct&#45;&gt;org.glassfish.mq:mq</title>
<path fill="none" stroke="black" d="M405.35,-621.54C399.1,-618.55 392.81,-615.32 387,-612 372.09,-603.47 356.45,-592.81 343.2,-583.22"/>
<polygon fill="black" stroke="black" points="345.37,-580.47 335.24,-577.37 341.23,-586.11 345.37,-580.47"/>
</g>
<!-- org.glassfish.mq:persist -->
<g id="node21" class="node">
<title>org.glassfish.mq:persist</title>
<polygon fill="wheat" stroke="black" points="489.25,-603 405.75,-603 405.75,-567 489.25,-567 489.25,-603"/>
<text text-anchor="middle" x="447.5" y="-587.15" font-family="Helvetica,sans-Serif" font-size="8.00">persist</text>
<text text-anchor="middle" x="447.5" y="-577.4" font-family="Helvetica,sans-Serif" font-size="8.00">org.glassfish.mq</text>
</g>
<!-- org.glassfish.mq:persist&#45;&gt;org.glassfish.mq:mq -->
<g id="edge20" class="edge">
<title>org.glassfish.mq:persist&#45;&gt;org.glassfish.mq:mq</title>
<path fill="none" stroke="black" d="M405.25,-576.83C391.78,-574.16 376.63,-571.16 362.46,-568.35"/>
<polygon fill="black" stroke="black" points="363.33,-564.95 352.84,-566.44 361.97,-571.82 363.33,-564.95"/>
</g>
<!-- org.glassfish.mq:mq&#45;txnlog -->
<g id="node22" class="node">
<title>org.glassfish.mq:mq&#45;txnlog</title>
<polygon fill="lightgrey" stroke="black" points="645.12,-846 561.62,-846 561.62,-810 645.12,-810 645.12,-846"/>
<text text-anchor="middle" x="603.38" y="-830.15" font-family="Helvetica,sans-Serif" font-size="8.00">mq&#45;txnlog</text>
<text text-anchor="middle" x="603.38" y="-820.4" font-family="Helvetica,sans-Serif" font-size="8.00">org.glassfish.mq</text>
</g>
<!-- org.glassfish.mq:mq&#45;txnlog&#45;&gt;org.glassfish.mq:persist -->
<g id="edge21" class="edge">
<title>org.glassfish.mq:mq&#45;txnlog&#45;&gt;org.glassfish.mq:persist</title>
<path fill="none" stroke="black" d="M561.13,-815.06C554.61,-811.42 548.54,-806.81 544,-801 491.38,-733.6 560.87,-679.21 508,-612 505.43,-608.73 502.37,-605.85 499.03,-603.3"/>
<polygon fill="black" stroke="black" points="501.21,-600.54 490.89,-598.14 497.46,-606.45 501.21,-600.54"/>
</g>
<!-- org.glassfish.mq:mq&#45;broker -->
<g id="node23" class="node">
<title>org.glassfish.mq:mq&#45;broker</title>
<polygon fill="wheat" stroke="black" points="489.25,-549 405.75,-549 405.75,-513 489.25,-513 489.25,-549"/>
<text text-anchor="middle" x="447.5" y="-533.15" font-family="Helvetica,sans-Serif" font-size="8.00">mq&#45;broker</text>
<text text-anchor="middle" x="447.5" y="-523.4" font-family="Helvetica,sans-Serif" font-size="8.00">org.glassfish.mq</text>
</g>
<!-- org.glassfish.mq:mq&#45;broker&#45;&gt;org.glassfish.mq:mq -->
<g id="edge22" class="edge">
<title>org.glassfish.mq:mq&#45;broker&#45;&gt;org.glassfish.mq:mq</title>
<path fill="none" stroke="black" d="M405.25,-539.17C391.78,-541.84 376.63,-544.84 362.46,-547.65"/>
<polygon fill="black" stroke="black" points="361.97,-544.18 352.84,-549.56 363.33,-551.05 361.97,-544.18"/>
</g>
<!-- org.glassfish.mq:mqbroker&#45;comm -->
<g id="node24" class="node">
<title>org.glassfish.mq:mqbroker&#45;comm</title>
<polygon fill="lightgrey" stroke="black" points="645.12,-738 561.62,-738 561.62,-702 645.12,-702 645.12,-738"/>
<text text-anchor="middle" x="603.38" y="-722.15" font-family="Helvetica,sans-Serif" font-size="8.00">mqbroker&#45;comm</text>
<text text-anchor="middle" x="603.38" y="-712.4" font-family="Helvetica,sans-Serif" font-size="8.00">org.glassfish.mq</text>
</g>
<!-- org.glassfish.mq:mqbroker&#45;comm&#45;&gt;org.glassfish.mq:mq&#45;broker -->
<g id="edge23" class="edge">
<title>org.glassfish.mq:mqbroker&#45;comm&#45;&gt;org.glassfish.mq:mq&#45;broker</title>
<path fill="none" stroke="black" d="M561.18,-706.62C554.73,-703.03 548.67,-698.56 544,-693 504.04,-645.47 548.13,-605.39 508,-558 505.43,-554.96 502.45,-552.25 499.21,-549.84"/>
<polygon fill="black" stroke="black" points="501.18,-546.94 490.85,-544.58 497.45,-552.87 501.18,-546.94"/>
</g>
<!-- org.glassfish.mq:mq&#45;portunif -->
<g id="node25" class="node">
<title>org.glassfish.mq:mq&#45;portunif</title>
<polygon fill="lightgrey" stroke="black" points="489.25,-495 405.75,-495 405.75,-459 489.25,-459 489.25,-495"/>
<text text-anchor="middle" x="447.5" y="-479.15" font-family="Helvetica,sans-Serif" font-size="8.00">mq&#45;portunif</text>
<text text-anchor="middle" x="447.5" y="-469.4" font-family="Helvetica,sans-Serif" font-size="8.00">org.glassfish.mq</text>
</g>
<!-- org.glassfish.mq:mq&#45;portunif&#45;&gt;org.glassfish.mq:mq -->
<g id="edge24" class="edge">
<title>org.glassfish.mq:mq&#45;portunif&#45;&gt;org.glassfish.mq:mq</title>
<path fill="none" stroke="black" d="M405.25,-494.3C399.02,-497.32 392.76,-500.59 387,-504 369.79,-514.19 367.34,-519.47 351,-531 349.99,-531.71 348.97,-532.42 347.94,-533.14"/>
<polygon fill="black" stroke="black" points="345.99,-530.24 339.7,-538.77 349.94,-536.02 345.99,-530.24"/>
</g>
<!-- org.glassfish.mq:bridge -->
<g id="node26" class="node">
<title>org.glassfish.mq:bridge</title>
<polygon fill="wheat" stroke="black" points="489.25,-414 405.75,-414 405.75,-378 489.25,-378 489.25,-414"/>
<text text-anchor="middle" x="447.5" y="-398.15" font-family="Helvetica,sans-Serif" font-size="8.00">bridge</text>
<text text-anchor="middle" x="447.5" y="-388.4" font-family="Helvetica,sans-Serif" font-size="8.00">org.glassfish.mq</text>
</g>
<!-- org.glassfish.mq:bridge&#45;&gt;org.glassfish.mq:mq -->
<g id="edge25" class="edge">
<title>org.glassfish.mq:bridge&#45;&gt;org.glassfish.mq:mq</title>
<path fill="none" stroke="black" d="M421.97,-414.29C410.27,-423.93 396.73,-436.55 387,-450 363.92,-481.92 376.44,-500.92 351,-531 350.75,-531.29 350.5,-531.58 350.25,-531.87"/>
<polygon fill="black" stroke="black" points="347.98,-529.19 343.13,-538.61 352.8,-534.28 347.98,-529.19"/>
</g>
<!-- org.glassfish.mq:mqbridge&#45;api -->
<g id="node27" class="node">
<title>org.glassfish.mq:mqbridge&#45;api</title>
<polygon fill="lightgrey" stroke="black" points="645.12,-414 561.62,-414 561.62,-378 645.12,-378 645.12,-414"/>
<text text-anchor="middle" x="603.38" y="-398.15" font-family="Helvetica,sans-Serif" font-size="8.00">mqbridge&#45;api</text>
<text text-anchor="middle" x="603.38" y="-388.4" font-family="Helvetica,sans-Serif" font-size="8.00">org.glassfish.mq</text>
</g>
<!-- org.glassfish.mq:mqbridge&#45;api&#45;&gt;org.glassfish.mq:bridge -->
<g id="edge26" class="edge">
<title>org.glassfish.mq:mqbridge&#45;api&#45;&gt;org.glassfish.mq:bridge</title>
<path fill="none" stroke="black" d="M561.14,-396C542.61,-396 520.53,-396 500.85,-396"/>
<polygon fill="black" stroke="black" points="501.1,-392.5 491.1,-396 501.1,-399.5 501.1,-392.5"/>
</g>
<!-- org.glassfish.mq:mqbroker&#45;core -->
<g id="node28" class="node">
<title>org.glassfish.mq:mqbroker&#45;core</title>
<polygon fill="lightgrey" stroke="black" points="645.12,-684 561.62,-684 561.62,-648 645.12,-648 645.12,-684"/>
<text text-anchor="middle" x="603.38" y="-668.15" font-family="Helvetica,sans-Serif" font-size="8.00">mqbroker&#45;core</text>
<text text-anchor="middle" x="603.38" y="-658.4" font-family="Helvetica,sans-Serif" font-size="8.00">org.glassfish.mq</text>
</g>
<!-- org.glassfish.mq:mqbroker&#45;core&#45;&gt;org.glassfish.mq:mq&#45;broker -->
<g id="edge27" class="edge">
<title>org.glassfish.mq:mqbroker&#45;core&#45;&gt;org.glassfish.mq:mq&#45;broker</title>
<path fill="none" stroke="black" d="M561.28,-651.65C554.98,-648.19 548.94,-644.01 544,-639 516.35,-610.94 535.75,-585.96 508,-558 505.36,-555.34 502.42,-552.92 499.29,-550.72"/>
<polygon fill="black" stroke="black" points="501.12,-547.74 490.75,-545.54 497.49,-553.72 501.12,-547.74"/>
</g>
<!-- org.glassfish.mq:jmsra -->
<g id="node29" class="node">
<title>org.glassfish.mq:jmsra</title>
<polygon fill="wheat" stroke="black" points="489.25,-360 405.75,-360 405.75,-324 489.25,-324 489.25,-360"/>
<text text-anchor="middle" x="447.5" y="-344.15" font-family="Helvetica,sans-Serif" font-size="8.00">jmsra</text>
<text text-anchor="middle" x="447.5" y="-334.4" font-family="Helvetica,sans-Serif" font-size="8.00">org.glassfish.mq</text>
</g>
<!-- org.glassfish.mq:jmsra&#45;&gt;org.glassfish.mq:mq -->
<g id="edge28" class="edge">
<title>org.glassfish.mq:jmsra&#45;&gt;org.glassfish.mq:mq</title>
<path fill="none" stroke="black" d="M405.53,-354.44C398.53,-358.16 391.93,-362.92 387,-369 340.52,-426.27 392.78,-470.22 351,-531 350.93,-531.1 350.86,-531.2 350.79,-531.3"/>
<polygon fill="black" stroke="black" points="348.22,-528.92 344.08,-538.68 353.4,-533.64 348.22,-528.92"/>
</g>
<!-- org.glassfish.mq:mqjmsra&#45;api -->
<g id="node30" class="node">
<title>org.glassfish.mq:mqjmsra&#45;api</title>
<polygon fill="lightgrey" stroke="black" points="645.12,-198 561.62,-198 561.62,-162 645.12,-162 645.12,-198"/>
<text text-anchor="middle" x="603.38" y="-182.15" font-family="Helvetica,sans-Serif" font-size="8.00">mqjmsra&#45;api</text>
<text text-anchor="middle" x="603.38" y="-172.4" font-family="Helvetica,sans-Serif" font-size="8.00">org.glassfish.mq</text>
</g>
<!-- org.glassfish.mq:mqjmsra&#45;api&#45;&gt;org.glassfish.mq:jmsra -->
<g id="edge29" class="edge">
<title>org.glassfish.mq:mqjmsra&#45;api&#45;&gt;org.glassfish.mq:jmsra</title>
<path fill="none" stroke="black" d="M561.16,-193.79C554.79,-197.32 548.76,-201.67 544,-207 510.27,-244.71 541.86,-277.41 508,-315 505.38,-317.91 502.38,-320.53 499.15,-322.88"/>
<polygon fill="black" stroke="black" points="497.53,-319.77 490.87,-328.02 501.22,-325.72 497.53,-319.77"/>
</g>
<!-- org.glassfish.mq:mq&#45;client -->
<g id="node31" class="node">
<title>org.glassfish.mq:mq&#45;client</title>
<polygon fill="lightgrey" stroke="black" points="489.25,-306 405.75,-306 405.75,-270 489.25,-270 489.25,-306"/>
<text text-anchor="middle" x="447.5" y="-290.15" font-family="Helvetica,sans-Serif" font-size="8.00">mq&#45;client</text>
<text text-anchor="middle" x="447.5" y="-280.4" font-family="Helvetica,sans-Serif" font-size="8.00">org.glassfish.mq</text>
</g>
<!-- org.glassfish.mq:mq&#45;client&#45;&gt;org.glassfish.mq:mq -->
<g id="edge30" class="edge">
<title>org.glassfish.mq:mq&#45;client&#45;&gt;org.glassfish.mq:mq</title>
<path fill="none" stroke="black" d="M405.27,-300.24C398.29,-303.97 391.77,-308.79 387,-315 329.86,-389.4 398.63,-445.19 349.64,-529.91"/>
<polygon fill="black" stroke="black" points="346.74,-527.94 344.42,-538.28 352.68,-531.65 346.74,-527.94"/>
</g>
<!-- org.glassfish.mq:mq&#45;ums -->
<g id="node32" class="node">
<title>org.glassfish.mq:mq&#45;ums</title>
<polygon fill="lightgrey" stroke="black" points="489.25,-252 405.75,-252 405.75,-216 489.25,-216 489.25,-252"/>
<text text-anchor="middle" x="447.5" y="-236.15" font-family="Helvetica,sans-Serif" font-size="8.00">mq&#45;ums</text>
<text text-anchor="middle" x="447.5" y="-226.4" font-family="Helvetica,sans-Serif" font-size="8.00">org.glassfish.mq</text>
</g>
<!-- org.glassfish.mq:mq&#45;ums&#45;&gt;org.glassfish.mq:mq -->
<g id="edge31" class="edge">
<title>org.glassfish.mq:mq&#45;ums&#45;&gt;org.glassfish.mq:mq</title>
<path fill="none" stroke="black" d="M405.41,-245.95C398.33,-249.72 391.73,-254.62 387,-261 316.95,-355.35 409.48,-424.24 349.58,-529.96"/>
<polygon fill="black" stroke="black" points="346.69,-527.97 344.51,-538.34 352.68,-531.59 346.69,-527.97"/>
</g>
<!-- org.glassfish.mq:mqdisk&#45;io -->
<g id="node33" class="node">
<title>org.glassfish.mq:mqdisk&#45;io</title>
<polygon fill="lightgrey" stroke="black" points="645.12,-792 561.62,-792 561.62,-756 645.12,-756 645.12,-792"/>
<text text-anchor="middle" x="603.38" y="-776.15" font-family="Helvetica,sans-Serif" font-size="8.00">mqdisk&#45;io</text>
<text text-anchor="middle" x="603.38" y="-766.4" font-family="Helvetica,sans-Serif" font-size="8.00">org.glassfish.mq</text>
</g>
<!-- org.glassfish.mq:mqdisk&#45;io&#45;&gt;org.glassfish.mq:persist -->
<g id="edge32" class="edge">
<title>org.glassfish.mq:mqdisk&#45;io&#45;&gt;org.glassfish.mq:persist</title>
<path fill="none" stroke="black" d="M561.18,-760.62C554.73,-757.03 548.67,-752.56 544,-747 504.04,-699.47 548.13,-659.39 508,-612 505.43,-608.96 502.45,-606.25 499.21,-603.84"/>
<polygon fill="black" stroke="black" points="501.18,-600.94 490.85,-598.58 497.45,-606.87 501.18,-600.94"/>
</g>
<!-- org.glassfish.mq:mq&#45;admin -->
<g id="node34" class="node">
<title>org.glassfish.mq:mq&#45;admin</title>
<polygon fill="wheat" stroke="black" points="489.25,-198 405.75,-198 405.75,-162 489.25,-162 489.25,-198"/>
<text text-anchor="middle" x="447.5" y="-182.15" font-family="Helvetica,sans-Serif" font-size="8.00">mq&#45;admin</text>
<text text-anchor="middle" x="447.5" y="-172.4" font-family="Helvetica,sans-Serif" font-size="8.00">org.glassfish.mq</text>
</g>
<!-- org.glassfish.mq:mq&#45;admin&#45;&gt;org.glassfish.mq:mq -->
<g id="edge33" class="edge">
<title>org.glassfish.mq:mq&#45;admin&#45;&gt;org.glassfish.mq:mq</title>
<path fill="none" stroke="black" d="M405.3,-191.87C398.23,-195.64 391.66,-200.57 387,-207 303.98,-321.4 420.54,-403.26 349.49,-530.07"/>
<polygon fill="black" stroke="black" points="346.66,-527.99 344.57,-538.37 352.68,-531.56 346.66,-527.99"/>
</g>
<!-- org.glassfish.mq:mqadmin&#45;cli -->
<g id="node35" class="node">
<title>org.glassfish.mq:mqadmin&#45;cli</title>
<polygon fill="lightgrey" stroke="black" points="645.12,-90 561.62,-90 561.62,-54 645.12,-54 645.12,-90"/>
<text text-anchor="middle" x="603.38" y="-74.15" font-family="Helvetica,sans-Serif" font-size="8.00">mqadmin&#45;cli</text>
<text text-anchor="middle" x="603.38" y="-64.4" font-family="Helvetica,sans-Serif" font-size="8.00">org.glassfish.mq</text>
</g>
<!-- org.glassfish.mq:mqadmin&#45;cli&#45;&gt;org.glassfish.mq:mq&#45;admin -->
<g id="edge34" class="edge">
<title>org.glassfish.mq:mqadmin&#45;cli&#45;&gt;org.glassfish.mq:mq&#45;admin</title>
<path fill="none" stroke="black" d="M561.37,-87.42C555.2,-90.72 549.17,-94.57 544,-99 522.09,-117.76 529.98,-134.32 508,-153 505.36,-155.24 502.51,-157.33 499.53,-159.28"/>
<polygon fill="black" stroke="black" points="497.88,-156.19 490.99,-164.23 501.39,-162.24 497.88,-156.19"/>
</g>
<!-- org.glassfish.mq:mqjmsra&#45;ra -->
<g id="node36" class="node">
<title>org.glassfish.mq:mqjmsra&#45;ra</title>
<polygon fill="lightgrey" stroke="black" points="645.12,-144 561.62,-144 561.62,-108 645.12,-108 645.12,-144"/>
<text text-anchor="middle" x="603.38" y="-128.15" font-family="Helvetica,sans-Serif" font-size="8.00">mqjmsra&#45;ra</text>
<text text-anchor="middle" x="603.38" y="-118.4" font-family="Helvetica,sans-Serif" font-size="8.00">org.glassfish.mq</text>
</g>
<!-- org.glassfish.mq:mqjmsra&#45;ra&#45;&gt;org.glassfish.mq:jmsra -->
<g id="edge35" class="edge">
<title>org.glassfish.mq:mqjmsra&#45;ra&#45;&gt;org.glassfish.mq:jmsra</title>
<path fill="none" stroke="black" d="M561.28,-139.06C554.74,-142.69 548.62,-147.26 544,-153 497.73,-210.44 554.48,-257.73 508,-315 505.38,-318.23 502.29,-321.09 498.92,-323.61"/>
<polygon fill="black" stroke="black" points="497.35,-320.46 490.75,-328.75 501.08,-326.39 497.35,-320.46"/>
</g>
<!-- org.glassfish.mq:mqbridge&#45;jms -->
<g id="node37" class="node">
<title>org.glassfish.mq:mqbridge&#45;jms</title>
<polygon fill="lightgrey" stroke="black" points="645.12,-360 561.62,-360 561.62,-324 645.12,-324 645.12,-360"/>
<text text-anchor="middle" x="603.38" y="-344.15" font-family="Helvetica,sans-Serif" font-size="8.00">mqbridge&#45;jms</text>
<text text-anchor="middle" x="603.38" y="-334.4" font-family="Helvetica,sans-Serif" font-size="8.00">org.glassfish.mq</text>
</g>
<!-- org.glassfish.mq:mqbridge&#45;jms&#45;&gt;org.glassfish.mq:bridge -->
<g id="edge36" class="edge">
<title>org.glassfish.mq:mqbridge&#45;jms&#45;&gt;org.glassfish.mq:bridge</title>
<path fill="none" stroke="black" d="M561.14,-356.47C542.44,-363.03 520.12,-370.87 500.3,-377.82"/>
<polygon fill="black" stroke="black" points="499.29,-374.47 491.01,-381.08 501.61,-381.07 499.29,-374.47"/>
</g>
<!-- org.glassfish.mq:mqbridge&#45;stomp -->
<g id="node38" class="node">
<title>org.glassfish.mq:mqbridge&#45;stomp</title>
<polygon fill="lightgrey" stroke="black" points="645.12,-306 561.62,-306 561.62,-270 645.12,-270 645.12,-306"/>
<text text-anchor="middle" x="603.38" y="-290.15" font-family="Helvetica,sans-Serif" font-size="8.00">mqbridge&#45;stomp</text>
<text text-anchor="middle" x="603.38" y="-280.4" font-family="Helvetica,sans-Serif" font-size="8.00">org.glassfish.mq</text>
</g>
<!-- org.glassfish.mq:mqbridge&#45;stomp&#45;&gt;org.glassfish.mq:bridge -->
<g id="edge37" class="edge">
<title>org.glassfish.mq:mqbridge&#45;stomp&#45;&gt;org.glassfish.mq:bridge</title>
<path fill="none" stroke="black" d="M561.37,-303.42C555.2,-306.72 549.17,-310.57 544,-315 522.09,-333.76 529.98,-350.32 508,-369 505.36,-371.24 502.51,-373.33 499.53,-375.28"/>
<polygon fill="black" stroke="black" points="497.88,-372.19 490.99,-380.23 501.39,-378.24 497.88,-372.19"/>
</g>
<!-- org.glassfish.mq:mqbridge&#45;admin -->
<g id="node39" class="node">
<title>org.glassfish.mq:mqbridge&#45;admin</title>
<polygon fill="lightgrey" stroke="black" points="645.12,-252 561.62,-252 561.62,-216 645.12,-216 645.12,-252"/>
<text text-anchor="middle" x="603.38" y="-236.15" font-family="Helvetica,sans-Serif" font-size="8.00">mqbridge&#45;admin</text>
<text text-anchor="middle" x="603.38" y="-226.4" font-family="Helvetica,sans-Serif" font-size="8.00">org.glassfish.mq</text>
</g>
<!-- org.glassfish.mq:mqbridge&#45;admin&#45;&gt;org.glassfish.mq:bridge -->
<g id="edge38" class="edge">
<title>org.glassfish.mq:mqbridge&#45;admin&#45;&gt;org.glassfish.mq:bridge</title>
<path fill="none" stroke="black" d="M561.16,-247.79C554.79,-251.32 548.76,-255.67 544,-261 510.27,-298.71 541.86,-331.41 508,-369 505.38,-371.91 502.38,-374.53 499.15,-376.88"/>
<polygon fill="black" stroke="black" points="497.53,-373.77 490.87,-382.02 501.22,-379.72 497.53,-373.77"/>
</g>
<!-- org.glassfish.mq:mq&#45;cluster -->
<g id="node40" class="node">
<title>org.glassfish.mq:mq&#45;cluster</title>
<polygon fill="lightgrey" stroke="black" points="645.12,-630 561.62,-630 561.62,-594 645.12,-594 645.12,-630"/>
<text text-anchor="middle" x="603.38" y="-614.15" font-family="Helvetica,sans-Serif" font-size="8.00">mq&#45;cluster</text>
<text text-anchor="middle" x="603.38" y="-604.4" font-family="Helvetica,sans-Serif" font-size="8.00">org.glassfish.mq</text>
</g>
<!-- org.glassfish.mq:mq&#45;cluster&#45;&gt;org.glassfish.mq:mq&#45;broker -->
<g id="edge39" class="edge">
<title>org.glassfish.mq:mq&#45;cluster&#45;&gt;org.glassfish.mq:mq&#45;broker</title>
<path fill="none" stroke="black" d="M561.3,-594.34C555.39,-591.41 549.46,-588.26 544,-585 526.83,-574.75 525.21,-568.19 508,-558 505.39,-556.45 502.68,-554.94 499.91,-553.46"/>
<polygon fill="black" stroke="black" points="501.6,-550.39 491.1,-548.98 498.43,-556.63 501.6,-550.39"/>
</g>
<!-- org.glassfish.mq:mqpersist&#45;file -->
<g id="node41" class="node">
<title>org.glassfish.mq:mqpersist&#45;file</title>
<polygon fill="lightgrey" stroke="black" points="645.12,-576 561.62,-576 561.62,-540 645.12,-540 645.12,-576"/>
<text text-anchor="middle" x="603.38" y="-560.15" font-family="Helvetica,sans-Serif" font-size="8.00">mqpersist&#45;file</text>
<text text-anchor="middle" x="603.38" y="-550.4" font-family="Helvetica,sans-Serif" font-size="8.00">org.glassfish.mq</text>
</g>
<!-- org.glassfish.mq:mqpersist&#45;file&#45;&gt;org.glassfish.mq:mq&#45;broker -->
<g id="edge40" class="edge">
<title>org.glassfish.mq:mqpersist&#45;file&#45;&gt;org.glassfish.mq:mq&#45;broker</title>
<path fill="none" stroke="black" d="M561.14,-550.76C542.61,-547.51 520.53,-543.64 500.85,-540.19"/>
<polygon fill="black" stroke="black" points="501.53,-536.75 491.07,-538.47 500.32,-543.65 501.53,-536.75"/>
</g>
<!-- org.glassfish.mq:mqpersist&#45;jdbc -->
<g id="node42" class="node">
<title>org.glassfish.mq:mqpersist&#45;jdbc</title>
<polygon fill="lightgrey" stroke="black" points="645.12,-522 561.62,-522 561.62,-486 645.12,-486 645.12,-522"/>
<text text-anchor="middle" x="603.38" y="-506.15" font-family="Helvetica,sans-Serif" font-size="8.00">mqpersist&#45;jdbc</text>
<text text-anchor="middle" x="603.38" y="-496.4" font-family="Helvetica,sans-Serif" font-size="8.00">org.glassfish.mq</text>
</g>
<!-- org.glassfish.mq:mqpersist&#45;jdbc&#45;&gt;org.glassfish.mq:mq&#45;broker -->
<g id="edge41" class="edge">
<title>org.glassfish.mq:mqpersist&#45;jdbc&#45;&gt;org.glassfish.mq:mq&#45;broker</title>
<path fill="none" stroke="black" d="M561.14,-511.24C542.61,-514.49 520.53,-518.36 500.85,-521.81"/>
<polygon fill="black" stroke="black" points="500.32,-518.35 491.07,-523.53 501.53,-525.25 500.32,-518.35"/>
</g>
<!-- org.glassfish.mq:mq&#45;partition -->
<g id="node43" class="node">
<title>org.glassfish.mq:mq&#45;partition</title>
<polygon fill="wheat" stroke="black" points="645.12,-468 561.62,-468 561.62,-432 645.12,-432 645.12,-468"/>
<text text-anchor="middle" x="603.38" y="-452.15" font-family="Helvetica,sans-Serif" font-size="8.00">mq&#45;partition</text>
<text text-anchor="middle" x="603.38" y="-442.4" font-family="Helvetica,sans-Serif" font-size="8.00">org.glassfish.mq</text>
</g>
<!-- org.glassfish.mq:mq&#45;partition&#45;&gt;org.glassfish.mq:mq&#45;broker -->
<g id="edge42" class="edge">
<title>org.glassfish.mq:mq&#45;partition&#45;&gt;org.glassfish.mq:mq&#45;broker</title>
<path fill="none" stroke="black" d="M561.3,-467.66C555.39,-470.59 549.46,-473.74 544,-477 526.83,-487.25 525.21,-493.81 508,-504 505.39,-505.55 502.68,-507.06 499.91,-508.54"/>
<polygon fill="black" stroke="black" points="498.43,-505.37 491.1,-513.02 501.6,-511.61 498.43,-505.37"/>
</g>
<!-- org.glassfish.mq:mqpartition&#45;persist&#45;api -->
<g id="node44" class="node">
<title>org.glassfish.mq:mqpartition&#45;persist&#45;api</title>
<polygon fill="lightgrey" stroke="black" points="810.75,-495 701,-495 701,-459 810.75,-459 810.75,-495"/>
<text text-anchor="middle" x="755.88" y="-479.15" font-family="Helvetica,sans-Serif" font-size="8.00">mqpartition&#45;persist&#45;api</text>
<text text-anchor="middle" x="755.88" y="-469.4" font-family="Helvetica,sans-Serif" font-size="8.00">org.glassfish.mq</text>
</g>
<!-- org.glassfish.mq:mqpartition&#45;persist&#45;api&#45;&gt;org.glassfish.mq:mq&#45;partition -->
<g id="edge43" class="edge">
<title>org.glassfish.mq:mqpartition&#45;persist&#45;api&#45;&gt;org.glassfish.mq:mq&#45;partition</title>
<path fill="none" stroke="black" d="M700.54,-467.25C686.19,-464.68 670.74,-461.91 656.51,-459.35"/>
<polygon fill="black" stroke="black" points="657.35,-455.95 646.89,-457.63 656.11,-462.84 657.35,-455.95"/>
</g>
<!-- org.glassfish.mq:mqpartition&#45;persist&#45;jdbc -->
<g id="node45" class="node">
<title>org.glassfish.mq:mqpartition&#45;persist&#45;jdbc</title>
<polygon fill="lightgrey" stroke="black" points="813,-441 698.75,-441 698.75,-405 813,-405 813,-441"/>
<text text-anchor="middle" x="755.88" y="-425.15" font-family="Helvetica,sans-Serif" font-size="8.00">mqpartition&#45;persist&#45;jdbc</text>
<text text-anchor="middle" x="755.88" y="-415.4" font-family="Helvetica,sans-Serif" font-size="8.00">org.glassfish.mq</text>
</g>
<!-- org.glassfish.mq:mqpartition&#45;persist&#45;jdbc&#45;&gt;org.glassfish.mq:mq&#45;partition -->
<g id="edge44" class="edge">
<title>org.glassfish.mq:mqpartition&#45;persist&#45;jdbc&#45;&gt;org.glassfish.mq:mq&#45;partition</title>
<path fill="none" stroke="black" d="M698.41,-433.13C684.59,-435.61 669.88,-438.25 656.29,-440.69"/>
<polygon fill="black" stroke="black" points="655.89,-437.2 646.67,-442.41 657.13,-444.09 655.89,-437.2"/>
</g>
<!-- org.glassfish.mq:mqadmin&#45;gui -->
<g id="node46" class="node">
<title>org.glassfish.mq:mqadmin&#45;gui</title>
<polygon fill="lightgrey" stroke="black" points="645.12,-36 561.62,-36 561.62,0 645.12,0 645.12,-36"/>
<text text-anchor="middle" x="603.38" y="-20.15" font-family="Helvetica,sans-Serif" font-size="8.00">mqadmin&#45;gui</text>
<text text-anchor="middle" x="603.38" y="-10.4" font-family="Helvetica,sans-Serif" font-size="8.00">org.glassfish.mq</text>
</g>
<!-- org.glassfish.mq:mqadmin&#45;gui&#45;&gt;org.glassfish.mq:mq&#45;admin -->
<g id="edge45" class="edge">
<title>org.glassfish.mq:mqadmin&#45;gui&#45;&gt;org.glassfish.mq:mq&#45;admin</title>
<path fill="none" stroke="black" d="M561.16,-31.79C554.79,-35.32 548.76,-39.67 544,-45 510.27,-82.71 541.86,-115.41 508,-153 505.38,-155.91 502.38,-158.53 499.15,-160.88"/>
<polygon fill="black" stroke="black" points="497.53,-157.77 490.87,-166.02 501.22,-163.72 497.53,-157.77"/>
</g>
<!-- org.glassfish.mq:helpfiles -->
<g id="node47" class="node">
<title>org.glassfish.mq:helpfiles</title>
<polygon fill="lightgrey" stroke="black" points="489.25,-144 405.75,-144 405.75,-108 489.25,-108 489.25,-144"/>
<text text-anchor="middle" x="447.5" y="-128.15" font-family="Helvetica,sans-Serif" font-size="8.00">helpfiles</text>
<text text-anchor="middle" x="447.5" y="-118.4" font-family="Helvetica,sans-Serif" font-size="8.00">org.glassfish.mq</text>
</g>
<!-- org.glassfish.mq:helpfiles&#45;&gt;org.glassfish.mq:mq -->
<g id="edge46" class="edge">
<title>org.glassfish.mq:helpfiles&#45;&gt;org.glassfish.mq:mq</title>
<path fill="none" stroke="black" d="M405.52,-137.65C398.34,-141.45 391.68,-146.44 387,-153 291.07,-287.41 431.53,-382.14 349.58,-529.9"/>
<polygon fill="black" stroke="black" points="346.63,-528 344.61,-538.4 352.68,-531.53 346.63,-528"/>
</g>
<!-- org.glassfish.mq:mq&#45;packager&#45;opensource -->
<g id="node48" class="node">
<title>org.glassfish.mq:mq&#45;packager&#45;opensource</title>
<polygon fill="lightgrey" stroke="black" points="508,-90 387,-90 387,-54 508,-54 508,-90"/>
<text text-anchor="middle" x="447.5" y="-74.15" font-family="Helvetica,sans-Serif" font-size="8.00">mq&#45;packager&#45;opensource</text>
<text text-anchor="middle" x="447.5" y="-64.4" font-family="Helvetica,sans-Serif" font-size="8.00">org.glassfish.mq</text>
</g>
<!-- org.glassfish.mq:mq&#45;packager&#45;opensource&#45;&gt;org.glassfish.mq:mq -->
<g id="edge47" class="edge">
<title>org.glassfish.mq:mq&#45;packager&#45;opensource&#45;&gt;org.glassfish.mq:mq</title>
<path fill="none" stroke="black" d="M395.15,-90.37C392.06,-92.89 389.29,-95.75 387,-99 333.4,-175.05 395.52,-429.84 349.22,-529.72"/>
<polygon fill="black" stroke="black" points="346.22,-527.92 344.6,-538.39 352.39,-531.22 346.22,-527.92"/>
</g>
<!-- org.glassfish.mq:mq&#45;distribution -->
<g id="node49" class="node">
<title>org.glassfish.mq:mq&#45;distribution</title>
<polygon fill="lightgrey" stroke="black" points="351,-522 267.5,-522 267.5,-486 351,-486 351,-522"/>
<text text-anchor="middle" x="309.25" y="-506.15" font-family="Helvetica,sans-Serif" font-size="8.00">mq&#45;distribution</text>
<text text-anchor="middle" x="309.25" y="-496.4" font-family="Helvetica,sans-Serif" font-size="8.00">org.glassfish.mq</text>
</g>
<!-- org.glassfish.mq:mq&#45;distribution&#45;&gt;org.glassfish.mq:project -->
<g id="edge48" class="edge">
<title>org.glassfish.mq:mq&#45;distribution&#45;&gt;org.glassfish.mq:project</title>
<path fill="none" stroke="black" d="M268.14,-522.43C259.45,-526.43 250.14,-530.71 241.11,-534.86"/>
<polygon fill="black" stroke="black" points="239.68,-531.66 232.05,-539.02 242.6,-538.02 239.68,-531.66"/>
</g>
</g>
</svg>
