<?xml version="1.0" encoding="UTF-8" standalone="no"?>
<!DOCTYPE svg PUBLIC "-//W3C//DTD SVG 1.1//EN"
 "http://www.w3.org/Graphics/SVG/1.1/DTD/svg11.dtd">
<!-- Generated by graphviz version 2.44.0 (0)
 -->
<!-- Title: openmq Pages: 1 -->
<svg width="636pt" height="1070pt"
 viewBox="0.00 0.00 636.00 1070.00" xmlns="http://www.w3.org/2000/svg" xmlns:xlink="http://www.w3.org/1999/xlink">
<g id="graph0" class="graph" transform="scale(1 1) rotate(0) translate(4 1066)">
<title>openmq</title>
<polygon fill="white" stroke="transparent" points="-4,4 -4,-1066 632,-1066 632,4 -4,4"/>
<!-- org.glassfish.mq:mq -->
<g id="node1" class="node">
<title>org.glassfish.mq:mq</title>
<polygon fill="wheat" stroke="black" points="208,-630 134,-630 134,-594 208,-594 208,-630"/>
<text text-anchor="middle" x="171" y="-614.6" font-family="Helvetica" font-size="8.00">mq</text>
<text text-anchor="middle" x="171" y="-605.6" font-family="Helvetica" font-size="8.00">org.glassfish.mq</text>
</g>
<!-- org.eclipse.ee4j:project -->
<g id="node2" class="node">
<title>org.eclipse.ee4j:project</title>
<polygon fill="lightgrey" stroke="black" points="98,-630 0,-630 0,-594 98,-594 98,-630"/>
<text text-anchor="middle" x="49" y="-610.1" font-family="Helvetica" font-size="8.00">org.eclipse.ee4j:project</text>
</g>
<!-- org.glassfish.mq:mq&#45;&gt;org.eclipse.ee4j:project -->
<g id="edge1" class="edge">
<title>org.glassfish.mq:mq&#45;&gt;org.eclipse.ee4j:project</title>
<path fill="none" stroke="black" d="M134,-612C125.96,-612 117.23,-612 108.55,-612"/>
<polygon fill="black" stroke="black" points="108.41,-608.5 98.41,-612 108.41,-615.5 108.41,-608.5"/>
</g>
<!-- org.glassfish.mq:mqcomm&#45;util -->
<g id="node3" class="node">
<title>org.glassfish.mq:mqcomm&#45;util</title>
<polygon fill="lightgrey" stroke="black" points="335,-1062 261,-1062 261,-1026 335,-1026 335,-1062"/>
<text text-anchor="middle" x="298" y="-1046.6" font-family="Helvetica" font-size="8.00">mqcomm&#45;util</text>
<text text-anchor="middle" x="298" y="-1037.6" font-family="Helvetica" font-size="8.00">org.glassfish.mq</text>
</g>
<!-- org.glassfish.mq:mqcomm&#45;util&#45;&gt;org.glassfish.mq:mq -->
<g id="edge2" class="edge">
<title>org.glassfish.mq:mqcomm&#45;util&#45;&gt;org.glassfish.mq:mq</title>
<path fill="none" stroke="black" d="M260.81,-1031.31C254.39,-1027.59 248.37,-1022.89 244,-1017 199.24,-956.6 179.4,-721.6 173.77,-640.06"/>
<polygon fill="black" stroke="black" points="177.26,-639.77 173.1,-630.03 170.27,-640.24 177.26,-639.77"/>
</g>
<!-- org.glassfish.mq:mqcomm&#45;io -->
<g id="node4" class="node">
<title>org.glassfish.mq:mqcomm&#45;io</title>
<polygon fill="lightgrey" stroke="black" points="335,-1008 261,-1008 261,-972 335,-972 335,-1008"/>
<text text-anchor="middle" x="298" y="-992.6" font-family="Helvetica" font-size="8.00">mqcomm&#45;io</text>
<text text-anchor="middle" x="298" y="-983.6" font-family="Helvetica" font-size="8.00">org.glassfish.mq</text>
</g>
<!-- org.glassfish.mq:mqcomm&#45;io&#45;&gt;org.glassfish.mq:mq -->
<g id="edge3" class="edge">
<title>org.glassfish.mq:mqcomm&#45;io&#45;&gt;org.glassfish.mq:mq</title>
<path fill="none" stroke="black" d="M260.93,-977.22C254.5,-973.51 248.44,-968.83 244,-963 205.02,-911.83 182.03,-714.23 174.63,-640.21"/>
<polygon fill="black" stroke="black" points="178.11,-639.83 173.66,-630.22 171.15,-640.51 178.11,-639.83"/>
</g>
<!-- org.glassfish.mq:mq&#45;share -->
<g id="node5" class="node">
<title>org.glassfish.mq:mq&#45;share</title>
<polygon fill="lightgrey" stroke="black" points="335,-954 261,-954 261,-918 335,-918 335,-954"/>
<text text-anchor="middle" x="298" y="-938.6" font-family="Helvetica" font-size="8.00">mq&#45;share</text>
<text text-anchor="middle" x="298" y="-929.6" font-family="Helvetica" font-size="8.00">org.glassfish.mq</text>
</g>
<!-- org.glassfish.mq:mq&#45;share&#45;&gt;org.glassfish.mq:mq -->
<g id="edge4" class="edge">
<title>org.glassfish.mq:mq&#45;share&#45;&gt;org.glassfish.mq:mq</title>
<path fill="none" stroke="black" d="M260.82,-922.93C254.48,-919.26 248.48,-914.67 244,-909 179.72,-827.66 171.62,-697.45 171.39,-640.37"/>
<polygon fill="black" stroke="black" points="174.89,-640.29 171.43,-630.28 167.89,-640.26 174.89,-640.29"/>
</g>
<!-- org.glassfish.mq:mq&#45;logger -->
<g id="node6" class="node">
<title>org.glassfish.mq:mq&#45;logger</title>
<polygon fill="lightgrey" stroke="black" points="335,-900 261,-900 261,-864 335,-864 335,-900"/>
<text text-anchor="middle" x="298" y="-884.6" font-family="Helvetica" font-size="8.00">mq&#45;logger</text>
<text text-anchor="middle" x="298" y="-875.6" font-family="Helvetica" font-size="8.00">org.glassfish.mq</text>
</g>
<!-- org.glassfish.mq:mq&#45;logger&#45;&gt;org.glassfish.mq:mq -->
<g id="edge5" class="edge">
<title>org.glassfish.mq:mq&#45;logger&#45;&gt;org.glassfish.mq:mq</title>
<path fill="none" stroke="black" d="M260.77,-868.6C254.51,-864.96 248.56,-860.48 244,-855 190.9,-791.16 176.96,-689.38 173.3,-640.3"/>
<polygon fill="black" stroke="black" points="176.78,-639.85 172.64,-630.1 169.8,-640.31 176.78,-639.85"/>
</g>
<!-- org.glassfish.mq:mqjmx&#45;api -->
<g id="node7" class="node">
<title>org.glassfish.mq:mqjmx&#45;api</title>
<polygon fill="lightgrey" stroke="black" points="335,-846 261,-846 261,-810 335,-810 335,-846"/>
<text text-anchor="middle" x="298" y="-830.6" font-family="Helvetica" font-size="8.00">mqjmx&#45;api</text>
<text text-anchor="middle" x="298" y="-821.6" font-family="Helvetica" font-size="8.00">org.glassfish.mq</text>
</g>
<!-- org.glassfish.mq:mqjmx&#45;api&#45;&gt;org.glassfish.mq:mq -->
<g id="edge6" class="edge">
<title>org.glassfish.mq:mqjmx&#45;api&#45;&gt;org.glassfish.mq:mq</title>
<path fill="none" stroke="black" d="M260.82,-814.16C254.63,-810.58 248.69,-806.22 244,-801 201.89,-754.12 183.44,-680.09 176.17,-640.01"/>
<polygon fill="black" stroke="black" points="179.61,-639.39 174.48,-630.12 172.71,-640.57 179.61,-639.39"/>
</g>
<!-- org.glassfish.mq:http&#45;tunnel -->
<g id="node8" class="node">
<title>org.glassfish.mq:http&#45;tunnel</title>
<polygon fill="wheat" stroke="black" points="335,-792 261,-792 261,-756 335,-756 335,-792"/>
<text text-anchor="middle" x="298" y="-776.6" font-family="Helvetica" font-size="8.00">http&#45;tunnel</text>
<text text-anchor="middle" x="298" y="-767.6" font-family="Helvetica" font-size="8.00">org.glassfish.mq</text>
</g>
<!-- org.glassfish.mq:http&#45;tunnel&#45;&gt;org.glassfish.mq:mq -->
<g id="edge7" class="edge">
<title>org.glassfish.mq:http&#45;tunnel&#45;&gt;org.glassfish.mq:mq</title>
<path fill="none" stroke="black" d="M260.79,-759.35C254.74,-755.88 248.86,-751.77 244,-747 212.97,-716.54 192.18,-669.84 181.23,-640.12"/>
<polygon fill="black" stroke="black" points="184.41,-638.62 177.76,-630.37 177.81,-640.96 184.41,-638.62"/>
</g>
<!-- org.glassfish.mq:mqhttp&#45;tunnel&#45;api&#45;share -->
<g id="node9" class="node">
<title>org.glassfish.mq:mqhttp&#45;tunnel&#45;api&#45;share</title>
<polygon fill="lightgrey" stroke="black" points="490.5,-1008 389.5,-1008 389.5,-972 490.5,-972 490.5,-1008"/>
<text text-anchor="middle" x="440" y="-992.6" font-family="Helvetica" font-size="8.00">mqhttp&#45;tunnel&#45;api&#45;share</text>
<text text-anchor="middle" x="440" y="-983.6" font-family="Helvetica" font-size="8.00">org.glassfish.mq</text>
</g>
<!-- org.glassfish.mq:mqhttp&#45;tunnel&#45;api&#45;share&#45;&gt;org.glassfish.mq:http&#45;tunnel -->
<g id="edge8" class="edge">
<title>org.glassfish.mq:mqhttp&#45;tunnel&#45;api&#45;share&#45;&gt;org.glassfish.mq:http&#45;tunnel</title>
<path fill="none" stroke="black" d="M397.02,-971.96C393.64,-969.32 390.55,-966.35 388,-963 343.29,-904.34 397.17,-859.31 352,-801 349.65,-797.96 346.86,-795.24 343.82,-792.8"/>
<polygon fill="black" stroke="black" points="345.51,-789.72 335.27,-787 341.57,-795.51 345.51,-789.72"/>
</g>
<!-- org.glassfish.mq:mqhttp&#45;tunnel&#45;api&#45;server -->
<g id="node10" class="node">
<title>org.glassfish.mq:mqhttp&#45;tunnel&#45;api&#45;server</title>
<polygon fill="lightgrey" stroke="black" points="492,-954 388,-954 388,-918 492,-918 492,-954"/>
<text text-anchor="middle" x="440" y="-938.6" font-family="Helvetica" font-size="8.00">mqhttp&#45;tunnel&#45;api&#45;server</text>
<text text-anchor="middle" x="440" y="-929.6" font-family="Helvetica" font-size="8.00">org.glassfish.mq</text>
</g>
<!-- org.glassfish.mq:mqhttp&#45;tunnel&#45;api&#45;server&#45;&gt;org.glassfish.mq:http&#45;tunnel -->
<g id="edge9" class="edge">
<title>org.glassfish.mq:mqhttp&#45;tunnel&#45;api&#45;server&#45;&gt;org.glassfish.mq:http&#45;tunnel</title>
<path fill="none" stroke="black" d="M397.37,-917.67C393.92,-915.09 390.72,-912.21 388,-909 355.3,-870.39 385.01,-839.35 352,-801 349.53,-798.13 346.68,-795.53 343.61,-793.18"/>
<polygon fill="black" stroke="black" points="345.35,-790.13 335.08,-787.53 341.49,-795.97 345.35,-790.13"/>
</g>
<!-- org.glassfish.mq:mqhttp&#45;tunnel -->
<g id="node11" class="node">
<title>org.glassfish.mq:mqhttp&#45;tunnel</title>
<polygon fill="lightgrey" stroke="black" points="477,-900 403,-900 403,-864 477,-864 477,-900"/>
<text text-anchor="middle" x="440" y="-884.6" font-family="Helvetica" font-size="8.00">mqhttp&#45;tunnel</text>
<text text-anchor="middle" x="440" y="-875.6" font-family="Helvetica" font-size="8.00">org.glassfish.mq</text>
</g>
<!-- org.glassfish.mq:mqhttp&#45;tunnel&#45;&gt;org.glassfish.mq:http&#45;tunnel -->
<g id="edge10" class="edge">
<title>org.glassfish.mq:mqhttp&#45;tunnel&#45;&gt;org.glassfish.mq:http&#45;tunnel</title>
<path fill="none" stroke="black" d="M402.93,-865.84C397.63,-862.65 392.46,-859.03 388,-855 366.6,-835.66 373.55,-820.17 352,-801 349.41,-798.7 346.6,-796.54 343.65,-794.52"/>
<polygon fill="black" stroke="black" points="345.45,-791.52 335.11,-789.21 341.76,-797.46 345.45,-791.52"/>
</g>
<!-- org.glassfish.mq:mqjaxm&#45;api -->
<g id="node12" class="node">
<title>org.glassfish.mq:mqjaxm&#45;api</title>
<polygon fill="lightgrey" stroke="black" points="335,-738 261,-738 261,-702 335,-702 335,-738"/>
<text text-anchor="middle" x="298" y="-722.6" font-family="Helvetica" font-size="8.00">mqjaxm&#45;api</text>
<text text-anchor="middle" x="298" y="-713.6" font-family="Helvetica" font-size="8.00">org.glassfish.mq</text>
</g>
<!-- org.glassfish.mq:mqjaxm&#45;api&#45;&gt;org.glassfish.mq:mq -->
<g id="edge11" class="edge">
<title>org.glassfish.mq:mqjaxm&#45;api&#45;&gt;org.glassfish.mq:mq</title>
<path fill="none" stroke="black" d="M260.83,-703.88C254.97,-700.63 249.15,-696.98 244,-693 223.65,-677.28 204.51,-655.27 191.09,-638.16"/>
<polygon fill="black" stroke="black" points="193.85,-636 184.98,-630.2 188.29,-640.26 193.85,-636"/>
</g>
<!-- org.glassfish.mq:mq&#45;direct -->
<g id="node13" class="node">
<title>org.glassfish.mq:mq&#45;direct</title>
<polygon fill="lightgrey" stroke="black" points="335,-684 261,-684 261,-648 335,-648 335,-684"/>
<text text-anchor="middle" x="298" y="-668.6" font-family="Helvetica" font-size="8.00">mq&#45;direct</text>
<text text-anchor="middle" x="298" y="-659.6" font-family="Helvetica" font-size="8.00">org.glassfish.mq</text>
</g>
<!-- org.glassfish.mq:mq&#45;direct&#45;&gt;org.glassfish.mq:mq -->
<g id="edge12" class="edge">
<title>org.glassfish.mq:mq&#45;direct&#45;&gt;org.glassfish.mq:mq</title>
<path fill="none" stroke="black" d="M260.84,-650.38C247.24,-644.5 231.6,-637.75 217.27,-631.56"/>
<polygon fill="black" stroke="black" points="218.64,-628.34 208.07,-627.58 215.87,-634.76 218.64,-628.34"/>
</g>
<!-- org.glassfish.mq:persist -->
<g id="node14" class="node">
<title>org.glassfish.mq:persist</title>
<polygon fill="wheat" stroke="black" points="335,-630 261,-630 261,-594 335,-594 335,-630"/>
<text text-anchor="middle" x="298" y="-614.6" font-family="Helvetica" font-size="8.00">persist</text>
<text text-anchor="middle" x="298" y="-605.6" font-family="Helvetica" font-size="8.00">org.glassfish.mq</text>
</g>
<!-- org.glassfish.mq:persist&#45;&gt;org.glassfish.mq:mq -->
<g id="edge13" class="edge">
<title>org.glassfish.mq:persist&#45;&gt;org.glassfish.mq:mq</title>
<path fill="none" stroke="black" d="M260.84,-612C247.5,-612 232.19,-612 218.09,-612"/>
<polygon fill="black" stroke="black" points="218.07,-608.5 208.07,-612 218.07,-615.5 218.07,-608.5"/>
</g>
<!-- org.glassfish.mq:mq&#45;txnlog -->
<g id="node15" class="node">
<title>org.glassfish.mq:mq&#45;txnlog</title>
<polygon fill="lightgrey" stroke="black" points="477,-846 403,-846 403,-810 477,-810 477,-846"/>
<text text-anchor="middle" x="440" y="-830.6" font-family="Helvetica" font-size="8.00">mq&#45;txnlog</text>
<text text-anchor="middle" x="440" y="-821.6" font-family="Helvetica" font-size="8.00">org.glassfish.mq</text>
</g>
<!-- org.glassfish.mq:mq&#45;txnlog&#45;&gt;org.glassfish.mq:persist -->
<g id="edge14" class="edge">
<title>org.glassfish.mq:mq&#45;txnlog&#45;&gt;org.glassfish.mq:persist</title>
<path fill="none" stroke="black" d="M402.79,-813.99C397.18,-810.47 391.95,-806.18 388,-801 343.29,-742.34 397.17,-697.31 352,-639 349.65,-635.96 346.86,-633.24 343.82,-630.8"/>
<polygon fill="black" stroke="black" points="345.51,-627.72 335.27,-625 341.57,-633.51 345.51,-627.72"/>
</g>
<!-- org.glassfish.mq:mq&#45;broker -->
<g id="node16" class="node">
<title>org.glassfish.mq:mq&#45;broker</title>
<polygon fill="wheat" stroke="black" points="335,-576 261,-576 261,-540 335,-540 335,-576"/>
<text text-anchor="middle" x="298" y="-560.6" font-family="Helvetica" font-size="8.00">mq&#45;broker</text>
<text text-anchor="middle" x="298" y="-551.6" font-family="Helvetica" font-size="8.00">org.glassfish.mq</text>
</g>
<!-- org.glassfish.mq:mq&#45;broker&#45;&gt;org.glassfish.mq:mq -->
<g id="edge15" class="edge">
<title>org.glassfish.mq:mq&#45;broker&#45;&gt;org.glassfish.mq:mq</title>
<path fill="none" stroke="black" d="M260.84,-573.62C247.24,-579.5 231.6,-586.25 217.27,-592.44"/>
<polygon fill="black" stroke="black" points="215.87,-589.24 208.07,-596.42 218.64,-595.66 215.87,-589.24"/>
</g>
<!-- org.glassfish.mq:mqbroker&#45;comm -->
<g id="node17" class="node">
<title>org.glassfish.mq:mqbroker&#45;comm</title>
<polygon fill="lightgrey" stroke="black" points="477,-738 403,-738 403,-702 477,-702 477,-738"/>
<text text-anchor="middle" x="440" y="-722.6" font-family="Helvetica" font-size="8.00">mqbroker&#45;comm</text>
<text text-anchor="middle" x="440" y="-713.6" font-family="Helvetica" font-size="8.00">org.glassfish.mq</text>
</g>
<!-- org.glassfish.mq:mqbroker&#45;comm&#45;&gt;org.glassfish.mq:mq&#45;broker -->
<g id="edge16" class="edge">
<title>org.glassfish.mq:mqbroker&#45;comm&#45;&gt;org.glassfish.mq:mq&#45;broker</title>
<path fill="none" stroke="black" d="M402.96,-705.47C397.4,-702.03 392.14,-697.89 388,-693 355.3,-654.39 385.01,-623.35 352,-585 349.53,-582.13 346.68,-579.53 343.61,-577.18"/>
<polygon fill="black" stroke="black" points="345.35,-574.13 335.08,-571.53 341.49,-579.97 345.35,-574.13"/>
</g>
<!-- org.glassfish.mq:mq&#45;portunif -->
<g id="node18" class="node">
<title>org.glassfish.mq:mq&#45;portunif</title>
<polygon fill="lightgrey" stroke="black" points="335,-522 261,-522 261,-486 335,-486 335,-522"/>
<text text-anchor="middle" x="298" y="-506.6" font-family="Helvetica" font-size="8.00">mq&#45;portunif</text>
<text text-anchor="middle" x="298" y="-497.6" font-family="Helvetica" font-size="8.00">org.glassfish.mq</text>
</g>
<!-- org.glassfish.mq:mq&#45;portunif&#45;&gt;org.glassfish.mq:mq -->
<g id="edge17" class="edge">
<title>org.glassfish.mq:mq&#45;portunif&#45;&gt;org.glassfish.mq:mq</title>
<path fill="none" stroke="black" d="M260.83,-520.12C254.97,-523.37 249.15,-527.02 244,-531 223.65,-546.72 204.51,-568.73 191.09,-585.84"/>
<polygon fill="black" stroke="black" points="188.29,-583.74 184.98,-593.8 193.85,-588 188.29,-583.74"/>
</g>
<!-- org.glassfish.mq:bridge -->
<g id="node19" class="node">
<title>org.glassfish.mq:bridge</title>
<polygon fill="wheat" stroke="black" points="335,-387 261,-387 261,-351 335,-351 335,-387"/>
<text text-anchor="middle" x="298" y="-371.6" font-family="Helvetica" font-size="8.00">bridge</text>
<text text-anchor="middle" x="298" y="-362.6" font-family="Helvetica" font-size="8.00">org.glassfish.mq</text>
</g>
<!-- org.glassfish.mq:bridge&#45;&gt;org.glassfish.mq:mq -->
<g id="edge18" class="edge">
<title>org.glassfish.mq:bridge&#45;&gt;org.glassfish.mq:mq</title>
<path fill="none" stroke="black" d="M287.6,-387.26C265.79,-429.67 211.61,-535 185.93,-584.92"/>
<polygon fill="black" stroke="black" points="182.8,-583.36 181.33,-593.86 189.02,-586.56 182.8,-583.36"/>
</g>
<!-- org.glassfish.mq:mqbridge&#45;api -->
<g id="node20" class="node">
<title>org.glassfish.mq:mqbridge&#45;api</title>
<polygon fill="lightgrey" stroke="black" points="477,-414 403,-414 403,-378 477,-378 477,-414"/>
<text text-anchor="middle" x="440" y="-398.6" font-family="Helvetica" font-size="8.00">mqbridge&#45;api</text>
<text text-anchor="middle" x="440" y="-389.6" font-family="Helvetica" font-size="8.00">org.glassfish.mq</text>
</g>
<!-- org.glassfish.mq:mqbridge&#45;api&#45;&gt;org.glassfish.mq:bridge -->
<g id="edge19" class="edge">
<title>org.glassfish.mq:mqbridge&#45;api&#45;&gt;org.glassfish.mq:bridge</title>
<path fill="none" stroke="black" d="M402.95,-389.05C385.37,-385.66 364.02,-381.54 345.25,-377.92"/>
<polygon fill="black" stroke="black" points="345.9,-374.48 335.42,-376.02 344.57,-381.35 345.9,-374.48"/>
</g>
<!-- org.glassfish.mq:mqbroker&#45;core -->
<g id="node21" class="node">
<title>org.glassfish.mq:mqbroker&#45;core</title>
<polygon fill="lightgrey" stroke="black" points="477,-684 403,-684 403,-648 477,-648 477,-684"/>
<text text-anchor="middle" x="440" y="-668.6" font-family="Helvetica" font-size="8.00">mqbroker&#45;core</text>
<text text-anchor="middle" x="440" y="-659.6" font-family="Helvetica" font-size="8.00">org.glassfish.mq</text>
</g>
<!-- org.glassfish.mq:mqbroker&#45;core&#45;&gt;org.glassfish.mq:mq&#45;broker -->
<g id="edge20" class="edge">
<title>org.glassfish.mq:mqbroker&#45;core&#45;&gt;org.glassfish.mq:mq&#45;broker</title>
<path fill="none" stroke="black" d="M402.93,-649.84C397.63,-646.65 392.46,-643.03 388,-639 366.6,-619.66 373.55,-604.17 352,-585 349.41,-582.7 346.6,-580.54 343.65,-578.52"/>
<polygon fill="black" stroke="black" points="345.45,-575.52 335.11,-573.21 341.76,-581.46 345.45,-575.52"/>
</g>
<!-- org.glassfish.mq:jmsra -->
<g id="node22" class="node">
<title>org.glassfish.mq:jmsra</title>
<polygon fill="wheat" stroke="black" points="335,-333 261,-333 261,-297 335,-297 335,-333"/>
<text text-anchor="middle" x="298" y="-317.6" font-family="Helvetica" font-size="8.00">jmsra</text>
<text text-anchor="middle" x="298" y="-308.6" font-family="Helvetica" font-size="8.00">org.glassfish.mq</text>
</g>
<!-- org.glassfish.mq:jmsra&#45;&gt;org.glassfish.mq:mq -->
<g id="edge21" class="edge">
<title>org.glassfish.mq:jmsra&#45;&gt;org.glassfish.mq:mq</title>
<path fill="none" stroke="black" d="M260.92,-328.15C254.57,-331.81 248.55,-336.38 244,-342 185.34,-414.52 174.18,-530.39 172.26,-583.6"/>
<polygon fill="black" stroke="black" points="168.76,-583.58 171.98,-593.67 175.76,-583.77 168.76,-583.58"/>
</g>
<!-- org.glassfish.mq:mqjmsra&#45;api -->
<g id="node23" class="node">
<title>org.glassfish.mq:mqjmsra&#45;api</title>
<polygon fill="lightgrey" stroke="black" points="477,-198 403,-198 403,-162 477,-162 477,-198"/>
<text text-anchor="middle" x="440" y="-182.6" font-family="Helvetica" font-size="8.00">mqjmsra&#45;api</text>
<text text-anchor="middle" x="440" y="-173.6" font-family="Helvetica" font-size="8.00">org.glassfish.mq</text>
</g>
<!-- org.glassfish.mq:mqjmsra&#45;api&#45;&gt;org.glassfish.mq:jmsra -->
<g id="edge22" class="edge">
<title>org.glassfish.mq:mqjmsra&#45;api&#45;&gt;org.glassfish.mq:jmsra</title>
<path fill="none" stroke="black" d="M402.83,-195.19C397.42,-198.53 392.24,-202.46 388,-207 361.12,-235.8 379.11,-259.42 352,-288 349.55,-290.59 346.79,-292.97 343.85,-295.15"/>
<polygon fill="black" stroke="black" points="341.68,-292.39 335.22,-300.79 345.51,-298.25 341.68,-292.39"/>
</g>
<!-- org.glassfish.mq:mq&#45;client -->
<g id="node24" class="node">
<title>org.glassfish.mq:mq&#45;client</title>
<polygon fill="lightgrey" stroke="black" points="335,-279 261,-279 261,-243 335,-243 335,-279"/>
<text text-anchor="middle" x="298" y="-263.6" font-family="Helvetica" font-size="8.00">mq&#45;client</text>
<text text-anchor="middle" x="298" y="-254.6" font-family="Helvetica" font-size="8.00">org.glassfish.mq</text>
</g>
<!-- org.glassfish.mq:mq&#45;client&#45;&gt;org.glassfish.mq:mq -->
<g id="edge23" class="edge">
<title>org.glassfish.mq:mq&#45;client&#45;&gt;org.glassfish.mq:mq</title>
<path fill="none" stroke="black" d="M260.73,-274C254.4,-277.68 248.43,-282.29 244,-288 207.91,-334.59 183.52,-513.59 175.18,-583.65"/>
<polygon fill="black" stroke="black" points="171.67,-583.58 173.98,-593.92 178.62,-584.4 171.67,-583.58"/>
</g>
<!-- org.glassfish.mq:mq&#45;ums -->
<g id="node25" class="node">
<title>org.glassfish.mq:mq&#45;ums</title>
<polygon fill="lightgrey" stroke="black" points="335,-225 261,-225 261,-189 335,-189 335,-225"/>
<text text-anchor="middle" x="298" y="-209.6" font-family="Helvetica" font-size="8.00">mq&#45;ums</text>
<text text-anchor="middle" x="298" y="-200.6" font-family="Helvetica" font-size="8.00">org.glassfish.mq</text>
</g>
<!-- org.glassfish.mq:mq&#45;ums&#45;&gt;org.glassfish.mq:mq -->
<g id="edge24" class="edge">
<title>org.glassfish.mq:mq&#45;ums&#45;&gt;org.glassfish.mq:mq</title>
<path fill="none" stroke="black" d="M260.86,-219.73C254.44,-223.45 248.4,-228.14 244,-234 202.15,-289.75 180.69,-505.79 174.18,-583.75"/>
<polygon fill="black" stroke="black" points="170.69,-583.55 173.36,-593.8 177.66,-584.12 170.69,-583.55"/>
</g>
<!-- org.glassfish.mq:mqdisk&#45;io -->
<g id="node26" class="node">
<title>org.glassfish.mq:mqdisk&#45;io</title>
<polygon fill="lightgrey" stroke="black" points="477,-792 403,-792 403,-756 477,-756 477,-792"/>
<text text-anchor="middle" x="440" y="-776.6" font-family="Helvetica" font-size="8.00">mqdisk&#45;io</text>
<text text-anchor="middle" x="440" y="-767.6" font-family="Helvetica" font-size="8.00">org.glassfish.mq</text>
</g>
<!-- org.glassfish.mq:mqdisk&#45;io&#45;&gt;org.glassfish.mq:persist -->
<g id="edge25" class="edge">
<title>org.glassfish.mq:mqdisk&#45;io&#45;&gt;org.glassfish.mq:persist</title>
<path fill="none" stroke="black" d="M402.96,-759.47C397.4,-756.03 392.14,-751.89 388,-747 355.3,-708.39 385.01,-677.35 352,-639 349.53,-636.13 346.68,-633.53 343.61,-631.18"/>
<polygon fill="black" stroke="black" points="345.35,-628.13 335.08,-625.53 341.49,-633.97 345.35,-628.13"/>
</g>
<!-- org.glassfish.mq:mq&#45;admin -->
<g id="node27" class="node">
<title>org.glassfish.mq:mq&#45;admin</title>
<polygon fill="wheat" stroke="black" points="335,-117 261,-117 261,-81 335,-81 335,-117"/>
<text text-anchor="middle" x="298" y="-101.6" font-family="Helvetica" font-size="8.00">mq&#45;admin</text>
<text text-anchor="middle" x="298" y="-92.6" font-family="Helvetica" font-size="8.00">org.glassfish.mq</text>
</g>
<!-- org.glassfish.mq:mq&#45;admin&#45;&gt;org.glassfish.mq:mq -->
<g id="edge26" class="edge">
<title>org.glassfish.mq:mq&#45;admin&#45;&gt;org.glassfish.mq:mq</title>
<path fill="none" stroke="black" d="M281.98,-117.08C269.79,-132.75 253.17,-156.52 244,-180 187.69,-324.21 175.41,-512.3 172.74,-583.24"/>
<polygon fill="black" stroke="black" points="169.23,-583.49 172.39,-593.6 176.22,-583.72 169.23,-583.49"/>
</g>
<!-- org.glassfish.mq:mqadmin&#45;cli -->
<g id="node28" class="node">
<title>org.glassfish.mq:mqadmin&#45;cli</title>
<polygon fill="lightgrey" stroke="black" points="477,-90 403,-90 403,-54 477,-54 477,-90"/>
<text text-anchor="middle" x="440" y="-74.6" font-family="Helvetica" font-size="8.00">mqadmin&#45;cli</text>
<text text-anchor="middle" x="440" y="-65.6" font-family="Helvetica" font-size="8.00">org.glassfish.mq</text>
</g>
<!-- org.glassfish.mq:mqadmin&#45;cli&#45;&gt;org.glassfish.mq:mq&#45;admin -->
<g id="edge27" class="edge">
<title>org.glassfish.mq:mqadmin&#45;cli&#45;&gt;org.glassfish.mq:mq&#45;admin</title>
<path fill="none" stroke="black" d="M402.95,-78.95C385.37,-82.34 364.02,-86.46 345.25,-90.08"/>
<polygon fill="black" stroke="black" points="344.57,-86.65 335.42,-91.98 345.9,-93.52 344.57,-86.65"/>
</g>
<!-- org.glassfish.mq:mqjmsra&#45;ra -->
<g id="node29" class="node">
<title>org.glassfish.mq:mqjmsra&#45;ra</title>
<polygon fill="lightgrey" stroke="black" points="477,-144 403,-144 403,-108 477,-108 477,-144"/>
<text text-anchor="middle" x="440" y="-128.6" font-family="Helvetica" font-size="8.00">mqjmsra&#45;ra</text>
<text text-anchor="middle" x="440" y="-119.6" font-family="Helvetica" font-size="8.00">org.glassfish.mq</text>
</g>
<!-- org.glassfish.mq:mqjmsra&#45;ra&#45;&gt;org.glassfish.mq:jmsra -->
<g id="edge28" class="edge">
<title>org.glassfish.mq:mqjmsra&#45;ra&#45;&gt;org.glassfish.mq:jmsra</title>
<path fill="none" stroke="black" d="M402.97,-140.15C397.34,-143.66 392.06,-147.9 388,-153 349.33,-201.59 391.05,-239.72 352,-288 349.51,-291.07 346.59,-293.83 343.4,-296.3"/>
<polygon fill="black" stroke="black" points="341.46,-293.39 335.08,-301.85 345.34,-299.22 341.46,-293.39"/>
</g>
<!-- org.glassfish.mq:mqbridge&#45;jms -->
<g id="node30" class="node">
<title>org.glassfish.mq:mqbridge&#45;jms</title>
<polygon fill="lightgrey" stroke="black" points="477,-360 403,-360 403,-324 477,-324 477,-360"/>
<text text-anchor="middle" x="440" y="-344.6" font-family="Helvetica" font-size="8.00">mqbridge&#45;jms</text>
<text text-anchor="middle" x="440" y="-335.6" font-family="Helvetica" font-size="8.00">org.glassfish.mq</text>
</g>
<!-- org.glassfish.mq:mqbridge&#45;jms&#45;&gt;org.glassfish.mq:bridge -->
<g id="edge29" class="edge">
<title>org.glassfish.mq:mqbridge&#45;jms&#45;&gt;org.glassfish.mq:bridge</title>
<path fill="none" stroke="black" d="M402.95,-348.95C385.37,-352.34 364.02,-356.46 345.25,-360.08"/>
<polygon fill="black" stroke="black" points="344.57,-356.65 335.42,-361.98 345.9,-363.52 344.57,-356.65"/>
</g>
<!-- org.glassfish.mq:mqbridge&#45;stomp -->
<g id="node31" class="node">
<title>org.glassfish.mq:mqbridge&#45;stomp</title>
<polygon fill="lightgrey" stroke="black" points="477.5,-306 402.5,-306 402.5,-270 477.5,-270 477.5,-306"/>
<text text-anchor="middle" x="440" y="-290.6" font-family="Helvetica" font-size="8.00">mqbridge&#45;stomp</text>
<text text-anchor="middle" x="440" y="-281.6" font-family="Helvetica" font-size="8.00">org.glassfish.mq</text>
</g>
<!-- org.glassfish.mq:mqbridge&#45;stomp&#45;&gt;org.glassfish.mq:bridge -->
<g id="edge30" class="edge">
<title>org.glassfish.mq:mqbridge&#45;stomp&#45;&gt;org.glassfish.mq:bridge</title>
<path fill="none" stroke="black" d="M403.2,-306.04C398.03,-308.91 392.82,-311.94 388,-315 371.11,-325.71 368.97,-331.42 352,-342 349.41,-343.61 346.71,-345.21 343.97,-346.78"/>
<polygon fill="black" stroke="black" points="342.17,-343.78 335.1,-351.67 345.55,-349.91 342.17,-343.78"/>
</g>
<!-- org.glassfish.mq:mqbridge&#45;admin -->
<g id="node32" class="node">
<title>org.glassfish.mq:mqbridge&#45;admin</title>
<polygon fill="lightgrey" stroke="black" points="477,-252 403,-252 403,-216 477,-216 477,-252"/>
<text text-anchor="middle" x="440" y="-236.6" font-family="Helvetica" font-size="8.00">mqbridge&#45;admin</text>
<text text-anchor="middle" x="440" y="-227.6" font-family="Helvetica" font-size="8.00">org.glassfish.mq</text>
</g>
<!-- org.glassfish.mq:mqbridge&#45;admin&#45;&gt;org.glassfish.mq:bridge -->
<g id="edge31" class="edge">
<title>org.glassfish.mq:mqbridge&#45;admin&#45;&gt;org.glassfish.mq:bridge</title>
<path fill="none" stroke="black" d="M402.83,-249.19C397.42,-252.53 392.24,-256.46 388,-261 361.12,-289.8 379.11,-313.42 352,-342 349.55,-344.59 346.79,-346.97 343.85,-349.15"/>
<polygon fill="black" stroke="black" points="341.68,-346.39 335.22,-354.79 345.51,-352.25 341.68,-346.39"/>
</g>
<!-- org.glassfish.mq:mq&#45;cluster -->
<g id="node33" class="node">
<title>org.glassfish.mq:mq&#45;cluster</title>
<polygon fill="lightgrey" stroke="black" points="477,-630 403,-630 403,-594 477,-594 477,-630"/>
<text text-anchor="middle" x="440" y="-614.6" font-family="Helvetica" font-size="8.00">mq&#45;cluster</text>
<text text-anchor="middle" x="440" y="-605.6" font-family="Helvetica" font-size="8.00">org.glassfish.mq</text>
</g>
<!-- org.glassfish.mq:mq&#45;cluster&#45;&gt;org.glassfish.mq:mq&#45;broker -->
<g id="edge32" class="edge">
<title>org.glassfish.mq:mq&#45;cluster&#45;&gt;org.glassfish.mq:mq&#45;broker</title>
<path fill="none" stroke="black" d="M402.95,-598.09C385.28,-591.28 363.82,-583 344.99,-575.74"/>
<polygon fill="black" stroke="black" points="346.01,-572.38 335.42,-572.05 343.49,-578.91 346.01,-572.38"/>
</g>
<!-- org.glassfish.mq:mqpersist&#45;file -->
<g id="node34" class="node">
<title>org.glassfish.mq:mqpersist&#45;file</title>
<polygon fill="lightgrey" stroke="black" points="477,-576 403,-576 403,-540 477,-540 477,-576"/>
<text text-anchor="middle" x="440" y="-560.6" font-family="Helvetica" font-size="8.00">mqpersist&#45;file</text>
<text text-anchor="middle" x="440" y="-551.6" font-family="Helvetica" font-size="8.00">org.glassfish.mq</text>
</g>
<!-- org.glassfish.mq:mqpersist&#45;file&#45;&gt;org.glassfish.mq:mq&#45;broker -->
<g id="edge33" class="edge">
<title>org.glassfish.mq:mqpersist&#45;file&#45;&gt;org.glassfish.mq:mq&#45;broker</title>
<path fill="none" stroke="black" d="M402.95,-558C385.45,-558 364.21,-558 345.51,-558"/>
<polygon fill="black" stroke="black" points="345.42,-554.5 335.42,-558 345.42,-561.5 345.42,-554.5"/>
</g>
<!-- org.glassfish.mq:mqpersist&#45;jdbc -->
<g id="node35" class="node">
<title>org.glassfish.mq:mqpersist&#45;jdbc</title>
<polygon fill="lightgrey" stroke="black" points="477,-522 403,-522 403,-486 477,-486 477,-522"/>
<text text-anchor="middle" x="440" y="-506.6" font-family="Helvetica" font-size="8.00">mqpersist&#45;jdbc</text>
<text text-anchor="middle" x="440" y="-497.6" font-family="Helvetica" font-size="8.00">org.glassfish.mq</text>
</g>
<!-- org.glassfish.mq:mqpersist&#45;jdbc&#45;&gt;org.glassfish.mq:mq&#45;broker -->
<g id="edge34" class="edge">
<title>org.glassfish.mq:mqpersist&#45;jdbc&#45;&gt;org.glassfish.mq:mq&#45;broker</title>
<path fill="none" stroke="black" d="M402.95,-517.91C385.28,-524.72 363.82,-533 344.99,-540.26"/>
<polygon fill="black" stroke="black" points="343.49,-537.09 335.42,-543.95 346.01,-543.62 343.49,-537.09"/>
</g>
<!-- org.glassfish.mq:mq&#45;partition -->
<g id="node36" class="node">
<title>org.glassfish.mq:mq&#45;partition</title>
<polygon fill="wheat" stroke="black" points="477,-468 403,-468 403,-432 477,-432 477,-468"/>
<text text-anchor="middle" x="440" y="-452.6" font-family="Helvetica" font-size="8.00">mq&#45;partition</text>
<text text-anchor="middle" x="440" y="-443.6" font-family="Helvetica" font-size="8.00">org.glassfish.mq</text>
</g>
<!-- org.glassfish.mq:mq&#45;partition&#45;&gt;org.glassfish.mq:mq&#45;broker -->
<g id="edge35" class="edge">
<title>org.glassfish.mq:mq&#45;partition&#45;&gt;org.glassfish.mq:mq&#45;broker</title>
<path fill="none" stroke="black" d="M402.93,-466.16C397.63,-469.35 392.46,-472.97 388,-477 366.6,-496.34 373.55,-511.83 352,-531 349.41,-533.3 346.6,-535.46 343.65,-537.48"/>
<polygon fill="black" stroke="black" points="341.76,-534.54 335.11,-542.79 345.45,-540.48 341.76,-534.54"/>
</g>
<!-- org.glassfish.mq:mqpartition&#45;persist&#45;api -->
<g id="node37" class="node">
<title>org.glassfish.mq:mqpartition&#45;persist&#45;api</title>
<polygon fill="lightgrey" stroke="black" points="625.5,-495 530.5,-495 530.5,-459 625.5,-459 625.5,-495"/>
<text text-anchor="middle" x="578" y="-479.6" font-family="Helvetica" font-size="8.00">mqpartition&#45;persist&#45;api</text>
<text text-anchor="middle" x="578" y="-470.6" font-family="Helvetica" font-size="8.00">org.glassfish.mq</text>
</g>
<!-- org.glassfish.mq:mqpartition&#45;persist&#45;api&#45;&gt;org.glassfish.mq:mq&#45;partition -->
<g id="edge36" class="edge">
<title>org.glassfish.mq:mqpartition&#45;persist&#45;api&#45;&gt;org.glassfish.mq:mq&#45;partition</title>
<path fill="none" stroke="black" d="M530.2,-467.71C516.22,-464.93 500.92,-461.9 487,-459.13"/>
<polygon fill="black" stroke="black" points="487.64,-455.69 477.15,-457.18 486.27,-462.56 487.64,-455.69"/>
</g>
<!-- org.glassfish.mq:mqpartition&#45;persist&#45;jdbc -->
<g id="node38" class="node">
<title>org.glassfish.mq:mqpartition&#45;persist&#45;jdbc</title>
<polygon fill="lightgrey" stroke="black" points="628,-441 528,-441 528,-405 628,-405 628,-441"/>
<text text-anchor="middle" x="578" y="-425.6" font-family="Helvetica" font-size="8.00">mqpartition&#45;persist&#45;jdbc</text>
<text text-anchor="middle" x="578" y="-416.6" font-family="Helvetica" font-size="8.00">org.glassfish.mq</text>
</g>
<!-- org.glassfish.mq:mqpartition&#45;persist&#45;jdbc&#45;&gt;org.glassfish.mq:mq&#45;partition -->
<g id="edge37" class="edge">
<title>org.glassfish.mq:mqpartition&#45;persist&#45;jdbc&#45;&gt;org.glassfish.mq:mq&#45;partition</title>
<path fill="none" stroke="black" d="M527.9,-432.75C514.69,-435.37 500.45,-438.2 487.4,-440.79"/>
<polygon fill="black" stroke="black" points="486.35,-437.43 477.22,-442.81 487.71,-444.29 486.35,-437.43"/>
</g>
<!-- org.glassfish.mq:mqadmin&#45;gui -->
<g id="node39" class="node">
<title>org.glassfish.mq:mqadmin&#45;gui</title>
<polygon fill="lightgrey" stroke="black" points="477,-36 403,-36 403,0 477,0 477,-36"/>
<text text-anchor="middle" x="440" y="-20.6" font-family="Helvetica" font-size="8.00">mqadmin&#45;gui</text>
<text text-anchor="middle" x="440" y="-11.6" font-family="Helvetica" font-size="8.00">org.glassfish.mq</text>
</g>
<!-- org.glassfish.mq:mqadmin&#45;gui&#45;&gt;org.glassfish.mq:mq&#45;admin -->
<g id="edge38" class="edge">
<title>org.glassfish.mq:mqadmin&#45;gui&#45;&gt;org.glassfish.mq:mq&#45;admin</title>
<path fill="none" stroke="black" d="M403.2,-36.04C398.03,-38.91 392.82,-41.94 388,-45 371.11,-55.71 368.97,-61.42 352,-72 349.41,-73.61 346.71,-75.21 343.97,-76.78"/>
<polygon fill="black" stroke="black" points="342.17,-73.78 335.1,-81.67 345.55,-79.91 342.17,-73.78"/>
</g>
<!-- org.glassfish.mq:mq&#45;packager&#45;opensource -->
<g id="node40" class="node">
<title>org.glassfish.mq:mq&#45;packager&#45;opensource</title>
<polygon fill="lightgrey" stroke="black" points="352,-63 244,-63 244,-27 352,-27 352,-63"/>
<text text-anchor="middle" x="298" y="-47.6" font-family="Helvetica" font-size="8.00">mq&#45;packager&#45;opensource</text>
<text text-anchor="middle" x="298" y="-38.6" font-family="Helvetica" font-size="8.00">org.glassfish.mq</text>
</g>
<!-- org.glassfish.mq:mq&#45;packager&#45;opensource&#45;&gt;org.glassfish.mq:mq -->
<g id="edge39" class="edge">
<title>org.glassfish.mq:mq&#45;packager&#45;opensource&#45;&gt;org.glassfish.mq:mq</title>
<path fill="none" stroke="black" d="M252.58,-63.03C249.32,-65.65 246.39,-68.63 244,-72 184.74,-155.7 174.21,-485.12 172.38,-583.87"/>
<polygon fill="black" stroke="black" points="168.88,-583.92 172.21,-593.98 175.88,-584.04 168.88,-583.92"/>
</g>
</g>
</svg>
