<?xml version="1.0" encoding="UTF-8" standalone="no"?>
<!DOCTYPE svg PUBLIC "-//W3C//DTD SVG 1.1//EN"
 "http://www.w3.org/Graphics/SVG/1.1/DTD/svg11.dtd">
<!-- Generated by graphviz version 2.44.0 (0)
 -->
<!-- Title: openmq Pages: 1 -->
<svg width="638pt" height="1016pt"
 viewBox="0.00 0.00 638.00 1016.00" xmlns="http://www.w3.org/2000/svg" xmlns:xlink="http://www.w3.org/1999/xlink">
<g id="graph0" class="graph" transform="scale(1 1) rotate(0) translate(4 1012)">
<title>openmq</title>
<polygon fill="white" stroke="transparent" points="-4,4 -4,-1012 634,-1012 634,4 -4,4"/>
<!-- org.glassfish.mq:mq -->
<g id="node1" class="node">
<title>org.glassfish.mq:mq</title>
<polygon fill="wheat" stroke="black" points="210,-549 136,-549 136,-513 210,-513 210,-549"/>
<text text-anchor="middle" x="173" y="-533.6" font-family="Helvetica" font-size="8.00">mq</text>
<text text-anchor="middle" x="173" y="-524.6" font-family="Helvetica" font-size="8.00">org.glassfish.mq</text>
</g>
<!-- org.glassfish.mq:project -->
<g id="node2" class="node">
<title>org.glassfish.mq:project</title>
<polygon fill="lightgrey" stroke="black" points="100,-549 0,-549 0,-513 100,-513 100,-549"/>
<text text-anchor="middle" x="50" y="-529.1" font-family="Helvetica" font-size="8.00">org.glassfish.mq:project</text>
</g>
<!-- org.glassfish.mq:mq&#45;&gt;org.glassfish.mq:project -->
<g id="edge1" class="edge">
<title>org.glassfish.mq:mq&#45;&gt;org.glassfish.mq:project</title>
<path fill="none" stroke="black" d="M135.7,-531C127.69,-531 119.01,-531 110.36,-531"/>
<polygon fill="black" stroke="black" points="110.26,-527.5 100.26,-531 110.26,-534.5 110.26,-527.5"/>
</g>
<!-- org.glassfish.mq:mqcomm&#45;util -->
<g id="node3" class="node">
<title>org.glassfish.mq:mqcomm&#45;util</title>
<polygon fill="lightgrey" stroke="black" points="337,-981 263,-981 263,-945 337,-945 337,-981"/>
<text text-anchor="middle" x="300" y="-965.6" font-family="Helvetica" font-size="8.00">mqcomm&#45;util</text>
<text text-anchor="middle" x="300" y="-956.6" font-family="Helvetica" font-size="8.00">org.glassfish.mq</text>
</g>
<!-- org.glassfish.mq:mqcomm&#45;util&#45;&gt;org.glassfish.mq:mq -->
<g id="edge2" class="edge">
<title>org.glassfish.mq:mqcomm&#45;util&#45;&gt;org.glassfish.mq:mq</title>
<path fill="none" stroke="black" d="M262.81,-950.31C256.39,-946.59 250.37,-941.89 246,-936 201.24,-875.6 181.4,-640.6 175.77,-559.06"/>
<polygon fill="black" stroke="black" points="179.26,-558.77 175.1,-549.03 172.27,-559.24 179.26,-558.77"/>
</g>
<!-- org.glassfish.mq:mq&#45;share -->
<g id="node4" class="node">
<title>org.glassfish.mq:mq&#45;share</title>
<polygon fill="lightgrey" stroke="black" points="337,-927 263,-927 263,-891 337,-891 337,-927"/>
<text text-anchor="middle" x="300" y="-911.6" font-family="Helvetica" font-size="8.00">mq&#45;share</text>
<text text-anchor="middle" x="300" y="-902.6" font-family="Helvetica" font-size="8.00">org.glassfish.mq</text>
</g>
<!-- org.glassfish.mq:mq&#45;share&#45;&gt;org.glassfish.mq:mq -->
<g id="edge3" class="edge">
<title>org.glassfish.mq:mq&#45;share&#45;&gt;org.glassfish.mq:mq</title>
<path fill="none" stroke="black" d="M262.93,-896.22C256.5,-892.51 250.44,-887.83 246,-882 207.02,-830.83 184.03,-633.23 176.63,-559.21"/>
<polygon fill="black" stroke="black" points="180.11,-558.83 175.66,-549.22 173.15,-559.51 180.11,-558.83"/>
</g>
<!-- org.glassfish.mq:mq&#45;logger -->
<g id="node5" class="node">
<title>org.glassfish.mq:mq&#45;logger</title>
<polygon fill="lightgrey" stroke="black" points="337,-873 263,-873 263,-837 337,-837 337,-873"/>
<text text-anchor="middle" x="300" y="-857.6" font-family="Helvetica" font-size="8.00">mq&#45;logger</text>
<text text-anchor="middle" x="300" y="-848.6" font-family="Helvetica" font-size="8.00">org.glassfish.mq</text>
</g>
<!-- org.glassfish.mq:mq&#45;logger&#45;&gt;org.glassfish.mq:mq -->
<g id="edge4" class="edge">
<title>org.glassfish.mq:mq&#45;logger&#45;&gt;org.glassfish.mq:mq</title>
<path fill="none" stroke="black" d="M262.82,-841.93C256.48,-838.26 250.48,-833.67 246,-828 181.72,-746.66 173.62,-616.45 173.39,-559.37"/>
<polygon fill="black" stroke="black" points="176.89,-559.29 173.43,-549.28 169.89,-559.26 176.89,-559.29"/>
</g>
<!-- org.glassfish.mq:mqcomm&#45;io -->
<g id="node6" class="node">
<title>org.glassfish.mq:mqcomm&#45;io</title>
<polygon fill="lightgrey" stroke="black" points="337,-819 263,-819 263,-783 337,-783 337,-819"/>
<text text-anchor="middle" x="300" y="-803.6" font-family="Helvetica" font-size="8.00">mqcomm&#45;io</text>
<text text-anchor="middle" x="300" y="-794.6" font-family="Helvetica" font-size="8.00">org.glassfish.mq</text>
</g>
<!-- org.glassfish.mq:mqcomm&#45;io&#45;&gt;org.glassfish.mq:mq -->
<g id="edge5" class="edge">
<title>org.glassfish.mq:mqcomm&#45;io&#45;&gt;org.glassfish.mq:mq</title>
<path fill="none" stroke="black" d="M262.77,-787.6C256.51,-783.96 250.56,-779.48 246,-774 192.9,-710.16 178.96,-608.38 175.3,-559.3"/>
<polygon fill="black" stroke="black" points="178.78,-558.85 174.64,-549.1 171.8,-559.31 178.78,-558.85"/>
</g>
<!-- org.glassfish.mq:mqjmx&#45;api -->
<g id="node7" class="node">
<title>org.glassfish.mq:mqjmx&#45;api</title>
<polygon fill="lightgrey" stroke="black" points="337,-765 263,-765 263,-729 337,-729 337,-765"/>
<text text-anchor="middle" x="300" y="-749.6" font-family="Helvetica" font-size="8.00">mqjmx&#45;api</text>
<text text-anchor="middle" x="300" y="-740.6" font-family="Helvetica" font-size="8.00">org.glassfish.mq</text>
</g>
<!-- org.glassfish.mq:mqjmx&#45;api&#45;&gt;org.glassfish.mq:mq -->
<g id="edge6" class="edge">
<title>org.glassfish.mq:mqjmx&#45;api&#45;&gt;org.glassfish.mq:mq</title>
<path fill="none" stroke="black" d="M262.82,-733.16C256.63,-729.58 250.69,-725.22 246,-720 203.89,-673.12 185.44,-599.09 178.17,-559.01"/>
<polygon fill="black" stroke="black" points="181.61,-558.39 176.48,-549.12 174.71,-559.57 181.61,-558.39"/>
</g>
<!-- org.glassfish.mq:http&#45;tunnel -->
<g id="node8" class="node">
<title>org.glassfish.mq:http&#45;tunnel</title>
<polygon fill="wheat" stroke="black" points="337,-711 263,-711 263,-675 337,-675 337,-711"/>
<text text-anchor="middle" x="300" y="-695.6" font-family="Helvetica" font-size="8.00">http&#45;tunnel</text>
<text text-anchor="middle" x="300" y="-686.6" font-family="Helvetica" font-size="8.00">org.glassfish.mq</text>
</g>
<!-- org.glassfish.mq:http&#45;tunnel&#45;&gt;org.glassfish.mq:mq -->
<g id="edge7" class="edge">
<title>org.glassfish.mq:http&#45;tunnel&#45;&gt;org.glassfish.mq:mq</title>
<path fill="none" stroke="black" d="M262.79,-678.35C256.74,-674.88 250.86,-670.77 246,-666 214.97,-635.54 194.18,-588.84 183.23,-559.12"/>
<polygon fill="black" stroke="black" points="186.41,-557.62 179.76,-549.37 179.81,-559.96 186.41,-557.62"/>
</g>
<!-- org.glassfish.mq:mqhttp&#45;tunnel&#45;api&#45;share -->
<g id="node9" class="node">
<title>org.glassfish.mq:mqhttp&#45;tunnel&#45;api&#45;share</title>
<polygon fill="lightgrey" stroke="black" points="492.5,-1008 391.5,-1008 391.5,-972 492.5,-972 492.5,-1008"/>
<text text-anchor="middle" x="442" y="-992.6" font-family="Helvetica" font-size="8.00">mqhttp&#45;tunnel&#45;api&#45;share</text>
<text text-anchor="middle" x="442" y="-983.6" font-family="Helvetica" font-size="8.00">org.glassfish.mq</text>
</g>
<!-- org.glassfish.mq:mqhttp&#45;tunnel&#45;api&#45;share&#45;&gt;org.glassfish.mq:http&#45;tunnel -->
<g id="edge8" class="edge">
<title>org.glassfish.mq:mqhttp&#45;tunnel&#45;api&#45;share&#45;&gt;org.glassfish.mq:http&#45;tunnel</title>
<path fill="none" stroke="black" d="M398.29,-971.76C395.15,-969.18 392.31,-966.27 390,-963 326.96,-873.86 417.73,-808.64 354,-720 351.63,-716.7 348.73,-713.77 345.53,-711.19"/>
<polygon fill="black" stroke="black" points="347.29,-708.16 337.05,-705.44 343.36,-713.95 347.29,-708.16"/>
</g>
<!-- org.glassfish.mq:mqhttp&#45;tunnel&#45;api&#45;server -->
<g id="node10" class="node">
<title>org.glassfish.mq:mqhttp&#45;tunnel&#45;api&#45;server</title>
<polygon fill="lightgrey" stroke="black" points="494,-954 390,-954 390,-918 494,-918 494,-954"/>
<text text-anchor="middle" x="442" y="-938.6" font-family="Helvetica" font-size="8.00">mqhttp&#45;tunnel&#45;api&#45;server</text>
<text text-anchor="middle" x="442" y="-929.6" font-family="Helvetica" font-size="8.00">org.glassfish.mq</text>
</g>
<!-- org.glassfish.mq:mqhttp&#45;tunnel&#45;api&#45;server&#45;&gt;org.glassfish.mq:http&#45;tunnel -->
<g id="edge9" class="edge">
<title>org.glassfish.mq:mqhttp&#45;tunnel&#45;api&#45;server&#45;&gt;org.glassfish.mq:http&#45;tunnel</title>
<path fill="none" stroke="black" d="M398.43,-917.66C395.26,-915.1 392.38,-912.22 390,-909 339.2,-840.21 405.34,-788.39 354,-720 351.59,-716.79 348.7,-713.94 345.52,-711.4"/>
<polygon fill="black" stroke="black" points="347.38,-708.44 337.14,-705.73 343.46,-714.24 347.38,-708.44"/>
</g>
<!-- org.glassfish.mq:mqhttp&#45;tunnel -->
<g id="node11" class="node">
<title>org.glassfish.mq:mqhttp&#45;tunnel</title>
<polygon fill="lightgrey" stroke="black" points="479,-900 405,-900 405,-864 479,-864 479,-900"/>
<text text-anchor="middle" x="442" y="-884.6" font-family="Helvetica" font-size="8.00">mqhttp&#45;tunnel</text>
<text text-anchor="middle" x="442" y="-875.6" font-family="Helvetica" font-size="8.00">org.glassfish.mq</text>
</g>
<!-- org.glassfish.mq:mqhttp&#45;tunnel&#45;&gt;org.glassfish.mq:http&#45;tunnel -->
<g id="edge10" class="edge">
<title>org.glassfish.mq:mqhttp&#45;tunnel&#45;&gt;org.glassfish.mq:http&#45;tunnel</title>
<path fill="none" stroke="black" d="M404.97,-867.85C399.34,-864.34 394.06,-860.1 390,-855 351.33,-806.41 393.05,-768.28 354,-720 351.51,-716.93 348.59,-714.17 345.4,-711.7"/>
<polygon fill="black" stroke="black" points="347.34,-708.78 337.08,-706.15 343.46,-714.61 347.34,-708.78"/>
</g>
<!-- org.glassfish.mq:mq&#45;direct -->
<g id="node12" class="node">
<title>org.glassfish.mq:mq&#45;direct</title>
<polygon fill="lightgrey" stroke="black" points="337,-657 263,-657 263,-621 337,-621 337,-657"/>
<text text-anchor="middle" x="300" y="-641.6" font-family="Helvetica" font-size="8.00">mq&#45;direct</text>
<text text-anchor="middle" x="300" y="-632.6" font-family="Helvetica" font-size="8.00">org.glassfish.mq</text>
</g>
<!-- org.glassfish.mq:mq&#45;direct&#45;&gt;org.glassfish.mq:mq -->
<g id="edge11" class="edge">
<title>org.glassfish.mq:mq&#45;direct&#45;&gt;org.glassfish.mq:mq</title>
<path fill="none" stroke="black" d="M262.83,-622.88C256.97,-619.63 251.15,-615.98 246,-612 225.65,-596.28 206.51,-574.27 193.09,-557.16"/>
<polygon fill="black" stroke="black" points="195.85,-555 186.98,-549.2 190.29,-559.26 195.85,-555"/>
</g>
<!-- org.glassfish.mq:persist -->
<g id="node13" class="node">
<title>org.glassfish.mq:persist</title>
<polygon fill="wheat" stroke="black" points="337,-603 263,-603 263,-567 337,-567 337,-603"/>
<text text-anchor="middle" x="300" y="-587.6" font-family="Helvetica" font-size="8.00">persist</text>
<text text-anchor="middle" x="300" y="-578.6" font-family="Helvetica" font-size="8.00">org.glassfish.mq</text>
</g>
<!-- org.glassfish.mq:persist&#45;&gt;org.glassfish.mq:mq -->
<g id="edge12" class="edge">
<title>org.glassfish.mq:persist&#45;&gt;org.glassfish.mq:mq</title>
<path fill="none" stroke="black" d="M262.84,-569.38C249.24,-563.5 233.6,-556.75 219.27,-550.56"/>
<polygon fill="black" stroke="black" points="220.64,-547.34 210.07,-546.58 217.87,-553.76 220.64,-547.34"/>
</g>
<!-- org.glassfish.mq:mq&#45;txnlog -->
<g id="node14" class="node">
<title>org.glassfish.mq:mq&#45;txnlog</title>
<polygon fill="lightgrey" stroke="black" points="479,-846 405,-846 405,-810 479,-810 479,-846"/>
<text text-anchor="middle" x="442" y="-830.6" font-family="Helvetica" font-size="8.00">mq&#45;txnlog</text>
<text text-anchor="middle" x="442" y="-821.6" font-family="Helvetica" font-size="8.00">org.glassfish.mq</text>
</g>
<!-- org.glassfish.mq:mq&#45;txnlog&#45;&gt;org.glassfish.mq:persist -->
<g id="edge13" class="edge">
<title>org.glassfish.mq:mq&#45;txnlog&#45;&gt;org.glassfish.mq:persist</title>
<path fill="none" stroke="black" d="M404.91,-814.25C399.22,-810.69 393.93,-806.32 390,-801 339.2,-732.21 405.34,-680.39 354,-612 351.59,-608.79 348.7,-605.94 345.52,-603.4"/>
<polygon fill="black" stroke="black" points="347.38,-600.44 337.14,-597.73 343.46,-606.24 347.38,-600.44"/>
</g>
<!-- org.glassfish.mq:mq&#45;broker -->
<g id="node15" class="node">
<title>org.glassfish.mq:mq&#45;broker</title>
<polygon fill="wheat" stroke="black" points="337,-549 263,-549 263,-513 337,-513 337,-549"/>
<text text-anchor="middle" x="300" y="-533.6" font-family="Helvetica" font-size="8.00">mq&#45;broker</text>
<text text-anchor="middle" x="300" y="-524.6" font-family="Helvetica" font-size="8.00">org.glassfish.mq</text>
</g>
<!-- org.glassfish.mq:mq&#45;broker&#45;&gt;org.glassfish.mq:mq -->
<g id="edge14" class="edge">
<title>org.glassfish.mq:mq&#45;broker&#45;&gt;org.glassfish.mq:mq</title>
<path fill="none" stroke="black" d="M262.84,-531C249.5,-531 234.19,-531 220.09,-531"/>
<polygon fill="black" stroke="black" points="220.07,-527.5 210.07,-531 220.07,-534.5 220.07,-527.5"/>
</g>
<!-- org.glassfish.mq:mqbroker&#45;comm -->
<g id="node16" class="node">
<title>org.glassfish.mq:mqbroker&#45;comm</title>
<polygon fill="lightgrey" stroke="black" points="479,-738 405,-738 405,-702 479,-702 479,-738"/>
<text text-anchor="middle" x="442" y="-722.6" font-family="Helvetica" font-size="8.00">mqbroker&#45;comm</text>
<text text-anchor="middle" x="442" y="-713.6" font-family="Helvetica" font-size="8.00">org.glassfish.mq</text>
</g>
<!-- org.glassfish.mq:mqbroker&#45;comm&#45;&gt;org.glassfish.mq:mq&#45;broker -->
<g id="edge15" class="edge">
<title>org.glassfish.mq:mqbroker&#45;comm&#45;&gt;org.glassfish.mq:mq&#45;broker</title>
<path fill="none" stroke="black" d="M404.97,-705.85C399.34,-702.34 394.06,-698.1 390,-693 351.33,-644.41 393.05,-606.28 354,-558 351.51,-554.93 348.59,-552.17 345.4,-549.7"/>
<polygon fill="black" stroke="black" points="347.34,-546.78 337.08,-544.15 343.46,-552.61 347.34,-546.78"/>
</g>
<!-- org.glassfish.mq:mq&#45;portunif -->
<g id="node17" class="node">
<title>org.glassfish.mq:mq&#45;portunif</title>
<polygon fill="lightgrey" stroke="black" points="337,-495 263,-495 263,-459 337,-459 337,-495"/>
<text text-anchor="middle" x="300" y="-479.6" font-family="Helvetica" font-size="8.00">mq&#45;portunif</text>
<text text-anchor="middle" x="300" y="-470.6" font-family="Helvetica" font-size="8.00">org.glassfish.mq</text>
</g>
<!-- org.glassfish.mq:mq&#45;portunif&#45;&gt;org.glassfish.mq:mq -->
<g id="edge16" class="edge">
<title>org.glassfish.mq:mq&#45;portunif&#45;&gt;org.glassfish.mq:mq</title>
<path fill="none" stroke="black" d="M262.84,-492.62C249.24,-498.5 233.6,-505.25 219.27,-511.44"/>
<polygon fill="black" stroke="black" points="217.87,-508.24 210.07,-515.42 220.64,-514.66 217.87,-508.24"/>
</g>
<!-- org.glassfish.mq:bridge -->
<g id="node18" class="node">
<title>org.glassfish.mq:bridge</title>
<polygon fill="wheat" stroke="black" points="337,-414 263,-414 263,-378 337,-378 337,-414"/>
<text text-anchor="middle" x="300" y="-398.6" font-family="Helvetica" font-size="8.00">bridge</text>
<text text-anchor="middle" x="300" y="-389.6" font-family="Helvetica" font-size="8.00">org.glassfish.mq</text>
</g>
<!-- org.glassfish.mq:bridge&#45;&gt;org.glassfish.mq:mq -->
<g id="edge17" class="edge">
<title>org.glassfish.mq:bridge&#45;&gt;org.glassfish.mq:mq</title>
<path fill="none" stroke="black" d="M280.62,-414.28C270.31,-424.63 257.3,-437.9 246,-450 229.16,-468.03 210.68,-488.84 196.66,-504.86"/>
<polygon fill="black" stroke="black" points="193.7,-502.92 189.76,-512.75 198.98,-507.52 193.7,-502.92"/>
</g>
<!-- org.glassfish.mq:mqbridge&#45;api -->
<g id="node19" class="node">
<title>org.glassfish.mq:mqbridge&#45;api</title>
<polygon fill="lightgrey" stroke="black" points="479,-414 405,-414 405,-378 479,-378 479,-414"/>
<text text-anchor="middle" x="442" y="-398.6" font-family="Helvetica" font-size="8.00">mqbridge&#45;api</text>
<text text-anchor="middle" x="442" y="-389.6" font-family="Helvetica" font-size="8.00">org.glassfish.mq</text>
</g>
<!-- org.glassfish.mq:mqbridge&#45;api&#45;&gt;org.glassfish.mq:bridge -->
<g id="edge18" class="edge">
<title>org.glassfish.mq:mqbridge&#45;api&#45;&gt;org.glassfish.mq:bridge</title>
<path fill="none" stroke="black" d="M404.95,-396C387.45,-396 366.21,-396 347.51,-396"/>
<polygon fill="black" stroke="black" points="347.42,-392.5 337.42,-396 347.42,-399.5 347.42,-392.5"/>
</g>
<!-- org.glassfish.mq:mqbroker&#45;core -->
<g id="node20" class="node">
<title>org.glassfish.mq:mqbroker&#45;core</title>
<polygon fill="lightgrey" stroke="black" points="479,-684 405,-684 405,-648 479,-648 479,-684"/>
<text text-anchor="middle" x="442" y="-668.6" font-family="Helvetica" font-size="8.00">mqbroker&#45;core</text>
<text text-anchor="middle" x="442" y="-659.6" font-family="Helvetica" font-size="8.00">org.glassfish.mq</text>
</g>
<!-- org.glassfish.mq:mqbroker&#45;core&#45;&gt;org.glassfish.mq:mq&#45;broker -->
<g id="edge19" class="edge">
<title>org.glassfish.mq:mqbroker&#45;core&#45;&gt;org.glassfish.mq:mq&#45;broker</title>
<path fill="none" stroke="black" d="M404.83,-650.81C399.42,-647.47 394.24,-643.54 390,-639 363.12,-610.2 381.11,-586.58 354,-558 351.55,-555.41 348.79,-553.03 345.85,-550.85"/>
<polygon fill="black" stroke="black" points="347.51,-547.75 337.22,-545.21 343.68,-553.61 347.51,-547.75"/>
</g>
<!-- org.glassfish.mq:jmsra -->
<g id="node21" class="node">
<title>org.glassfish.mq:jmsra</title>
<polygon fill="wheat" stroke="black" points="337,-360 263,-360 263,-324 337,-324 337,-360"/>
<text text-anchor="middle" x="300" y="-344.6" font-family="Helvetica" font-size="8.00">jmsra</text>
<text text-anchor="middle" x="300" y="-335.6" font-family="Helvetica" font-size="8.00">org.glassfish.mq</text>
</g>
<!-- org.glassfish.mq:jmsra&#45;&gt;org.glassfish.mq:mq -->
<g id="edge20" class="edge">
<title>org.glassfish.mq:jmsra&#45;&gt;org.glassfish.mq:mq</title>
<path fill="none" stroke="black" d="M262.78,-356.21C256.66,-359.74 250.76,-363.98 246,-369 209.44,-407.55 189.44,-467.78 180.3,-502.92"/>
<polygon fill="black" stroke="black" points="176.82,-502.42 177.8,-512.97 183.61,-504.1 176.82,-502.42"/>
</g>
<!-- org.glassfish.mq:mqjmsra&#45;api -->
<g id="node22" class="node">
<title>org.glassfish.mq:mqjmsra&#45;api</title>
<polygon fill="lightgrey" stroke="black" points="479,-198 405,-198 405,-162 479,-162 479,-198"/>
<text text-anchor="middle" x="442" y="-182.6" font-family="Helvetica" font-size="8.00">mqjmsra&#45;api</text>
<text text-anchor="middle" x="442" y="-173.6" font-family="Helvetica" font-size="8.00">org.glassfish.mq</text>
</g>
<!-- org.glassfish.mq:mqjmsra&#45;api&#45;&gt;org.glassfish.mq:jmsra -->
<g id="edge21" class="edge">
<title>org.glassfish.mq:mqjmsra&#45;api&#45;&gt;org.glassfish.mq:jmsra</title>
<path fill="none" stroke="black" d="M404.96,-194.53C399.4,-197.97 394.14,-202.11 390,-207 357.3,-245.61 387.01,-276.65 354,-315 351.53,-317.87 348.68,-320.47 345.61,-322.82"/>
<polygon fill="black" stroke="black" points="343.49,-320.03 337.08,-328.47 347.35,-325.87 343.49,-320.03"/>
</g>
<!-- org.glassfish.mq:mq&#45;client -->
<g id="node23" class="node">
<title>org.glassfish.mq:mq&#45;client</title>
<polygon fill="lightgrey" stroke="black" points="337,-306 263,-306 263,-270 337,-270 337,-306"/>
<text text-anchor="middle" x="300" y="-290.6" font-family="Helvetica" font-size="8.00">mq&#45;client</text>
<text text-anchor="middle" x="300" y="-281.6" font-family="Helvetica" font-size="8.00">org.glassfish.mq</text>
</g>
<!-- org.glassfish.mq:mq&#45;client&#45;&gt;org.glassfish.mq:mq -->
<g id="edge22" class="edge">
<title>org.glassfish.mq:mq&#45;client&#45;&gt;org.glassfish.mq:mq</title>
<path fill="none" stroke="black" d="M262.92,-301.53C256.64,-305.15 250.65,-309.6 246,-315 198.47,-370.22 182.06,-457.88 176.6,-502.66"/>
<polygon fill="black" stroke="black" points="173.09,-502.49 175.46,-512.81 180.05,-503.27 173.09,-502.49"/>
</g>
<!-- org.glassfish.mq:mq&#45;ums -->
<g id="node24" class="node">
<title>org.glassfish.mq:mq&#45;ums</title>
<polygon fill="lightgrey" stroke="black" points="337,-252 263,-252 263,-216 337,-216 337,-252"/>
<text text-anchor="middle" x="300" y="-236.6" font-family="Helvetica" font-size="8.00">mq&#45;ums</text>
<text text-anchor="middle" x="300" y="-227.6" font-family="Helvetica" font-size="8.00">org.glassfish.mq</text>
</g>
<!-- org.glassfish.mq:mq&#45;ums&#45;&gt;org.glassfish.mq:mq -->
<g id="edge23" class="edge">
<title>org.glassfish.mq:mq&#45;ums&#45;&gt;org.glassfish.mq:mq</title>
<path fill="none" stroke="black" d="M262.92,-247.15C256.57,-250.81 250.55,-255.38 246,-261 187.34,-333.52 176.18,-449.39 174.26,-502.6"/>
<polygon fill="black" stroke="black" points="170.76,-502.58 173.98,-512.67 177.76,-502.77 170.76,-502.58"/>
</g>
<!-- org.glassfish.mq:mqdisk&#45;io -->
<g id="node25" class="node">
<title>org.glassfish.mq:mqdisk&#45;io</title>
<polygon fill="lightgrey" stroke="black" points="479,-792 405,-792 405,-756 479,-756 479,-792"/>
<text text-anchor="middle" x="442" y="-776.6" font-family="Helvetica" font-size="8.00">mqdisk&#45;io</text>
<text text-anchor="middle" x="442" y="-767.6" font-family="Helvetica" font-size="8.00">org.glassfish.mq</text>
</g>
<!-- org.glassfish.mq:mqdisk&#45;io&#45;&gt;org.glassfish.mq:persist -->
<g id="edge24" class="edge">
<title>org.glassfish.mq:mqdisk&#45;io&#45;&gt;org.glassfish.mq:persist</title>
<path fill="none" stroke="black" d="M404.97,-759.85C399.34,-756.34 394.06,-752.1 390,-747 351.33,-698.41 393.05,-660.28 354,-612 351.51,-608.93 348.59,-606.17 345.4,-603.7"/>
<polygon fill="black" stroke="black" points="347.34,-600.78 337.08,-598.15 343.46,-606.61 347.34,-600.78"/>
</g>
<!-- org.glassfish.mq:mqjaxm&#45;api -->
<g id="node26" class="node">
<title>org.glassfish.mq:mqjaxm&#45;api</title>
<polygon fill="lightgrey" stroke="black" points="337,-198 263,-198 263,-162 337,-162 337,-198"/>
<text text-anchor="middle" x="300" y="-182.6" font-family="Helvetica" font-size="8.00">mqjaxm&#45;api</text>
<text text-anchor="middle" x="300" y="-173.6" font-family="Helvetica" font-size="8.00">org.glassfish.mq</text>
</g>
<!-- org.glassfish.mq:mqjaxm&#45;api&#45;&gt;org.glassfish.mq:mq -->
<g id="edge25" class="edge">
<title>org.glassfish.mq:mqjaxm&#45;api&#45;&gt;org.glassfish.mq:mq</title>
<path fill="none" stroke="black" d="M262.73,-193C256.4,-196.68 250.43,-201.29 246,-207 209.91,-253.59 185.52,-432.59 177.18,-502.65"/>
<polygon fill="black" stroke="black" points="173.67,-502.58 175.98,-512.92 180.62,-503.4 173.67,-502.58"/>
</g>
<!-- org.glassfish.mq:mq&#45;admin -->
<g id="node27" class="node">
<title>org.glassfish.mq:mq&#45;admin</title>
<polygon fill="wheat" stroke="black" points="337,-117 263,-117 263,-81 337,-81 337,-117"/>
<text text-anchor="middle" x="300" y="-101.6" font-family="Helvetica" font-size="8.00">mq&#45;admin</text>
<text text-anchor="middle" x="300" y="-92.6" font-family="Helvetica" font-size="8.00">org.glassfish.mq</text>
</g>
<!-- org.glassfish.mq:mq&#45;admin&#45;&gt;org.glassfish.mq:mq -->
<g id="edge26" class="edge">
<title>org.glassfish.mq:mq&#45;admin&#45;&gt;org.glassfish.mq:mq</title>
<path fill="none" stroke="black" d="M275.67,-117.19C265.01,-126.72 253.19,-139.27 246,-153 183.78,-271.9 174.87,-436.95 173.92,-502.51"/>
<polygon fill="black" stroke="black" points="170.42,-502.83 173.83,-512.86 177.42,-502.89 170.42,-502.83"/>
</g>
<!-- org.glassfish.mq:mqadmin&#45;cli -->
<g id="node28" class="node">
<title>org.glassfish.mq:mqadmin&#45;cli</title>
<polygon fill="lightgrey" stroke="black" points="479,-90 405,-90 405,-54 479,-54 479,-90"/>
<text text-anchor="middle" x="442" y="-74.6" font-family="Helvetica" font-size="8.00">mqadmin&#45;cli</text>
<text text-anchor="middle" x="442" y="-65.6" font-family="Helvetica" font-size="8.00">org.glassfish.mq</text>
</g>
<!-- org.glassfish.mq:mqadmin&#45;cli&#45;&gt;org.glassfish.mq:mq&#45;admin -->
<g id="edge27" class="edge">
<title>org.glassfish.mq:mqadmin&#45;cli&#45;&gt;org.glassfish.mq:mq&#45;admin</title>
<path fill="none" stroke="black" d="M404.95,-78.95C387.37,-82.34 366.02,-86.46 347.25,-90.08"/>
<polygon fill="black" stroke="black" points="346.57,-86.65 337.42,-91.98 347.9,-93.52 346.57,-86.65"/>
</g>
<!-- org.glassfish.mq:mqjmsra&#45;ra -->
<g id="node29" class="node">
<title>org.glassfish.mq:mqjmsra&#45;ra</title>
<polygon fill="lightgrey" stroke="black" points="479,-144 405,-144 405,-108 479,-108 479,-144"/>
<text text-anchor="middle" x="442" y="-128.6" font-family="Helvetica" font-size="8.00">mqjmsra&#45;ra</text>
<text text-anchor="middle" x="442" y="-119.6" font-family="Helvetica" font-size="8.00">org.glassfish.mq</text>
</g>
<!-- org.glassfish.mq:mqjmsra&#45;ra&#45;&gt;org.glassfish.mq:jmsra -->
<g id="edge28" class="edge">
<title>org.glassfish.mq:mqjmsra&#45;ra&#45;&gt;org.glassfish.mq:jmsra</title>
<path fill="none" stroke="black" d="M404.79,-140.01C399.18,-143.53 393.95,-147.82 390,-153 345.29,-211.66 399.17,-256.69 354,-315 351.65,-318.04 348.86,-320.76 345.82,-323.2"/>
<polygon fill="black" stroke="black" points="343.57,-320.49 337.27,-329 347.51,-326.28 343.57,-320.49"/>
</g>
<!-- org.glassfish.mq:mqbridge&#45;jms -->
<g id="node30" class="node">
<title>org.glassfish.mq:mqbridge&#45;jms</title>
<polygon fill="lightgrey" stroke="black" points="479,-360 405,-360 405,-324 479,-324 479,-360"/>
<text text-anchor="middle" x="442" y="-344.6" font-family="Helvetica" font-size="8.00">mqbridge&#45;jms</text>
<text text-anchor="middle" x="442" y="-335.6" font-family="Helvetica" font-size="8.00">org.glassfish.mq</text>
</g>
<!-- org.glassfish.mq:mqbridge&#45;jms&#45;&gt;org.glassfish.mq:bridge -->
<g id="edge29" class="edge">
<title>org.glassfish.mq:mqbridge&#45;jms&#45;&gt;org.glassfish.mq:bridge</title>
<path fill="none" stroke="black" d="M404.95,-355.91C387.28,-362.72 365.82,-371 346.99,-378.26"/>
<polygon fill="black" stroke="black" points="345.49,-375.09 337.42,-381.95 348.01,-381.62 345.49,-375.09"/>
</g>
<!-- org.glassfish.mq:mqbridge&#45;stomp -->
<g id="node31" class="node">
<title>org.glassfish.mq:mqbridge&#45;stomp</title>
<polygon fill="lightgrey" stroke="black" points="479.5,-306 404.5,-306 404.5,-270 479.5,-270 479.5,-306"/>
<text text-anchor="middle" x="442" y="-290.6" font-family="Helvetica" font-size="8.00">mqbridge&#45;stomp</text>
<text text-anchor="middle" x="442" y="-281.6" font-family="Helvetica" font-size="8.00">org.glassfish.mq</text>
</g>
<!-- org.glassfish.mq:mqbridge&#45;stomp&#45;&gt;org.glassfish.mq:bridge -->
<g id="edge30" class="edge">
<title>org.glassfish.mq:mqbridge&#45;stomp&#45;&gt;org.glassfish.mq:bridge</title>
<path fill="none" stroke="black" d="M404.4,-304.48C399.29,-307.59 394.31,-311.1 390,-315 368.6,-334.34 375.55,-349.83 354,-369 351.41,-371.3 348.6,-373.46 345.65,-375.48"/>
<polygon fill="black" stroke="black" points="343.76,-372.54 337.11,-380.79 347.45,-378.48 343.76,-372.54"/>
</g>
<!-- org.glassfish.mq:mqbridge&#45;admin -->
<g id="node32" class="node">
<title>org.glassfish.mq:mqbridge&#45;admin</title>
<polygon fill="lightgrey" stroke="black" points="479,-252 405,-252 405,-216 479,-216 479,-252"/>
<text text-anchor="middle" x="442" y="-236.6" font-family="Helvetica" font-size="8.00">mqbridge&#45;admin</text>
<text text-anchor="middle" x="442" y="-227.6" font-family="Helvetica" font-size="8.00">org.glassfish.mq</text>
</g>
<!-- org.glassfish.mq:mqbridge&#45;admin&#45;&gt;org.glassfish.mq:bridge -->
<g id="edge31" class="edge">
<title>org.glassfish.mq:mqbridge&#45;admin&#45;&gt;org.glassfish.mq:bridge</title>
<path fill="none" stroke="black" d="M404.96,-248.53C399.4,-251.97 394.14,-256.11 390,-261 357.3,-299.61 387.01,-330.65 354,-369 351.53,-371.87 348.68,-374.47 345.61,-376.82"/>
<polygon fill="black" stroke="black" points="343.49,-374.03 337.08,-382.47 347.35,-379.87 343.49,-374.03"/>
</g>
<!-- org.glassfish.mq:mq&#45;cluster -->
<g id="node33" class="node">
<title>org.glassfish.mq:mq&#45;cluster</title>
<polygon fill="lightgrey" stroke="black" points="479,-630 405,-630 405,-594 479,-594 479,-630"/>
<text text-anchor="middle" x="442" y="-614.6" font-family="Helvetica" font-size="8.00">mq&#45;cluster</text>
<text text-anchor="middle" x="442" y="-605.6" font-family="Helvetica" font-size="8.00">org.glassfish.mq</text>
</g>
<!-- org.glassfish.mq:mq&#45;cluster&#45;&gt;org.glassfish.mq:mq&#45;broker -->
<g id="edge32" class="edge">
<title>org.glassfish.mq:mq&#45;cluster&#45;&gt;org.glassfish.mq:mq&#45;broker</title>
<path fill="none" stroke="black" d="M405.2,-593.96C400.03,-591.09 394.82,-588.06 390,-585 373.11,-574.29 370.97,-568.58 354,-558 351.41,-556.39 348.71,-554.79 345.97,-553.22"/>
<polygon fill="black" stroke="black" points="347.55,-550.09 337.1,-548.33 344.17,-556.22 347.55,-550.09"/>
</g>
<!-- org.glassfish.mq:mqpersist&#45;file -->
<g id="node34" class="node">
<title>org.glassfish.mq:mqpersist&#45;file</title>
<polygon fill="lightgrey" stroke="black" points="479,-576 405,-576 405,-540 479,-540 479,-576"/>
<text text-anchor="middle" x="442" y="-560.6" font-family="Helvetica" font-size="8.00">mqpersist&#45;file</text>
<text text-anchor="middle" x="442" y="-551.6" font-family="Helvetica" font-size="8.00">org.glassfish.mq</text>
</g>
<!-- org.glassfish.mq:mqpersist&#45;file&#45;&gt;org.glassfish.mq:mq&#45;broker -->
<g id="edge33" class="edge">
<title>org.glassfish.mq:mqpersist&#45;file&#45;&gt;org.glassfish.mq:mq&#45;broker</title>
<path fill="none" stroke="black" d="M404.95,-551.05C387.37,-547.66 366.02,-543.54 347.25,-539.92"/>
<polygon fill="black" stroke="black" points="347.9,-536.48 337.42,-538.02 346.57,-543.35 347.9,-536.48"/>
</g>
<!-- org.glassfish.mq:mqpersist&#45;jdbc -->
<g id="node35" class="node">
<title>org.glassfish.mq:mqpersist&#45;jdbc</title>
<polygon fill="lightgrey" stroke="black" points="479,-522 405,-522 405,-486 479,-486 479,-522"/>
<text text-anchor="middle" x="442" y="-506.6" font-family="Helvetica" font-size="8.00">mqpersist&#45;jdbc</text>
<text text-anchor="middle" x="442" y="-497.6" font-family="Helvetica" font-size="8.00">org.glassfish.mq</text>
</g>
<!-- org.glassfish.mq:mqpersist&#45;jdbc&#45;&gt;org.glassfish.mq:mq&#45;broker -->
<g id="edge34" class="edge">
<title>org.glassfish.mq:mqpersist&#45;jdbc&#45;&gt;org.glassfish.mq:mq&#45;broker</title>
<path fill="none" stroke="black" d="M404.95,-510.95C387.37,-514.34 366.02,-518.46 347.25,-522.08"/>
<polygon fill="black" stroke="black" points="346.57,-518.65 337.42,-523.98 347.9,-525.52 346.57,-518.65"/>
</g>
<!-- org.glassfish.mq:mq&#45;partition -->
<g id="node36" class="node">
<title>org.glassfish.mq:mq&#45;partition</title>
<polygon fill="wheat" stroke="black" points="479,-468 405,-468 405,-432 479,-432 479,-468"/>
<text text-anchor="middle" x="442" y="-452.6" font-family="Helvetica" font-size="8.00">mq&#45;partition</text>
<text text-anchor="middle" x="442" y="-443.6" font-family="Helvetica" font-size="8.00">org.glassfish.mq</text>
</g>
<!-- org.glassfish.mq:mq&#45;partition&#45;&gt;org.glassfish.mq:mq&#45;broker -->
<g id="edge35" class="edge">
<title>org.glassfish.mq:mq&#45;partition&#45;&gt;org.glassfish.mq:mq&#45;broker</title>
<path fill="none" stroke="black" d="M405.2,-468.04C400.03,-470.91 394.82,-473.94 390,-477 373.11,-487.71 370.97,-493.42 354,-504 351.41,-505.61 348.71,-507.21 345.97,-508.78"/>
<polygon fill="black" stroke="black" points="344.17,-505.78 337.1,-513.67 347.55,-511.91 344.17,-505.78"/>
</g>
<!-- org.glassfish.mq:mqpartition&#45;persist&#45;api -->
<g id="node37" class="node">
<title>org.glassfish.mq:mqpartition&#45;persist&#45;api</title>
<polygon fill="lightgrey" stroke="black" points="627.5,-495 532.5,-495 532.5,-459 627.5,-459 627.5,-495"/>
<text text-anchor="middle" x="580" y="-479.6" font-family="Helvetica" font-size="8.00">mqpartition&#45;persist&#45;api</text>
<text text-anchor="middle" x="580" y="-470.6" font-family="Helvetica" font-size="8.00">org.glassfish.mq</text>
</g>
<!-- org.glassfish.mq:mqpartition&#45;persist&#45;api&#45;&gt;org.glassfish.mq:mq&#45;partition -->
<g id="edge36" class="edge">
<title>org.glassfish.mq:mqpartition&#45;persist&#45;api&#45;&gt;org.glassfish.mq:mq&#45;partition</title>
<path fill="none" stroke="black" d="M532.2,-467.71C518.22,-464.93 502.92,-461.9 489,-459.13"/>
<polygon fill="black" stroke="black" points="489.64,-455.69 479.15,-457.18 488.27,-462.56 489.64,-455.69"/>
</g>
<!-- org.glassfish.mq:mqpartition&#45;persist&#45;jdbc -->
<g id="node38" class="node">
<title>org.glassfish.mq:mqpartition&#45;persist&#45;jdbc</title>
<polygon fill="lightgrey" stroke="black" points="630,-441 530,-441 530,-405 630,-405 630,-441"/>
<text text-anchor="middle" x="580" y="-425.6" font-family="Helvetica" font-size="8.00">mqpartition&#45;persist&#45;jdbc</text>
<text text-anchor="middle" x="580" y="-416.6" font-family="Helvetica" font-size="8.00">org.glassfish.mq</text>
</g>
<!-- org.glassfish.mq:mqpartition&#45;persist&#45;jdbc&#45;&gt;org.glassfish.mq:mq&#45;partition -->
<g id="edge37" class="edge">
<title>org.glassfish.mq:mqpartition&#45;persist&#45;jdbc&#45;&gt;org.glassfish.mq:mq&#45;partition</title>
<path fill="none" stroke="black" d="M529.9,-432.75C516.69,-435.37 502.45,-438.2 489.4,-440.79"/>
<polygon fill="black" stroke="black" points="488.35,-437.43 479.22,-442.81 489.71,-444.29 488.35,-437.43"/>
</g>
<!-- org.glassfish.mq:mqadmin&#45;gui -->
<g id="node39" class="node">
<title>org.glassfish.mq:mqadmin&#45;gui</title>
<polygon fill="lightgrey" stroke="black" points="479,-36 405,-36 405,0 479,0 479,-36"/>
<text text-anchor="middle" x="442" y="-20.6" font-family="Helvetica" font-size="8.00">mqadmin&#45;gui</text>
<text text-anchor="middle" x="442" y="-11.6" font-family="Helvetica" font-size="8.00">org.glassfish.mq</text>
</g>
<!-- org.glassfish.mq:mqadmin&#45;gui&#45;&gt;org.glassfish.mq:mq&#45;admin -->
<g id="edge38" class="edge">
<title>org.glassfish.mq:mqadmin&#45;gui&#45;&gt;org.glassfish.mq:mq&#45;admin</title>
<path fill="none" stroke="black" d="M405.2,-36.04C400.03,-38.91 394.82,-41.94 390,-45 373.11,-55.71 370.97,-61.42 354,-72 351.41,-73.61 348.71,-75.21 345.97,-76.78"/>
<polygon fill="black" stroke="black" points="344.17,-73.78 337.1,-81.67 347.55,-79.91 344.17,-73.78"/>
</g>
<!-- org.glassfish.mq:mq&#45;packager&#45;opensource -->
<g id="node40" class="node">
<title>org.glassfish.mq:mq&#45;packager&#45;opensource</title>
<polygon fill="lightgrey" stroke="black" points="354,-63 246,-63 246,-27 354,-27 354,-63"/>
<text text-anchor="middle" x="300" y="-47.6" font-family="Helvetica" font-size="8.00">mq&#45;packager&#45;opensource</text>
<text text-anchor="middle" x="300" y="-38.6" font-family="Helvetica" font-size="8.00">org.glassfish.mq</text>
</g>
<!-- org.glassfish.mq:mq&#45;packager&#45;opensource&#45;&gt;org.glassfish.mq:mq -->
<g id="edge39" class="edge">
<title>org.glassfish.mq:mq&#45;packager&#45;opensource&#45;&gt;org.glassfish.mq:mq</title>
<path fill="none" stroke="black" d="M254.66,-63.09C251.39,-65.7 248.43,-68.66 246,-72 195.47,-141.65 179.16,-414.01 175.12,-502.83"/>
<polygon fill="black" stroke="black" points="171.62,-502.81 174.68,-512.95 178.61,-503.12 171.62,-502.81"/>
</g>
</g>
</svg>
