<?xml version="1.0" encoding="UTF-8" standalone="no"?>
<!DOCTYPE svg PUBLIC "-//W3C//DTD SVG 1.1//EN"
 "http://www.w3.org/Graphics/SVG/1.1/DTD/svg11.dtd">
<!-- Generated by graphviz version 2.44.0 (0)
 -->
<!-- Title: openmq Pages: 1 -->
<svg width="747pt" height="1313pt"
 viewBox="0.00 0.00 747.00 1313.00" xmlns="http://www.w3.org/2000/svg" xmlns:xlink="http://www.w3.org/1999/xlink">
<g id="graph0" class="graph" transform="scale(1 1) rotate(0) translate(4 1309)">
<title>openmq</title>
<polygon fill="white" stroke="transparent" points="-4,4 -4,-1309 743,-1309 743,4 -4,4"/>
<!-- org.glassfish.mq:project -->
<g id="node1" class="node">
<title>org.glassfish.mq:project</title>
<polygon fill="wheat" stroke="black" points="208,-576 134,-576 134,-540 208,-540 208,-576"/>
<text text-anchor="middle" x="171" y="-560.6" font-family="Helvetica" font-size="8.00">project</text>
<text text-anchor="middle" x="171" y="-551.6" font-family="Helvetica" font-size="8.00">org.glassfish.mq</text>
</g>
<!-- org.eclipse.ee4j:project -->
<g id="node2" class="node">
<title>org.eclipse.ee4j:project</title>
<polygon fill="lightgrey" stroke="black" points="98,-603 0,-603 0,-567 98,-567 98,-603"/>
<text text-anchor="middle" x="49" y="-583.1" font-family="Helvetica" font-size="8.00">org.eclipse.ee4j:project</text>
</g>
<!-- org.glassfish.mq:project&#45;&gt;org.eclipse.ee4j:project -->
<g id="edge1" class="edge">
<title>org.glassfish.mq:project&#45;&gt;org.eclipse.ee4j:project</title>
<path fill="none" stroke="black" d="M134,-566.1C125.87,-567.93 117.04,-569.92 108.26,-571.89"/>
<polygon fill="black" stroke="black" points="107.4,-568.5 98.41,-574.11 108.94,-575.33 107.4,-568.5"/>
</g>
<!-- org.glassfish.mq:mq&#45;docs -->
<g id="node3" class="node">
<title>org.glassfish.mq:mq&#45;docs</title>
<polygon fill="wheat" stroke="black" points="318.5,-1143 244.5,-1143 244.5,-1107 318.5,-1107 318.5,-1143"/>
<text text-anchor="middle" x="281.5" y="-1127.6" font-family="Helvetica" font-size="8.00">mq&#45;docs</text>
<text text-anchor="middle" x="281.5" y="-1118.6" font-family="Helvetica" font-size="8.00">org.glassfish.mq</text>
</g>
<!-- org.glassfish.mq:mq&#45;docs&#45;&gt;org.glassfish.mq:project -->
<g id="edge2" class="edge">
<title>org.glassfish.mq:mq&#45;docs&#45;&gt;org.glassfish.mq:project</title>
<path fill="none" stroke="black" d="M279.93,-1106.92C277.01,-1023.6 261.77,-676.69 208,-585 207.82,-584.7 207.64,-584.4 207.45,-584.1"/>
<polygon fill="black" stroke="black" points="209.96,-581.63 200.92,-576.1 204.54,-586.06 209.96,-581.63"/>
</g>
<!-- org.glassfish:mq&#45;dev&#45;guide&#45;jmx -->
<g id="node4" class="node">
<title>org.glassfish:mq&#45;dev&#45;guide&#45;jmx</title>
<polygon fill="lightgrey" stroke="black" points="449.5,-1305 368.5,-1305 368.5,-1269 449.5,-1269 449.5,-1305"/>
<text text-anchor="middle" x="409" y="-1289.6" font-family="Helvetica" font-size="8.00">mq&#45;dev&#45;guide&#45;jmx</text>
<text text-anchor="middle" x="409" y="-1280.6" font-family="Helvetica" font-size="8.00">org.glassfish</text>
</g>
<!-- org.glassfish:mq&#45;dev&#45;guide&#45;jmx&#45;&gt;org.glassfish.mq:mq&#45;docs -->
<g id="edge3" class="edge">
<title>org.glassfish:mq&#45;dev&#45;guide&#45;jmx&#45;&gt;org.glassfish.mq:mq&#45;docs</title>
<path fill="none" stroke="black" d="M368.25,-1270.21C363.48,-1267.23 358.91,-1263.83 355,-1260 323.87,-1229.54 302.91,-1182.84 291.84,-1153.11"/>
<polygon fill="black" stroke="black" points="295.01,-1151.59 288.34,-1143.37 288.42,-1153.96 295.01,-1151.59"/>
</g>
<!-- org.glassfish:mq&#45;admin&#45;guide -->
<g id="node5" class="node">
<title>org.glassfish:mq&#45;admin&#45;guide</title>
<polygon fill="lightgrey" stroke="black" points="446,-1251 372,-1251 372,-1215 446,-1215 446,-1251"/>
<text text-anchor="middle" x="409" y="-1235.6" font-family="Helvetica" font-size="8.00">mq&#45;admin&#45;guide</text>
<text text-anchor="middle" x="409" y="-1226.6" font-family="Helvetica" font-size="8.00">org.glassfish</text>
</g>
<!-- org.glassfish:mq&#45;admin&#45;guide&#45;&gt;org.glassfish.mq:mq&#45;docs -->
<g id="edge4" class="edge">
<title>org.glassfish:mq&#45;admin&#45;guide&#45;&gt;org.glassfish.mq:mq&#45;docs</title>
<path fill="none" stroke="black" d="M371.84,-1216.87C365.98,-1213.62 360.16,-1209.97 355,-1206 334.56,-1190.27 315.29,-1168.26 301.76,-1151.15"/>
<polygon fill="black" stroke="black" points="304.49,-1148.96 295.6,-1143.19 298.95,-1153.24 304.49,-1148.96"/>
</g>
<!-- org.glassfish:mq&#45;dev&#45;guide&#45;c -->
<g id="node6" class="node">
<title>org.glassfish:mq&#45;dev&#45;guide&#45;c</title>
<polygon fill="lightgrey" stroke="black" points="445.5,-1197 372.5,-1197 372.5,-1161 445.5,-1161 445.5,-1197"/>
<text text-anchor="middle" x="409" y="-1181.6" font-family="Helvetica" font-size="8.00">mq&#45;dev&#45;guide&#45;c</text>
<text text-anchor="middle" x="409" y="-1172.6" font-family="Helvetica" font-size="8.00">org.glassfish</text>
</g>
<!-- org.glassfish:mq&#45;dev&#45;guide&#45;c&#45;&gt;org.glassfish.mq:mq&#45;docs -->
<g id="edge5" class="edge">
<title>org.glassfish:mq&#45;dev&#45;guide&#45;c&#45;&gt;org.glassfish.mq:mq&#45;docs</title>
<path fill="none" stroke="black" d="M372.37,-1163.67C358.58,-1157.74 342.63,-1150.87 328.02,-1144.59"/>
<polygon fill="black" stroke="black" points="329.22,-1141.29 318.65,-1140.56 326.45,-1147.72 329.22,-1141.29"/>
</g>
<!-- org.glassfish:mq&#45;release&#45;notes -->
<g id="node7" class="node">
<title>org.glassfish:mq&#45;release&#45;notes</title>
<polygon fill="lightgrey" stroke="black" points="448.5,-1143 369.5,-1143 369.5,-1107 448.5,-1107 448.5,-1143"/>
<text text-anchor="middle" x="409" y="-1127.6" font-family="Helvetica" font-size="8.00">mq&#45;release&#45;notes</text>
<text text-anchor="middle" x="409" y="-1118.6" font-family="Helvetica" font-size="8.00">org.glassfish</text>
</g>
<!-- org.glassfish:mq&#45;release&#45;notes&#45;&gt;org.glassfish.mq:mq&#45;docs -->
<g id="edge6" class="edge">
<title>org.glassfish:mq&#45;release&#45;notes&#45;&gt;org.glassfish.mq:mq&#45;docs</title>
<path fill="none" stroke="black" d="M369.32,-1125C356.59,-1125 342.3,-1125 329.05,-1125"/>
<polygon fill="black" stroke="black" points="328.69,-1121.5 318.69,-1125 328.69,-1128.5 328.69,-1121.5"/>
</g>
<!-- org.glassfish:mq&#45;dev&#45;guide&#45;java -->
<g id="node8" class="node">
<title>org.glassfish:mq&#45;dev&#45;guide&#45;java</title>
<polygon fill="lightgrey" stroke="black" points="450.5,-1089 367.5,-1089 367.5,-1053 450.5,-1053 450.5,-1089"/>
<text text-anchor="middle" x="409" y="-1073.6" font-family="Helvetica" font-size="8.00">mq&#45;dev&#45;guide&#45;java</text>
<text text-anchor="middle" x="409" y="-1064.6" font-family="Helvetica" font-size="8.00">org.glassfish</text>
</g>
<!-- org.glassfish:mq&#45;dev&#45;guide&#45;java&#45;&gt;org.glassfish.mq:mq&#45;docs -->
<g id="edge7" class="edge">
<title>org.glassfish:mq&#45;dev&#45;guide&#45;java&#45;&gt;org.glassfish.mq:mq&#45;docs</title>
<path fill="none" stroke="black" d="M367.25,-1088.53C354.82,-1093.88 341.07,-1099.8 328.32,-1105.28"/>
<polygon fill="black" stroke="black" points="326.61,-1102.21 318.81,-1109.38 329.38,-1108.64 326.61,-1102.21"/>
</g>
<!-- org.glassfish:mq&#45;tech&#45;over -->
<g id="node9" class="node">
<title>org.glassfish:mq&#45;tech&#45;over</title>
<polygon fill="lightgrey" stroke="black" points="441.5,-1035 376.5,-1035 376.5,-999 441.5,-999 441.5,-1035"/>
<text text-anchor="middle" x="409" y="-1019.6" font-family="Helvetica" font-size="8.00">mq&#45;tech&#45;over</text>
<text text-anchor="middle" x="409" y="-1010.6" font-family="Helvetica" font-size="8.00">org.glassfish</text>
</g>
<!-- org.glassfish:mq&#45;tech&#45;over&#45;&gt;org.glassfish.mq:mq&#45;docs -->
<g id="edge8" class="edge">
<title>org.glassfish:mq&#45;tech&#45;over&#45;&gt;org.glassfish.mq:mq&#45;docs</title>
<path fill="none" stroke="black" d="M376.3,-1030.74C368.99,-1034.55 361.47,-1039.02 355,-1044 334.56,-1059.73 315.29,-1081.74 301.76,-1098.85"/>
<polygon fill="black" stroke="black" points="298.95,-1096.76 295.6,-1106.81 304.49,-1101.04 298.95,-1096.76"/>
</g>
<!-- org.glassfish.mq:mq -->
<g id="node10" class="node">
<title>org.glassfish.mq:mq</title>
<polygon fill="wheat" stroke="black" points="318.5,-576 244.5,-576 244.5,-540 318.5,-540 318.5,-576"/>
<text text-anchor="middle" x="281.5" y="-560.6" font-family="Helvetica" font-size="8.00">mq</text>
<text text-anchor="middle" x="281.5" y="-551.6" font-family="Helvetica" font-size="8.00">org.glassfish.mq</text>
</g>
<!-- org.glassfish.mq:mq&#45;&gt;org.glassfish.mq:project -->
<g id="edge9" class="edge">
<title>org.glassfish.mq:mq&#45;&gt;org.glassfish.mq:project</title>
<path fill="none" stroke="black" d="M244.37,-558C236.04,-558 227.07,-558 218.37,-558"/>
<polygon fill="black" stroke="black" points="218.34,-554.5 208.34,-558 218.34,-561.5 218.34,-554.5"/>
</g>
<!-- org.glassfish.mq:mqcomm&#45;util -->
<g id="node11" class="node">
<title>org.glassfish.mq:mqcomm&#45;util</title>
<polygon fill="lightgrey" stroke="black" points="446,-981 372,-981 372,-945 446,-945 446,-981"/>
<text text-anchor="middle" x="409" y="-965.6" font-family="Helvetica" font-size="8.00">mqcomm&#45;util</text>
<text text-anchor="middle" x="409" y="-956.6" font-family="Helvetica" font-size="8.00">org.glassfish.mq</text>
</g>
<!-- org.glassfish.mq:mqcomm&#45;util&#45;&gt;org.glassfish.mq:mq -->
<g id="edge10" class="edge">
<title>org.glassfish.mq:mqcomm&#45;util&#45;&gt;org.glassfish.mq:mq</title>
<path fill="none" stroke="black" d="M371.87,-950.26C365.44,-946.55 359.41,-941.86 355,-936 313.11,-880.27 291.34,-664.21 284.72,-586.25"/>
<polygon fill="black" stroke="black" points="288.2,-585.88 283.89,-576.2 281.23,-586.46 288.2,-585.88"/>
</g>
<!-- org.glassfish.mq:mq&#45;share -->
<g id="node12" class="node">
<title>org.glassfish.mq:mq&#45;share</title>
<polygon fill="lightgrey" stroke="black" points="446,-927 372,-927 372,-891 446,-891 446,-927"/>
<text text-anchor="middle" x="409" y="-911.6" font-family="Helvetica" font-size="8.00">mq&#45;share</text>
<text text-anchor="middle" x="409" y="-902.6" font-family="Helvetica" font-size="8.00">org.glassfish.mq</text>
</g>
<!-- org.glassfish.mq:mq&#45;share&#45;&gt;org.glassfish.mq:mq -->
<g id="edge11" class="edge">
<title>org.glassfish.mq:mq&#45;share&#45;&gt;org.glassfish.mq:mq</title>
<path fill="none" stroke="black" d="M371.74,-896C365.4,-892.32 359.43,-887.71 355,-882 318.86,-835.42 294.19,-656.41 285.73,-586.35"/>
<polygon fill="black" stroke="black" points="289.16,-585.6 284.51,-576.08 282.21,-586.42 289.16,-585.6"/>
</g>
<!-- org.glassfish.mq:mq&#45;logger -->
<g id="node13" class="node">
<title>org.glassfish.mq:mq&#45;logger</title>
<polygon fill="lightgrey" stroke="black" points="446,-873 372,-873 372,-837 446,-837 446,-873"/>
<text text-anchor="middle" x="409" y="-857.6" font-family="Helvetica" font-size="8.00">mq&#45;logger</text>
<text text-anchor="middle" x="409" y="-848.6" font-family="Helvetica" font-size="8.00">org.glassfish.mq</text>
</g>
<!-- org.glassfish.mq:mq&#45;logger&#45;&gt;org.glassfish.mq:mq -->
<g id="edge12" class="edge">
<title>org.glassfish.mq:mq&#45;logger&#45;&gt;org.glassfish.mq:mq</title>
<path fill="none" stroke="black" d="M371.93,-841.85C365.58,-838.18 359.55,-833.62 355,-828 296.26,-755.5 284.85,-639.62 282.82,-586.4"/>
<polygon fill="black" stroke="black" points="286.32,-586.22 282.52,-576.33 279.32,-586.43 286.32,-586.22"/>
</g>
<!-- org.glassfish.mq:mqcomm&#45;io -->
<g id="node14" class="node">
<title>org.glassfish.mq:mqcomm&#45;io</title>
<polygon fill="lightgrey" stroke="black" points="446,-819 372,-819 372,-783 446,-783 446,-819"/>
<text text-anchor="middle" x="409" y="-803.6" font-family="Helvetica" font-size="8.00">mqcomm&#45;io</text>
<text text-anchor="middle" x="409" y="-794.6" font-family="Helvetica" font-size="8.00">org.glassfish.mq</text>
</g>
<!-- org.glassfish.mq:mqcomm&#45;io&#45;&gt;org.glassfish.mq:mq -->
<g id="edge13" class="edge">
<title>org.glassfish.mq:mqcomm&#45;io&#45;&gt;org.glassfish.mq:mq</title>
<path fill="none" stroke="black" d="M371.93,-787.46C365.65,-783.84 359.65,-779.4 355,-774 307.38,-718.8 290.75,-631.12 285.17,-586.35"/>
<polygon fill="black" stroke="black" points="288.62,-585.72 284,-576.19 281.67,-586.52 288.62,-585.72"/>
</g>
<!-- org.glassfish.mq:mqjmx&#45;api -->
<g id="node15" class="node">
<title>org.glassfish.mq:mqjmx&#45;api</title>
<polygon fill="lightgrey" stroke="black" points="446,-765 372,-765 372,-729 446,-729 446,-765"/>
<text text-anchor="middle" x="409" y="-749.6" font-family="Helvetica" font-size="8.00">mqjmx&#45;api</text>
<text text-anchor="middle" x="409" y="-740.6" font-family="Helvetica" font-size="8.00">org.glassfish.mq</text>
</g>
<!-- org.glassfish.mq:mqjmx&#45;api&#45;&gt;org.glassfish.mq:mq -->
<g id="edge14" class="edge">
<title>org.glassfish.mq:mqjmx&#45;api&#45;&gt;org.glassfish.mq:mq</title>
<path fill="none" stroke="black" d="M371.79,-732.78C365.67,-729.25 359.77,-725.01 355,-720 318.34,-681.45 298.16,-621.22 288.9,-586.08"/>
<polygon fill="black" stroke="black" points="292.2,-584.88 286.37,-576.03 285.41,-586.59 292.2,-584.88"/>
</g>
<!-- org.glassfish.mq:http&#45;tunnel -->
<g id="node16" class="node">
<title>org.glassfish.mq:http&#45;tunnel</title>
<polygon fill="wheat" stroke="black" points="446,-711 372,-711 372,-675 446,-675 446,-711"/>
<text text-anchor="middle" x="409" y="-695.6" font-family="Helvetica" font-size="8.00">http&#45;tunnel</text>
<text text-anchor="middle" x="409" y="-686.6" font-family="Helvetica" font-size="8.00">org.glassfish.mq</text>
</g>
<!-- org.glassfish.mq:http&#45;tunnel&#45;&gt;org.glassfish.mq:mq -->
<g id="edge15" class="edge">
<title>org.glassfish.mq:http&#45;tunnel&#45;&gt;org.glassfish.mq:mq</title>
<path fill="none" stroke="black" d="M371.9,-677.77C365.91,-674.39 360.02,-670.45 355,-666 329.16,-643.09 308.32,-609.01 295.73,-585.28"/>
<polygon fill="black" stroke="black" points="298.7,-583.4 291,-576.12 292.47,-586.61 298.7,-583.4"/>
</g>
<!-- org.glassfish.mq:mqhttp&#45;tunnel&#45;api&#45;share -->
<g id="node17" class="node">
<title>org.glassfish.mq:mqhttp&#45;tunnel&#45;api&#45;share</title>
<polygon fill="lightgrey" stroke="black" points="601.5,-1008 500.5,-1008 500.5,-972 601.5,-972 601.5,-1008"/>
<text text-anchor="middle" x="551" y="-992.6" font-family="Helvetica" font-size="8.00">mqhttp&#45;tunnel&#45;api&#45;share</text>
<text text-anchor="middle" x="551" y="-983.6" font-family="Helvetica" font-size="8.00">org.glassfish.mq</text>
</g>
<!-- org.glassfish.mq:mqhttp&#45;tunnel&#45;api&#45;share&#45;&gt;org.glassfish.mq:http&#45;tunnel -->
<g id="edge16" class="edge">
<title>org.glassfish.mq:mqhttp&#45;tunnel&#45;api&#45;share&#45;&gt;org.glassfish.mq:http&#45;tunnel</title>
<path fill="none" stroke="black" d="M507.29,-971.76C504.15,-969.18 501.31,-966.27 499,-963 435.96,-873.86 526.73,-808.64 463,-720 460.63,-716.7 457.73,-713.77 454.53,-711.19"/>
<polygon fill="black" stroke="black" points="456.29,-708.16 446.05,-705.44 452.36,-713.95 456.29,-708.16"/>
</g>
<!-- org.glassfish.mq:mqhttp&#45;tunnel&#45;api&#45;server -->
<g id="node18" class="node">
<title>org.glassfish.mq:mqhttp&#45;tunnel&#45;api&#45;server</title>
<polygon fill="lightgrey" stroke="black" points="603,-954 499,-954 499,-918 603,-918 603,-954"/>
<text text-anchor="middle" x="551" y="-938.6" font-family="Helvetica" font-size="8.00">mqhttp&#45;tunnel&#45;api&#45;server</text>
<text text-anchor="middle" x="551" y="-929.6" font-family="Helvetica" font-size="8.00">org.glassfish.mq</text>
</g>
<!-- org.glassfish.mq:mqhttp&#45;tunnel&#45;api&#45;server&#45;&gt;org.glassfish.mq:http&#45;tunnel -->
<g id="edge17" class="edge">
<title>org.glassfish.mq:mqhttp&#45;tunnel&#45;api&#45;server&#45;&gt;org.glassfish.mq:http&#45;tunnel</title>
<path fill="none" stroke="black" d="M507.43,-917.66C504.26,-915.1 501.38,-912.22 499,-909 448.2,-840.21 514.34,-788.39 463,-720 460.59,-716.79 457.7,-713.94 454.52,-711.4"/>
<polygon fill="black" stroke="black" points="456.38,-708.44 446.14,-705.73 452.46,-714.24 456.38,-708.44"/>
</g>
<!-- org.glassfish.mq:mqhttp&#45;tunnel -->
<g id="node19" class="node">
<title>org.glassfish.mq:mqhttp&#45;tunnel</title>
<polygon fill="lightgrey" stroke="black" points="588,-900 514,-900 514,-864 588,-864 588,-900"/>
<text text-anchor="middle" x="551" y="-884.6" font-family="Helvetica" font-size="8.00">mqhttp&#45;tunnel</text>
<text text-anchor="middle" x="551" y="-875.6" font-family="Helvetica" font-size="8.00">org.glassfish.mq</text>
</g>
<!-- org.glassfish.mq:mqhttp&#45;tunnel&#45;&gt;org.glassfish.mq:http&#45;tunnel -->
<g id="edge18" class="edge">
<title>org.glassfish.mq:mqhttp&#45;tunnel&#45;&gt;org.glassfish.mq:http&#45;tunnel</title>
<path fill="none" stroke="black" d="M513.97,-867.85C508.34,-864.34 503.06,-860.1 499,-855 460.33,-806.41 502.05,-768.28 463,-720 460.51,-716.93 457.59,-714.17 454.4,-711.7"/>
<polygon fill="black" stroke="black" points="456.34,-708.78 446.08,-706.15 452.46,-714.61 456.34,-708.78"/>
</g>
<!-- org.glassfish.mq:mq&#45;direct -->
<g id="node20" class="node">
<title>org.glassfish.mq:mq&#45;direct</title>
<polygon fill="lightgrey" stroke="black" points="446,-657 372,-657 372,-621 446,-621 446,-657"/>
<text text-anchor="middle" x="409" y="-641.6" font-family="Helvetica" font-size="8.00">mq&#45;direct</text>
<text text-anchor="middle" x="409" y="-632.6" font-family="Helvetica" font-size="8.00">org.glassfish.mq</text>
</g>
<!-- org.glassfish.mq:mq&#45;direct&#45;&gt;org.glassfish.mq:mq -->
<g id="edge19" class="edge">
<title>org.glassfish.mq:mq&#45;direct&#45;&gt;org.glassfish.mq:mq</title>
<path fill="none" stroke="black" d="M371.91,-621.65C366.16,-618.6 360.35,-615.32 355,-612 340.56,-603.04 325.37,-591.99 312.64,-582.24"/>
<polygon fill="black" stroke="black" points="314.71,-579.41 304.66,-576.04 310.42,-584.94 314.71,-579.41"/>
</g>
<!-- org.glassfish.mq:persist -->
<g id="node21" class="node">
<title>org.glassfish.mq:persist</title>
<polygon fill="wheat" stroke="black" points="446,-603 372,-603 372,-567 446,-567 446,-603"/>
<text text-anchor="middle" x="409" y="-587.6" font-family="Helvetica" font-size="8.00">persist</text>
<text text-anchor="middle" x="409" y="-578.6" font-family="Helvetica" font-size="8.00">org.glassfish.mq</text>
</g>
<!-- org.glassfish.mq:persist&#45;&gt;org.glassfish.mq:mq -->
<g id="edge20" class="edge">
<title>org.glassfish.mq:persist&#45;&gt;org.glassfish.mq:mq</title>
<path fill="none" stroke="black" d="M371.7,-577.19C358.3,-574.31 342.93,-571 328.77,-567.95"/>
<polygon fill="black" stroke="black" points="329.23,-564.47 318.72,-565.79 327.76,-571.32 329.23,-564.47"/>
</g>
<!-- org.glassfish.mq:mq&#45;txnlog -->
<g id="node22" class="node">
<title>org.glassfish.mq:mq&#45;txnlog</title>
<polygon fill="lightgrey" stroke="black" points="588,-846 514,-846 514,-810 588,-810 588,-846"/>
<text text-anchor="middle" x="551" y="-830.6" font-family="Helvetica" font-size="8.00">mq&#45;txnlog</text>
<text text-anchor="middle" x="551" y="-821.6" font-family="Helvetica" font-size="8.00">org.glassfish.mq</text>
</g>
<!-- org.glassfish.mq:mq&#45;txnlog&#45;&gt;org.glassfish.mq:persist -->
<g id="edge21" class="edge">
<title>org.glassfish.mq:mq&#45;txnlog&#45;&gt;org.glassfish.mq:persist</title>
<path fill="none" stroke="black" d="M513.91,-814.25C508.22,-810.69 502.93,-806.32 499,-801 448.2,-732.21 514.34,-680.39 463,-612 460.59,-608.79 457.7,-605.94 454.52,-603.4"/>
<polygon fill="black" stroke="black" points="456.38,-600.44 446.14,-597.73 452.46,-606.24 456.38,-600.44"/>
</g>
<!-- org.glassfish.mq:mq&#45;broker -->
<g id="node23" class="node">
<title>org.glassfish.mq:mq&#45;broker</title>
<polygon fill="wheat" stroke="black" points="446,-549 372,-549 372,-513 446,-513 446,-549"/>
<text text-anchor="middle" x="409" y="-533.6" font-family="Helvetica" font-size="8.00">mq&#45;broker</text>
<text text-anchor="middle" x="409" y="-524.6" font-family="Helvetica" font-size="8.00">org.glassfish.mq</text>
</g>
<!-- org.glassfish.mq:mq&#45;broker&#45;&gt;org.glassfish.mq:mq -->
<g id="edge22" class="edge">
<title>org.glassfish.mq:mq&#45;broker&#45;&gt;org.glassfish.mq:mq</title>
<path fill="none" stroke="black" d="M371.7,-538.81C358.3,-541.69 342.93,-545 328.77,-548.05"/>
<polygon fill="black" stroke="black" points="327.76,-544.68 318.72,-550.21 329.23,-551.53 327.76,-544.68"/>
</g>
<!-- org.glassfish.mq:mqbroker&#45;comm -->
<g id="node24" class="node">
<title>org.glassfish.mq:mqbroker&#45;comm</title>
<polygon fill="lightgrey" stroke="black" points="588,-738 514,-738 514,-702 588,-702 588,-738"/>
<text text-anchor="middle" x="551" y="-722.6" font-family="Helvetica" font-size="8.00">mqbroker&#45;comm</text>
<text text-anchor="middle" x="551" y="-713.6" font-family="Helvetica" font-size="8.00">org.glassfish.mq</text>
</g>
<!-- org.glassfish.mq:mqbroker&#45;comm&#45;&gt;org.glassfish.mq:mq&#45;broker -->
<g id="edge23" class="edge">
<title>org.glassfish.mq:mqbroker&#45;comm&#45;&gt;org.glassfish.mq:mq&#45;broker</title>
<path fill="none" stroke="black" d="M513.97,-705.85C508.34,-702.34 503.06,-698.1 499,-693 460.33,-644.41 502.05,-606.28 463,-558 460.51,-554.93 457.59,-552.17 454.4,-549.7"/>
<polygon fill="black" stroke="black" points="456.34,-546.78 446.08,-544.15 452.46,-552.61 456.34,-546.78"/>
</g>
<!-- org.glassfish.mq:mq&#45;portunif -->
<g id="node25" class="node">
<title>org.glassfish.mq:mq&#45;portunif</title>
<polygon fill="lightgrey" stroke="black" points="446,-495 372,-495 372,-459 446,-459 446,-495"/>
<text text-anchor="middle" x="409" y="-479.6" font-family="Helvetica" font-size="8.00">mq&#45;portunif</text>
<text text-anchor="middle" x="409" y="-470.6" font-family="Helvetica" font-size="8.00">org.glassfish.mq</text>
</g>
<!-- org.glassfish.mq:mq&#45;portunif&#45;&gt;org.glassfish.mq:mq -->
<g id="edge24" class="edge">
<title>org.glassfish.mq:mq&#45;portunif&#45;&gt;org.glassfish.mq:mq</title>
<path fill="none" stroke="black" d="M371.9,-494.33C366.15,-497.39 360.35,-500.67 355,-504 338.03,-514.58 335.04,-519.05 319,-531 317.81,-531.88 316.61,-532.78 315.39,-533.69"/>
<polygon fill="black" stroke="black" points="313.2,-530.95 307.26,-539.72 317.37,-536.57 313.2,-530.95"/>
</g>
<!-- org.glassfish.mq:bridge -->
<g id="node26" class="node">
<title>org.glassfish.mq:bridge</title>
<polygon fill="wheat" stroke="black" points="446,-414 372,-414 372,-378 446,-378 446,-414"/>
<text text-anchor="middle" x="409" y="-398.6" font-family="Helvetica" font-size="8.00">bridge</text>
<text text-anchor="middle" x="409" y="-389.6" font-family="Helvetica" font-size="8.00">org.glassfish.mq</text>
</g>
<!-- org.glassfish.mq:bridge&#45;&gt;org.glassfish.mq:mq -->
<g id="edge25" class="edge">
<title>org.glassfish.mq:bridge&#45;&gt;org.glassfish.mq:mq</title>
<path fill="none" stroke="black" d="M387.04,-414C376.47,-423.86 364.01,-436.75 355,-450 332.85,-482.58 343.65,-500.27 319,-531 318.52,-531.6 318.02,-532.19 317.51,-532.78"/>
<polygon fill="black" stroke="black" points="314.87,-530.47 310.21,-539.98 319.79,-535.45 314.87,-530.47"/>
</g>
<!-- org.glassfish.mq:mqbridge&#45;api -->
<g id="node27" class="node">
<title>org.glassfish.mq:mqbridge&#45;api</title>
<polygon fill="lightgrey" stroke="black" points="588,-414 514,-414 514,-378 588,-378 588,-414"/>
<text text-anchor="middle" x="551" y="-398.6" font-family="Helvetica" font-size="8.00">mqbridge&#45;api</text>
<text text-anchor="middle" x="551" y="-389.6" font-family="Helvetica" font-size="8.00">org.glassfish.mq</text>
</g>
<!-- org.glassfish.mq:mqbridge&#45;api&#45;&gt;org.glassfish.mq:bridge -->
<g id="edge26" class="edge">
<title>org.glassfish.mq:mqbridge&#45;api&#45;&gt;org.glassfish.mq:bridge</title>
<path fill="none" stroke="black" d="M513.95,-396C496.45,-396 475.21,-396 456.51,-396"/>
<polygon fill="black" stroke="black" points="456.42,-392.5 446.42,-396 456.42,-399.5 456.42,-392.5"/>
</g>
<!-- org.glassfish.mq:mqbroker&#45;core -->
<g id="node28" class="node">
<title>org.glassfish.mq:mqbroker&#45;core</title>
<polygon fill="lightgrey" stroke="black" points="588,-684 514,-684 514,-648 588,-648 588,-684"/>
<text text-anchor="middle" x="551" y="-668.6" font-family="Helvetica" font-size="8.00">mqbroker&#45;core</text>
<text text-anchor="middle" x="551" y="-659.6" font-family="Helvetica" font-size="8.00">org.glassfish.mq</text>
</g>
<!-- org.glassfish.mq:mqbroker&#45;core&#45;&gt;org.glassfish.mq:mq&#45;broker -->
<g id="edge27" class="edge">
<title>org.glassfish.mq:mqbroker&#45;core&#45;&gt;org.glassfish.mq:mq&#45;broker</title>
<path fill="none" stroke="black" d="M513.83,-650.81C508.42,-647.47 503.24,-643.54 499,-639 472.12,-610.2 490.11,-586.58 463,-558 460.55,-555.41 457.79,-553.03 454.85,-550.85"/>
<polygon fill="black" stroke="black" points="456.51,-547.75 446.22,-545.21 452.68,-553.61 456.51,-547.75"/>
</g>
<!-- org.glassfish.mq:jmsra -->
<g id="node29" class="node">
<title>org.glassfish.mq:jmsra</title>
<polygon fill="wheat" stroke="black" points="446,-360 372,-360 372,-324 446,-324 446,-360"/>
<text text-anchor="middle" x="409" y="-344.6" font-family="Helvetica" font-size="8.00">jmsra</text>
<text text-anchor="middle" x="409" y="-335.6" font-family="Helvetica" font-size="8.00">org.glassfish.mq</text>
</g>
<!-- org.glassfish.mq:jmsra&#45;&gt;org.glassfish.mq:mq -->
<g id="edge28" class="edge">
<title>org.glassfish.mq:jmsra&#45;&gt;org.glassfish.mq:mq</title>
<path fill="none" stroke="black" d="M371.73,-355C365.4,-358.68 359.43,-363.29 355,-369 309.83,-427.31 359.19,-469.16 319,-531 318.74,-531.4 318.48,-531.79 318.2,-532.18"/>
<polygon fill="black" stroke="black" points="315.51,-529.95 311.55,-539.77 320.77,-534.56 315.51,-529.95"/>
</g>
<!-- org.glassfish.mq:mqjmsra&#45;api -->
<g id="node30" class="node">
<title>org.glassfish.mq:mqjmsra&#45;api</title>
<polygon fill="lightgrey" stroke="black" points="588,-198 514,-198 514,-162 588,-162 588,-198"/>
<text text-anchor="middle" x="551" y="-182.6" font-family="Helvetica" font-size="8.00">mqjmsra&#45;api</text>
<text text-anchor="middle" x="551" y="-173.6" font-family="Helvetica" font-size="8.00">org.glassfish.mq</text>
</g>
<!-- org.glassfish.mq:mqjmsra&#45;api&#45;&gt;org.glassfish.mq:jmsra -->
<g id="edge29" class="edge">
<title>org.glassfish.mq:mqjmsra&#45;api&#45;&gt;org.glassfish.mq:jmsra</title>
<path fill="none" stroke="black" d="M513.96,-194.53C508.4,-197.97 503.14,-202.11 499,-207 466.3,-245.61 496.01,-276.65 463,-315 460.53,-317.87 457.68,-320.47 454.61,-322.82"/>
<polygon fill="black" stroke="black" points="452.49,-320.03 446.08,-328.47 456.35,-325.87 452.49,-320.03"/>
</g>
<!-- org.glassfish.mq:mq&#45;client -->
<g id="node31" class="node">
<title>org.glassfish.mq:mq&#45;client</title>
<polygon fill="lightgrey" stroke="black" points="446,-306 372,-306 372,-270 446,-270 446,-306"/>
<text text-anchor="middle" x="409" y="-290.6" font-family="Helvetica" font-size="8.00">mq&#45;client</text>
<text text-anchor="middle" x="409" y="-281.6" font-family="Helvetica" font-size="8.00">org.glassfish.mq</text>
</g>
<!-- org.glassfish.mq:mq&#45;client&#45;&gt;org.glassfish.mq:mq -->
<g id="edge30" class="edge">
<title>org.glassfish.mq:mq&#45;client&#45;&gt;org.glassfish.mq:mq</title>
<path fill="none" stroke="black" d="M371.76,-300.66C365.34,-304.38 359.33,-309.09 355,-315 297.47,-393.5 369.83,-448 319,-531 318.75,-531.4 318.5,-531.8 318.23,-532.2"/>
<polygon fill="black" stroke="black" points="315.52,-529.99 311.72,-539.88 320.86,-534.52 315.52,-529.99"/>
</g>
<!-- org.glassfish.mq:mq&#45;ums -->
<g id="node32" class="node">
<title>org.glassfish.mq:mq&#45;ums</title>
<polygon fill="lightgrey" stroke="black" points="446,-252 372,-252 372,-216 446,-216 446,-252"/>
<text text-anchor="middle" x="409" y="-236.6" font-family="Helvetica" font-size="8.00">mq&#45;ums</text>
<text text-anchor="middle" x="409" y="-227.6" font-family="Helvetica" font-size="8.00">org.glassfish.mq</text>
</g>
<!-- org.glassfish.mq:mq&#45;ums&#45;&gt;org.glassfish.mq:mq -->
<g id="edge31" class="edge">
<title>org.glassfish.mq:mq&#45;ums&#45;&gt;org.glassfish.mq:mq</title>
<path fill="none" stroke="black" d="M371.88,-246.39C365.37,-250.14 359.3,-254.93 355,-261 285.04,-359.8 380.54,-426.74 319,-531 318.76,-531.41 318.51,-531.81 318.25,-532.21"/>
<polygon fill="black" stroke="black" points="315.52,-530.02 311.82,-539.94 320.91,-534.49 315.52,-530.02"/>
</g>
<!-- org.glassfish.mq:mqdisk&#45;io -->
<g id="node33" class="node">
<title>org.glassfish.mq:mqdisk&#45;io</title>
<polygon fill="lightgrey" stroke="black" points="588,-792 514,-792 514,-756 588,-756 588,-792"/>
<text text-anchor="middle" x="551" y="-776.6" font-family="Helvetica" font-size="8.00">mqdisk&#45;io</text>
<text text-anchor="middle" x="551" y="-767.6" font-family="Helvetica" font-size="8.00">org.glassfish.mq</text>
</g>
<!-- org.glassfish.mq:mqdisk&#45;io&#45;&gt;org.glassfish.mq:persist -->
<g id="edge32" class="edge">
<title>org.glassfish.mq:mqdisk&#45;io&#45;&gt;org.glassfish.mq:persist</title>
<path fill="none" stroke="black" d="M513.97,-759.85C508.34,-756.34 503.06,-752.1 499,-747 460.33,-698.41 502.05,-660.28 463,-612 460.51,-608.93 457.59,-606.17 454.4,-603.7"/>
<polygon fill="black" stroke="black" points="456.34,-600.78 446.08,-598.15 452.46,-606.61 456.34,-600.78"/>
</g>
<!-- org.glassfish.mq:mqjaxm&#45;api -->
<g id="node34" class="node">
<title>org.glassfish.mq:mqjaxm&#45;api</title>
<polygon fill="lightgrey" stroke="black" points="446,-198 372,-198 372,-162 446,-162 446,-198"/>
<text text-anchor="middle" x="409" y="-182.6" font-family="Helvetica" font-size="8.00">mqjaxm&#45;api</text>
<text text-anchor="middle" x="409" y="-173.6" font-family="Helvetica" font-size="8.00">org.glassfish.mq</text>
</g>
<!-- org.glassfish.mq:mqjaxm&#45;api&#45;&gt;org.glassfish.mq:mq -->
<g id="edge33" class="edge">
<title>org.glassfish.mq:mqjaxm&#45;api&#45;&gt;org.glassfish.mq:mq</title>
<path fill="none" stroke="black" d="M371.77,-192.32C365.27,-196.07 359.23,-200.89 355,-207 272.58,-326.16 391.28,-405.43 319,-531 318.76,-531.41 318.52,-531.82 318.27,-532.22"/>
<polygon fill="black" stroke="black" points="315.53,-530.03 311.89,-539.99 320.94,-534.47 315.53,-530.03"/>
</g>
<!-- org.glassfish.mq:mq&#45;admin -->
<g id="node35" class="node">
<title>org.glassfish.mq:mq&#45;admin</title>
<polygon fill="wheat" stroke="black" points="446,-117 372,-117 372,-81 446,-81 446,-117"/>
<text text-anchor="middle" x="409" y="-101.6" font-family="Helvetica" font-size="8.00">mq&#45;admin</text>
<text text-anchor="middle" x="409" y="-92.6" font-family="Helvetica" font-size="8.00">org.glassfish.mq</text>
</g>
<!-- org.glassfish.mq:mq&#45;admin&#45;&gt;org.glassfish.mq:mq -->
<g id="edge34" class="edge">
<title>org.glassfish.mq:mq&#45;admin&#45;&gt;org.glassfish.mq:mq</title>
<path fill="none" stroke="black" d="M383.83,-117.15C373.11,-126.59 361.48,-139.07 355,-153 283.81,-306.01 402.04,-384.08 319,-531 318.89,-531.2 318.77,-531.39 318.66,-531.59"/>
<polygon fill="black" stroke="black" points="315.73,-529.65 312.29,-539.67 321.23,-533.99 315.73,-529.65"/>
</g>
<!-- org.glassfish.mq:mqadmin&#45;cli -->
<g id="node36" class="node">
<title>org.glassfish.mq:mqadmin&#45;cli</title>
<polygon fill="lightgrey" stroke="black" points="588,-90 514,-90 514,-54 588,-54 588,-90"/>
<text text-anchor="middle" x="551" y="-74.6" font-family="Helvetica" font-size="8.00">mqadmin&#45;cli</text>
<text text-anchor="middle" x="551" y="-65.6" font-family="Helvetica" font-size="8.00">org.glassfish.mq</text>
</g>
<!-- org.glassfish.mq:mqadmin&#45;cli&#45;&gt;org.glassfish.mq:mq&#45;admin -->
<g id="edge35" class="edge">
<title>org.glassfish.mq:mqadmin&#45;cli&#45;&gt;org.glassfish.mq:mq&#45;admin</title>
<path fill="none" stroke="black" d="M513.95,-78.95C496.37,-82.34 475.02,-86.46 456.25,-90.08"/>
<polygon fill="black" stroke="black" points="455.57,-86.65 446.42,-91.98 456.9,-93.52 455.57,-86.65"/>
</g>
<!-- org.glassfish.mq:mqjmsra&#45;ra -->
<g id="node37" class="node">
<title>org.glassfish.mq:mqjmsra&#45;ra</title>
<polygon fill="lightgrey" stroke="black" points="588,-144 514,-144 514,-108 588,-108 588,-144"/>
<text text-anchor="middle" x="551" y="-128.6" font-family="Helvetica" font-size="8.00">mqjmsra&#45;ra</text>
<text text-anchor="middle" x="551" y="-119.6" font-family="Helvetica" font-size="8.00">org.glassfish.mq</text>
</g>
<!-- org.glassfish.mq:mqjmsra&#45;ra&#45;&gt;org.glassfish.mq:jmsra -->
<g id="edge36" class="edge">
<title>org.glassfish.mq:mqjmsra&#45;ra&#45;&gt;org.glassfish.mq:jmsra</title>
<path fill="none" stroke="black" d="M513.79,-140.01C508.18,-143.53 502.95,-147.82 499,-153 454.29,-211.66 508.17,-256.69 463,-315 460.65,-318.04 457.86,-320.76 454.82,-323.2"/>
<polygon fill="black" stroke="black" points="452.57,-320.49 446.27,-329 456.51,-326.28 452.57,-320.49"/>
</g>
<!-- org.glassfish.mq:mqbridge&#45;jms -->
<g id="node38" class="node">
<title>org.glassfish.mq:mqbridge&#45;jms</title>
<polygon fill="lightgrey" stroke="black" points="588,-360 514,-360 514,-324 588,-324 588,-360"/>
<text text-anchor="middle" x="551" y="-344.6" font-family="Helvetica" font-size="8.00">mqbridge&#45;jms</text>
<text text-anchor="middle" x="551" y="-335.6" font-family="Helvetica" font-size="8.00">org.glassfish.mq</text>
</g>
<!-- org.glassfish.mq:mqbridge&#45;jms&#45;&gt;org.glassfish.mq:bridge -->
<g id="edge37" class="edge">
<title>org.glassfish.mq:mqbridge&#45;jms&#45;&gt;org.glassfish.mq:bridge</title>
<path fill="none" stroke="black" d="M513.95,-355.91C496.28,-362.72 474.82,-371 455.99,-378.26"/>
<polygon fill="black" stroke="black" points="454.49,-375.09 446.42,-381.95 457.01,-381.62 454.49,-375.09"/>
</g>
<!-- org.glassfish.mq:mqbridge&#45;stomp -->
<g id="node39" class="node">
<title>org.glassfish.mq:mqbridge&#45;stomp</title>
<polygon fill="lightgrey" stroke="black" points="588.5,-306 513.5,-306 513.5,-270 588.5,-270 588.5,-306"/>
<text text-anchor="middle" x="551" y="-290.6" font-family="Helvetica" font-size="8.00">mqbridge&#45;stomp</text>
<text text-anchor="middle" x="551" y="-281.6" font-family="Helvetica" font-size="8.00">org.glassfish.mq</text>
</g>
<!-- org.glassfish.mq:mqbridge&#45;stomp&#45;&gt;org.glassfish.mq:bridge -->
<g id="edge38" class="edge">
<title>org.glassfish.mq:mqbridge&#45;stomp&#45;&gt;org.glassfish.mq:bridge</title>
<path fill="none" stroke="black" d="M513.4,-304.48C508.29,-307.59 503.31,-311.1 499,-315 477.6,-334.34 484.55,-349.83 463,-369 460.41,-371.3 457.6,-373.46 454.65,-375.48"/>
<polygon fill="black" stroke="black" points="452.76,-372.54 446.11,-380.79 456.45,-378.48 452.76,-372.54"/>
</g>
<!-- org.glassfish.mq:mqbridge&#45;admin -->
<g id="node40" class="node">
<title>org.glassfish.mq:mqbridge&#45;admin</title>
<polygon fill="lightgrey" stroke="black" points="588,-252 514,-252 514,-216 588,-216 588,-252"/>
<text text-anchor="middle" x="551" y="-236.6" font-family="Helvetica" font-size="8.00">mqbridge&#45;admin</text>
<text text-anchor="middle" x="551" y="-227.6" font-family="Helvetica" font-size="8.00">org.glassfish.mq</text>
</g>
<!-- org.glassfish.mq:mqbridge&#45;admin&#45;&gt;org.glassfish.mq:bridge -->
<g id="edge39" class="edge">
<title>org.glassfish.mq:mqbridge&#45;admin&#45;&gt;org.glassfish.mq:bridge</title>
<path fill="none" stroke="black" d="M513.96,-248.53C508.4,-251.97 503.14,-256.11 499,-261 466.3,-299.61 496.01,-330.65 463,-369 460.53,-371.87 457.68,-374.47 454.61,-376.82"/>
<polygon fill="black" stroke="black" points="452.49,-374.03 446.08,-382.47 456.35,-379.87 452.49,-374.03"/>
</g>
<!-- org.glassfish.mq:mq&#45;cluster -->
<g id="node41" class="node">
<title>org.glassfish.mq:mq&#45;cluster</title>
<polygon fill="lightgrey" stroke="black" points="588,-630 514,-630 514,-594 588,-594 588,-630"/>
<text text-anchor="middle" x="551" y="-614.6" font-family="Helvetica" font-size="8.00">mq&#45;cluster</text>
<text text-anchor="middle" x="551" y="-605.6" font-family="Helvetica" font-size="8.00">org.glassfish.mq</text>
</g>
<!-- org.glassfish.mq:mq&#45;cluster&#45;&gt;org.glassfish.mq:mq&#45;broker -->
<g id="edge40" class="edge">
<title>org.glassfish.mq:mq&#45;cluster&#45;&gt;org.glassfish.mq:mq&#45;broker</title>
<path fill="none" stroke="black" d="M514.2,-593.96C509.03,-591.09 503.82,-588.06 499,-585 482.11,-574.29 479.97,-568.58 463,-558 460.41,-556.39 457.71,-554.79 454.97,-553.22"/>
<polygon fill="black" stroke="black" points="456.55,-550.09 446.1,-548.33 453.17,-556.22 456.55,-550.09"/>
</g>
<!-- org.glassfish.mq:mqpersist&#45;file -->
<g id="node42" class="node">
<title>org.glassfish.mq:mqpersist&#45;file</title>
<polygon fill="lightgrey" stroke="black" points="588,-576 514,-576 514,-540 588,-540 588,-576"/>
<text text-anchor="middle" x="551" y="-560.6" font-family="Helvetica" font-size="8.00">mqpersist&#45;file</text>
<text text-anchor="middle" x="551" y="-551.6" font-family="Helvetica" font-size="8.00">org.glassfish.mq</text>
</g>
<!-- org.glassfish.mq:mqpersist&#45;file&#45;&gt;org.glassfish.mq:mq&#45;broker -->
<g id="edge41" class="edge">
<title>org.glassfish.mq:mqpersist&#45;file&#45;&gt;org.glassfish.mq:mq&#45;broker</title>
<path fill="none" stroke="black" d="M513.95,-551.05C496.37,-547.66 475.02,-543.54 456.25,-539.92"/>
<polygon fill="black" stroke="black" points="456.9,-536.48 446.42,-538.02 455.57,-543.35 456.9,-536.48"/>
</g>
<!-- org.glassfish.mq:mqpersist&#45;jdbc -->
<g id="node43" class="node">
<title>org.glassfish.mq:mqpersist&#45;jdbc</title>
<polygon fill="lightgrey" stroke="black" points="588,-522 514,-522 514,-486 588,-486 588,-522"/>
<text text-anchor="middle" x="551" y="-506.6" font-family="Helvetica" font-size="8.00">mqpersist&#45;jdbc</text>
<text text-anchor="middle" x="551" y="-497.6" font-family="Helvetica" font-size="8.00">org.glassfish.mq</text>
</g>
<!-- org.glassfish.mq:mqpersist&#45;jdbc&#45;&gt;org.glassfish.mq:mq&#45;broker -->
<g id="edge42" class="edge">
<title>org.glassfish.mq:mqpersist&#45;jdbc&#45;&gt;org.glassfish.mq:mq&#45;broker</title>
<path fill="none" stroke="black" d="M513.95,-510.95C496.37,-514.34 475.02,-518.46 456.25,-522.08"/>
<polygon fill="black" stroke="black" points="455.57,-518.65 446.42,-523.98 456.9,-525.52 455.57,-518.65"/>
</g>
<!-- org.glassfish.mq:mq&#45;partition -->
<g id="node44" class="node">
<title>org.glassfish.mq:mq&#45;partition</title>
<polygon fill="wheat" stroke="black" points="588,-468 514,-468 514,-432 588,-432 588,-468"/>
<text text-anchor="middle" x="551" y="-452.6" font-family="Helvetica" font-size="8.00">mq&#45;partition</text>
<text text-anchor="middle" x="551" y="-443.6" font-family="Helvetica" font-size="8.00">org.glassfish.mq</text>
</g>
<!-- org.glassfish.mq:mq&#45;partition&#45;&gt;org.glassfish.mq:mq&#45;broker -->
<g id="edge43" class="edge">
<title>org.glassfish.mq:mq&#45;partition&#45;&gt;org.glassfish.mq:mq&#45;broker</title>
<path fill="none" stroke="black" d="M514.2,-468.04C509.03,-470.91 503.82,-473.94 499,-477 482.11,-487.71 479.97,-493.42 463,-504 460.41,-505.61 457.71,-507.21 454.97,-508.78"/>
<polygon fill="black" stroke="black" points="453.17,-505.78 446.1,-513.67 456.55,-511.91 453.17,-505.78"/>
</g>
<!-- org.glassfish.mq:mqpartition&#45;persist&#45;api -->
<g id="node45" class="node">
<title>org.glassfish.mq:mqpartition&#45;persist&#45;api</title>
<polygon fill="lightgrey" stroke="black" points="736.5,-495 641.5,-495 641.5,-459 736.5,-459 736.5,-495"/>
<text text-anchor="middle" x="689" y="-479.6" font-family="Helvetica" font-size="8.00">mqpartition&#45;persist&#45;api</text>
<text text-anchor="middle" x="689" y="-470.6" font-family="Helvetica" font-size="8.00">org.glassfish.mq</text>
</g>
<!-- org.glassfish.mq:mqpartition&#45;persist&#45;api&#45;&gt;org.glassfish.mq:mq&#45;partition -->
<g id="edge44" class="edge">
<title>org.glassfish.mq:mqpartition&#45;persist&#45;api&#45;&gt;org.glassfish.mq:mq&#45;partition</title>
<path fill="none" stroke="black" d="M641.2,-467.71C627.22,-464.93 611.92,-461.9 598,-459.13"/>
<polygon fill="black" stroke="black" points="598.64,-455.69 588.15,-457.18 597.27,-462.56 598.64,-455.69"/>
</g>
<!-- org.glassfish.mq:mqpartition&#45;persist&#45;jdbc -->
<g id="node46" class="node">
<title>org.glassfish.mq:mqpartition&#45;persist&#45;jdbc</title>
<polygon fill="lightgrey" stroke="black" points="739,-441 639,-441 639,-405 739,-405 739,-441"/>
<text text-anchor="middle" x="689" y="-425.6" font-family="Helvetica" font-size="8.00">mqpartition&#45;persist&#45;jdbc</text>
<text text-anchor="middle" x="689" y="-416.6" font-family="Helvetica" font-size="8.00">org.glassfish.mq</text>
</g>
<!-- org.glassfish.mq:mqpartition&#45;persist&#45;jdbc&#45;&gt;org.glassfish.mq:mq&#45;partition -->
<g id="edge45" class="edge">
<title>org.glassfish.mq:mqpartition&#45;persist&#45;jdbc&#45;&gt;org.glassfish.mq:mq&#45;partition</title>
<path fill="none" stroke="black" d="M638.9,-432.75C625.69,-435.37 611.45,-438.2 598.4,-440.79"/>
<polygon fill="black" stroke="black" points="597.35,-437.43 588.22,-442.81 598.71,-444.29 597.35,-437.43"/>
</g>
<!-- org.glassfish.mq:mqadmin&#45;gui -->
<g id="node47" class="node">
<title>org.glassfish.mq:mqadmin&#45;gui</title>
<polygon fill="lightgrey" stroke="black" points="588,-36 514,-36 514,0 588,0 588,-36"/>
<text text-anchor="middle" x="551" y="-20.6" font-family="Helvetica" font-size="8.00">mqadmin&#45;gui</text>
<text text-anchor="middle" x="551" y="-11.6" font-family="Helvetica" font-size="8.00">org.glassfish.mq</text>
</g>
<!-- org.glassfish.mq:mqadmin&#45;gui&#45;&gt;org.glassfish.mq:mq&#45;admin -->
<g id="edge46" class="edge">
<title>org.glassfish.mq:mqadmin&#45;gui&#45;&gt;org.glassfish.mq:mq&#45;admin</title>
<path fill="none" stroke="black" d="M514.2,-36.04C509.03,-38.91 503.82,-41.94 499,-45 482.11,-55.71 479.97,-61.42 463,-72 460.41,-73.61 457.71,-75.21 454.97,-76.78"/>
<polygon fill="black" stroke="black" points="453.17,-73.78 446.1,-81.67 456.55,-79.91 453.17,-73.78"/>
</g>
<!-- org.glassfish.mq:mq&#45;packager&#45;opensource -->
<g id="node48" class="node">
<title>org.glassfish.mq:mq&#45;packager&#45;opensource</title>
<polygon fill="lightgrey" stroke="black" points="463,-63 355,-63 355,-27 463,-27 463,-63"/>
<text text-anchor="middle" x="409" y="-47.6" font-family="Helvetica" font-size="8.00">mq&#45;packager&#45;opensource</text>
<text text-anchor="middle" x="409" y="-38.6" font-family="Helvetica" font-size="8.00">org.glassfish.mq</text>
</g>
<!-- org.glassfish.mq:mq&#45;packager&#45;opensource&#45;&gt;org.glassfish.mq:mq -->
<g id="edge47" class="edge">
<title>org.glassfish.mq:mq&#45;packager&#45;opensource&#45;&gt;org.glassfish.mq:mq</title>
<path fill="none" stroke="black" d="M362.9,-63.29C359.88,-65.85 357.18,-68.74 355,-72 298.17,-157.08 368.6,-441.51 319,-531 318.89,-531.2 318.78,-531.4 318.66,-531.59"/>
<polygon fill="black" stroke="black" points="315.73,-529.67 312.34,-539.7 321.25,-533.97 315.73,-529.67"/>
</g>
<!-- org.glassfish.mq:main&#45;aggregator -->
<g id="node49" class="node">
<title>org.glassfish.mq:main&#45;aggregator</title>
<polygon fill="wheat" stroke="black" points="319,-522 244,-522 244,-486 319,-486 319,-522"/>
<text text-anchor="middle" x="281.5" y="-506.6" font-family="Helvetica" font-size="8.00">main&#45;aggregator</text>
<text text-anchor="middle" x="281.5" y="-497.6" font-family="Helvetica" font-size="8.00">org.glassfish.mq</text>
</g>
<!-- org.glassfish.mq:main&#45;aggregator&#45;&gt;org.glassfish.mq:project -->
<g id="edge48" class="edge">
<title>org.glassfish.mq:main&#45;aggregator&#45;&gt;org.glassfish.mq:project</title>
<path fill="none" stroke="black" d="M244.07,-522.13C235.48,-526.41 226.22,-531.02 217.29,-535.46"/>
<polygon fill="black" stroke="black" points="215.54,-532.42 208.15,-540.01 218.66,-538.69 215.54,-532.42"/>
</g>
<!-- org.glassfish.mq:mq&#45;distribution -->
<g id="node50" class="node">
<title>org.glassfish.mq:mq&#45;distribution</title>
<polygon fill="lightgrey" stroke="black" points="208,-630 134,-630 134,-594 208,-594 208,-630"/>
<text text-anchor="middle" x="171" y="-614.6" font-family="Helvetica" font-size="8.00">mq&#45;distribution</text>
<text text-anchor="middle" x="171" y="-605.6" font-family="Helvetica" font-size="8.00">org.glassfish.mq</text>
</g>
<!-- org.glassfish.mq:mq&#45;distribution&#45;&gt;org.eclipse.ee4j:project -->
<g id="edge49" class="edge">
<title>org.glassfish.mq:mq&#45;distribution&#45;&gt;org.eclipse.ee4j:project</title>
<path fill="none" stroke="black" d="M134,-603.9C125.87,-602.07 117.04,-600.08 108.26,-598.11"/>
<polygon fill="black" stroke="black" points="108.94,-594.67 98.41,-595.89 107.4,-601.5 108.94,-594.67"/>
</g>
</g>
</svg>
