<?xml version="1.0" encoding="UTF-8" standalone="no"?>
<!DOCTYPE svg PUBLIC "-//W3C//DTD SVG 1.1//EN"
 "http://www.w3.org/Graphics/SVG/1.1/DTD/svg11.dtd">
<!-- Generated by graphviz version 2.42.4 (0)
 -->
<!-- Title: csi Pages: 1 -->
<svg width="705pt" height="1070pt"
 viewBox="0.00 0.00 705.00 1070.00" xmlns="http://www.w3.org/2000/svg" xmlns:xlink="http://www.w3.org/1999/xlink">
<g id="graph0" class="graph" transform="scale(1 1) rotate(0) translate(4 1066)">
<title>csi</title>
<polygon fill="white" stroke="transparent" points="-4,4 -4,-1066 701,-1066 701,4 -4,4"/>
<!-- org.glassfish.mq:mq -->
<g id="node1" class="node">
<title>org.glassfish.mq:mq</title>
<polygon fill="wheat" stroke="black" points="233,-630 149,-630 149,-594 233,-594 233,-630"/>
<text text-anchor="middle" x="191" y="-614.6" font-family="Helvetica,sans-Serif" font-size="8.00">mq</text>
<text text-anchor="middle" x="191" y="-605.6" font-family="Helvetica,sans-Serif" font-size="8.00">org.glassfish.mq</text>
</g>
<!-- org.eclipse.ee4j:project -->
<g id="node2" class="node">
<title>org.eclipse.ee4j:project</title>
<polygon fill="lightgrey" stroke="black" points="113,-630 0,-630 0,-594 113,-594 113,-630"/>
<text text-anchor="middle" x="56.5" y="-610.1" font-family="Helvetica,sans-Serif" font-size="8.00">org.eclipse.ee4j:project</text>
</g>
<!-- org.glassfish.mq:mq&#45;&gt;org.eclipse.ee4j:project -->
<g id="edge1" class="edge">
<title>org.glassfish.mq:mq&#45;&gt;org.eclipse.ee4j:project</title>
<path fill="none" stroke="black" d="M148.8,-612C140.72,-612 132.06,-612 123.4,-612"/>
<polygon fill="black" stroke="black" points="123.28,-608.5 113.28,-612 123.28,-615.5 123.28,-608.5"/>
</g>
<!-- org.glassfish.mq:mqcomm&#45;util -->
<g id="node3" class="node">
<title>org.glassfish.mq:mqcomm&#45;util</title>
<polygon fill="lightgrey" stroke="black" points="372,-1062 288,-1062 288,-1026 372,-1026 372,-1062"/>
<text text-anchor="middle" x="330" y="-1046.6" font-family="Helvetica,sans-Serif" font-size="8.00">mqcomm&#45;util</text>
<text text-anchor="middle" x="330" y="-1037.6" font-family="Helvetica,sans-Serif" font-size="8.00">org.glassfish.mq</text>
</g>
<!-- org.glassfish.mq:mqcomm&#45;util&#45;&gt;org.glassfish.mq:mq -->
<g id="edge2" class="edge">
<title>org.glassfish.mq:mqcomm&#45;util&#45;&gt;org.glassfish.mq:mq</title>
<path fill="none" stroke="black" d="M287.85,-1031.89C280.68,-1028.14 273.95,-1023.28 269,-1017 222.33,-957.84 200.34,-722.04 194.01,-640.17"/>
<polygon fill="black" stroke="black" points="197.49,-639.82 193.25,-630.11 190.51,-640.34 197.49,-639.82"/>
</g>
<!-- org.glassfish.mq:mqcomm&#45;io -->
<g id="node4" class="node">
<title>org.glassfish.mq:mqcomm&#45;io</title>
<polygon fill="lightgrey" stroke="black" points="372,-1008 288,-1008 288,-972 372,-972 372,-1008"/>
<text text-anchor="middle" x="330" y="-992.6" font-family="Helvetica,sans-Serif" font-size="8.00">mqcomm&#45;io</text>
<text text-anchor="middle" x="330" y="-983.6" font-family="Helvetica,sans-Serif" font-size="8.00">org.glassfish.mq</text>
</g>
<!-- org.glassfish.mq:mqcomm&#45;io&#45;&gt;org.glassfish.mq:mq -->
<g id="edge3" class="edge">
<title>org.glassfish.mq:mqcomm&#45;io&#45;&gt;org.glassfish.mq:mq</title>
<path fill="none" stroke="black" d="M287.99,-977.78C280.81,-974.04 274.04,-969.21 269,-963 228.33,-912.91 203.12,-714.65 194.93,-640.33"/>
<polygon fill="black" stroke="black" points="198.4,-639.86 193.85,-630.3 191.44,-640.62 198.4,-639.86"/>
</g>
<!-- org.glassfish.mq:mq&#45;share -->
<g id="node5" class="node">
<title>org.glassfish.mq:mq&#45;share</title>
<polygon fill="lightgrey" stroke="black" points="372,-954 288,-954 288,-918 372,-918 372,-954"/>
<text text-anchor="middle" x="330" y="-938.6" font-family="Helvetica,sans-Serif" font-size="8.00">mq&#45;share</text>
<text text-anchor="middle" x="330" y="-929.6" font-family="Helvetica,sans-Serif" font-size="8.00">org.glassfish.mq</text>
</g>
<!-- org.glassfish.mq:mq&#45;share&#45;&gt;org.glassfish.mq:mq -->
<g id="edge4" class="edge">
<title>org.glassfish.mq:mq&#45;share&#45;&gt;org.glassfish.mq:mq</title>
<path fill="none" stroke="black" d="M287.86,-923.47C280.78,-919.76 274.08,-915.02 269,-909 201.72,-829.25 192.32,-697.67 191.61,-640.26"/>
<polygon fill="black" stroke="black" points="195.11,-640.1 191.57,-630.11 188.11,-640.13 195.11,-640.1"/>
</g>
<!-- org.glassfish.mq:mq&#45;logger -->
<g id="node6" class="node">
<title>org.glassfish.mq:mq&#45;logger</title>
<polygon fill="lightgrey" stroke="black" points="372,-900 288,-900 288,-864 372,-864 372,-900"/>
<text text-anchor="middle" x="330" y="-884.6" font-family="Helvetica,sans-Serif" font-size="8.00">mq&#45;logger</text>
<text text-anchor="middle" x="330" y="-875.6" font-family="Helvetica,sans-Serif" font-size="8.00">org.glassfish.mq</text>
</g>
<!-- org.glassfish.mq:mq&#45;logger&#45;&gt;org.glassfish.mq:mq -->
<g id="edge5" class="edge">
<title>org.glassfish.mq:mq&#45;logger&#45;&gt;org.glassfish.mq:mq</title>
<path fill="none" stroke="black" d="M287.81,-869.09C280.82,-865.43 274.16,-860.8 269,-855 213.35,-792.49 197.9,-689.72 193.63,-640.29"/>
<polygon fill="black" stroke="black" points="197.11,-640.01 192.85,-630.31 190.13,-640.55 197.11,-640.01"/>
</g>
<!-- org.glassfish.mq:mqjmx&#45;api -->
<g id="node7" class="node">
<title>org.glassfish.mq:mqjmx&#45;api</title>
<polygon fill="lightgrey" stroke="black" points="372,-846 288,-846 288,-810 372,-810 372,-846"/>
<text text-anchor="middle" x="330" y="-830.6" font-family="Helvetica,sans-Serif" font-size="8.00">mqjmx&#45;api</text>
<text text-anchor="middle" x="330" y="-821.6" font-family="Helvetica,sans-Serif" font-size="8.00">org.glassfish.mq</text>
</g>
<!-- org.glassfish.mq:mqjmx&#45;api&#45;&gt;org.glassfish.mq:mq -->
<g id="edge6" class="edge">
<title>org.glassfish.mq:mqjmx&#45;api&#45;&gt;org.glassfish.mq:mq</title>
<path fill="none" stroke="black" d="M287.87,-814.59C280.96,-810.98 274.31,-806.51 269,-801 224.74,-755.12 204.66,-680.37 196.63,-640"/>
<polygon fill="black" stroke="black" points="200.05,-639.22 194.76,-630.04 193.17,-640.52 200.05,-639.22"/>
</g>
<!-- org.glassfish.mq:http&#45;tunnel -->
<g id="node8" class="node">
<title>org.glassfish.mq:http&#45;tunnel</title>
<polygon fill="wheat" stroke="black" points="372,-792 288,-792 288,-756 372,-756 372,-792"/>
<text text-anchor="middle" x="330" y="-776.6" font-family="Helvetica,sans-Serif" font-size="8.00">http&#45;tunnel</text>
<text text-anchor="middle" x="330" y="-767.6" font-family="Helvetica,sans-Serif" font-size="8.00">org.glassfish.mq</text>
</g>
<!-- org.glassfish.mq:http&#45;tunnel&#45;&gt;org.glassfish.mq:mq -->
<g id="edge7" class="edge">
<title>org.glassfish.mq:http&#45;tunnel&#45;&gt;org.glassfish.mq:mq</title>
<path fill="none" stroke="black" d="M287.82,-759.68C281.07,-756.19 274.49,-751.99 269,-747 235.99,-717 213.5,-669.45 201.72,-639.53"/>
<polygon fill="black" stroke="black" points="204.96,-638.21 198.13,-630.11 198.42,-640.7 204.96,-638.21"/>
</g>
<!-- org.glassfish.mq:mqhttp&#45;tunnel&#45;api&#45;share -->
<g id="node9" class="node">
<title>org.glassfish.mq:mqhttp&#45;tunnel&#45;api&#45;share</title>
<polygon fill="lightgrey" stroke="black" points="544.5,-1008 428.5,-1008 428.5,-972 544.5,-972 544.5,-1008"/>
<text text-anchor="middle" x="486.5" y="-992.6" font-family="Helvetica,sans-Serif" font-size="8.00">mqhttp&#45;tunnel&#45;api&#45;share</text>
<text text-anchor="middle" x="486.5" y="-983.6" font-family="Helvetica,sans-Serif" font-size="8.00">org.glassfish.mq</text>
</g>
<!-- org.glassfish.mq:mqhttp&#45;tunnel&#45;api&#45;share&#45;&gt;org.glassfish.mq:http&#45;tunnel -->
<g id="edge8" class="edge">
<title>org.glassfish.mq:mqhttp&#45;tunnel&#45;api&#45;share&#45;&gt;org.glassfish.mq:http&#45;tunnel</title>
<path fill="none" stroke="black" d="M436.29,-971.81C432.83,-969.23 429.67,-966.31 427,-963 380.71,-905.58 437.57,-858.2 391,-801 388.08,-797.42 384.59,-794.29 380.77,-791.57"/>
<polygon fill="black" stroke="black" points="382.36,-788.44 372,-786.23 378.72,-794.42 382.36,-788.44"/>
</g>
<!-- org.glassfish.mq:mqhttp&#45;tunnel&#45;api&#45;server -->
<g id="node10" class="node">
<title>org.glassfish.mq:mqhttp&#45;tunnel&#45;api&#45;server</title>
<polygon fill="lightgrey" stroke="black" points="546,-954 427,-954 427,-918 546,-918 546,-954"/>
<text text-anchor="middle" x="486.5" y="-938.6" font-family="Helvetica,sans-Serif" font-size="8.00">mqhttp&#45;tunnel&#45;api&#45;server</text>
<text text-anchor="middle" x="486.5" y="-929.6" font-family="Helvetica,sans-Serif" font-size="8.00">org.glassfish.mq</text>
</g>
<!-- org.glassfish.mq:mqhttp&#45;tunnel&#45;api&#45;server&#45;&gt;org.glassfish.mq:http&#45;tunnel -->
<g id="edge9" class="edge">
<title>org.glassfish.mq:mqhttp&#45;tunnel&#45;api&#45;server&#45;&gt;org.glassfish.mq:http&#45;tunnel</title>
<path fill="none" stroke="black" d="M437.21,-917.89C433.46,-915.29 429.98,-912.33 427,-909 393.26,-871.3 424.92,-838.54 391,-801 387.99,-797.67 384.49,-794.72 380.72,-792.12"/>
<polygon fill="black" stroke="black" points="382.5,-789.11 372.12,-786.97 378.9,-795.12 382.5,-789.11"/>
</g>
<!-- org.glassfish.mq:mqhttp&#45;tunnel -->
<g id="node11" class="node">
<title>org.glassfish.mq:mqhttp&#45;tunnel</title>
<polygon fill="lightgrey" stroke="black" points="528.5,-900 444.5,-900 444.5,-864 528.5,-864 528.5,-900"/>
<text text-anchor="middle" x="486.5" y="-884.6" font-family="Helvetica,sans-Serif" font-size="8.00">mqhttp&#45;tunnel</text>
<text text-anchor="middle" x="486.5" y="-875.6" font-family="Helvetica,sans-Serif" font-size="8.00">org.glassfish.mq</text>
</g>
<!-- org.glassfish.mq:mqhttp&#45;tunnel&#45;&gt;org.glassfish.mq:http&#45;tunnel -->
<g id="edge10" class="edge">
<title>org.glassfish.mq:mqhttp&#45;tunnel&#45;&gt;org.glassfish.mq:http&#45;tunnel</title>
<path fill="none" stroke="black" d="M444.41,-866.59C438.22,-863.29 432.19,-859.44 427,-855 405.08,-836.25 413.01,-819.64 391,-801 387.95,-798.42 384.61,-796.03 381.12,-793.85"/>
<polygon fill="black" stroke="black" points="382.64,-790.68 372.21,-788.81 379.19,-796.78 382.64,-790.68"/>
</g>
<!-- org.glassfish.mq:mqjaxm&#45;api -->
<g id="node12" class="node">
<title>org.glassfish.mq:mqjaxm&#45;api</title>
<polygon fill="lightgrey" stroke="black" points="372,-738 288,-738 288,-702 372,-702 372,-738"/>
<text text-anchor="middle" x="330" y="-722.6" font-family="Helvetica,sans-Serif" font-size="8.00">mqjaxm&#45;api</text>
<text text-anchor="middle" x="330" y="-713.6" font-family="Helvetica,sans-Serif" font-size="8.00">org.glassfish.mq</text>
</g>
<!-- org.glassfish.mq:mqjaxm&#45;api&#45;&gt;org.glassfish.mq:mq -->
<g id="edge11" class="edge">
<title>org.glassfish.mq:mqjaxm&#45;api&#45;&gt;org.glassfish.mq:mq</title>
<path fill="none" stroke="black" d="M287.81,-704.04C281.28,-700.79 274.78,-697.1 269,-693 247.24,-677.57 226.64,-655.35 212.23,-638.08"/>
<polygon fill="black" stroke="black" points="214.72,-635.59 205.68,-630.05 209.29,-640.01 214.72,-635.59"/>
</g>
<!-- org.glassfish.mq:mq&#45;direct -->
<g id="node13" class="node">
<title>org.glassfish.mq:mq&#45;direct</title>
<polygon fill="lightgrey" stroke="black" points="372,-684 288,-684 288,-648 372,-648 372,-684"/>
<text text-anchor="middle" x="330" y="-668.6" font-family="Helvetica,sans-Serif" font-size="8.00">mq&#45;direct</text>
<text text-anchor="middle" x="330" y="-659.6" font-family="Helvetica,sans-Serif" font-size="8.00">org.glassfish.mq</text>
</g>
<!-- org.glassfish.mq:mq&#45;direct&#45;&gt;org.glassfish.mq:mq -->
<g id="edge12" class="edge">
<title>org.glassfish.mq:mq&#45;direct&#45;&gt;org.glassfish.mq:mq</title>
<path fill="none" stroke="black" d="M287.9,-649.8C273.67,-644.19 257.56,-637.84 242.66,-631.97"/>
<polygon fill="black" stroke="black" points="243.66,-628.6 233.08,-628.19 241.1,-635.11 243.66,-628.6"/>
</g>
<!-- org.glassfish.mq:persist -->
<g id="node14" class="node">
<title>org.glassfish.mq:persist</title>
<polygon fill="wheat" stroke="black" points="372,-630 288,-630 288,-594 372,-594 372,-630"/>
<text text-anchor="middle" x="330" y="-614.6" font-family="Helvetica,sans-Serif" font-size="8.00">persist</text>
<text text-anchor="middle" x="330" y="-605.6" font-family="Helvetica,sans-Serif" font-size="8.00">org.glassfish.mq</text>
</g>
<!-- org.glassfish.mq:persist&#45;&gt;org.glassfish.mq:mq -->
<g id="edge13" class="edge">
<title>org.glassfish.mq:persist&#45;&gt;org.glassfish.mq:mq</title>
<path fill="none" stroke="black" d="M287.9,-612C273.81,-612 257.87,-612 243.09,-612"/>
<polygon fill="black" stroke="black" points="243.08,-608.5 233.08,-612 243.08,-615.5 243.08,-608.5"/>
</g>
<!-- org.glassfish.mq:mq&#45;txnlog -->
<g id="node15" class="node">
<title>org.glassfish.mq:mq&#45;txnlog</title>
<polygon fill="lightgrey" stroke="black" points="528.5,-846 444.5,-846 444.5,-810 528.5,-810 528.5,-846"/>
<text text-anchor="middle" x="486.5" y="-830.6" font-family="Helvetica,sans-Serif" font-size="8.00">mq&#45;txnlog</text>
<text text-anchor="middle" x="486.5" y="-821.6" font-family="Helvetica,sans-Serif" font-size="8.00">org.glassfish.mq</text>
</g>
<!-- org.glassfish.mq:mq&#45;txnlog&#45;&gt;org.glassfish.mq:persist -->
<g id="edge14" class="edge">
<title>org.glassfish.mq:mq&#45;txnlog&#45;&gt;org.glassfish.mq:persist</title>
<path fill="none" stroke="black" d="M444.32,-814.96C437.77,-811.33 431.63,-806.75 427,-801 380.71,-743.58 437.57,-696.2 391,-639 388.08,-635.42 384.59,-632.29 380.77,-629.57"/>
<polygon fill="black" stroke="black" points="382.36,-626.44 372,-624.23 378.72,-632.42 382.36,-626.44"/>
</g>
<!-- org.glassfish.mq:mq&#45;broker -->
<g id="node16" class="node">
<title>org.glassfish.mq:mq&#45;broker</title>
<polygon fill="wheat" stroke="black" points="372,-576 288,-576 288,-540 372,-540 372,-576"/>
<text text-anchor="middle" x="330" y="-560.6" font-family="Helvetica,sans-Serif" font-size="8.00">mq&#45;broker</text>
<text text-anchor="middle" x="330" y="-551.6" font-family="Helvetica,sans-Serif" font-size="8.00">org.glassfish.mq</text>
</g>
<!-- org.glassfish.mq:mq&#45;broker&#45;&gt;org.glassfish.mq:mq -->
<g id="edge15" class="edge">
<title>org.glassfish.mq:mq&#45;broker&#45;&gt;org.glassfish.mq:mq</title>
<path fill="none" stroke="black" d="M287.9,-574.2C273.67,-579.81 257.56,-586.16 242.66,-592.03"/>
<polygon fill="black" stroke="black" points="241.1,-588.89 233.08,-595.81 243.66,-595.4 241.1,-588.89"/>
</g>
<!-- org.glassfish.mq:mqbroker&#45;comm -->
<g id="node17" class="node">
<title>org.glassfish.mq:mqbroker&#45;comm</title>
<polygon fill="lightgrey" stroke="black" points="528.5,-738 444.5,-738 444.5,-702 528.5,-702 528.5,-738"/>
<text text-anchor="middle" x="486.5" y="-722.6" font-family="Helvetica,sans-Serif" font-size="8.00">mqbroker&#45;comm</text>
<text text-anchor="middle" x="486.5" y="-713.6" font-family="Helvetica,sans-Serif" font-size="8.00">org.glassfish.mq</text>
</g>
<!-- org.glassfish.mq:mqbroker&#45;comm&#45;&gt;org.glassfish.mq:mq&#45;broker -->
<g id="edge16" class="edge">
<title>org.glassfish.mq:mqbroker&#45;comm&#45;&gt;org.glassfish.mq:mq&#45;broker</title>
<path fill="none" stroke="black" d="M444.5,-706.39C438.01,-702.82 431.85,-698.42 427,-693 393.26,-655.3 424.92,-622.54 391,-585 387.99,-581.67 384.49,-578.72 380.72,-576.12"/>
<polygon fill="black" stroke="black" points="382.5,-573.11 372.12,-570.97 378.9,-579.12 382.5,-573.11"/>
</g>
<!-- org.glassfish.mq:mq&#45;portunif -->
<g id="node18" class="node">
<title>org.glassfish.mq:mq&#45;portunif</title>
<polygon fill="lightgrey" stroke="black" points="372,-522 288,-522 288,-486 372,-486 372,-522"/>
<text text-anchor="middle" x="330" y="-506.6" font-family="Helvetica,sans-Serif" font-size="8.00">mq&#45;portunif</text>
<text text-anchor="middle" x="330" y="-497.6" font-family="Helvetica,sans-Serif" font-size="8.00">org.glassfish.mq</text>
</g>
<!-- org.glassfish.mq:mq&#45;portunif&#45;&gt;org.glassfish.mq:mq -->
<g id="edge17" class="edge">
<title>org.glassfish.mq:mq&#45;portunif&#45;&gt;org.glassfish.mq:mq</title>
<path fill="none" stroke="black" d="M287.81,-519.96C281.28,-523.21 274.78,-526.9 269,-531 247.24,-546.43 226.64,-568.65 212.23,-585.92"/>
<polygon fill="black" stroke="black" points="209.29,-583.99 205.68,-593.95 214.72,-588.41 209.29,-583.99"/>
</g>
<!-- org.glassfish.mq:bridge -->
<g id="node19" class="node">
<title>org.glassfish.mq:bridge</title>
<polygon fill="wheat" stroke="black" points="372,-387 288,-387 288,-351 372,-351 372,-387"/>
<text text-anchor="middle" x="330" y="-371.6" font-family="Helvetica,sans-Serif" font-size="8.00">bridge</text>
<text text-anchor="middle" x="330" y="-362.6" font-family="Helvetica,sans-Serif" font-size="8.00">org.glassfish.mq</text>
</g>
<!-- org.glassfish.mq:bridge&#45;&gt;org.glassfish.mq:mq -->
<g id="edge18" class="edge">
<title>org.glassfish.mq:bridge&#45;&gt;org.glassfish.mq:mq</title>
<path fill="none" stroke="black" d="M318.7,-387.26C294.79,-429.67 235.41,-535 207.26,-584.92"/>
<polygon fill="black" stroke="black" points="204.09,-583.43 202.23,-593.86 210.19,-586.86 204.09,-583.43"/>
</g>
<!-- org.glassfish.mq:mqbridge&#45;api -->
<g id="node20" class="node">
<title>org.glassfish.mq:mqbridge&#45;api</title>
<polygon fill="lightgrey" stroke="black" points="528.5,-414 444.5,-414 444.5,-378 528.5,-378 528.5,-414"/>
<text text-anchor="middle" x="486.5" y="-398.6" font-family="Helvetica,sans-Serif" font-size="8.00">mqbridge&#45;api</text>
<text text-anchor="middle" x="486.5" y="-389.6" font-family="Helvetica,sans-Serif" font-size="8.00">org.glassfish.mq</text>
</g>
<!-- org.glassfish.mq:mqbridge&#45;api&#45;&gt;org.glassfish.mq:bridge -->
<g id="edge19" class="edge">
<title>org.glassfish.mq:mqbridge&#45;api&#45;&gt;org.glassfish.mq:bridge</title>
<path fill="none" stroke="black" d="M444.1,-388.76C425.06,-385.44 402.28,-381.46 382.18,-377.94"/>
<polygon fill="black" stroke="black" points="382.7,-374.48 372.25,-376.21 381.5,-381.38 382.7,-374.48"/>
</g>
<!-- org.glassfish.mq:mqbroker&#45;core -->
<g id="node21" class="node">
<title>org.glassfish.mq:mqbroker&#45;core</title>
<polygon fill="lightgrey" stroke="black" points="528.5,-684 444.5,-684 444.5,-648 528.5,-648 528.5,-684"/>
<text text-anchor="middle" x="486.5" y="-668.6" font-family="Helvetica,sans-Serif" font-size="8.00">mqbroker&#45;core</text>
<text text-anchor="middle" x="486.5" y="-659.6" font-family="Helvetica,sans-Serif" font-size="8.00">org.glassfish.mq</text>
</g>
<!-- org.glassfish.mq:mqbroker&#45;core&#45;&gt;org.glassfish.mq:mq&#45;broker -->
<g id="edge20" class="edge">
<title>org.glassfish.mq:mqbroker&#45;core&#45;&gt;org.glassfish.mq:mq&#45;broker</title>
<path fill="none" stroke="black" d="M444.41,-650.59C438.22,-647.29 432.19,-643.44 427,-639 405.08,-620.25 413.01,-603.64 391,-585 387.95,-582.42 384.61,-580.03 381.12,-577.85"/>
<polygon fill="black" stroke="black" points="382.64,-574.68 372.21,-572.81 379.19,-580.78 382.64,-574.68"/>
</g>
<!-- org.glassfish.mq:jmsra -->
<g id="node22" class="node">
<title>org.glassfish.mq:jmsra</title>
<polygon fill="wheat" stroke="black" points="372,-333 288,-333 288,-297 372,-297 372,-333"/>
<text text-anchor="middle" x="330" y="-317.6" font-family="Helvetica,sans-Serif" font-size="8.00">jmsra</text>
<text text-anchor="middle" x="330" y="-308.6" font-family="Helvetica,sans-Serif" font-size="8.00">org.glassfish.mq</text>
</g>
<!-- org.glassfish.mq:jmsra&#45;&gt;org.glassfish.mq:mq -->
<g id="edge21" class="edge">
<title>org.glassfish.mq:jmsra&#45;&gt;org.glassfish.mq:mq</title>
<path fill="none" stroke="black" d="M287.98,-327.63C280.89,-331.33 274.15,-336.04 269,-342 207.56,-413.06 194.99,-530.15 192.53,-583.69"/>
<polygon fill="black" stroke="black" points="189.02,-583.69 192.15,-593.82 196.02,-583.95 189.02,-583.69"/>
</g>
<!-- org.glassfish.mq:mqjmsra&#45;api -->
<g id="node23" class="node">
<title>org.glassfish.mq:mqjmsra&#45;api</title>
<polygon fill="lightgrey" stroke="black" points="528.5,-198 444.5,-198 444.5,-162 528.5,-162 528.5,-198"/>
<text text-anchor="middle" x="486.5" y="-182.6" font-family="Helvetica,sans-Serif" font-size="8.00">mqjmsra&#45;api</text>
<text text-anchor="middle" x="486.5" y="-173.6" font-family="Helvetica,sans-Serif" font-size="8.00">org.glassfish.mq</text>
</g>
<!-- org.glassfish.mq:mqjmsra&#45;api&#45;&gt;org.glassfish.mq:jmsra -->
<g id="edge22" class="edge">
<title>org.glassfish.mq:mqjmsra&#45;api&#45;&gt;org.glassfish.mq:jmsra</title>
<path fill="none" stroke="black" d="M444.32,-194.34C438,-197.8 431.95,-201.98 427,-207 399.34,-235.05 418.79,-260.08 391,-288 388.01,-291.01 384.62,-293.71 381.02,-296.13"/>
<polygon fill="black" stroke="black" points="379.13,-293.18 372.3,-301.29 382.69,-299.21 379.13,-293.18"/>
</g>
<!-- org.glassfish.mq:mq&#45;client -->
<g id="node24" class="node">
<title>org.glassfish.mq:mq&#45;client</title>
<polygon fill="lightgrey" stroke="black" points="372,-279 288,-279 288,-243 372,-243 372,-279"/>
<text text-anchor="middle" x="330" y="-263.6" font-family="Helvetica,sans-Serif" font-size="8.00">mq&#45;client</text>
<text text-anchor="middle" x="330" y="-254.6" font-family="Helvetica,sans-Serif" font-size="8.00">org.glassfish.mq</text>
</g>
<!-- org.glassfish.mq:mq&#45;client&#45;&gt;org.glassfish.mq:mq -->
<g id="edge23" class="edge">
<title>org.glassfish.mq:mq&#45;client&#45;&gt;org.glassfish.mq:mq</title>
<path fill="none" stroke="black" d="M287.76,-273.45C280.69,-277.16 274.02,-281.92 269,-288 231.33,-333.58 204.7,-513.19 195.51,-583.53"/>
<polygon fill="black" stroke="black" points="191.99,-583.48 194.19,-593.84 198.94,-584.37 191.99,-583.48"/>
</g>
<!-- org.glassfish.mq:mq&#45;ums -->
<g id="node25" class="node">
<title>org.glassfish.mq:mq&#45;ums</title>
<polygon fill="lightgrey" stroke="black" points="372,-225 288,-225 288,-189 372,-189 372,-225"/>
<text text-anchor="middle" x="330" y="-209.6" font-family="Helvetica,sans-Serif" font-size="8.00">mq&#45;ums</text>
<text text-anchor="middle" x="330" y="-200.6" font-family="Helvetica,sans-Serif" font-size="8.00">org.glassfish.mq</text>
</g>
<!-- org.glassfish.mq:mq&#45;ums&#45;&gt;org.glassfish.mq:mq -->
<g id="edge24" class="edge">
<title>org.glassfish.mq:mq&#45;ums&#45;&gt;org.glassfish.mq:mq</title>
<path fill="none" stroke="black" d="M287.91,-219.16C280.74,-222.91 273.99,-227.75 269,-234 225.36,-288.58 201.7,-505.36 194.45,-583.63"/>
<polygon fill="black" stroke="black" points="190.95,-583.45 193.53,-593.72 197.92,-584.08 190.95,-583.45"/>
</g>
<!-- org.glassfish.mq:mqdisk&#45;io -->
<g id="node26" class="node">
<title>org.glassfish.mq:mqdisk&#45;io</title>
<polygon fill="lightgrey" stroke="black" points="528.5,-792 444.5,-792 444.5,-756 528.5,-756 528.5,-792"/>
<text text-anchor="middle" x="486.5" y="-776.6" font-family="Helvetica,sans-Serif" font-size="8.00">mqdisk&#45;io</text>
<text text-anchor="middle" x="486.5" y="-767.6" font-family="Helvetica,sans-Serif" font-size="8.00">org.glassfish.mq</text>
</g>
<!-- org.glassfish.mq:mqdisk&#45;io&#45;&gt;org.glassfish.mq:persist -->
<g id="edge25" class="edge">
<title>org.glassfish.mq:mqdisk&#45;io&#45;&gt;org.glassfish.mq:persist</title>
<path fill="none" stroke="black" d="M444.5,-760.39C438.01,-756.82 431.85,-752.42 427,-747 393.26,-709.3 424.92,-676.54 391,-639 387.99,-635.67 384.49,-632.72 380.72,-630.12"/>
<polygon fill="black" stroke="black" points="382.5,-627.11 372.12,-624.97 378.9,-633.12 382.5,-627.11"/>
</g>
<!-- org.glassfish.mq:mq&#45;admin -->
<g id="node27" class="node">
<title>org.glassfish.mq:mq&#45;admin</title>
<polygon fill="wheat" stroke="black" points="372,-117 288,-117 288,-81 372,-81 372,-117"/>
<text text-anchor="middle" x="330" y="-101.6" font-family="Helvetica,sans-Serif" font-size="8.00">mq&#45;admin</text>
<text text-anchor="middle" x="330" y="-92.6" font-family="Helvetica,sans-Serif" font-size="8.00">org.glassfish.mq</text>
</g>
<!-- org.glassfish.mq:mq&#45;admin&#45;&gt;org.glassfish.mq:mq -->
<g id="edge26" class="edge">
<title>org.glassfish.mq:mq&#45;admin&#45;&gt;org.glassfish.mq:mq</title>
<path fill="none" stroke="black" d="M311.73,-117.07C297.95,-132.54 279.32,-156.05 269,-180 207.46,-322.78 195.1,-512.46 192.62,-583.52"/>
<polygon fill="black" stroke="black" points="189.11,-583.78 192.3,-593.88 196.11,-583.99 189.11,-583.78"/>
</g>
<!-- org.glassfish.mq:mqadmin&#45;cli -->
<g id="node28" class="node">
<title>org.glassfish.mq:mqadmin&#45;cli</title>
<polygon fill="lightgrey" stroke="black" points="528.5,-90 444.5,-90 444.5,-54 528.5,-54 528.5,-90"/>
<text text-anchor="middle" x="486.5" y="-74.6" font-family="Helvetica,sans-Serif" font-size="8.00">mqadmin&#45;cli</text>
<text text-anchor="middle" x="486.5" y="-65.6" font-family="Helvetica,sans-Serif" font-size="8.00">org.glassfish.mq</text>
</g>
<!-- org.glassfish.mq:mqadmin&#45;cli&#45;&gt;org.glassfish.mq:mq&#45;admin -->
<g id="edge27" class="edge">
<title>org.glassfish.mq:mqadmin&#45;cli&#45;&gt;org.glassfish.mq:mq&#45;admin</title>
<path fill="none" stroke="black" d="M444.1,-79.24C425.06,-82.56 402.28,-86.54 382.18,-90.06"/>
<polygon fill="black" stroke="black" points="381.5,-86.62 372.25,-91.79 382.7,-93.52 381.5,-86.62"/>
</g>
<!-- org.glassfish.mq:mqjmsra&#45;ra -->
<g id="node29" class="node">
<title>org.glassfish.mq:mqjmsra&#45;ra</title>
<polygon fill="lightgrey" stroke="black" points="528.5,-144 444.5,-144 444.5,-108 528.5,-108 528.5,-144"/>
<text text-anchor="middle" x="486.5" y="-128.6" font-family="Helvetica,sans-Serif" font-size="8.00">mqjmsra&#45;ra</text>
<text text-anchor="middle" x="486.5" y="-119.6" font-family="Helvetica,sans-Serif" font-size="8.00">org.glassfish.mq</text>
</g>
<!-- org.glassfish.mq:mqjmsra&#45;ra&#45;&gt;org.glassfish.mq:jmsra -->
<g id="edge28" class="edge">
<title>org.glassfish.mq:mqjmsra&#45;ra&#45;&gt;org.glassfish.mq:jmsra</title>
<path fill="none" stroke="black" d="M444.22,-139.37C437.76,-142.96 431.68,-147.44 427,-153 387.02,-200.51 431.21,-240.68 391,-288 388.05,-291.47 384.56,-294.52 380.78,-297.19"/>
<polygon fill="black" stroke="black" points="378.84,-294.27 372.1,-302.44 382.47,-300.25 378.84,-294.27"/>
</g>
<!-- org.glassfish.mq:mqbridge&#45;jms -->
<g id="node30" class="node">
<title>org.glassfish.mq:mqbridge&#45;jms</title>
<polygon fill="lightgrey" stroke="black" points="528.5,-360 444.5,-360 444.5,-324 528.5,-324 528.5,-360"/>
<text text-anchor="middle" x="486.5" y="-344.6" font-family="Helvetica,sans-Serif" font-size="8.00">mqbridge&#45;jms</text>
<text text-anchor="middle" x="486.5" y="-335.6" font-family="Helvetica,sans-Serif" font-size="8.00">org.glassfish.mq</text>
</g>
<!-- org.glassfish.mq:mqbridge&#45;jms&#45;&gt;org.glassfish.mq:bridge -->
<g id="edge29" class="edge">
<title>org.glassfish.mq:mqbridge&#45;jms&#45;&gt;org.glassfish.mq:bridge</title>
<path fill="none" stroke="black" d="M444.1,-349.24C425.06,-352.56 402.28,-356.54 382.18,-360.06"/>
<polygon fill="black" stroke="black" points="381.5,-356.62 372.25,-361.79 382.7,-363.52 381.5,-356.62"/>
</g>
<!-- org.glassfish.mq:mqbridge&#45;stomp -->
<g id="node31" class="node">
<title>org.glassfish.mq:mqbridge&#45;stomp</title>
<polygon fill="lightgrey" stroke="black" points="528.5,-306 444.5,-306 444.5,-270 528.5,-270 528.5,-306"/>
<text text-anchor="middle" x="486.5" y="-290.6" font-family="Helvetica,sans-Serif" font-size="8.00">mqbridge&#45;stomp</text>
<text text-anchor="middle" x="486.5" y="-281.6" font-family="Helvetica,sans-Serif" font-size="8.00">org.glassfish.mq</text>
</g>
<!-- org.glassfish.mq:mqbridge&#45;stomp&#45;&gt;org.glassfish.mq:bridge -->
<g id="edge30" class="edge">
<title>org.glassfish.mq:mqbridge&#45;stomp&#45;&gt;org.glassfish.mq:bridge</title>
<path fill="none" stroke="black" d="M444.33,-305.66C438.41,-308.58 432.48,-311.73 427,-315 409.82,-325.25 408.22,-331.83 391,-342 387.86,-343.85 384.58,-345.66 381.23,-347.41"/>
<polygon fill="black" stroke="black" points="379.66,-344.28 372.28,-351.88 382.79,-350.54 379.66,-344.28"/>
</g>
<!-- org.glassfish.mq:mqbridge&#45;admin -->
<g id="node32" class="node">
<title>org.glassfish.mq:mqbridge&#45;admin</title>
<polygon fill="lightgrey" stroke="black" points="528.5,-252 444.5,-252 444.5,-216 528.5,-216 528.5,-252"/>
<text text-anchor="middle" x="486.5" y="-236.6" font-family="Helvetica,sans-Serif" font-size="8.00">mqbridge&#45;admin</text>
<text text-anchor="middle" x="486.5" y="-227.6" font-family="Helvetica,sans-Serif" font-size="8.00">org.glassfish.mq</text>
</g>
<!-- org.glassfish.mq:mqbridge&#45;admin&#45;&gt;org.glassfish.mq:bridge -->
<g id="edge31" class="edge">
<title>org.glassfish.mq:mqbridge&#45;admin&#45;&gt;org.glassfish.mq:bridge</title>
<path fill="none" stroke="black" d="M444.32,-248.34C438,-251.8 431.95,-255.98 427,-261 399.34,-289.05 418.79,-314.08 391,-342 388.01,-345.01 384.62,-347.71 381.02,-350.13"/>
<polygon fill="black" stroke="black" points="379.13,-347.18 372.3,-355.29 382.69,-353.21 379.13,-347.18"/>
</g>
<!-- org.glassfish.mq:mq&#45;cluster -->
<g id="node33" class="node">
<title>org.glassfish.mq:mq&#45;cluster</title>
<polygon fill="lightgrey" stroke="black" points="528.5,-630 444.5,-630 444.5,-594 528.5,-594 528.5,-630"/>
<text text-anchor="middle" x="486.5" y="-614.6" font-family="Helvetica,sans-Serif" font-size="8.00">mq&#45;cluster</text>
<text text-anchor="middle" x="486.5" y="-605.6" font-family="Helvetica,sans-Serif" font-size="8.00">org.glassfish.mq</text>
</g>
<!-- org.glassfish.mq:mq&#45;cluster&#45;&gt;org.glassfish.mq:mq&#45;broker -->
<g id="edge32" class="edge">
<title>org.glassfish.mq:mq&#45;cluster&#45;&gt;org.glassfish.mq:mq&#45;broker</title>
<path fill="none" stroke="black" d="M444.1,-597.53C424.97,-590.84 402.08,-582.84 381.9,-575.79"/>
<polygon fill="black" stroke="black" points="382.84,-572.41 372.25,-572.42 380.53,-579.02 382.84,-572.41"/>
</g>
<!-- org.glassfish.mq:mqpersist&#45;file -->
<g id="node34" class="node">
<title>org.glassfish.mq:mqpersist&#45;file</title>
<polygon fill="lightgrey" stroke="black" points="528.5,-576 444.5,-576 444.5,-540 528.5,-540 528.5,-576"/>
<text text-anchor="middle" x="486.5" y="-560.6" font-family="Helvetica,sans-Serif" font-size="8.00">mqpersist&#45;file</text>
<text text-anchor="middle" x="486.5" y="-551.6" font-family="Helvetica,sans-Serif" font-size="8.00">org.glassfish.mq</text>
</g>
<!-- org.glassfish.mq:mqpersist&#45;file&#45;&gt;org.glassfish.mq:mq&#45;broker -->
<g id="edge33" class="edge">
<title>org.glassfish.mq:mqpersist&#45;file&#45;&gt;org.glassfish.mq:mq&#45;broker</title>
<path fill="none" stroke="black" d="M444.1,-558C425.14,-558 402.49,-558 382.46,-558"/>
<polygon fill="black" stroke="black" points="382.25,-554.5 372.25,-558 382.25,-561.5 382.25,-554.5"/>
</g>
<!-- org.glassfish.mq:mqpersist&#45;jdbc -->
<g id="node35" class="node">
<title>org.glassfish.mq:mqpersist&#45;jdbc</title>
<polygon fill="lightgrey" stroke="black" points="528.5,-522 444.5,-522 444.5,-486 528.5,-486 528.5,-522"/>
<text text-anchor="middle" x="486.5" y="-506.6" font-family="Helvetica,sans-Serif" font-size="8.00">mqpersist&#45;jdbc</text>
<text text-anchor="middle" x="486.5" y="-497.6" font-family="Helvetica,sans-Serif" font-size="8.00">org.glassfish.mq</text>
</g>
<!-- org.glassfish.mq:mqpersist&#45;jdbc&#45;&gt;org.glassfish.mq:mq&#45;broker -->
<g id="edge34" class="edge">
<title>org.glassfish.mq:mqpersist&#45;jdbc&#45;&gt;org.glassfish.mq:mq&#45;broker</title>
<path fill="none" stroke="black" d="M444.1,-518.47C424.97,-525.16 402.08,-533.16 381.9,-540.21"/>
<polygon fill="black" stroke="black" points="380.53,-536.98 372.25,-543.58 382.84,-543.59 380.53,-536.98"/>
</g>
<!-- org.glassfish.mq:mq&#45;partition -->
<g id="node36" class="node">
<title>org.glassfish.mq:mq&#45;partition</title>
<polygon fill="wheat" stroke="black" points="528.5,-468 444.5,-468 444.5,-432 528.5,-432 528.5,-468"/>
<text text-anchor="middle" x="486.5" y="-452.6" font-family="Helvetica,sans-Serif" font-size="8.00">mq&#45;partition</text>
<text text-anchor="middle" x="486.5" y="-443.6" font-family="Helvetica,sans-Serif" font-size="8.00">org.glassfish.mq</text>
</g>
<!-- org.glassfish.mq:mq&#45;partition&#45;&gt;org.glassfish.mq:mq&#45;broker -->
<g id="edge35" class="edge">
<title>org.glassfish.mq:mq&#45;partition&#45;&gt;org.glassfish.mq:mq&#45;broker</title>
<path fill="none" stroke="black" d="M444.41,-465.41C438.22,-468.71 432.19,-472.56 427,-477 405.08,-495.75 413.01,-512.36 391,-531 387.95,-533.58 384.61,-535.97 381.12,-538.15"/>
<polygon fill="black" stroke="black" points="379.19,-535.22 372.21,-543.19 382.64,-541.32 379.19,-535.22"/>
</g>
<!-- org.glassfish.mq:mqpartition&#45;persist&#45;api -->
<g id="node37" class="node">
<title>org.glassfish.mq:mqpartition&#45;persist&#45;api</title>
<polygon fill="lightgrey" stroke="black" points="694.5,-495 584.5,-495 584.5,-459 694.5,-459 694.5,-495"/>
<text text-anchor="middle" x="639.5" y="-479.6" font-family="Helvetica,sans-Serif" font-size="8.00">mqpartition&#45;persist&#45;api</text>
<text text-anchor="middle" x="639.5" y="-470.6" font-family="Helvetica,sans-Serif" font-size="8.00">org.glassfish.mq</text>
</g>
<!-- org.glassfish.mq:mqpartition&#45;persist&#45;api&#45;&gt;org.glassfish.mq:mq&#45;partition -->
<g id="edge36" class="edge">
<title>org.glassfish.mq:mqpartition&#45;persist&#45;api&#45;&gt;org.glassfish.mq:mq&#45;partition</title>
<path fill="none" stroke="black" d="M584.41,-467.33C569.56,-464.67 553.5,-461.8 538.81,-459.18"/>
<polygon fill="black" stroke="black" points="539.35,-455.72 528.89,-457.4 538.12,-462.61 539.35,-455.72"/>
</g>
<!-- org.glassfish.mq:mqpartition&#45;persist&#45;jdbc -->
<g id="node38" class="node">
<title>org.glassfish.mq:mqpartition&#45;persist&#45;jdbc</title>
<polygon fill="lightgrey" stroke="black" points="697,-441 582,-441 582,-405 697,-405 697,-441"/>
<text text-anchor="middle" x="639.5" y="-425.6" font-family="Helvetica,sans-Serif" font-size="8.00">mqpartition&#45;persist&#45;jdbc</text>
<text text-anchor="middle" x="639.5" y="-416.6" font-family="Helvetica,sans-Serif" font-size="8.00">org.glassfish.mq</text>
</g>
<!-- org.glassfish.mq:mqpartition&#45;persist&#45;jdbc&#45;&gt;org.glassfish.mq:mq&#45;partition -->
<g id="edge37" class="edge">
<title>org.glassfish.mq:mqpartition&#45;persist&#45;jdbc&#45;&gt;org.glassfish.mq:mq&#45;partition</title>
<path fill="none" stroke="black" d="M581.84,-433.13C567.7,-435.66 552.62,-438.36 538.75,-440.84"/>
<polygon fill="black" stroke="black" points="538.13,-437.39 528.91,-442.6 539.37,-444.28 538.13,-437.39"/>
</g>
<!-- org.glassfish.mq:mqadmin&#45;gui -->
<g id="node39" class="node">
<title>org.glassfish.mq:mqadmin&#45;gui</title>
<polygon fill="lightgrey" stroke="black" points="528.5,-36 444.5,-36 444.5,0 528.5,0 528.5,-36"/>
<text text-anchor="middle" x="486.5" y="-20.6" font-family="Helvetica,sans-Serif" font-size="8.00">mqadmin&#45;gui</text>
<text text-anchor="middle" x="486.5" y="-11.6" font-family="Helvetica,sans-Serif" font-size="8.00">org.glassfish.mq</text>
</g>
<!-- org.glassfish.mq:mqadmin&#45;gui&#45;&gt;org.glassfish.mq:mq&#45;admin -->
<g id="edge38" class="edge">
<title>org.glassfish.mq:mqadmin&#45;gui&#45;&gt;org.glassfish.mq:mq&#45;admin</title>
<path fill="none" stroke="black" d="M444.33,-35.66C438.41,-38.58 432.48,-41.73 427,-45 409.82,-55.25 408.22,-61.83 391,-72 387.86,-73.85 384.58,-75.66 381.23,-77.41"/>
<polygon fill="black" stroke="black" points="379.66,-74.28 372.28,-81.88 382.79,-80.54 379.66,-74.28"/>
</g>
<!-- org.glassfish.mq:mq&#45;packager&#45;opensource -->
<g id="node40" class="node">
<title>org.glassfish.mq:mq&#45;packager&#45;opensource</title>
<polygon fill="lightgrey" stroke="black" points="391,-63 269,-63 269,-27 391,-27 391,-63"/>
<text text-anchor="middle" x="330" y="-47.6" font-family="Helvetica,sans-Serif" font-size="8.00">mq&#45;packager&#45;opensource</text>
<text text-anchor="middle" x="330" y="-38.6" font-family="Helvetica,sans-Serif" font-size="8.00">org.glassfish.mq</text>
</g>
<!-- org.glassfish.mq:mq&#45;packager&#45;opensource&#45;&gt;org.glassfish.mq:mq -->
<g id="edge39" class="edge">
<title>org.glassfish.mq:mq&#45;packager&#45;opensource&#45;&gt;org.glassfish.mq:mq</title>
<path fill="none" stroke="black" d="M277.97,-63.05C274.6,-65.66 271.54,-68.62 269,-72 207.28,-154.07 194.87,-484.63 192.52,-583.76"/>
<polygon fill="black" stroke="black" points="189.02,-583.83 192.3,-593.91 196.02,-583.99 189.02,-583.83"/>
</g>
</g>
</svg>
